<svg width="228" height="248" viewBox="0 0 228 248" fill="none" xmlns="http://www.w3.org/2000/svg">
<g clip-path="url(#clip0)">
<path d="M102.278 7.58169C108.113 5.86932 112.583 6.88645 115.237 11.7918C117.89 16.6972 117.659 29.1602 115.688 39.2799C113.717 49.3997 115.984 56.4809 118.354 63.5879C122.438 75.8578 135.602 78.4972 139.183 90.1877C141.438 97.5393 139.827 100.668 135.035 107.685" stroke="#52261F" stroke-width="0.75" stroke-miterlimit="10"/>
<path d="M81.2814 2.84375C64.1106 3.5905 46.6692 24.2163 51.9377 41.7263C53.8441 48.0479 57.5024 55.2965 54.2048 61.7984C53.0262 63.9803 51.2353 65.7703 49.0523 66.9484C45.7933 68.7895 42.0577 69.2916 39.198 71.8538C35.4271 75.3798 33.1269 80.1987 32.7574 85.3468C31.6496 96.1489 35.939 107.234 40.1899 116.903" stroke="#52261F" stroke-width="0.75" stroke-miterlimit="10"/>
<path d="M62.449 11.2907C57.1492 18.1478 54.1472 26.5005 53.8701 35.1609C53.3033 46.6712 59.4477 49.5552 58.1467 58.0012C55.9955 71.9834 38.0002 71.9577 33.4145 84.9099C28.2619 99.4329 42.2382 123.728 59.8728 133.191C93.609 151.293 141.644 115.578 140.188 96.6519C139.299 85.0644 120.054 83.3263 116.126 64.1812C113.421 50.9328 118.573 30.1268 115.61 18.7711C112.905 8.26507 109.685 5.09783 98.6199 6.05057C98.6199 6.05057 78.1643 -8.82005 62.449 11.2907Z" fill="#52261F"/>
<path d="M69.9845 77.2752C73.9116 75.2106 78.255 74.0606 82.6897 73.9112C87.1244 73.7618 91.5354 74.617 95.5926 76.4126L87.1554 89.0172L69.9845 77.2752Z" fill="#B3B3B3"/>
<path d="M110.393 48.8086C109.89 48.8092 109.397 48.9575 108.976 49.2352C108.556 49.5129 108.226 49.9077 108.028 50.3707C107.83 50.8338 107.772 51.3448 107.861 51.8405C107.951 52.3361 108.184 52.7947 108.531 53.1594C108.879 53.5242 109.326 53.779 109.817 53.8924C110.308 54.0059 110.821 53.9729 111.293 53.7976C111.766 53.6223 112.176 53.3123 112.474 52.9062C112.772 52.5 112.945 52.0154 112.97 51.5123C112.987 51.1635 112.934 50.8148 112.812 50.4873C112.69 50.1599 112.503 49.8606 112.262 49.6077C112.021 49.3548 111.731 49.1535 111.41 49.0162C111.089 48.8788 110.743 48.8082 110.393 48.8086Z" fill="white"/>
<path d="M102.819 44.0444C103.076 46.0026 104.098 47.7794 105.663 48.9858C107.227 50.1923 109.206 50.7302 111.166 50.4819C115.031 49.7867 117.478 45.7697 116.705 41.4694C116.448 39.5113 115.426 37.7345 113.861 36.5281C112.297 35.3216 110.318 34.7836 108.358 35.0319C104.519 35.7916 102.046 39.7957 102.819 44.0444Z" fill="#DE937A"/>
<path d="M83.072 8.53565C111.875 4.3384 111.153 36.3328 111.205 37.1568C112.145 52.4136 106.052 70.0524 99.1351 70.7348C77.0178 72.9364 73.3724 49.1048 73.3724 49.1048C73.0117 47.8173 63.0673 35.1096 62.8226 33.7835C60.607 18.1018 66.2361 10.9819 83.072 8.53565Z" fill="#FAB39B"/>
<path d="M72.87 80.0554L73.0632 43.9281L92.5656 43.2715L93.6991 76.7465C93.7331 77.8272 94.0619 78.8781 94.6499 79.7858C95.2378 80.6934 96.0627 81.4232 97.0354 81.8965C104.507 85.5144 107.34 93.484 116.138 94.3466C116.138 94.3466 79.6584 118.68 48.6401 94.2307C48.6401 94.2307 61.7276 90.5356 70.1649 85.2182C71.0264 84.6675 71.7292 83.9015 72.2036 82.996C72.6781 82.0905 72.9078 81.0768 72.87 80.0554Z" fill="#FAB39B"/>
<path d="M93.493 70.7092C93.493 70.7092 82.531 69.5118 76.6313 60.2676C76.6313 60.2676 83.5615 72.8722 93.609 74.3399L93.493 70.7092Z" fill="#DE937A"/>
<path d="M103.012 11.4964C103.012 11.4964 99.5731 23.8821 72.4707 30.8089C72.4707 30.8089 74.4673 45.2675 74.2226 45.8598C74.2226 45.8598 55.4802 44.6881 59.9758 22.8521C64.4714 1.01615 80.7019 1.62127 92.5398 3.99027C104.378 6.35927 103.012 11.4964 103.012 11.4964Z" fill="#52261F"/>
<path d="M93.4287 55.7347C94.5488 55.7941 95.6704 55.6501 96.7392 55.3099L96.43 54.4472C96.1982 54.5374 90.8009 56.4171 84.8368 50.8809L84.2185 51.5504C86.6778 54.0174 89.9519 55.5049 93.4287 55.7347Z" fill="#38261F"/>
<path d="M89.1907 30.5263C88.0442 29.2388 82.1574 31.7365 81.9127 31.8138C80.0707 32.8566 80.7019 34.0926 80.9595 34.5046C81.2171 34.9166 81.7968 34.3888 83.4714 34.0025C87.0652 33.1528 88.6239 33.6806 89.2808 32.5863C89.4667 32.2709 89.5571 31.9085 89.5411 31.5429C89.5251 31.1773 89.4034 30.8242 89.1907 30.5263Z" fill="#52261F"/>
<path d="M101.299 30.5908C102.098 29.4707 106.825 30.9642 107.044 31.0414C108.641 31.6981 108.603 32.6637 108.435 33.0371C108.268 33.4104 107.74 33.0371 106.323 32.8697C103.309 32.5607 102.111 33.14 101.441 32.3161C101.246 32.0763 101.128 31.7832 101.103 31.4753C101.078 31.1675 101.146 30.8591 101.299 30.5908Z" fill="#52261F"/>
<path d="M97.9628 48.5136C98.6257 48.4373 99.2617 48.208 99.8206 47.8438C100.379 47.4795 100.846 46.9904 101.183 46.415C101.801 45.0502 101.364 43.2348 99.895 41.0332L99.135 41.5482C100.423 43.4408 100.861 44.9858 100.423 46.0416C100.152 46.4738 99.7864 46.8387 99.3534 47.1086C98.9205 47.3785 98.4317 47.5464 97.9242 47.5994L97.9628 48.5136Z" fill="#38261F"/>
<path d="M63.5825 49.7879C64.394 54.1783 68.2585 57.1524 72.2259 56.4314C76.1934 55.7104 78.7568 51.5518 77.9581 47.1614C77.1595 42.771 73.2822 39.7969 69.3147 40.5179C65.3473 41.2389 62.7839 45.3975 63.5825 49.7879Z" fill="#FAB39B"/>
<path d="M69.9072 50.8438C70.4482 49.7623 72.5736 49.4791 73.3465 49.4533H73.8489L73.7072 48.9641C73.5643 48.1859 73.2528 47.4483 72.7943 46.8033C72.3359 46.1583 71.7418 45.6214 71.0536 45.2303C70.5586 45.0203 70.0263 44.9121 69.4886 44.9121C68.9508 44.9121 68.4185 45.0203 67.9235 45.2303L68.2455 45.9642C68.639 45.7988 69.0617 45.7137 69.4886 45.7137C69.9155 45.7137 70.3381 45.7988 70.7316 45.9642C71.2487 46.2588 71.6996 46.6566 72.0564 47.1328C72.4132 47.609 72.6682 48.1535 72.8055 48.7323C71.8523 48.8353 69.8686 49.1958 69.1987 50.4962L69.9072 50.8438Z" fill="#38261F"/>
<path d="M93.8408 26.9974C98.2591 24.4996 100.874 21.4096 101.57 17.8046C101.847 16.1141 101.788 14.3855 101.397 12.7176C101.006 11.0497 100.29 9.47519 99.2896 8.08398L98.5554 8.63761C100.409 11.2513 101.172 14.484 100.681 17.6501C99.9852 20.9847 97.5249 23.8687 93.3513 26.2377L93.8408 26.9974Z" fill="#52261F"/>
<path d="M84.7336 40.078C84.914 41.1981 85.5838 42.0221 86.2408 41.9191C86.8977 41.8161 87.2713 40.8247 87.0909 39.6917C86.9106 38.5587 86.2408 37.7476 85.5838 37.8506C84.9269 37.9536 84.5533 38.9579 84.7336 40.078Z" fill="#38261F"/>
<path d="M103.772 38.9995C103.927 40.0166 104.545 40.7762 105.151 40.6732C105.756 40.5702 106.091 39.669 105.923 38.6519C105.756 37.6347 105.151 36.8751 104.558 36.9781C103.966 37.0811 103.605 37.9695 103.772 38.9995Z" fill="#38261F"/>
<path d="M90.2341 5.66422C85.5065 5.26466 80.7483 5.88824 76.2836 7.49247C67.331 10.7885 62.0368 18.4233 62.552 19.08C63.0673 19.7366 67.2537 16.505 67.9493 17.3418C68.4259 17.9212 66.7514 19.801 67.1121 20.1615C67.769 20.7923 73.7846 15.1917 74.6992 16.0157C75.1114 16.3762 74.1453 17.638 74.5446 18.0242C75.2917 18.7581 79.2334 14.7926 84.9527 12.0502C90.1826 9.47522 94.3175 9.2821 94.2531 8.88297C94.1371 8.13622 80.2768 10.0288 80.1738 9.39797C80.0707 8.7671 84.1283 6.73285 90.2341 5.66422Z" fill="#804430"/>
<path d="M62.0883 71.791C57.386 72.413 52.8735 74.0423 48.8592 76.5676C40.8212 81.7176 37.266 90.2924 37.9229 90.8074C38.5799 91.3224 41.9677 87.2797 42.8178 87.9492C43.4104 88.4127 42.1738 90.6143 42.6117 90.8847C43.3975 91.361 48.0605 84.6016 49.1297 85.2068C49.6063 85.4643 48.9365 86.9191 49.4131 87.2024C50.289 87.756 53.2775 83.0438 58.2883 79.1298C62.8612 75.5634 66.8544 74.4175 66.6999 73.9798C66.4165 73.2845 53.2904 78.0998 53.0585 77.5075C52.8266 76.9153 56.3948 74.1471 62.0883 71.791Z" fill="#804430"/>
<path d="M73.308 52.6438C72.8523 52.6288 72.4024 52.7492 72.0151 52.9897C71.6279 53.2302 71.3206 53.58 71.1323 53.995C70.9439 54.41 70.8828 54.8715 70.9568 55.3212C71.0308 55.7708 71.2365 56.1885 71.5479 56.5213C71.8593 56.8542 72.2625 57.0873 72.7064 57.1911C73.1503 57.295 73.6151 57.265 74.0419 57.105C74.4688 56.9449 74.8386 56.662 75.1046 56.2919C75.3707 55.9218 75.5209 55.4811 75.5365 55.0257C75.5468 54.723 75.4973 54.4213 75.3909 54.1377C75.2844 53.8541 75.1231 53.5943 74.9162 53.3731C74.7092 53.1519 74.4606 52.9736 74.1847 52.8485C73.9087 52.7234 73.6108 52.6538 73.308 52.6438Z" fill="white"/>
<path d="M104.623 208.33C73.0246 208.33 57.8246 193.742 57.8246 193.742C22.4009 242.217 64.9866 344.38 64.9866 344.38C52.35 416.441 83.7934 469.164 83.7934 469.164L99.9982 467.877L97.9629 368.224L104.623 208.33Z" fill="#121D50"/>
<path d="M165.693 352.002C159.832 332.96 152.361 250.972 131.326 203.939L75.4722 210.261C75.4722 210.261 95.1678 287.781 137.045 360.705C137.045 360.705 135.654 382.181 143.28 394.322C165.77 430.127 163.709 444.135 172.031 464.259C175.47 464.954 177.827 471.212 187.179 468.611C187.308 437.556 178.742 394.489 165.693 352.002Z" fill="#121D50"/>
<path d="M37.5365 97.1551L60.8775 84.9109C60.8775 84.9109 90.028 93.4471 106.155 82.3359L125.555 100.271L134.379 141.806L123.494 170.646L137.122 204.61C137.122 204.61 101.995 242.926 40.7568 204.726L60.8775 162.921L37.5365 97.1551Z" fill="#FF6B00"/>
<path d="M106.155 82.3344C106.155 82.3344 124.112 79.4246 140.227 111.458C158.402 147.585 167.419 152.284 167.419 152.284L151.382 162.855L117.027 120.921L106.155 82.3344Z" fill="#FF6B00"/>
<path d="M209.683 134.517C209.683 134.517 134.61 133.912 149.14 160.537C157.243 175.331 220.877 146.568 220.877 146.568L209.683 134.517Z" fill="#F2625D"/>
<path d="M208.124 136.229C208.124 136.229 210.881 154.254 218.803 148.357C226.145 142.898 228.039 140.632 225.991 129.045L208.124 136.229Z" fill="#FAB39B"/>
<path d="M214.333 140.336C213.29 139.191 212.375 138.019 211.422 136.86L210.031 135.122L208.575 133.371C209.896 134.158 211.058 135.184 212.002 136.397C212.967 137.589 213.753 138.916 214.333 140.336Z" fill="#383534"/>
<path d="M25.8272 161.594C25.8272 161.594 23.4957 158.517 17.4543 162.882" stroke="#383534" stroke-width="0.75" stroke-miterlimit="10"/>
<path d="M69.9846 77.2734L86.9236 87.9597L79.1948 92.4531C77.357 93.5228 75.2349 94.0025 73.1154 93.8275C70.9959 93.6525 68.9812 92.8312 67.344 91.4746L58.8938 84.4963L69.9846 77.2734Z" fill="white"/>
<path d="M95.5926 76.4766L86.9235 88.0641L93.3641 90.6391C94.5014 91.0916 95.7189 91.308 96.9426 91.275C98.1662 91.242 99.3703 90.9604 100.481 90.4472C101.593 89.934 102.588 89.2001 103.406 88.2902C104.224 87.3802 104.848 86.3132 105.241 85.1543L106.155 82.4763L95.5926 76.4766Z" fill="white"/>
<path d="M123.494 170.644C123.494 170.644 127.59 157.447 130.991 148.576C134.391 139.705 123.069 112.912 123.069 112.912" stroke="#383534" stroke-width="0.75" stroke-miterlimit="10"/>
<path d="M96.4686 95.6358C96.4448 95.961 96.3249 96.2718 96.1242 96.529C95.9235 96.7861 95.651 96.9779 95.3412 97.0801C95.0314 97.1824 94.6982 97.1904 94.3838 97.1033C94.0694 97.0162 93.7879 96.8378 93.5749 96.5907C93.362 96.3436 93.2272 96.0389 93.1876 95.7152C93.148 95.3916 93.2054 95.0634 93.3524 94.7723C93.4995 94.4812 93.7297 94.2403 94.0138 94.08C94.298 93.9197 94.6233 93.8473 94.9486 93.8719C95.384 93.9048 95.7886 94.109 96.0735 94.4397C96.3585 94.7704 96.5006 95.2005 96.4686 95.6358Z" fill="white"/>
<path d="M99.4314 102.78C99.4075 103.106 99.2876 103.416 99.087 103.673C98.8863 103.931 98.6138 104.122 98.3039 104.225C97.9941 104.327 97.6609 104.335 97.3465 104.248C97.0321 104.161 96.7506 103.982 96.5377 103.735C96.3248 103.488 96.19 103.183 96.1504 102.86C96.1108 102.536 96.1681 102.208 96.3152 101.917C96.4623 101.626 96.6925 101.385 96.9766 101.225C97.2607 101.064 97.5861 100.992 97.9114 101.016C98.3468 101.049 98.7513 101.254 99.0363 101.584C99.3213 101.915 99.4633 102.345 99.4314 102.78Z" fill="white"/>
<path d="M102.394 109.952C102.37 110.277 102.25 110.588 102.05 110.845C101.849 111.102 101.576 111.294 101.267 111.396C100.957 111.499 100.624 111.507 100.309 111.42C99.9947 111.333 99.7133 111.154 99.5004 110.907C99.2874 110.66 99.1526 110.355 99.113 110.032C99.0734 109.708 99.1308 109.38 99.2779 109.089C99.4249 108.798 99.6551 108.557 99.9392 108.396C100.223 108.236 100.549 108.164 100.874 108.188C101.308 108.224 101.711 108.43 101.995 108.76C102.279 109.089 102.423 109.518 102.394 109.952Z" fill="white"/>
<path d="M86.9235 87.9629L97.2414 113.932" stroke="#383534" stroke-width="0.75" stroke-miterlimit="10"/>
<path d="M12.6755 156.74C12.6755 156.74 24.7325 152.749 36.8023 153.74" stroke="#383534" stroke-width="0.75" stroke-miterlimit="10"/>
<path d="M219.144 102H61V193.361H219.144V102Z" fill="white"/>
<path d="M79.4766 156.477C79.4766 156.055 79.6016 155.773 79.8516 155.633C80.1016 155.477 80.4141 155.383 80.7891 155.352C81.1797 155.305 81.5938 155.281 82.0312 155.281C82.4688 155.266 82.875 155.188 83.25 155.047C83.6406 154.906 83.9609 154.672 84.2109 154.344C84.4609 154.016 84.5859 153.508 84.5859 152.82C84.5859 150.867 84.4766 149.227 84.2578 147.898C84.0547 146.57 83.6328 145.516 82.9922 144.734C82.3672 143.953 81.4922 143.422 80.3672 143.141C79.2578 142.859 77.8047 142.789 76.0078 142.93C75.9609 142.914 75.8828 142.859 75.7734 142.766C75.6797 142.672 75.5781 142.57 75.4688 142.461C75.3594 142.352 75.2578 142.25 75.1641 142.156C75.0859 142.047 75.0312 141.969 75 141.922C74.9844 141.891 74.9766 141.859 74.9766 141.828C74.9609 141.781 74.9531 141.727 74.9531 141.664C74.9531 141.633 74.9609 141.594 74.9766 141.547C74.9766 141.516 74.9844 141.484 75 141.453C75.0469 141.406 75.1094 141.352 75.1875 141.289C75.2812 141.227 75.3828 141.172 75.4922 141.125C75.6172 141.062 75.7188 141.016 75.7969 140.984C75.8906 140.938 75.9609 140.914 76.0078 140.914C76.3047 140.898 76.75 140.875 77.3438 140.844C77.9531 140.812 78.6406 140.781 79.4062 140.75C80.1719 140.703 80.9922 140.656 81.8672 140.609C82.7578 140.562 83.6406 140.523 84.5156 140.492C85.4062 140.445 86.25 140.414 87.0469 140.398C87.8594 140.383 88.5859 140.375 89.2266 140.375C89.2266 140.859 89.1328 141.234 88.9453 141.5C88.7578 141.75 88.5234 141.945 88.2422 142.086C87.9766 142.211 87.6797 142.305 87.3516 142.367C87.0391 142.43 86.7422 142.516 86.4609 142.625C86.1953 142.719 85.9688 142.875 85.7812 143.094C85.5938 143.297 85.5 143.602 85.5 144.008C85.5 144.82 85.5781 145.609 85.7344 146.375C85.9062 147.141 86.0938 147.906 86.2969 148.672C86.5 149.422 86.6797 150.18 86.8359 150.945C87.0078 151.711 87.0938 152.484 87.0938 153.266C87.0938 153.969 86.9375 154.609 86.625 155.188C86.3125 155.766 85.8984 156.266 85.3828 156.688C84.8828 157.109 84.3125 157.445 83.6719 157.695C83.0469 157.93 82.4219 158.047 81.7969 158.047C81.5469 158.047 81.2812 158.023 81 157.977C80.7344 157.93 80.4844 157.844 80.25 157.719C80.0312 157.578 79.8438 157.414 79.6875 157.227C79.5469 157.023 79.4766 156.773 79.4766 156.477ZM90.5391 153.242C90.5391 152.273 90.7656 151.375 91.2188 150.547C91.6719 149.703 92.2656 148.984 93 148.391C93.75 147.781 94.5859 147.305 95.5078 146.961C96.4453 146.617 97.3906 146.445 98.3438 146.445C98.875 146.445 99.3438 146.617 99.75 146.961C100.172 147.305 100.523 147.727 100.805 148.227C101.086 148.711 101.297 149.227 101.438 149.773C101.594 150.32 101.672 150.797 101.672 151.203C101.672 152.078 101.461 152.93 101.039 153.758C100.617 154.57 100.07 155.297 99.3984 155.938C98.7266 156.562 97.9688 157.07 97.125 157.461C96.2812 157.852 95.4375 158.047 94.5938 158.047C93.8438 158.047 93.2109 157.922 92.6953 157.672C92.1797 157.406 91.7656 157.062 91.4531 156.641C91.1406 156.203 90.9062 155.695 90.75 155.117C90.6094 154.523 90.5391 153.898 90.5391 153.242ZM92.5312 153.477C92.5312 153.883 92.5625 154.242 92.625 154.555C92.7031 154.852 92.8281 155.109 93 155.328C93.1875 155.547 93.4297 155.719 93.7266 155.844C94.0234 155.953 94.3906 156.008 94.8281 156.008C95.4062 156.008 95.9844 155.852 96.5625 155.539C97.1406 155.211 97.6562 154.805 98.1094 154.32C98.5781 153.82 98.9531 153.273 99.2344 152.68C99.5156 152.086 99.6562 151.508 99.6562 150.945C99.6562 150.695 99.6328 150.422 99.5859 150.125C99.5391 149.828 99.4609 149.555 99.3516 149.305C99.2422 149.055 99.0859 148.844 98.8828 148.672C98.6797 148.5 98.4219 148.414 98.1094 148.414C97.8281 148.414 97.4922 148.508 97.1016 148.695C96.7266 148.883 96.3281 149.125 95.9062 149.422C95.5 149.719 95.0938 150.055 94.6875 150.43C94.2969 150.805 93.9375 151.18 93.6094 151.555C93.2812 151.93 93.0156 152.289 92.8125 152.633C92.625 152.977 92.5312 153.258 92.5312 153.477ZM103.57 149.211C103.57 149.117 103.57 148.969 103.57 148.766C103.586 148.547 103.594 148.32 103.594 148.086C103.609 147.852 103.617 147.625 103.617 147.406C103.633 147.188 103.641 147.031 103.641 146.938C103.812 146.688 104.031 146.484 104.297 146.328C104.578 146.172 104.859 146.047 105.141 145.953C105.188 146.797 105.32 147.695 105.539 148.648C105.758 149.602 105.992 150.562 106.242 151.531C106.492 152.484 106.711 153.43 106.898 154.367C107.102 155.305 107.203 156.18 107.203 156.992C107.203 157.695 106.844 158.047 106.125 158.047C105.688 158.047 105.32 157.867 105.023 157.508C104.727 157.148 104.484 156.695 104.297 156.148C104.125 155.586 103.984 154.969 103.875 154.297C103.766 153.609 103.688 152.938 103.641 152.281C103.609 151.625 103.586 151.023 103.57 150.477C103.57 149.93 103.57 149.508 103.57 149.211ZM103.898 140.422C104.195 140.547 104.445 140.75 104.648 141.031C104.852 141.312 104.938 141.57 104.906 141.805C104.891 142.023 104.719 142.18 104.391 142.273C104.062 142.352 103.516 142.258 102.75 141.992C102.75 141.57 102.828 141.203 102.984 140.891C103.156 140.578 103.461 140.422 103.898 140.422ZM108.117 150.102C108.117 149.695 108.219 149.406 108.422 149.234C108.625 149.047 108.953 148.953 109.406 148.953H109.641C109.688 149.203 109.742 149.492 109.805 149.82C109.867 150.148 109.961 150.484 110.086 150.828C110.211 151.172 110.359 151.492 110.531 151.789C110.703 152.07 110.914 152.297 111.164 152.469C111.18 151.922 111.312 151.398 111.562 150.898C111.828 150.383 112.148 149.93 112.523 149.539C112.914 149.133 113.336 148.797 113.789 148.531C114.258 148.25 114.719 148.062 115.172 147.969H115.688C116.438 147.969 117.078 148.141 117.609 148.484C118.141 148.812 118.578 149.25 118.922 149.797C119.281 150.328 119.555 150.938 119.742 151.625C119.93 152.312 120.07 153.016 120.164 153.734C120.273 154.438 120.336 155.125 120.352 155.797C120.383 156.453 120.398 157.016 120.398 157.484H118.688C118.594 156.547 118.477 155.648 118.336 154.789C118.289 154.445 118.227 154.086 118.148 153.711C118.07 153.32 117.984 152.961 117.891 152.633C117.797 152.289 117.695 151.977 117.586 151.695C117.477 151.398 117.352 151.148 117.211 150.945C117.148 150.883 117.062 150.797 116.953 150.688C116.859 150.578 116.758 150.469 116.648 150.359C116.539 150.25 116.438 150.156 116.344 150.078C116.25 150 116.195 149.961 116.18 149.961C115.711 149.836 115.305 149.93 114.961 150.242C114.617 150.539 114.312 150.945 114.047 151.461C113.781 151.977 113.562 152.562 113.391 153.219C113.234 153.875 113.102 154.508 112.992 155.117C112.883 155.711 112.805 156.234 112.758 156.688C112.711 157.125 112.68 157.391 112.664 157.484C112.273 157.766 111.906 157.852 111.562 157.742C111.219 157.617 110.891 157.367 110.578 156.992C110.281 156.617 110.008 156.148 109.758 155.586C109.523 155.023 109.305 154.43 109.102 153.805C108.898 153.164 108.711 152.523 108.539 151.883C108.383 151.242 108.242 150.648 108.117 150.102ZM132.023 141.055C132.711 141.055 133.281 141.258 133.734 141.664C134.188 142.07 134.57 142.602 134.883 143.258C135.195 143.898 135.453 144.641 135.656 145.484C135.859 146.312 136.055 147.172 136.242 148.062C136.43 148.938 136.617 149.797 136.805 150.641C137.008 151.469 137.258 152.211 137.555 152.867C137.867 153.523 138.234 154.055 138.656 154.461C139.094 154.852 139.648 155.047 140.32 155.047C140.352 155.047 140.391 155.039 140.438 155.023C140.469 155.008 140.508 154.992 140.555 154.977C140.617 154.961 140.711 154.891 140.836 154.766C140.961 154.625 141.039 154.531 141.07 154.484C141.102 154.406 141.164 154.148 141.258 153.711C141.352 153.273 141.477 152.719 141.633 152.047C141.805 151.375 141.992 150.617 142.195 149.773C142.398 148.93 142.609 148.078 142.828 147.219C143.062 146.344 143.297 145.5 143.531 144.688C143.766 143.859 143.992 143.125 144.211 142.484C144.43 141.844 144.633 141.336 144.82 140.961C145.023 140.57 145.195 140.375 145.336 140.375C145.523 140.375 145.672 140.414 145.781 140.492C145.891 140.57 145.969 140.672 146.016 140.797C146.062 140.922 146.094 141.062 146.109 141.219C146.125 141.359 146.133 141.5 146.133 141.641C146.133 141.875 146.086 142.289 145.992 142.883C145.914 143.477 145.797 144.18 145.641 144.992C145.5 145.789 145.32 146.664 145.102 147.617C144.898 148.57 144.672 149.539 144.422 150.523C144.172 151.492 143.898 152.43 143.602 153.336C143.305 154.227 143 155.023 142.688 155.727C142.391 156.414 142.078 156.969 141.75 157.391C141.438 157.797 141.125 158 140.812 158C140.391 158 139.984 157.883 139.594 157.648C139.203 157.414 138.836 157.109 138.492 156.734C138.148 156.359 137.82 155.938 137.508 155.469C137.211 154.984 136.938 154.5 136.688 154.016C136.453 153.531 136.234 153.07 136.031 152.633C135.828 152.195 135.664 151.812 135.539 151.484C135.367 151.062 135.156 150.555 134.906 149.961C134.672 149.352 134.422 148.719 134.156 148.062C133.906 147.406 133.648 146.75 133.383 146.094C133.133 145.422 132.906 144.828 132.703 144.312C132.5 143.781 132.336 143.344 132.211 143C132.086 142.656 132.023 142.469 132.023 142.438V141.055ZM148.547 149.211C148.547 149.117 148.547 148.969 148.547 148.766C148.562 148.547 148.57 148.32 148.57 148.086C148.586 147.852 148.594 147.625 148.594 147.406C148.609 147.188 148.617 147.031 148.617 146.938C148.789 146.688 149.008 146.484 149.273 146.328C149.555 146.172 149.836 146.047 150.117 145.953C150.164 146.797 150.297 147.695 150.516 148.648C150.734 149.602 150.969 150.562 151.219 151.531C151.469 152.484 151.688 153.43 151.875 154.367C152.078 155.305 152.18 156.18 152.18 156.992C152.18 157.695 151.82 158.047 151.102 158.047C150.664 158.047 150.297 157.867 150 157.508C149.703 157.148 149.461 156.695 149.273 156.148C149.102 155.586 148.961 154.969 148.852 154.297C148.742 153.609 148.664 152.938 148.617 152.281C148.586 151.625 148.562 151.023 148.547 150.477C148.547 149.93 148.547 149.508 148.547 149.211ZM148.875 140.422C149.172 140.547 149.422 140.75 149.625 141.031C149.828 141.312 149.914 141.57 149.883 141.805C149.867 142.023 149.695 142.18 149.367 142.273C149.039 142.352 148.492 142.258 147.727 141.992C147.727 141.57 147.805 141.203 147.961 140.891C148.133 140.578 148.438 140.422 148.875 140.422ZM153.094 150.102C153.094 149.695 153.195 149.406 153.398 149.234C153.602 149.047 153.93 148.953 154.383 148.953H154.617C154.664 149.203 154.719 149.492 154.781 149.82C154.844 150.148 154.938 150.484 155.062 150.828C155.188 151.172 155.336 151.492 155.508 151.789C155.68 152.07 155.891 152.297 156.141 152.469C156.156 151.922 156.289 151.398 156.539 150.898C156.805 150.383 157.125 149.93 157.5 149.539C157.891 149.133 158.312 148.797 158.766 148.531C159.234 148.25 159.695 148.062 160.148 147.969H160.664C161.414 147.969 162.055 148.141 162.586 148.484C163.117 148.812 163.555 149.25 163.898 149.797C164.258 150.328 164.531 150.938 164.719 151.625C164.906 152.312 165.047 153.016 165.141 153.734C165.25 154.438 165.312 155.125 165.328 155.797C165.359 156.453 165.375 157.016 165.375 157.484H163.664C163.57 156.547 163.453 155.648 163.312 154.789C163.266 154.445 163.203 154.086 163.125 153.711C163.047 153.32 162.961 152.961 162.867 152.633C162.773 152.289 162.672 151.977 162.562 151.695C162.453 151.398 162.328 151.148 162.188 150.945C162.125 150.883 162.039 150.797 161.93 150.688C161.836 150.578 161.734 150.469 161.625 150.359C161.516 150.25 161.414 150.156 161.32 150.078C161.227 150 161.172 149.961 161.156 149.961C160.688 149.836 160.281 149.93 159.938 150.242C159.594 150.539 159.289 150.945 159.023 151.461C158.758 151.977 158.539 152.562 158.367 153.219C158.211 153.875 158.078 154.508 157.969 155.117C157.859 155.711 157.781 156.234 157.734 156.688C157.688 157.125 157.656 157.391 157.641 157.484C157.25 157.766 156.883 157.852 156.539 157.742C156.195 157.617 155.867 157.367 155.555 156.992C155.258 156.617 154.984 156.148 154.734 155.586C154.5 155.023 154.281 154.43 154.078 153.805C153.875 153.164 153.688 152.523 153.516 151.883C153.359 151.242 153.219 150.648 153.094 150.102ZM166.266 145.883C166.266 145.742 166.266 145.602 166.266 145.461C166.281 145.305 166.312 145.164 166.359 145.039C166.422 144.898 166.5 144.797 166.594 144.734C166.703 144.656 166.859 144.617 167.062 144.617C167.078 144.617 167.094 144.617 167.109 144.617C167.141 144.617 167.172 144.617 167.203 144.617C167.25 144.633 167.289 144.641 167.32 144.641C167.617 145.047 167.875 145.57 168.094 146.211C168.312 146.836 168.523 147.508 168.727 148.227C168.93 148.93 169.148 149.648 169.383 150.383C169.617 151.102 169.922 151.75 170.297 152.328C170.672 152.906 171.133 153.367 171.68 153.711C172.227 154.055 172.906 154.203 173.719 154.156C174.078 154.156 174.312 153.961 174.422 153.57C174.531 153.18 174.586 152.68 174.586 152.07C174.602 151.461 174.586 150.789 174.539 150.055C174.508 149.32 174.508 148.625 174.539 147.969C174.586 147.297 174.703 146.711 174.891 146.211C175.094 145.711 175.438 145.375 175.922 145.203C176.125 145.609 176.289 146.25 176.414 147.125C176.555 147.984 176.656 148.984 176.719 150.125C176.781 151.25 176.812 152.477 176.812 153.805C176.812 155.117 176.781 156.43 176.719 157.742C176.656 159.039 176.562 160.289 176.438 161.492C176.312 162.695 176.172 163.75 176.016 164.656C175.859 165.562 175.672 166.273 175.453 166.789C175.25 167.32 175.031 167.547 174.797 167.469C174.469 167.156 174.211 166.75 174.023 166.25C173.852 165.75 173.727 165.195 173.648 164.586C173.586 163.977 173.562 163.328 173.578 162.641C173.594 161.969 173.617 161.289 173.648 160.602C173.695 159.914 173.742 159.242 173.789 158.586C173.852 157.93 173.883 157.328 173.883 156.781C173.32 156.828 172.742 156.742 172.148 156.523C171.57 156.305 171 155.969 170.438 155.516C169.875 155.047 169.336 154.484 168.82 153.828C168.32 153.172 167.875 152.43 167.484 151.602C167.109 150.773 166.812 149.883 166.594 148.93C166.375 147.961 166.266 146.945 166.266 145.883ZM188.297 154.977C187.703 155.383 187.188 155.75 186.75 156.078C186.328 156.391 185.914 156.656 185.508 156.875C185.102 157.094 184.664 157.258 184.195 157.367C183.742 157.477 183.18 157.531 182.508 157.531C181.055 157.531 179.977 157.148 179.273 156.383C178.57 155.602 178.219 154.445 178.219 152.914C178.219 152.32 178.297 151.703 178.453 151.062C178.609 150.422 178.836 149.789 179.133 149.164C179.445 148.523 179.812 147.922 180.234 147.359C180.656 146.781 181.133 146.273 181.664 145.836C182.195 145.398 182.758 145.055 183.352 144.805C183.961 144.539 184.602 144.406 185.273 144.406C186.398 144.516 187.281 144.797 187.922 145.25C188.562 145.688 189.047 146.258 189.375 146.961C189.703 147.648 189.93 148.422 190.055 149.281C190.18 150.125 190.273 151 190.336 151.906C190.414 152.812 190.508 153.719 190.617 154.625C190.727 155.531 190.953 156.367 191.297 157.133C191.094 157.648 190.898 158.008 190.711 158.211C190.539 158.43 190.344 158.469 190.125 158.328C189.906 158.188 189.648 157.844 189.352 157.297C189.07 156.75 188.719 155.977 188.297 154.977ZM180.211 152.961C180.211 153.852 180.375 154.508 180.703 154.93C181.047 155.336 181.648 155.539 182.508 155.539C183.148 155.539 183.758 155.43 184.336 155.211C184.93 154.977 185.445 154.664 185.883 154.273C186.32 153.867 186.672 153.383 186.938 152.82C187.203 152.258 187.336 151.633 187.336 150.945C187.336 150.664 187.344 150.273 187.359 149.773C187.375 149.258 187.344 148.75 187.266 148.25C187.188 147.75 187.039 147.32 186.82 146.961C186.602 146.586 186.273 146.398 185.836 146.398C185.023 146.398 184.273 146.609 183.586 147.031C182.898 147.438 182.305 147.961 181.805 148.602C181.305 149.242 180.914 149.953 180.633 150.734C180.352 151.5 180.211 152.242 180.211 152.961ZM197.273 156.945C197.523 156.773 197.82 156.555 198.164 156.289C198.523 156.008 198.883 155.711 199.242 155.398C199.602 155.086 199.938 154.758 200.25 154.414C200.562 154.07 200.805 153.742 200.977 153.43C201.164 153.102 201.258 152.797 201.258 152.516C201.258 152.234 201.117 152 200.836 151.812C200.336 151.812 199.789 151.836 199.195 151.883C198.602 151.914 198.008 151.93 197.414 151.93C196.82 151.914 196.242 151.859 195.68 151.766C195.133 151.672 194.641 151.5 194.203 151.25C193.766 151 193.414 150.648 193.148 150.195C192.898 149.727 192.773 149.133 192.773 148.414C192.773 147.57 192.93 146.812 193.242 146.141C193.57 145.453 194 144.852 194.531 144.336C195.062 143.805 195.656 143.344 196.312 142.953C196.984 142.547 197.656 142.203 198.328 141.922C198.734 142.031 199.109 142.227 199.453 142.508C199.797 142.789 200.094 143.102 200.344 143.445C200.234 143.789 200.016 144.055 199.688 144.242C199.375 144.43 199.008 144.594 198.586 144.734C198.18 144.875 197.75 145.023 197.297 145.18C196.844 145.336 196.43 145.547 196.055 145.812C195.695 146.062 195.391 146.398 195.141 146.82C194.891 147.227 194.766 147.766 194.766 148.438C194.766 148.938 194.891 149.305 195.141 149.539C195.391 149.773 195.719 149.938 196.125 150.031C196.531 150.109 196.992 150.141 197.508 150.125C198.023 150.094 198.547 150.055 199.078 150.008C199.625 149.961 200.156 149.938 200.672 149.938C201.188 149.922 201.648 149.984 202.055 150.125C202.461 150.25 202.781 150.461 203.016 150.758C203.266 151.055 203.391 151.492 203.391 152.07C203.391 152.32 203.305 152.641 203.133 153.031C202.977 153.422 202.758 153.844 202.477 154.297C202.211 154.734 201.891 155.172 201.516 155.609C201.156 156.047 200.773 156.445 200.367 156.805C199.977 157.148 199.578 157.438 199.172 157.672C198.781 157.891 198.414 158 198.07 158C197.742 158 197.523 157.883 197.414 157.648C197.32 157.414 197.273 157.18 197.273 156.945Z" fill="#FF6B00"/>
<path d="M37.5363 97.1543C35.2434 98.5963 32.9763 100.399 32.036 102.935C25.8658 119.673 2.6665 162.881 2.6665 162.881L25.2089 171.198L52.2597 130.436C52.2597 130.436 62.9384 104.068 37.5363 97.1543Z" fill="#FF6B00"/>
<path d="M11.9669 151.744C11.9669 151.744 35.849 153.65 47.893 152.002L42.573 167.374C42.573 167.374 47.571 168.482 39.1981 172.846C24.4232 180.571 6.40218 183.069 1.4171 175.499C-4.65002 166.344 11.9669 151.744 11.9669 151.744Z" fill="#FF6B00"/>
<path d="M51.796 172.743C51.1391 172.885 43.2943 171.777 42.4828 170.786C41.4265 169.499 32.4869 156.739 47.893 151.1C52.5432 149.388 62.5262 151.1 63.6726 151.396C69.4048 152.684 66.5838 155.787 66.5838 155.787C66.5838 155.787 72.1615 155.864 72.1486 158.362C72.1486 161.452 65.4245 161.053 65.4245 161.053C65.4245 161.053 70.4869 161.271 69.9072 164.014C69.4306 166.28 63.5696 166.293 63.1059 166.589C63.1059 166.589 65.8625 168.584 62.1913 170.644C59.3187 172.241 54.0503 172.241 51.796 172.743Z" fill="#FAB39B"/>
<path d="M52.9813 155.322L66.5711 155.786" stroke="#383534" stroke-width="0.75" stroke-miterlimit="10"/>
<path d="M65.4116 161.04L52.5818 160.486" stroke="#383534" stroke-width="0.75" stroke-miterlimit="10"/>
<path d="M63.1061 166.551H52.9813" stroke="#383534" stroke-width="0.75" stroke-miterlimit="10"/>
<path d="M47.9832 135.806L55.8537 123.896" stroke="#383534" stroke-width="0.75" stroke-miterlimit="10"/>
<path d="M218.236 140.505C218.803 140.505 223.994 141.277 224.432 140.904C229.366 136.617 225.913 129.317 225.72 128.196C224.574 122.519 224.149 120.471 217.193 120.356C214.506 120.313 211.851 120.937 209.464 122.171C205.174 124.656 208.614 126.922 208.614 126.922C208.614 126.922 206.269 128.081 207.004 130.244C207.905 132.947 210.288 130.874 210.288 130.874C210.288 130.874 207.21 131.364 206.746 133.668C206.347 135.638 208.485 136.153 208.936 136.243C208.936 136.243 204.672 138.02 207.931 139.938C211.19 141.857 216.252 140.621 218.236 140.505Z" fill="#FAB39B"/>
<path d="M208.627 126.921L214.191 124.784C214.636 124.618 215.108 124.535 215.583 124.539H219.164" stroke="#383534" stroke-width="0.75" stroke-linejoin="round"/>
<path d="M208.176 131.646L214.784 130.101C215.206 130.001 215.641 129.975 216.072 130.024L220.465 130.565" stroke="#383534" stroke-width="0.75" stroke-linejoin="round"/>
<path d="M208.949 136.268L214.887 135.186C215.284 135.128 215.688 135.128 216.085 135.186L220.542 135.804" stroke="#383534" stroke-width="0.75" stroke-linejoin="round"/>
<path d="M37.5365 152.631C29.9873 151.27 22.2001 152.376 15.3291 155.785" stroke="#383534" stroke-width="0.75" stroke-miterlimit="10"/>
</g>
<defs>
<clipPath id="clip0">
<rect width="228" height="248" fill="white"/>
</clipPath>
</defs>
</svg>
