<svg width="466" height="324" viewBox="0 0 466 324" fill="none" xmlns="http://www.w3.org/2000/svg">
<g clip-path="url(#clip0)">
<path d="M391.195 102.139C392.999 100.069 395.071 98.2495 397.356 96.7289L396.562 89.1483L408.469 85.1016L412.445 91.5862C415.184 91.3944 417.936 91.5716 420.628 92.1131L425.405 86.2116L436.686 91.7689L434.916 99.1598C436.986 100.966 438.805 103.04 440.325 105.328L447.883 104.534L451.929 116.443L445.446 120.419C445.635 123.157 445.456 125.907 444.912 128.597L450.82 133.41L445.263 144.693L437.873 142.922C436.067 144.99 433.993 146.807 431.706 148.325L432.5 155.892L420.558 159.938L416.61 153.447C413.873 153.632 411.123 153.453 408.434 152.913L403.65 158.821L392.368 153.257L394.132 145.866C392.064 144.063 390.247 141.99 388.73 139.705L381.164 140.498L377.125 128.555L383.602 124.578C383.416 121.839 383.595 119.086 384.136 116.394L378.242 111.63L383.806 100.389L391.195 102.16V102.139ZM402.688 116.049C401.509 118.443 401.066 121.132 401.416 123.777C401.765 126.421 402.891 128.903 404.651 130.908C406.411 132.913 408.725 134.351 411.302 135.04C413.879 135.73 416.602 135.639 419.128 134.781C421.653 133.922 423.867 132.334 425.49 130.216C427.113 128.099 428.072 125.548 428.245 122.886C428.419 120.224 427.799 117.57 426.464 115.26C425.13 112.95 423.14 111.088 420.748 109.909C419.159 109.126 417.431 108.664 415.663 108.549C413.896 108.433 412.123 108.668 410.446 109.238C408.769 109.808 407.22 110.703 405.889 111.872C404.558 113.041 403.47 114.46 402.688 116.049Z" fill="#CED3D6"/>
<path d="M426.979 42.3718C428.045 41.1513 429.268 40.0786 430.618 39.1822L430.154 34.7139L437.179 32.3252L439.525 36.1541C441.143 36.0424 442.768 36.1487 444.358 36.4703L447.168 32.9575L453.841 36.2666L452.794 40.6295C454.016 41.6935 455.089 42.9176 455.983 44.2687L460.451 43.798L462.832 50.8236L459.011 53.1702C459.122 54.7859 459.016 56.4094 458.695 57.9968L462.207 60.807L458.927 67.4673L454.543 66.4415C453.478 67.6639 452.254 68.7389 450.905 69.6382L451.375 74.0995L444.351 76.4882L442.005 72.6592C440.389 72.7731 438.766 72.6691 437.179 72.3501L434.369 75.8629L427.71 72.5819L428.756 68.219C427.524 67.147 426.44 65.9161 425.532 64.5587L421.071 65.0224L418.683 57.9968L422.511 55.6502C422.397 54.0324 422.501 52.4067 422.821 50.8166L419.308 48.0064L422.589 41.3461L426.951 42.3929L426.979 42.3718ZM433.765 50.5847C433.062 51.9961 432.794 53.5842 432.994 55.148C433.195 56.7118 433.854 58.181 434.89 59.3696C435.926 60.5582 437.291 61.4128 438.812 61.8252C440.333 62.2376 441.943 62.1893 443.437 61.6863C444.931 61.1833 446.242 60.2483 447.205 58.9996C448.167 57.751 448.737 56.2448 448.843 54.6718C448.95 53.0988 448.587 51.5297 447.801 50.1631C447.015 48.7964 445.841 47.6938 444.428 46.9947C442.538 46.0573 440.353 45.9089 438.353 46.5821C436.354 47.2553 434.703 48.695 433.765 50.5847Z" fill="#CED3D6"/>
<path d="M372.504 239.581H354.998C350.428 239.581 346.724 243.286 346.724 247.857V265.365C346.724 269.936 350.428 273.641 354.998 273.641H372.504C377.074 273.641 380.778 269.936 380.778 265.365V247.857C380.778 243.286 377.074 239.581 372.504 239.581Z" fill="#CED3D6"/>
<path d="M370.108 253.146H358.181V254.516H370.108V253.146Z" fill="white"/>
<path d="M370.108 256.168H358.181V257.538H370.108V256.168Z" fill="white"/>
<path d="M370.108 259.189H358.181V260.559H370.108V259.189Z" fill="white"/>
<path d="M326.416 268.962H170.05C168.2 268.962 166.426 268.227 165.118 266.918C163.809 265.61 163.075 263.835 163.075 261.985C163.076 260.136 163.812 258.362 165.12 257.054C166.427 255.746 168.201 255.011 170.05 255.009H326.416C328.265 255.011 330.038 255.746 331.346 257.054C332.654 258.362 333.389 260.136 333.391 261.985C333.391 263.835 332.656 265.61 331.348 266.918C330.04 268.227 328.266 268.962 326.416 268.962Z" fill="#CED3D6"/>
<path d="M186.353 267.803L175.374 312.802H178.725L195.851 268.962L186.353 267.803Z" fill="#CED3D6"/>
<path d="M309.943 267.803L320.923 312.802H317.572L300.453 268.962L309.943 267.803Z" fill="#CED3D6"/>
<path d="M9.89059 126.96C11.1629 125.505 12.6227 124.224 14.2317 123.152L13.6768 117.827L22.1062 114.975L24.916 119.541C26.8464 119.406 28.7862 119.531 30.6832 119.914L34.055 115.754L42.0067 119.675L40.7564 124.881C42.2177 126.152 43.5007 127.615 44.5707 129.23L49.8953 128.668L52.7402 137.063L48.1743 139.873C48.3089 141.804 48.1836 143.744 47.802 145.641L51.9605 149.007L48.0408 156.96L42.8356 155.716C41.5625 157.174 40.1001 158.454 38.4874 159.524L39.0494 164.856L30.62 167.702L27.8102 163.135C25.8798 163.27 23.9401 163.145 22.043 162.763L18.6712 166.922L10.7265 163.002L11.9979 157.789C10.5424 156.516 9.26215 155.056 8.19065 153.447L2.85904 154.002L0.00708008 145.606L4.58004 142.796C4.44521 140.868 4.57044 138.93 4.95235 137.035L0.758704 133.67L4.67136 125.717L9.89059 126.96ZM17.9899 136.796C17.1583 138.484 16.8457 140.38 17.0918 142.245C17.3378 144.111 18.1313 145.861 19.372 147.275C20.6128 148.69 22.2449 149.704 24.0621 150.191C25.8793 150.677 27.7999 150.614 29.5811 150.008C31.3622 149.403 32.9239 148.283 34.0687 146.79C35.2134 145.297 35.8898 143.498 36.0123 141.621C36.1348 139.743 35.6979 137.872 34.7568 136.243C33.8157 134.613 32.4128 133.3 30.7253 132.468C28.4686 131.356 25.863 131.184 23.4796 131.99C21.0962 132.796 19.1296 134.514 18.0109 136.768L17.9899 136.796Z" fill="#F5F5F5"/>
<path d="M449.626 314.403C449.626 314.502 354.317 314.586 236.783 314.586C119.248 314.586 23.9395 314.502 23.9395 314.403C23.9395 314.305 119.227 314.221 236.783 314.221C354.338 314.221 449.626 314.305 449.626 314.403Z" fill="#263238"/>
<path d="M398.34 24.5264H107.623V224.96H398.34V24.5264Z" fill="white"/>
<path d="M346.249 169.25L273.483 167.568" stroke="#FF6B00" stroke-miterlimit="10"/>
<path d="M249.638 134.301C242.63 143.92 244.744 157.402 254.359 164.415C263.974 171.427 277.449 169.315 284.457 159.696C291.465 150.077 289.351 136.594 279.736 129.582C270.121 122.569 256.645 124.682 249.638 134.301Z" stroke="#FF6B00" stroke-miterlimit="10"/>
<path d="M258.19 156.398L260.81 158.308L261.959 156.732C263.556 157.57 265.335 158 267.138 157.986L267.444 159.914L270.645 159.412L270.339 157.484C272.061 156.949 273.624 155.995 274.886 154.706L276.466 155.858L278.375 153.237L276.796 152.085C277.637 150.488 278.067 148.707 278.048 146.903L279.978 146.6L279.476 143.398L277.546 143.7C277.012 141.978 276.059 140.415 274.772 139.153L275.923 137.573L273.303 135.662L272.152 137.243C270.556 136.401 268.776 135.97 266.972 135.989L266.67 134.057L263.469 134.559L263.772 136.491C262.049 137.025 260.486 137.98 259.224 139.269L257.645 138.117L255.738 140.734L257.314 141.883C256.477 143.481 256.047 145.261 256.062 147.065L254.135 147.371L254.637 150.573L256.564 150.267C257.101 151.99 258.054 153.555 259.339 154.822L258.19 156.398Z" stroke="#FF6B00" stroke-miterlimit="10"/>
<path d="M263.221 125.792L343.612 114.759" stroke="#FF6B00" stroke-miterlimit="10"/>
<path d="M324.331 125.834C315.448 138.027 318.128 155.116 330.315 164.005C342.503 172.894 359.584 170.216 368.467 158.024C377.349 145.831 374.67 128.741 362.482 119.852C350.294 110.963 333.213 113.642 324.331 125.834Z" stroke="#FF6B00" stroke-miterlimit="10"/>
<path d="M338.984 151.592C344.317 155.69 351.96 154.686 356.055 149.351C360.149 144.016 359.145 136.369 353.812 132.272C348.479 128.174 340.836 129.178 336.741 134.513C332.647 139.848 333.651 147.495 338.984 151.592Z" stroke="#FF6B00" stroke-miterlimit="10"/>
<path d="M333.834 157.068L335.809 158.509L337.289 156.986C338.418 157.671 339.622 158.226 340.876 158.64L340.686 160.758L343.06 161.319L343.845 159.348C345.089 159.529 346.348 159.575 347.601 159.485L348.225 161.521L350.636 161.139L350.62 159.02C351.901 158.7 353.143 158.24 354.323 157.649L355.679 159.288L357.76 158.002L356.897 156.071C357.902 155.323 358.822 154.467 359.641 153.519L361.519 154.511L362.958 152.536L361.436 151.055C362.124 149.928 362.68 148.724 363.092 147.469L365.205 147.657L365.765 145.282L363.796 144.496C363.974 143.251 364.02 141.992 363.932 140.738L365.962 140.111L365.585 137.702L363.46 137.726C363.141 136.444 362.681 135.202 362.089 134.02L363.727 132.665L362.442 130.583L360.512 131.446C359.764 130.44 358.909 129.519 357.961 128.7L358.957 126.824L356.94 125.353L355.455 126.873C354.327 126.187 353.124 125.631 351.871 125.215L352.087 123.089L349.708 122.525L348.923 124.496C347.68 124.318 346.423 124.273 345.171 124.361L344.544 122.33L342.132 122.704L342.161 124.833C340.879 125.151 339.637 125.611 338.457 126.204L337.098 124.562L335.021 125.851L335.88 127.779C334.877 128.529 333.957 129.384 333.136 130.331L331.261 129.334L329.822 131.31L331.341 132.795C330.657 133.925 330.102 135.129 329.689 136.384L327.575 136.188L327.016 138.571L328.985 139.358C328.808 140.602 328.762 141.861 328.849 143.115L326.817 143.735L327.196 146.151L329.324 146.122C329.638 147.404 330.097 148.646 330.69 149.825L329.05 151.185L330.338 153.263L332.264 152.404C333.013 153.409 333.869 154.329 334.816 155.15L333.834 157.068Z" stroke="#FF6B00" stroke-miterlimit="10"/>
<path d="M125.244 72.124C125.76 72.124 126.188 72.2764 126.528 72.5811C126.867 72.8857 127.155 73.2842 127.389 73.7764C127.623 74.2568 127.817 74.8135 127.969 75.4463C128.121 76.0674 128.268 76.7119 128.408 77.3799C128.549 78.0361 128.69 78.6807 128.83 79.3135C128.983 79.9346 129.17 80.4912 129.393 80.9834C129.627 81.4756 129.903 81.874 130.219 82.1787C130.547 82.4717 130.963 82.6182 131.467 82.6182C131.49 82.6182 131.52 82.6123 131.555 82.6006C131.578 82.5889 131.608 82.5771 131.643 82.5654C131.69 82.5537 131.76 82.501 131.854 82.4072C131.948 82.3018 132.006 82.2314 132.03 82.1963C132.053 82.1377 132.1 81.9443 132.17 81.6162C132.24 81.2881 132.334 80.8721 132.451 80.3682C132.58 79.8643 132.721 79.2959 132.873 78.6631C133.026 78.0303 133.184 77.3916 133.348 76.7471C133.524 76.0908 133.699 75.458 133.875 74.8486C134.051 74.2275 134.221 73.6768 134.385 73.1963C134.549 72.7158 134.701 72.335 134.842 72.0537C134.994 71.7607 135.123 71.6143 135.229 71.6143C135.369 71.6143 135.481 71.6436 135.563 71.7021C135.645 71.7607 135.703 71.8369 135.739 71.9307C135.774 72.0244 135.797 72.1299 135.809 72.2471C135.821 72.3525 135.826 72.458 135.826 72.5635C135.826 72.7393 135.791 73.0498 135.721 73.4951C135.662 73.9404 135.574 74.4678 135.457 75.0771C135.352 75.6748 135.217 76.3311 135.053 77.0459C134.901 77.7607 134.731 78.4873 134.543 79.2256C134.356 79.9521 134.151 80.6553 133.928 81.335C133.705 82.0029 133.477 82.6006 133.242 83.1279C133.02 83.6436 132.785 84.0596 132.539 84.376C132.305 84.6807 132.071 84.833 131.836 84.833C131.52 84.833 131.215 84.7451 130.922 84.5693C130.629 84.3936 130.354 84.165 130.096 83.8838C129.838 83.6025 129.592 83.2861 129.358 82.9346C129.135 82.5713 128.93 82.208 128.742 81.8447C128.567 81.4814 128.403 81.1357 128.25 80.8076C128.098 80.4795 127.975 80.1924 127.881 79.9463C127.752 79.6299 127.594 79.249 127.406 78.8037C127.231 78.3467 127.043 77.8721 126.844 77.3799C126.656 76.8877 126.463 76.3955 126.264 75.9033C126.076 75.3994 125.906 74.9541 125.754 74.5674C125.602 74.1689 125.479 73.8408 125.385 73.583C125.291 73.3252 125.244 73.1846 125.244 73.1611V72.124ZM137.637 78.2412C137.637 78.1709 137.637 78.0596 137.637 77.9072C137.649 77.7432 137.655 77.5732 137.655 77.3975C137.666 77.2217 137.672 77.0518 137.672 76.8877C137.684 76.7236 137.69 76.6064 137.69 76.5361C137.819 76.3486 137.983 76.1963 138.182 76.0791C138.393 75.9619 138.604 75.8682 138.815 75.7979C138.85 76.4307 138.949 77.1045 139.114 77.8193C139.278 78.5342 139.453 79.2549 139.641 79.9814C139.828 80.6963 139.992 81.4053 140.133 82.1084C140.285 82.8115 140.362 83.4678 140.362 84.0771C140.362 84.6045 140.092 84.8682 139.553 84.8682C139.225 84.8682 138.949 84.7334 138.727 84.4639C138.504 84.1943 138.323 83.8545 138.182 83.4443C138.053 83.0225 137.948 82.5596 137.865 82.0557C137.783 81.54 137.725 81.0361 137.69 80.5439C137.666 80.0518 137.649 79.6006 137.637 79.1904C137.637 78.7803 137.637 78.4639 137.637 78.2412ZM137.883 71.6494C138.106 71.7432 138.293 71.8955 138.446 72.1064C138.598 72.3174 138.662 72.5107 138.639 72.6865C138.627 72.8506 138.498 72.9678 138.252 73.0381C138.006 73.0967 137.596 73.0264 137.022 72.8271C137.022 72.5107 137.08 72.2354 137.198 72.001C137.326 71.7666 137.555 71.6494 137.883 71.6494ZM141.047 78.9092C141.047 78.6045 141.123 78.3877 141.276 78.2588C141.428 78.1182 141.674 78.0479 142.014 78.0479H142.19C142.225 78.2354 142.266 78.4521 142.313 78.6982C142.36 78.9443 142.43 79.1963 142.524 79.4541C142.617 79.7119 142.729 79.9521 142.858 80.1748C142.987 80.3857 143.145 80.5557 143.332 80.6846C143.344 80.2744 143.444 79.8818 143.631 79.5068C143.83 79.1201 144.071 78.7803 144.352 78.4873C144.645 78.1826 144.961 77.9307 145.301 77.7314C145.653 77.5205 145.998 77.3799 146.338 77.3096H146.725C147.287 77.3096 147.768 77.4385 148.166 77.6963C148.565 77.9424 148.893 78.2705 149.151 78.6807C149.42 79.0791 149.625 79.5361 149.766 80.0518C149.906 80.5674 150.012 81.0947 150.082 81.6338C150.164 82.1611 150.211 82.6768 150.223 83.1807C150.246 83.6729 150.258 84.0947 150.258 84.4463H148.975C148.905 83.7432 148.817 83.0693 148.711 82.4248C148.676 82.167 148.629 81.8975 148.571 81.6162C148.512 81.3232 148.448 81.0537 148.377 80.8076C148.307 80.5498 148.231 80.3154 148.149 80.1045C148.067 79.8818 147.973 79.6943 147.867 79.542C147.821 79.4951 147.756 79.4307 147.674 79.3486C147.604 79.2666 147.528 79.1846 147.446 79.1025C147.364 79.0205 147.287 78.9502 147.217 78.8916C147.147 78.833 147.106 78.8037 147.094 78.8037C146.742 78.71 146.438 78.7803 146.18 79.0146C145.922 79.2373 145.694 79.542 145.494 79.9287C145.295 80.3154 145.131 80.7549 145.002 81.2471C144.885 81.7393 144.785 82.2139 144.703 82.6709C144.621 83.1162 144.563 83.5088 144.528 83.8486C144.492 84.1768 144.469 84.376 144.457 84.4463C144.164 84.6572 143.889 84.7217 143.631 84.6396C143.373 84.5459 143.127 84.3584 142.893 84.0771C142.67 83.7959 142.465 83.4443 142.278 83.0225C142.102 82.6006 141.938 82.1553 141.785 81.6865C141.633 81.2061 141.492 80.7256 141.364 80.2451C141.246 79.7646 141.141 79.3193 141.047 78.9092ZM158.783 82.5654C158.338 82.8701 157.951 83.1455 157.623 83.3916C157.307 83.626 156.996 83.8252 156.692 83.9893C156.387 84.1533 156.059 84.2764 155.707 84.3584C155.367 84.4404 154.946 84.4814 154.442 84.4814C153.352 84.4814 152.543 84.1943 152.016 83.6201C151.489 83.0342 151.225 82.167 151.225 81.0186C151.225 80.5732 151.283 80.1104 151.401 79.6299C151.518 79.1494 151.688 78.6748 151.91 78.2061C152.145 77.7256 152.42 77.2744 152.737 76.8525C153.053 76.4189 153.41 76.0381 153.809 75.71C154.207 75.3818 154.629 75.124 155.074 74.9365C155.531 74.7373 156.012 74.6377 156.516 74.6377C157.36 74.7197 158.022 74.9307 158.502 75.2705C158.983 75.5986 159.346 76.0264 159.592 76.5537C159.838 77.0693 160.008 77.6494 160.102 78.2939C160.196 78.9268 160.266 79.583 160.313 80.2627C160.371 80.9424 160.442 81.6221 160.524 82.3018C160.606 82.9814 160.776 83.6084 161.033 84.1826C160.881 84.5693 160.735 84.8389 160.594 84.9912C160.465 85.1553 160.319 85.1846 160.155 85.0791C159.99 84.9736 159.797 84.7158 159.574 84.3057C159.364 83.8955 159.1 83.3154 158.783 82.5654ZM152.719 81.0537C152.719 81.7217 152.842 82.2139 153.088 82.5303C153.346 82.835 153.797 82.9873 154.442 82.9873C154.922 82.9873 155.379 82.9053 155.813 82.7412C156.258 82.5654 156.645 82.3311 156.973 82.0381C157.301 81.7334 157.565 81.3701 157.764 80.9482C157.963 80.5264 158.063 80.0576 158.063 79.542C158.063 79.3311 158.069 79.0381 158.08 78.6631C158.092 78.2764 158.069 77.8955 158.01 77.5205C157.951 77.1455 157.84 76.8232 157.676 76.5537C157.512 76.2725 157.266 76.1318 156.938 76.1318C156.328 76.1318 155.766 76.29 155.25 76.6064C154.735 76.9111 154.289 77.3037 153.914 77.7842C153.539 78.2646 153.246 78.7979 153.035 79.3838C152.824 79.958 152.719 80.5146 152.719 81.0537ZM161.842 75.7451C161.842 75.6396 161.842 75.5342 161.842 75.4287C161.854 75.3115 161.877 75.2061 161.912 75.1123C161.959 75.0068 162.018 74.9307 162.088 74.8838C162.17 74.8252 162.287 74.7959 162.44 74.7959C162.451 74.7959 162.463 74.7959 162.475 74.7959C162.498 74.7959 162.522 74.7959 162.545 74.7959C162.58 74.8076 162.61 74.8135 162.633 74.8135C162.856 75.1182 163.049 75.5107 163.213 75.9912C163.377 76.46 163.535 76.9639 163.688 77.5029C163.84 78.0303 164.004 78.5693 164.18 79.1201C164.356 79.6592 164.584 80.1455 164.865 80.5791C165.147 81.0127 165.492 81.3584 165.903 81.6162C166.313 81.874 166.823 81.9854 167.432 81.9502C167.701 81.9502 167.877 81.8037 167.959 81.5107C168.041 81.2178 168.082 80.8428 168.082 80.3857C168.094 79.9287 168.082 79.4248 168.047 78.874C168.024 78.3232 168.024 77.8018 168.047 77.3096C168.082 76.8057 168.17 76.3662 168.311 75.9912C168.463 75.6162 168.721 75.3643 169.084 75.2354C169.237 75.54 169.36 76.0205 169.453 76.6768C169.559 77.3213 169.635 78.0713 169.682 78.9268C169.729 79.7705 169.752 80.6904 169.752 81.6865C169.752 82.6709 169.729 83.6553 169.682 84.6396C169.635 85.6123 169.565 86.5498 169.471 87.4521C169.377 88.3545 169.272 89.1455 169.155 89.8252C169.037 90.5049 168.897 91.0381 168.733 91.4248C168.58 91.8232 168.416 91.9932 168.24 91.9346C167.994 91.7002 167.801 91.3955 167.66 91.0205C167.531 90.6455 167.438 90.2295 167.379 89.7725C167.332 89.3154 167.315 88.8291 167.326 88.3135C167.338 87.8096 167.356 87.2998 167.379 86.7842C167.414 86.2686 167.449 85.7646 167.485 85.2725C167.531 84.7803 167.555 84.3291 167.555 83.9189C167.133 83.9541 166.699 83.8896 166.254 83.7256C165.821 83.5615 165.393 83.3096 164.971 82.9697C164.549 82.6182 164.145 82.1963 163.758 81.7041C163.383 81.2119 163.049 80.6553 162.756 80.0342C162.475 79.4131 162.252 78.7451 162.088 78.0303C161.924 77.3037 161.842 76.542 161.842 75.7451ZM174.182 84.042C174.369 83.9131 174.592 83.749 174.85 83.5498C175.119 83.3389 175.389 83.1162 175.658 82.8818C175.928 82.6475 176.18 82.4014 176.414 82.1436C176.649 81.8857 176.83 81.6396 176.959 81.4053C177.1 81.1592 177.17 80.9307 177.17 80.7197C177.17 80.5088 177.065 80.333 176.854 80.1924C176.479 80.1924 176.069 80.21 175.623 80.2451C175.178 80.2686 174.733 80.2803 174.287 80.2803C173.842 80.2686 173.408 80.2275 172.987 80.1572C172.576 80.0869 172.207 79.958 171.879 79.7705C171.551 79.583 171.287 79.3193 171.088 78.9795C170.901 78.6279 170.807 78.1826 170.807 77.6436C170.807 77.0107 170.924 76.4424 171.158 75.9385C171.405 75.4229 171.727 74.9717 172.125 74.585C172.524 74.1865 172.969 73.8408 173.461 73.5479C173.965 73.2432 174.469 72.9854 174.973 72.7744C175.278 72.8564 175.559 73.0029 175.817 73.2139C176.074 73.4248 176.297 73.6592 176.485 73.917C176.403 74.1748 176.239 74.374 175.992 74.5146C175.758 74.6553 175.483 74.7783 175.166 74.8838C174.862 74.9893 174.539 75.1006 174.199 75.2178C173.86 75.335 173.549 75.4932 173.268 75.6924C172.998 75.8799 172.77 76.1318 172.582 76.4482C172.395 76.7529 172.301 77.1572 172.301 77.6611C172.301 78.0361 172.395 78.3115 172.582 78.4873C172.77 78.6631 173.016 78.7861 173.321 78.8564C173.625 78.915 173.971 78.9385 174.358 78.9268C174.744 78.9033 175.137 78.874 175.535 78.8389C175.946 78.8037 176.344 78.7861 176.731 78.7861C177.117 78.7744 177.463 78.8213 177.768 78.9268C178.073 79.0205 178.313 79.1787 178.489 79.4014C178.676 79.624 178.77 79.9521 178.77 80.3857C178.77 80.5732 178.705 80.8135 178.576 81.1064C178.459 81.3994 178.295 81.7158 178.084 82.0557C177.885 82.3838 177.645 82.7119 177.364 83.04C177.094 83.3682 176.807 83.667 176.502 83.9365C176.209 84.1943 175.91 84.4111 175.606 84.5869C175.313 84.751 175.037 84.833 174.78 84.833C174.533 84.833 174.369 84.7451 174.287 84.5693C174.217 84.3936 174.182 84.2178 174.182 84.042ZM187.401 70.9463C187.401 70.583 187.465 70.2842 187.594 70.0498C187.735 69.8154 187.922 69.6279 188.156 69.4873C188.391 69.335 188.649 69.2236 188.93 69.1533C189.223 69.083 189.522 69.0361 189.826 69.0127C190.143 68.9775 190.448 68.9658 190.74 68.9775C191.033 68.9775 191.303 68.9775 191.549 68.9775C192.03 68.9775 192.51 69.0244 192.99 69.1182C193.471 69.2119 193.893 69.376 194.256 69.6104C194.631 69.8447 194.936 70.1611 195.17 70.5596C195.405 70.9463 195.522 71.4326 195.522 72.0186C195.522 72.5342 195.416 73.0498 195.205 73.5654C195.006 74.0693 194.742 74.5557 194.414 75.0244C194.098 75.4814 193.735 75.9033 193.324 76.29C192.914 76.665 192.504 76.9873 192.094 77.2568C191.696 77.5264 191.309 77.7373 190.934 77.8896C190.571 78.042 190.266 78.1006 190.02 78.0654C189.879 78.5225 189.791 79.0146 189.756 79.542C189.733 80.0576 189.727 80.5674 189.739 81.0713C189.75 81.5635 189.768 82.0381 189.791 82.4951C189.815 82.9404 189.791 83.3271 189.721 83.6553C189.662 83.9717 189.545 84.2119 189.369 84.376C189.194 84.5283 188.924 84.5752 188.561 84.5166C188.455 83.6846 188.373 82.8408 188.315 81.9854C188.268 81.1299 188.227 80.2803 188.192 79.4365C188.156 78.5928 188.121 77.7725 188.086 76.9756C188.063 76.167 188.022 75.3994 187.963 74.6729C187.916 73.9463 187.846 73.2666 187.752 72.6338C187.658 72.001 187.541 71.4385 187.401 70.9463ZM191.742 70.4893C191.567 70.4893 191.35 70.4951 191.092 70.5068C190.834 70.5186 190.582 70.5596 190.336 70.6299C190.102 70.6885 189.903 70.7998 189.739 70.9639C189.574 71.1162 189.492 71.3389 189.492 71.6318V76.2373C189.973 76.2373 190.483 76.1084 191.022 75.8506C191.561 75.5928 192.053 75.2646 192.498 74.8662C192.944 74.4678 193.313 74.0166 193.606 73.5127C193.899 73.0088 194.045 72.5107 194.045 72.0186C194.045 71.6553 193.975 71.374 193.834 71.1748C193.705 70.9756 193.53 70.8232 193.307 70.7178C193.096 70.6123 192.856 70.5479 192.586 70.5244C192.317 70.501 192.035 70.4893 191.742 70.4893ZM196.242 77.4502C196.242 77.3447 196.248 77.2393 196.26 77.1338C196.272 77.0166 196.295 76.917 196.33 76.835C196.365 76.7412 196.418 76.665 196.489 76.6064C196.571 76.5479 196.682 76.5186 196.823 76.5186C196.94 76.5186 197.069 76.6123 197.209 76.7998C197.362 76.9756 197.514 77.2041 197.666 77.4854C197.819 77.7549 197.965 78.0537 198.106 78.3818C198.258 78.71 198.387 79.0146 198.492 79.2959C198.61 79.5654 198.703 79.7998 198.774 79.999C198.844 80.1982 198.885 80.3037 198.897 80.3154C199.049 79.9053 199.219 79.46 199.406 78.9795C199.594 78.499 199.823 78.0537 200.092 77.6436C200.373 77.2217 200.701 76.8701 201.076 76.5889C201.463 76.3076 201.932 76.167 202.483 76.167C202.764 76.167 203.028 76.2139 203.274 76.3076C203.531 76.3896 203.754 76.5186 203.942 76.6943C204.141 76.8584 204.299 77.0576 204.416 77.292C204.533 77.5264 204.592 77.7959 204.592 78.1006C204.592 78.3584 204.487 78.54 204.276 78.6455C204.076 78.751 203.848 78.8037 203.59 78.8037H203.414L202.658 78.0479C202.635 78.0479 202.617 78.042 202.606 78.0303C202.582 78.0303 202.559 78.0303 202.535 78.0303C202.524 78.0186 202.506 78.0127 202.483 78.0127C202.073 78.0127 201.75 78.1299 201.516 78.3643C201.293 78.5869 201.123 78.8682 201.006 79.208C200.889 79.5361 200.813 79.8877 200.778 80.2627C200.754 80.626 200.742 80.96 200.742 81.2646C200.742 81.499 200.766 81.7393 200.813 81.9854C200.86 82.2197 200.912 82.4541 200.971 82.6885C201.03 82.9111 201.082 83.1455 201.129 83.3916C201.176 83.626 201.199 83.8721 201.199 84.1299C201.199 84.6221 200.936 84.8682 200.408 84.8682C200.115 84.8682 199.811 84.7158 199.494 84.4111C199.178 84.0947 198.862 83.6963 198.545 83.2158C198.24 82.7354 197.948 82.208 197.666 81.6338C197.385 81.0479 197.139 80.4795 196.928 79.9287C196.717 79.3779 196.547 78.8799 196.418 78.4346C196.301 77.9893 196.242 77.6611 196.242 77.4502ZM205.225 81.2646C205.225 80.5381 205.395 79.8643 205.735 79.2432C206.074 78.6104 206.52 78.0713 207.071 77.626C207.633 77.1689 208.26 76.8115 208.951 76.5537C209.655 76.2959 210.364 76.167 211.078 76.167C211.477 76.167 211.828 76.2959 212.133 76.5537C212.449 76.8115 212.713 77.1279 212.924 77.5029C213.135 77.8662 213.293 78.2529 213.399 78.6631C213.516 79.0732 213.574 79.4307 213.574 79.7354C213.574 80.3916 213.416 81.0303 213.1 81.6514C212.783 82.2607 212.373 82.8057 211.869 83.2861C211.365 83.7549 210.797 84.1357 210.164 84.4287C209.531 84.7217 208.899 84.8682 208.266 84.8682C207.703 84.8682 207.229 84.7744 206.842 84.5869C206.455 84.3877 206.145 84.1299 205.91 83.8135C205.676 83.4854 205.5 83.1045 205.383 82.6709C205.278 82.2256 205.225 81.7568 205.225 81.2646ZM206.719 81.4404C206.719 81.7451 206.742 82.0146 206.789 82.249C206.848 82.4717 206.942 82.665 207.071 82.8291C207.211 82.9932 207.393 83.1221 207.615 83.2158C207.838 83.2979 208.114 83.3389 208.442 83.3389C208.875 83.3389 209.309 83.2217 209.742 82.9873C210.176 82.7412 210.563 82.4365 210.903 82.0732C211.254 81.6982 211.535 81.2881 211.746 80.8428C211.957 80.3975 212.063 79.9639 212.063 79.542C212.063 79.3545 212.045 79.1494 212.01 78.9268C211.975 78.7041 211.916 78.499 211.834 78.3115C211.752 78.124 211.635 77.9658 211.483 77.8369C211.33 77.708 211.137 77.6436 210.903 77.6436C210.692 77.6436 210.44 77.7139 210.147 77.8545C209.865 77.9951 209.567 78.1768 209.25 78.3994C208.946 78.6221 208.641 78.874 208.336 79.1553C208.043 79.4365 207.774 79.7178 207.528 79.999C207.281 80.2803 207.082 80.5498 206.93 80.8076C206.789 81.0654 206.719 81.2764 206.719 81.4404ZM213.873 82.7588C213.873 82.0791 214.043 81.4756 214.383 80.9482C214.723 80.4209 215.145 79.9639 215.649 79.5771C216.153 79.1787 216.698 78.8447 217.283 78.5752C217.869 78.2939 218.414 78.0654 218.918 77.8896C219.422 77.7021 219.844 77.5557 220.184 77.4502C220.524 77.333 220.694 77.2393 220.694 77.1689C220.694 76.7588 220.67 76.3604 220.623 75.9736C220.588 75.5752 220.547 75.1768 220.5 74.7783C220.453 74.3799 220.406 73.9873 220.36 73.6006C220.324 73.2021 220.307 72.8096 220.307 72.4229V71.2803C220.787 71.1045 221.127 71.1221 221.326 71.333C221.537 71.5439 221.573 71.9072 221.432 72.4229C221.479 72.6807 221.543 73.085 221.625 73.6357C221.707 74.1865 221.795 74.8076 221.889 75.499C221.994 76.1904 222.1 76.917 222.205 77.6787C222.323 78.4404 222.428 79.1729 222.522 79.876C222.627 80.5674 222.715 81.1885 222.785 81.7393C222.856 82.2783 222.908 82.6826 222.944 82.9521C222.955 83.0107 222.967 83.1279 222.979 83.3037C222.99 83.4678 222.996 83.6494 222.996 83.8486C223.008 84.0361 223.014 84.2119 223.014 84.376C223.026 84.54 223.031 84.6572 223.031 84.7275C222.586 84.7275 222.281 84.71 222.117 84.6748C221.965 84.6396 221.865 84.5693 221.819 84.4639C221.783 84.3584 221.766 84.2061 221.766 84.0068C221.766 83.8076 221.707 83.5322 221.59 83.1807C221.156 83.5205 220.746 83.8018 220.36 84.0244C219.973 84.2471 219.586 84.4287 219.199 84.5693C218.813 84.6982 218.42 84.7861 218.022 84.833C217.635 84.8916 217.219 84.9209 216.774 84.9209C216.399 84.9209 216.035 84.8916 215.684 84.833C215.344 84.7627 215.039 84.6455 214.77 84.4814C214.5 84.3174 214.283 84.0947 214.119 83.8135C213.955 83.5322 213.873 83.1807 213.873 82.7588ZM215.403 82.3896C215.403 82.5771 215.444 82.7295 215.526 82.8467C215.608 82.9639 215.713 83.0635 215.842 83.1455C215.971 83.2275 216.106 83.2861 216.246 83.3213C216.399 83.3447 216.545 83.3564 216.686 83.3564C217.096 83.3564 217.535 83.2803 218.004 83.1279C218.485 82.9639 218.924 82.7412 219.323 82.46C219.733 82.167 220.067 81.8213 220.324 81.4229C220.594 81.0244 220.729 80.5908 220.729 80.1221C220.729 79.7588 220.664 79.5068 220.535 79.3662C220.406 79.2256 220.16 79.1553 219.797 79.1553C219.422 79.1553 218.983 79.2432 218.479 79.4189C217.987 79.5947 217.506 79.8291 217.037 80.1221C216.58 80.415 216.194 80.7607 215.877 81.1592C215.561 81.5459 215.403 81.9561 215.403 82.3896ZM224.069 77.6611C224.069 77.5908 224.069 77.4678 224.069 77.292C224.08 77.1045 224.086 76.9111 224.086 76.7119C224.086 76.5127 224.086 76.3311 224.086 76.167C224.098 75.9912 224.104 75.8682 224.104 75.7979C224.186 75.6572 224.28 75.5225 224.385 75.3936C224.502 75.2529 224.619 75.1592 224.737 75.1123C224.865 75.0537 225 75.042 225.141 75.0771C225.293 75.1123 225.446 75.2295 225.598 75.4287V75.5693V75.7979C225.586 75.8564 225.563 75.9971 225.528 76.2197C225.492 76.4307 225.451 76.665 225.405 76.9229C225.358 77.1807 225.311 77.4209 225.264 77.6436C225.229 77.8545 225.211 77.9893 225.211 78.0479C225.211 78.2705 225.235 78.5518 225.281 78.8916C225.328 79.2197 225.393 79.5654 225.475 79.9287C225.569 80.292 225.68 80.6553 225.809 81.0186C225.949 81.3818 226.114 81.71 226.301 82.0029C226.489 82.2842 226.694 82.5186 226.916 82.7061C227.151 82.8936 227.42 82.9873 227.725 82.9873C228.1 82.9873 228.428 82.8877 228.709 82.6885C229.002 82.4893 229.254 82.2314 229.465 81.915C229.676 81.5986 229.846 81.2412 229.975 80.8428C230.115 80.4443 230.227 80.0459 230.309 79.6475C230.391 79.2373 230.449 78.8447 230.485 78.4697C230.52 78.0947 230.537 77.7666 230.537 77.4854C230.537 77.2041 230.514 76.9404 230.467 76.6943C230.432 76.4365 230.385 76.1846 230.326 75.9385C230.268 75.6924 230.215 75.4521 230.168 75.2178C230.133 74.9717 230.115 74.7256 230.115 74.4795C230.115 74.2568 230.192 74.0986 230.344 74.0049C230.508 73.9111 230.69 73.8643 230.889 73.8643C231.135 73.8643 231.334 73.9404 231.487 74.0928C231.639 74.2334 231.756 74.415 231.838 74.6377C231.932 74.8604 231.99 75.1182 232.014 75.4111C232.049 75.6924 232.067 75.9736 232.067 76.2549C232.067 76.5361 232.061 76.8057 232.049 77.0635C232.037 77.3096 232.031 77.5088 232.031 77.6611C232.031 78.0596 232.002 78.5107 231.944 79.0146C231.885 79.5186 231.78 80.04 231.627 80.5791C231.487 81.1064 231.305 81.6279 231.082 82.1436C230.871 82.6592 230.608 83.1221 230.291 83.5322C229.987 83.9307 229.629 84.2529 229.219 84.499C228.821 84.7451 228.369 84.8682 227.865 84.8682C227.338 84.8682 226.875 84.7451 226.477 84.499C226.078 84.2412 225.739 83.9072 225.457 83.4971C225.188 83.0752 224.959 82.6006 224.772 82.0732C224.584 81.5459 224.438 81.0186 224.332 80.4912C224.239 79.9639 224.168 79.4541 224.121 78.9619C224.086 78.458 224.069 78.0244 224.069 77.6611ZM232.752 79.542C232.752 79.0498 232.858 78.5342 233.069 77.9951C233.291 77.4561 233.584 76.9697 233.948 76.5361C234.311 76.0908 234.727 75.7217 235.196 75.4287C235.676 75.1357 236.18 74.9893 236.707 74.9893C236.977 74.9893 237.246 75.0361 237.516 75.1299C237.785 75.2236 238.026 75.3584 238.237 75.5342C238.459 75.71 238.635 75.9209 238.764 76.167C238.905 76.4131 238.975 76.6885 238.975 76.9932C238.764 76.9932 238.571 76.9697 238.395 76.9229C238.231 76.876 238.067 76.8232 237.903 76.7646C237.739 76.6943 237.574 76.6357 237.41 76.5889C237.258 76.542 237.088 76.5186 236.901 76.5186C236.42 76.5186 236.028 76.6416 235.723 76.8877C235.43 77.1221 235.196 77.4209 235.02 77.7842C234.844 78.1475 234.721 78.54 234.651 78.9619C234.592 79.3721 234.563 79.7588 234.563 80.1221C234.563 80.1807 234.563 80.292 234.563 80.4561C234.574 80.6201 234.58 80.7959 234.58 80.9834C234.592 81.1592 234.598 81.3291 234.598 81.4932C234.61 81.6572 234.621 81.7686 234.633 81.8271C234.762 82.1084 234.885 82.3252 235.002 82.4775C235.131 82.6299 235.266 82.7471 235.406 82.8291C235.547 82.8994 235.699 82.9463 235.864 82.9697C236.028 82.9814 236.221 82.9873 236.444 82.9873C236.748 82.9873 237.012 82.9404 237.235 82.8467C237.469 82.7529 237.686 82.6416 237.885 82.5127C238.084 82.3838 238.272 82.2432 238.448 82.0908C238.623 81.9268 238.805 81.7803 238.992 81.6514C239.192 81.5107 239.403 81.3994 239.625 81.3174C239.86 81.2236 240.123 81.1768 240.416 81.1768C240.416 81.751 240.311 82.2607 240.1 82.7061C239.901 83.1514 239.614 83.5322 239.239 83.8486C238.875 84.165 238.442 84.4111 237.938 84.5869C237.446 84.751 236.906 84.833 236.321 84.833C235.77 84.833 235.272 84.6455 234.826 84.2705C234.393 83.8955 234.018 83.4385 233.701 82.8994C233.397 82.3486 233.162 81.7686 232.998 81.1592C232.834 80.5498 232.752 80.0107 232.752 79.542ZM241.014 75.9736C241.014 75.9385 241.02 75.9092 241.031 75.8857C241.031 75.8623 241.037 75.833 241.049 75.7979C241.096 75.7393 241.166 75.6631 241.26 75.5693C241.354 75.4756 241.412 75.4287 241.436 75.4287H244.969C244.969 75.2998 244.951 75.0947 244.916 74.8135C244.881 74.5322 244.846 74.2217 244.811 73.8818C244.787 73.542 244.781 73.1904 244.793 72.8271C244.805 72.4521 244.852 72.1182 244.934 71.8252C245.028 71.5205 245.168 71.2744 245.356 71.0869C245.555 70.8877 245.83 70.7881 246.182 70.7881C246.182 71.9717 246.264 72.9209 246.428 73.6357C246.592 74.3506 246.809 74.9014 247.078 75.2881C247.36 75.6748 247.676 75.9268 248.028 76.0439C248.379 76.1611 248.737 76.2139 249.1 76.2021C249.475 76.1787 249.838 76.1201 250.19 76.0264C250.541 75.9326 250.852 75.8682 251.121 75.833C251.403 75.7979 251.625 75.8271 251.789 75.9209C251.953 76.0029 252.035 76.208 252.035 76.5361C252.035 76.7822 251.977 76.958 251.86 77.0635C251.754 77.1689 251.543 77.251 251.227 77.3096C251.133 77.3213 250.975 77.3447 250.752 77.3799C250.541 77.4033 250.301 77.4268 250.031 77.4502C249.762 77.4736 249.475 77.5029 249.17 77.5381C248.865 77.5615 248.578 77.585 248.309 77.6084C248.039 77.6318 247.793 77.6494 247.571 77.6611C247.348 77.6611 247.184 77.6611 247.078 77.6611C247.078 77.7197 247.073 77.8193 247.061 77.96C247.049 78.1006 247.043 78.1943 247.043 78.2412C247.043 78.7568 247.125 79.2607 247.289 79.7529C247.453 80.2334 247.629 80.7139 247.817 81.1943C248.016 81.6748 248.198 82.1553 248.362 82.6357C248.526 83.1162 248.608 83.6143 248.608 84.1299C248.608 84.2236 248.596 84.3232 248.573 84.4287C248.561 84.5225 248.526 84.6104 248.467 84.6924C248.42 84.7627 248.344 84.8154 248.239 84.8506C248.145 84.8975 248.01 84.8916 247.834 84.833C247.389 84.7158 247.055 84.4639 246.832 84.0771C246.621 83.6904 246.463 83.2334 246.358 82.7061C246.252 82.167 246.182 81.5986 246.147 81.001C246.112 80.4033 246.053 79.8467 245.971 79.3311C245.901 78.8037 245.783 78.3584 245.619 77.9951C245.455 77.6201 245.192 77.3916 244.828 77.3096L241.436 76.5361C241.389 76.5361 241.319 76.4893 241.225 76.3955C241.131 76.29 241.073 76.2139 241.049 76.167C241.037 76.1436 241.031 76.1143 241.031 76.0791C241.02 76.0557 241.014 76.0205 241.014 75.9736ZM256.078 84.042C256.266 83.9131 256.489 83.749 256.746 83.5498C257.016 83.3389 257.285 83.1162 257.555 82.8818C257.824 82.6475 258.076 82.4014 258.311 82.1436C258.545 81.8857 258.727 81.6396 258.856 81.4053C258.996 81.1592 259.067 80.9307 259.067 80.7197C259.067 80.5088 258.961 80.333 258.75 80.1924C258.375 80.1924 257.965 80.21 257.52 80.2451C257.074 80.2686 256.629 80.2803 256.184 80.2803C255.739 80.2686 255.305 80.2275 254.883 80.1572C254.473 80.0869 254.104 79.958 253.776 79.7705C253.448 79.583 253.184 79.3193 252.985 78.9795C252.797 78.6279 252.703 78.1826 252.703 77.6436C252.703 77.0107 252.821 76.4424 253.055 75.9385C253.301 75.4229 253.623 74.9717 254.022 74.585C254.42 74.1865 254.865 73.8408 255.358 73.5479C255.862 73.2432 256.365 72.9854 256.869 72.7744C257.174 72.8564 257.455 73.0029 257.713 73.2139C257.971 73.4248 258.194 73.6592 258.381 73.917C258.299 74.1748 258.135 74.374 257.889 74.5146C257.655 74.6553 257.379 74.7783 257.063 74.8838C256.758 74.9893 256.436 75.1006 256.096 75.2178C255.756 75.335 255.446 75.4932 255.164 75.6924C254.895 75.8799 254.666 76.1318 254.479 76.4482C254.291 76.7529 254.198 77.1572 254.198 77.6611C254.198 78.0361 254.291 78.3115 254.479 78.4873C254.666 78.6631 254.912 78.7861 255.217 78.8564C255.522 78.915 255.867 78.9385 256.254 78.9268C256.641 78.9033 257.033 78.874 257.432 78.8389C257.842 78.8037 258.24 78.7861 258.627 78.7861C259.014 78.7744 259.36 78.8213 259.664 78.9268C259.969 79.0205 260.209 79.1787 260.385 79.4014C260.573 79.624 260.666 79.9521 260.666 80.3857C260.666 80.5732 260.602 80.8135 260.473 81.1064C260.356 81.3994 260.192 81.7158 259.981 82.0557C259.781 82.3838 259.541 82.7119 259.26 83.04C258.99 83.3682 258.703 83.667 258.399 83.9365C258.106 84.1943 257.807 84.4111 257.502 84.5869C257.209 84.751 256.934 84.833 256.676 84.833C256.43 84.833 256.266 84.7451 256.184 84.5693C256.114 84.3936 256.078 84.2178 256.078 84.042Z" fill="#FF6B00"/>
<path d="M398.347 224.96C398.347 223.752 398.291 146.477 398.199 24.5264L398.347 24.674L107.651 24.7091L107.834 24.5264C107.834 96.1033 107.834 164.104 107.834 224.96L107.672 224.791L398.389 224.96L107.672 225.129H107.503V224.96C107.503 164.104 107.503 96.1033 107.503 24.5264V24.3438H107.707L398.347 24.3789H398.494V24.5124C398.403 146.477 398.347 223.752 398.347 224.96Z" fill="#263238"/>
<path d="M139.992 114.567C139.992 114.778 139.929 114.985 139.811 115.161C139.694 115.337 139.526 115.474 139.331 115.554C139.135 115.635 138.92 115.656 138.713 115.614C138.506 115.572 138.315 115.47 138.166 115.32C138.017 115.169 137.916 114.979 137.876 114.771C137.835 114.563 137.858 114.348 137.94 114.153C138.021 113.958 138.159 113.792 138.336 113.676C138.512 113.559 138.719 113.498 138.931 113.499C139.213 113.501 139.483 113.614 139.681 113.814C139.88 114.014 139.992 114.285 139.992 114.567Z" fill="#263238"/>
<path d="M209.788 114.848C209.788 114.946 195.036 115.03 176.807 115.03C158.579 115.03 143.834 114.946 143.834 114.848C143.834 114.749 158.586 114.665 176.807 114.665C195.029 114.665 209.788 114.749 209.788 114.848Z" fill="#263238"/>
<path d="M162.323 119.878C162.323 119.976 158.185 120.061 153.078 120.061C147.972 120.061 143.827 119.976 143.827 119.878C143.827 119.78 147.965 119.695 153.078 119.695C158.192 119.695 162.323 119.773 162.323 119.878Z" fill="#263238"/>
<path d="M138.924 140.007C139.51 140.007 139.985 139.532 139.985 138.946C139.985 138.36 139.51 137.885 138.924 137.885C138.338 137.885 137.863 138.36 137.863 138.946C137.863 139.532 138.338 140.007 138.924 140.007Z" fill="#263238"/>
<path d="M209.788 139.233C209.788 139.332 195.036 139.416 176.807 139.416C158.579 139.416 143.834 139.332 143.834 139.233C143.834 139.135 158.586 139.051 176.807 139.051C195.029 139.051 209.788 139.128 209.788 139.233Z" fill="#263238"/>
<path d="M207.469 144.257C207.469 144.362 193.224 144.44 175.648 144.44C158.073 144.44 143.834 144.362 143.834 144.257C143.834 144.152 158.073 144.074 175.648 144.074C193.224 144.074 207.469 144.159 207.469 144.257Z" fill="#263238"/>
<path d="M138.924 162.018C139.51 162.018 139.985 161.543 139.985 160.957C139.985 160.371 139.51 159.896 138.924 159.896C138.338 159.896 137.863 160.371 137.863 160.957C137.863 161.543 138.338 162.018 138.924 162.018Z" fill="#263238"/>
<path d="M209.788 161.245C209.788 161.344 195.036 161.428 176.807 161.428C158.579 161.428 143.834 161.344 143.834 161.245C143.834 161.147 158.586 161.062 176.807 161.062C195.029 161.062 209.788 161.14 209.788 161.245Z" fill="#263238"/>
<path d="M207.469 166.269C207.469 166.374 193.224 166.451 175.648 166.451C158.073 166.451 143.834 166.374 143.834 166.269C143.834 166.163 158.073 166.086 175.648 166.086C193.224 166.086 207.469 166.17 207.469 166.269Z" fill="#263238"/>
<path d="M138.924 184.408C139.51 184.408 139.985 183.933 139.985 183.347C139.985 182.761 139.51 182.286 138.924 182.286C138.338 182.286 137.863 182.761 137.863 183.347C137.863 183.933 138.338 184.408 138.924 184.408Z" fill="#263238"/>
<path d="M209.788 183.636C209.788 183.734 195.036 183.818 176.807 183.818C158.579 183.818 143.834 183.734 143.834 183.636C143.834 183.537 158.586 183.453 176.807 183.453C195.029 183.453 209.788 183.537 209.788 183.636Z" fill="#263238"/>
<path d="M172.157 188.666C172.157 188.764 165.835 188.849 157.989 188.849C150.142 188.849 143.813 188.764 143.813 188.666C143.813 188.568 150.135 188.483 157.989 188.483C165.842 188.483 172.157 188.561 172.157 188.666Z" fill="#263238"/>
<path d="M402.014 21.7725H103.738V38.6269H402.014V21.7725Z" fill="#121D50"/>
<path d="M453.138 168.334C445.538 172.275 439.714 179.055 435.521 186.516C431.327 193.977 428.63 202.169 425.953 210.298L423.614 252.234C432.458 237.192 439.553 219.501 441.47 202.155L435.591 201.635C439.532 201.031 442.847 198.172 444.954 194.778C447.062 191.385 448.144 187.479 449.204 183.629L441.99 184.697C447.672 180.879 451.665 175.019 453.138 168.334Z" fill="#455A64"/>
<g opacity="0.3">
<path d="M453.138 168.334C445.538 172.275 439.714 179.055 435.521 186.516C431.327 193.977 428.63 202.169 425.953 210.298L423.614 252.234C432.458 237.192 439.553 219.501 441.47 202.155L435.591 201.635C439.532 201.031 442.847 198.172 444.954 194.778C447.062 191.385 448.144 187.479 449.204 183.629L441.99 184.697C447.672 180.879 451.665 175.019 453.138 168.334Z" fill="#3BC171"/>
</g>
<path d="M422.273 262.063C422.273 262.063 403.075 239.089 403.306 217.155H411.033C411.033 217.155 402.604 211.612 403.306 208.513C404.009 205.415 404.191 193.668 404.191 193.668L411.279 195.439C411.279 195.439 405.962 192.783 405.301 188.568C404.641 184.352 406.854 164.863 406.854 164.863C406.854 164.863 415.48 173.947 418.142 183.291C420.804 192.636 427.78 203.413 425.743 231.768C423.706 260.124 422.273 262.063 422.273 262.063Z" fill="#3BC171"/>
<path d="M432.001 264.234C432.001 264.234 452.794 250.379 457.416 232.696L451.185 230.996C451.185 230.996 459.165 228.389 459.306 225.748C459.446 223.106 461.842 213.621 461.842 213.621L455.751 213.495C455.751 213.495 460.612 212.518 462.073 209.28C463.535 206.041 466.014 189.882 466.014 189.882C466.014 189.882 457.079 195.292 452.906 202.191C448.734 209.09 440.74 216.312 436.188 239.546C431.636 262.78 432.001 264.234 432.001 264.234Z" fill="#3BC171"/>
<path d="M412.087 184.9C412.119 184.975 412.142 185.053 412.157 185.132L412.326 185.835C412.473 186.481 412.677 187.394 412.937 188.561C413.197 189.727 413.52 191.195 413.85 192.889C414.18 194.582 414.595 196.5 414.988 198.628C415.81 202.893 416.674 207.987 417.573 213.649C418.472 219.312 419.301 225.593 420.067 232.148C420.832 238.702 421.408 245.004 421.858 250.723C422.308 256.442 422.56 261.606 422.764 265.941C422.87 268.105 422.919 270.072 422.975 271.793C423.031 273.514 423.059 274.997 423.073 276.212C423.087 277.428 423.073 278.32 423.073 279.022V279.725C423.079 279.807 423.079 279.889 423.073 279.971C423.061 279.889 423.061 279.807 423.073 279.725C423.073 279.542 423.073 279.303 423.073 279.022C423.073 278.355 423.017 277.421 422.975 276.212C422.933 275.004 422.884 273.521 422.806 271.8C422.729 270.079 422.666 268.119 422.539 265.955C422.336 261.62 421.992 256.47 421.549 250.751C421.106 245.033 420.481 238.766 419.73 232.19C418.978 225.614 418.114 219.375 417.264 213.705C416.414 208.036 415.55 202.942 414.763 198.685C414.391 196.542 414.012 194.624 413.696 192.931C413.379 191.237 413.091 189.783 412.846 188.589C412.6 187.394 412.431 186.481 412.305 185.849L412.171 185.146C412.137 185.067 412.108 184.984 412.087 184.9Z" fill="#121D50"/>
<path d="M419.61 276.135C419.61 276.135 402.049 256.203 396.591 244.154L400.707 242.391C397.722 242.882 394.666 241.604 392.355 239.651C390.044 237.698 388.337 235.14 386.672 232.625L392.095 231.712C387.113 230.286 382.87 226.998 380.245 222.529C386.644 223.583 392.439 227.096 397.209 231.494C400.997 235.131 404.435 239.116 407.479 243.395C409.013 245.452 410.349 247.649 411.469 249.957C414.426 256.063 419.617 268.814 419.61 276.135Z" fill="#3BC171"/>
<path d="M457.69 201.48C457.673 201.551 457.647 201.62 457.613 201.684C457.543 201.839 457.451 202.028 457.346 202.267C457.086 202.794 456.735 203.539 456.278 204.48C455.337 206.391 454.009 209.181 452.394 212.63C449.162 219.543 444.913 229.182 440.712 240.03C436.511 250.878 433.182 260.889 430.927 268.168C429.796 271.814 428.904 274.772 428.314 276.816C428.019 277.821 427.78 278.608 427.611 279.17L427.421 279.781C427.405 279.852 427.379 279.92 427.344 279.985C427.348 279.911 427.36 279.838 427.379 279.767L427.534 279.149C427.688 278.58 427.899 277.786 428.166 276.774C428.714 274.715 429.571 271.744 430.653 268.09C432.844 260.777 436.146 250.758 440.34 239.889C444.533 229.021 448.846 219.396 452.141 212.49C453.785 209.047 455.161 206.286 456.138 204.389L457.276 202.211C457.395 201.979 457.501 201.79 457.578 201.649C457.611 201.59 457.648 201.534 457.69 201.48Z" fill="#121D50"/>
<path d="M421.099 284.671C421.051 284.554 421.02 284.431 421.008 284.306C420.966 284.018 420.903 283.673 420.839 283.252C420.699 282.332 420.467 281.004 420.137 279.374C419.807 277.744 419.371 275.819 418.795 273.697C418.219 271.575 417.475 269.285 416.611 266.896C415.747 264.508 414.735 262.323 413.801 260.341C412.867 258.36 411.897 256.625 411.054 255.192C410.211 253.758 409.523 252.606 409.017 251.826C408.785 251.468 408.603 251.166 408.448 250.92C408.373 250.819 408.314 250.708 408.272 250.59C408.272 250.59 408.364 250.681 408.511 250.871L409.143 251.742C409.691 252.501 410.429 253.625 411.3 255.051C412.171 256.477 413.133 258.206 414.11 260.18C415.086 262.154 416.077 264.395 416.983 266.756C417.889 269.116 418.599 271.463 419.175 273.592C419.751 275.72 420.158 277.667 420.446 279.311C420.734 280.955 420.924 282.289 421.008 283.217L421.113 284.285C421.125 284.414 421.121 284.543 421.099 284.671Z" fill="#121D50"/>
<path d="M444.273 279.984H405.828V287.825H444.273V279.984Z" fill="#FF6B00"/>
<path d="M409.495 287.826L413.654 314.207H436.884L440.754 287.826H409.495Z" fill="#FF6B00"/>
<path d="M441.899 287.826C441.899 287.938 434.621 288.029 425.658 288.029C416.695 288.029 409.41 287.938 409.41 287.826C409.41 287.713 416.681 287.629 425.658 287.629C434.635 287.629 441.899 287.72 441.899 287.826Z" fill="#121D50"/>
<path d="M67.2179 87.6379C65.9961 84.8327 65.0185 81.9274 64.2957 78.9543C63.5703 75.9657 63.6017 72.8435 64.387 69.8701C64.5204 69.4205 65.6865 66.4206 66.1501 66.4346C66.4803 66.4346 65.827 69.2449 66.0096 69.4908C67.7114 72.1853 68.5519 75.3344 68.4191 78.5187C68.3573 81.5981 67.9545 84.6613 67.2179 87.652" fill="#263238"/>
<path d="M85.5166 103.354C85.3832 101.197 85.2919 99.4967 85.3059 99.4967C85.3199 99.4967 92.6536 98.2321 92.6255 90.8693C92.6255 87.3143 91.9862 79.9936 91.347 73.3755C91.0138 69.9432 89.4006 66.7622 86.8285 64.4657C84.2564 62.1692 80.914 60.9256 77.4665 60.9823H76.7641C69.1144 61.5514 65.3282 68.3662 66.1079 76.0031L67.9975 102.785L73.6171 108.616C74.6044 109.636 75.881 110.328 77.2743 110.599C78.6676 110.87 80.1105 110.707 81.4082 110.132C82.7058 109.556 83.7956 108.597 84.5303 107.382C85.2651 106.167 85.6093 104.756 85.5166 103.34V103.354Z" fill="#F7A58E"/>
<path d="M85.3057 99.4971C81.9082 99.5418 78.5688 98.6129 75.6821 96.8203C75.6821 96.8203 78.0986 102.132 85.4322 101.352L85.3057 99.4971Z" fill="#65463C"/>
<path d="M89.6049 79.3123C89.6126 79.5865 89.5123 79.8527 89.3258 80.0537C89.1393 80.2547 88.8813 80.3745 88.6074 80.3873C88.4739 80.3998 88.3393 80.3856 88.2113 80.3457C88.0833 80.3057 87.9646 80.2407 87.862 80.1544C87.7594 80.0681 87.6749 79.9622 87.6135 79.843C87.5522 79.7238 87.5151 79.5936 87.5046 79.4599C87.4969 79.1857 87.5971 78.9195 87.7836 78.7185C87.9702 78.5175 88.2281 78.3977 88.502 78.385C88.6357 78.3715 88.7707 78.3849 88.8991 78.4245C89.0275 78.4641 89.1466 78.5291 89.2494 78.6156C89.3522 78.702 89.4367 78.8082 89.4977 78.9279C89.5588 79.0476 89.5952 79.1783 89.6049 79.3123Z" fill="#263238"/>
<path d="M89.8227 76.4533C89.6892 76.5938 88.8884 76.0107 87.7575 76.0388C86.6265 76.0669 85.8047 76.6359 85.6501 76.5024C85.4956 76.369 85.7204 76.1863 86.0786 75.9193C86.5616 75.5712 87.141 75.3821 87.7364 75.3784C88.3241 75.3681 88.8998 75.5453 89.3801 75.8842C89.7595 76.1441 89.8859 76.39 89.8227 76.4533Z" fill="#263238"/>
<path d="M79.5176 79.8678C79.5253 80.142 79.4251 80.4082 79.2385 80.6092C79.052 80.8102 78.794 80.93 78.5201 80.9428C78.3868 80.9563 78.2522 80.9428 78.1242 80.9031C77.9963 80.8634 77.8776 80.7983 77.7754 80.7118C77.6731 80.6252 77.5893 80.5189 77.529 80.3993C77.4687 80.2797 77.4331 80.1491 77.4243 80.0154C77.4184 79.741 77.519 79.475 77.705 79.2733C77.891 79.0715 78.1479 78.9497 78.4218 78.9334C78.5553 78.9219 78.6897 78.937 78.8173 78.9779C78.9449 79.0188 79.0631 79.0846 79.165 79.1715C79.267 79.2584 79.3506 79.3648 79.4112 79.4843C79.4717 79.6038 79.5079 79.7342 79.5176 79.8678Z" fill="#263238"/>
<path d="M79.2927 77.0216C79.1663 77.1621 78.3585 76.586 77.2275 76.6071C76.0966 76.6282 75.2817 77.2043 75.1202 77.0708C74.9586 76.9373 75.1834 76.7617 75.5416 76.4877C76.0287 76.1423 76.6094 75.9536 77.2064 75.9467C77.7942 75.9365 78.3699 76.1136 78.8502 76.4525C79.2365 76.7125 79.3559 76.9584 79.2927 77.0216Z" fill="#263238"/>
<path d="M82.9456 85.7129C83.5394 85.5174 84.1554 85.3971 84.779 85.3546C85.067 85.3546 85.341 85.2562 85.3831 85.0595C85.4014 84.7622 85.3304 84.4662 85.1794 84.2094C84.8914 83.5068 84.5964 82.8043 84.2873 82.0174C83.051 78.9051 82.18 76.3477 82.2783 76.2986C82.3767 76.2494 83.5076 78.7294 84.7439 81.8488C85.0389 82.6146 85.327 83.3452 85.5939 84.0478C85.7836 84.3925 85.8434 84.7939 85.7625 85.1789C85.724 85.2816 85.662 85.3738 85.5815 85.4482C85.501 85.5226 85.4042 85.5772 85.2989 85.6075C85.1382 85.6506 84.9733 85.6765 84.8071 85.6848C84.1903 85.7721 83.5649 85.7816 82.9456 85.7129Z" fill="#263238"/>
<path d="M79.1385 73.2147C78.977 73.4957 77.8882 73.2147 76.5535 73.1374C75.2188 73.0601 74.0949 73.292 73.9685 72.9899C73.9053 72.8494 74.1371 72.5894 74.6077 72.3646C75.2303 72.0809 75.9126 71.9531 76.5957 71.9922C77.2802 72.0157 77.9494 72.2011 78.5485 72.5332C78.9981 72.8002 79.2088 73.0742 79.1385 73.2147Z" fill="#263238"/>
<path d="M89.4224 72.4977C89.2257 72.7576 88.439 72.4977 87.5047 72.4977C86.5705 72.4977 85.7767 72.7014 85.587 72.4344C85.5097 72.308 85.6292 72.048 85.9734 71.7951C86.431 71.4927 86.9704 71.3381 87.5188 71.3525C88.0706 71.3498 88.6091 71.522 89.0571 71.8443C89.3943 72.1113 89.5067 72.3712 89.4224 72.4977Z" fill="#263238"/>
<path d="M66.7894 81.4555C66.663 81.4064 61.7107 80.0504 61.9495 85.0737C62.1884 90.097 67.1968 88.8254 67.1968 88.6779C67.1968 88.5303 66.7894 81.4555 66.7894 81.4555Z" fill="#F7A58E"/>
<path d="M65.5668 86.8439C65.5668 86.8439 65.4825 86.9142 65.335 86.9844C65.1323 87.0867 64.8974 87.1044 64.6817 87.0336C64.3478 86.8425 64.0705 86.5662 63.878 86.233C63.6855 85.8998 63.5847 85.5215 63.5859 85.1367C63.554 84.7046 63.6163 84.2707 63.7685 83.8651C63.8104 83.7061 63.8896 83.5594 63.9996 83.4372C64.1095 83.315 64.2471 83.2208 64.4007 83.1625C64.5002 83.1323 64.607 83.1375 64.7031 83.1772C64.7991 83.2169 64.8785 83.2887 64.9276 83.3803C64.9978 83.5138 64.9768 83.6192 64.9978 83.6262C65.0189 83.6332 65.1032 83.5349 65.054 83.3311C65.0187 83.2082 64.9448 83.0998 64.8433 83.022C64.698 82.9274 64.5229 82.8899 64.3516 82.9166C64.1468 82.9688 63.9588 83.0723 63.8052 83.2174C63.6515 83.3624 63.5374 83.5442 63.4735 83.7456C63.2817 84.1879 63.1997 84.67 63.2347 85.1508C63.319 86.1624 63.8809 87.0898 64.6396 87.2584C64.7767 87.2894 64.9189 87.2896 65.0561 87.2593C65.1933 87.2289 65.3221 87.1687 65.4334 87.0828C65.5668 86.9704 65.5879 86.851 65.5668 86.8439Z" fill="#65463C"/>
<path d="M87.617 65.2612C88.4038 64.7694 85.8117 62.2683 83.7606 61.4744C80.6628 60.2801 76.0336 59.697 73.2589 60.6454C69.9574 61.7906 67.267 63.6172 65.7567 66.7647C64.3132 69.9664 63.7459 73.4941 64.113 76.987C64.13 78.0598 64.4358 79.1082 64.9981 80.022C65.7637 81.0899 67.1476 81.7152 67.1757 83.2538C67.1731 83.5324 67.2258 83.8087 67.3307 84.0668C67.4356 84.3248 67.5906 84.5595 67.7868 84.7573C68.7632 85.6847 69.8309 84.7011 70.3016 83.7526C71.292 81.7152 71.278 79.3616 71.2499 77.0994C71.3165 75.4899 71.1172 73.8805 70.6598 72.336C70.3648 71.507 69.9574 70.7412 69.6764 69.8981C69.5279 69.4861 69.4698 69.047 69.5061 68.6106C69.5425 68.1741 69.6725 67.7506 69.8871 67.3689C70.006 67.2152 70.1351 67.0697 70.2735 66.9333C70.9412 66.2825 71.7697 65.8206 72.6743 65.5947C73.5789 65.3688 74.5272 65.3871 75.4225 65.6476C78.3095 66.4907 83.2267 67.7061 84.4349 66.6734C85.2967 66.0248 86.0144 65.2042 86.5423 64.2636L87.617 65.2612Z" fill="#263238"/>
<path d="M84.6383 89.0004C84.6735 89.0777 84.4698 89.2674 84.0483 89.4009C83.4987 89.5494 82.9182 89.5384 82.3746 89.3692C81.831 89.2 81.3468 88.8796 80.9786 88.4454C80.7116 88.1011 80.6554 87.8271 80.7257 87.7779C80.7959 87.7288 81.5194 88.4032 82.5802 88.7194C83.6409 89.0355 84.5611 88.8177 84.6383 89.0004Z" fill="#263238"/>
<path d="M134.4 126.181L137.61 124.614C137.884 123.287 138.281 121.988 138.797 120.736C139.911 119.34 141.145 118.045 142.485 116.865C142.668 116.78 144.368 111.869 145.337 111.947C145.581 111.946 145.821 112.001 146.04 112.109C146.259 112.216 146.45 112.372 146.599 112.565C146.747 112.758 146.85 112.982 146.898 113.221C146.946 113.46 146.938 113.707 146.876 113.942C146.714 115.249 144.81 117.989 145.471 118.361C145.971 118.61 146.515 118.76 147.072 118.804C147.072 118.804 147.206 117.314 147.972 116.766C148.737 116.218 149.728 116.928 149.728 116.928L149.805 117.56L150.543 116.759C150.543 116.759 151.126 113.731 152.397 113.633C152.643 112.967 153.02 112.358 153.507 111.841C153.634 111.726 153.786 111.642 153.951 111.596C154.116 111.551 154.29 111.544 154.458 111.578C154.626 111.611 154.784 111.684 154.919 111.789C155.054 111.895 155.162 112.031 155.235 112.186L153.535 119.085L147.852 126.553C147.852 126.553 145.042 127.958 144.291 128.351C143.539 128.745 140.364 131.415 138.903 132.054C137.442 132.693 135.756 133.607 135.756 133.607L134.4 126.181Z" fill="#F7A58E"/>
<path d="M143.034 123.349C142.636 123.287 142.23 123.287 141.832 123.349C140.835 123.385 139.865 123.686 139.023 124.22C138.567 124.542 138.196 124.969 137.941 125.464C137.738 125.855 137.584 126.271 137.484 126.7C137.361 127.086 137.302 127.49 137.309 127.895C137.48 127.533 137.612 127.154 137.702 126.764C137.943 125.862 138.47 125.063 139.205 124.487C140.001 123.99 140.899 123.68 141.832 123.581C142.241 123.552 142.644 123.474 143.034 123.349Z" fill="#65463C"/>
<path d="M150.311 120.377C150.525 119.776 150.618 119.139 150.585 118.501C150.661 117.87 150.647 117.232 150.543 116.604C150.328 117.206 150.233 117.843 150.262 118.48C150.19 119.112 150.207 119.75 150.311 120.377Z" fill="#65463C"/>
<path d="M145.534 118.515C145.584 118.445 145.211 118.164 144.663 118.051C144.115 117.939 143.666 118.051 143.673 118.129C143.68 118.206 144.101 118.262 144.6 118.368C145.099 118.473 145.464 118.599 145.534 118.515Z" fill="#65463C"/>
<path d="M152.762 119.155C152.713 118.666 152.713 118.174 152.762 117.686C152.819 116.773 152.91 115.487 153.036 114.012L153.149 114.194C152.92 114.094 152.685 114.007 152.446 113.935C152.331 113.913 152.213 113.914 152.099 113.938C151.984 113.962 151.875 114.009 151.779 114.075C151.442 114.325 151.196 114.678 151.077 115.08C150.938 115.468 150.832 115.868 150.76 116.274C150.648 117.068 150.592 117.799 150.529 118.382C150.506 119.045 150.427 119.706 150.29 120.356C150.223 119.695 150.223 119.029 150.29 118.368C150.29 117.749 150.353 117.026 150.451 116.204C150.513 115.773 150.616 115.35 150.76 114.939C150.895 114.458 151.19 114.036 151.596 113.745C151.731 113.654 151.882 113.59 152.041 113.557C152.2 113.525 152.364 113.524 152.524 113.555C152.786 113.636 153.044 113.733 153.296 113.843L153.423 113.892V114.026C153.282 115.501 153.142 116.773 153.022 117.686C152.989 118.184 152.902 118.676 152.762 119.155Z" fill="#65463C"/>
<path d="M145.007 125.591C145.007 125.591 145.007 125.485 145.007 125.296C145.05 125.027 145.118 124.764 145.211 124.509C145.55 123.593 146.023 122.734 146.616 121.958V122.022C146.939 120.701 146.384 118.874 147.403 117.104C147.537 116.917 147.711 116.762 147.913 116.652C148.115 116.541 148.339 116.477 148.569 116.464C148.993 116.449 149.413 116.556 149.777 116.774L149.868 116.823V116.928C149.798 118.832 149.728 120.476 149.658 121.642C149.658 122.109 149.552 122.571 149.349 122.991C149.29 123.149 149.202 123.295 149.089 123.42C149.119 123.258 149.169 123.1 149.236 122.949C149.393 122.525 149.46 122.073 149.433 121.621C149.433 120.455 149.433 118.811 149.517 116.921L149.601 117.076C149.296 116.9 148.949 116.813 148.597 116.823C148.42 116.834 148.248 116.886 148.093 116.974C147.939 117.061 147.806 117.183 147.705 117.329C147.469 117.681 147.318 118.082 147.262 118.502C147.184 118.915 147.133 119.333 147.108 119.752C147.073 120.167 147.108 120.546 147.073 120.954C147.054 121.334 147.005 121.712 146.925 122.085V122.12C146.322 122.859 145.814 123.671 145.415 124.537C145.092 125.197 145.05 125.598 145.007 125.591Z" fill="#65463C"/>
<path d="M84.1751 293.79L83.4375 307.3C83.4375 307.3 96.9246 312.591 97.03 315.106L70.7793 314.607L71.0673 293.53L84.1751 293.79Z" fill="#263238"/>
<path d="M75.3381 306.008C75.0844 306.082 74.8667 306.247 74.7268 306.471C74.5868 306.695 74.5344 306.963 74.5795 307.223C74.6415 307.479 74.7993 307.701 75.0202 307.843C75.2411 307.986 75.5083 308.038 75.7666 307.989C76.0359 307.912 76.2672 307.738 76.4162 307.501C76.5653 307.264 76.6216 306.98 76.5744 306.703C76.4803 306.442 76.2888 306.228 76.04 306.105C75.7912 305.982 75.5045 305.959 75.2398 306.043" fill="#E0E0E0"/>
<path d="M70.7793 314.608L70.8917 312.5L96.0184 313.765C96.0184 313.765 97.1775 314.299 97.03 315.121L70.7793 314.608Z" fill="#455A64"/>
<path d="M83.866 307.174C83.866 307.308 83.2127 307.35 82.5805 307.75C81.9483 308.151 81.5901 308.685 81.4777 308.629C81.3653 308.572 81.562 307.842 82.3417 307.371C83.1214 306.9 83.8941 307.062 83.866 307.174Z" fill="white"/>
<path d="M86.5982 308.348C86.5982 308.474 86.0644 308.678 85.6148 309.212C85.1652 309.746 85.0388 310.315 84.9124 310.308C84.7859 310.301 84.7227 309.605 85.2847 308.903C85.8466 308.2 86.5982 308.242 86.5982 308.348Z" fill="white"/>
<path d="M88.0947 311.691C87.9823 311.691 87.8137 311.073 88.1579 310.377C88.5021 309.682 89.1062 309.415 89.1554 309.52C89.2046 309.626 88.8323 309.998 88.5583 310.574C88.2843 311.15 88.2281 311.684 88.0947 311.691Z" fill="white"/>
<path d="M83.6901 304.076C83.6339 304.195 83.0509 304.006 82.3274 304.041C81.6038 304.076 81.0278 304.294 80.9646 304.181C80.9014 304.069 81.4563 303.626 82.3063 303.598C83.1563 303.57 83.7533 303.977 83.6901 304.076Z" fill="white"/>
<path d="M52.3959 292.455L50.991 308.769L53.5831 321.998C53.6273 322.221 53.6257 322.45 53.5782 322.673C53.5307 322.895 53.4384 323.105 53.3069 323.291C53.1754 323.476 53.0075 323.633 52.8134 323.751C52.6194 323.87 52.4032 323.947 52.1782 323.979C51.913 324.014 51.6431 323.986 51.3913 323.895C51.1395 323.805 50.9131 323.655 50.7311 323.459C48.3919 320.902 39.8361 311.473 40.0047 310.286C40.2013 308.881 40.3629 292.982 40.3629 292.982L52.3959 292.455Z" fill="#263238"/>
<path d="M52.136 323.98L40.0328 309.184L39.9906 309.886C39.95 310.484 40.1244 311.077 40.4824 311.558C41.4377 312.844 44.1632 316.336 50.6398 323.46C50.8257 323.665 51.0599 323.821 51.3211 323.913C51.5824 324.005 51.8625 324.03 52.136 323.987V323.98Z" fill="#455A64"/>
<g opacity="0.6">
<path opacity="0.6" d="M43.7206 304.132C43.9119 304.291 44.0377 304.515 44.074 304.761C44.1103 305.008 44.0545 305.259 43.9173 305.466C43.7641 305.664 43.5411 305.795 43.2941 305.833C43.0471 305.871 42.795 305.813 42.5897 305.67C42.3892 305.502 42.2582 305.265 42.2219 305.005C42.1856 304.746 42.2465 304.482 42.393 304.265C42.5742 304.075 42.822 303.963 43.0841 303.953C43.3462 303.942 43.6021 304.034 43.7979 304.209" fill="white"/>
</g>
<path d="M48.8555 316.602C49.2825 316.117 49.7973 315.716 50.3728 315.422C50.9864 315.222 51.6325 315.141 52.2765 315.183C52.2765 315.148 52.0939 315.007 51.7145 314.93C51.2156 314.841 50.7015 314.897 50.2333 315.091C49.7651 315.285 49.3625 315.61 49.0733 316.026C48.8555 316.349 48.8204 316.588 48.8555 316.602Z" fill="white"/>
<path d="M49.8813 318.886C50.3657 318.654 50.8629 318.45 51.3705 318.275C51.9042 318.21 52.4414 318.177 52.9791 318.176C52.739 318.002 52.4605 317.888 52.1671 317.844C51.8736 317.8 51.5739 317.827 51.2932 317.923C50.3098 318.127 49.797 318.816 49.8813 318.886Z" fill="white"/>
<path d="M46.875 313.659C47.5907 313.237 48.3374 312.871 49.1088 312.563C49.9168 312.365 50.7387 312.228 51.5674 312.155C50.7234 311.931 49.8327 311.953 49.001 312.22C48.1693 312.486 47.4315 312.986 46.875 313.659Z" fill="white"/>
<path d="M46.8887 308.664C46.8887 308.769 47.8511 308.446 48.9961 308.481C50.1411 308.516 51.1034 308.853 51.1034 308.755C50.4642 308.36 49.7313 308.144 48.9804 308.128C48.2295 308.112 47.488 308.297 46.8325 308.664H46.8887Z" fill="white"/>
<path d="M47.1836 303.866C47.9113 303.683 48.6602 303.597 49.4104 303.613C50.1402 303.755 50.8485 303.991 51.5178 304.315C51.5178 304.315 51.3843 304.069 51.019 303.83C50.539 303.522 49.9926 303.332 49.4247 303.275C48.8569 303.219 48.2838 303.299 47.7526 303.507C47.3663 303.648 47.1625 303.83 47.1836 303.866Z" fill="white"/>
<path d="M49.4388 302.726C49.5037 302.527 49.5252 302.316 49.502 302.108C49.4794 301.538 49.3483 300.978 49.1156 300.457C48.9739 300.062 48.7076 299.725 48.357 299.495C48.2322 299.434 48.0922 299.412 47.9547 299.43C47.8171 299.449 47.6883 299.508 47.5843 299.6C47.4025 299.79 47.2953 300.04 47.2822 300.303C47.2843 300.853 47.4783 301.386 47.8309 301.81C48.1835 302.233 48.6726 302.52 49.214 302.621C49.7551 302.716 50.3124 302.647 50.8135 302.421C51.3146 302.196 51.7363 301.825 52.0238 301.356C52.0955 301.24 52.1415 301.109 52.1584 300.974C52.1754 300.838 52.163 300.7 52.1221 300.57C52.0648 300.436 51.9648 300.325 51.8378 300.253C51.7107 300.182 51.5638 300.155 51.4197 300.176C51.0109 300.24 50.6259 300.409 50.3028 300.668C49.8379 300.993 49.4337 301.397 49.1086 301.862C48.9749 302.023 48.8768 302.209 48.8206 302.41C49.2854 301.825 49.8318 301.309 50.4433 300.879C50.7336 300.666 51.0709 300.526 51.4267 300.471C51.5025 300.466 51.5782 300.484 51.6435 300.523C51.7088 300.562 51.7606 300.62 51.792 300.689C51.8132 300.776 51.816 300.867 51.8003 300.955C51.7845 301.043 51.7506 301.127 51.7007 301.202C51.4396 301.593 51.072 301.902 50.6414 302.091C50.2107 302.28 49.7349 302.342 49.2702 302.27C48.8124 302.183 48.3977 301.943 48.094 301.589C47.7903 301.236 47.6156 300.789 47.5983 300.324C47.6012 300.136 47.6681 299.955 47.788 299.811C47.8439 299.757 47.9153 299.722 47.9921 299.71C48.0689 299.699 48.1474 299.712 48.2165 299.748C48.5115 299.941 48.7396 300.221 48.8698 300.549C49.1882 301.235 49.3809 301.972 49.4388 302.726Z" fill="white"/>
<path d="M97.1843 180.292C98.4483 185.898 98.8744 191.661 98.4488 197.392C98.1678 201.025 85.91 301.554 85.91 301.554H69.3532L74.0104 207.067L72.6547 207.362C72.6547 207.362 63.6141 247.661 62.8766 254.187C62.2162 260.047 54.5946 302.664 54.5946 302.664L39.4568 302.833L44.3107 246.473L49.9304 192.376L52.0377 176.639L97.1843 180.292Z" fill="#6D747A"/>
<path d="M71.3975 197.427C71.6133 197.588 71.8495 197.721 72.0999 197.82C72.7484 198.147 73.4385 198.383 74.1511 198.523C74.655 198.615 75.1714 198.615 75.6754 198.523C76.271 198.431 76.826 198.165 77.27 197.757C77.737 197.291 78.0716 196.709 78.2393 196.071C78.4206 195.414 78.5683 194.748 78.6819 194.076C79.2087 191.35 79.567 188.863 79.7777 187.05C79.8831 186.144 79.9533 185.413 79.9884 184.9C80.0162 184.639 80.0162 184.375 79.9884 184.113C79.9089 184.364 79.8571 184.624 79.8339 184.886C79.7426 185.462 79.6372 186.172 79.5108 186.994C79.2368 188.785 78.8083 191.265 78.3166 194.019C78.0497 195.361 77.867 196.731 77.0311 197.532C76.6397 197.861 76.1801 198.098 75.6856 198.227C75.1911 198.356 74.6741 198.373 74.1721 198.277C73.4733 198.153 72.7901 197.953 72.135 197.68C71.8989 197.569 71.6516 197.485 71.3975 197.427Z" fill="#121D50"/>
<path d="M76.3777 184.612C76.3777 184.612 76.2724 184.528 76.0406 184.514C75.7077 184.509 75.3824 184.613 75.1133 184.809C74.9065 184.954 74.7357 185.145 74.6139 185.367C74.4922 185.588 74.4227 185.835 74.4109 186.088C74.4305 186.404 74.5414 186.709 74.7301 186.964C74.9188 187.219 75.1772 187.414 75.4743 187.525C75.7714 187.637 76.0944 187.66 76.4043 187.592C76.7141 187.523 76.9977 187.367 77.2207 187.141C77.3734 186.945 77.4809 186.717 77.5356 186.474C77.5902 186.231 77.5906 185.979 77.5368 185.736C77.464 185.412 77.2863 185.12 77.031 184.907C76.8484 184.76 76.7149 184.739 76.7079 184.76C77.0125 185.026 77.218 185.388 77.2909 185.785C77.3272 185.99 77.3177 186.2 77.263 186.401C77.2084 186.601 77.1099 186.787 76.9748 186.945C76.7931 187.111 76.569 187.223 76.3273 187.27C76.0856 187.317 75.8358 187.296 75.6053 187.209C75.3748 187.123 75.1728 186.974 75.0215 186.78C74.8702 186.586 74.7756 186.353 74.7481 186.109C74.7503 185.901 74.7987 185.696 74.8898 185.508C74.9809 185.321 75.1125 185.157 75.2749 185.027C75.5892 184.775 75.9755 184.63 76.3777 184.612Z" fill="#121D50"/>
<path d="M50.1482 191.427C50.3287 191.49 50.5189 191.521 50.7102 191.518C51.2269 191.556 51.7458 191.556 52.2626 191.518C53.9787 191.417 55.6651 191.025 57.25 190.359C58.8329 189.692 60.2894 188.758 61.556 187.598C61.9436 187.252 62.303 186.876 62.6308 186.474C62.8626 186.193 62.982 186.024 62.9609 186.01C62.9399 185.996 62.3849 186.579 61.3945 187.415C58.8111 189.595 55.6264 190.937 52.2626 191.265C50.956 191.413 50.1482 191.371 50.1482 191.427Z" fill="#121D50"/>
<path d="M90.3918 184.922C90.5744 185.514 90.8317 186.081 91.1575 186.608C91.8661 187.892 92.7244 189.088 93.7144 190.17C94.6755 191.223 95.7632 192.153 96.9527 192.938C97.4187 193.282 97.9322 193.557 98.4771 193.753C98.0298 193.383 97.5606 193.041 97.0722 192.727C95.9347 191.897 94.8829 190.956 93.9322 189.917C92.9618 188.854 92.0939 187.701 91.3401 186.474C90.7501 185.519 90.434 184.894 90.3918 184.922Z" fill="#121D50"/>
<path d="M58.676 136.282L52.3539 142.388L54.4051 130.711L41.501 126.65C41.501 126.65 38.0871 142.669 37.4971 146.463C36.4293 153.263 37.7359 162.931 44.079 163.612C50.9279 164.315 56.105 157.584 59.3995 153.144C61.9354 149.737 66.0166 143.772 66.0166 143.772L58.6479 136.282" fill="#F2F5F9"/>
<path d="M110.756 133.41C110.643 133.03 104.3 115.754 102.277 111.974C99.8536 107.45 94.7046 105.588 91.5436 105.391C91.1362 105.391 89.654 105.328 88.3615 105.391C79.6581 105.764 54.6437 107.766 54.6437 107.766C54.6437 107.766 45.1747 110.141 43.257 118.712C40.8546 129.461 38.9229 140.063 38.9229 140.063L55.866 143.723L57.861 138.7L89.7102 145.81L97.4863 134.302L110.756 133.41Z" fill="#F2F5F9"/>
<path d="M52.5858 160.107L53.0213 144.791L52.3961 108.701L65.6022 102.876L67.0844 97.1787L82.5383 104.471L85.7696 100.902L87.1605 104.816L90.448 106.045L97.0932 119.162L100.865 129.482C100.865 129.482 99.6641 174.313 98.7158 181.528C98.7158 181.528 95.618 182.673 87.9543 182.863C72.423 183.235 51.2722 182.252 51.2722 182.252L51.0544 181.549C50.4492 179.654 50.2693 177.649 50.5276 175.676L52.5858 160.107Z" fill="#F2F5F9"/>
<path d="M87.9189 181.528C87.926 181.467 87.926 181.406 87.9189 181.345C87.9189 181.191 87.9189 181.015 87.961 180.79C87.961 180.27 88.0243 179.568 88.0805 178.682C88.1577 176.807 88.2771 174.158 88.4247 170.905C88.6635 164.343 88.9796 155.266 88.8742 145.226C88.811 140.21 88.6424 135.426 88.1718 131.091C87.7011 126.756 86.9284 122.906 86.2541 119.688C85.5797 116.471 84.9545 113.892 84.519 112.108L84.0062 110.056C83.943 109.845 83.9009 109.67 83.8587 109.522C83.8447 109.461 83.8235 109.403 83.7955 109.347C83.7863 109.41 83.7863 109.473 83.7955 109.536L83.9009 110.077C84.0133 110.583 84.1608 111.272 84.3434 112.143C84.7298 113.941 85.3058 116.534 85.952 119.752C86.5983 122.969 87.3007 126.819 87.7784 131.133C88.2561 135.447 88.3895 140.217 88.4809 145.233C88.5792 155.252 88.3193 164.329 88.1437 170.891C88.0594 174.151 87.9821 176.8 87.9329 178.675C87.9329 179.561 87.8978 180.27 87.8908 180.783V181.331C87.8884 181.398 87.8979 181.464 87.9189 181.528Z" fill="#263238"/>
<path d="M77.9794 125.063C77.6824 125.042 77.3843 125.042 77.0873 125.063L74.4742 125.217L64.97 125.871H64.7874V126.046C65.1175 130.409 65.4898 135.622 65.9394 141.25V141.355L66.0166 141.411C66.4592 141.734 66.9439 142.065 67.4216 142.381C68.2842 142.948 69.1777 143.466 70.0979 143.933C70.9952 144.43 71.9806 144.747 72.999 144.868C74.0009 144.883 74.99 144.641 75.8721 144.165C76.7011 143.734 77.4807 143.213 78.1972 142.613C78.5414 142.318 78.8996 142.029 79.2017 141.727C79.3839 141.574 79.5363 141.388 79.6513 141.179C79.7649 140.979 79.85 140.764 79.9041 140.54C80.09 139.718 80.1679 138.874 80.1359 138.032C80.098 136.545 79.9643 135.062 79.7355 133.592C79.3422 130.901 78.8786 128.751 78.5414 127.269C78.3728 126.531 78.2323 125.955 78.1269 125.568C78.0854 125.369 78.0242 125.173 77.9443 124.985C77.9589 125.189 77.9918 125.392 78.0426 125.59C78.1269 126.025 78.2393 126.594 78.3798 127.304C78.6608 128.793 79.0823 130.95 79.4335 133.627C79.6311 135.088 79.7461 136.558 79.7777 138.032C79.7969 138.838 79.7143 139.643 79.5318 140.428C79.4449 140.816 79.2355 141.165 78.9347 141.425C78.6116 141.72 78.2815 142.008 77.9373 142.289C77.2438 142.869 76.4875 143.368 75.6824 143.779C74.8638 144.212 73.9457 144.423 73.0201 144.39C72.0626 144.271 71.1371 143.968 70.2946 143.498C69.3893 143.038 68.5099 142.529 67.6604 141.973C67.1757 141.657 66.698 141.327 66.2555 141.018L66.3468 141.179C65.8902 135.559 65.4758 130.332 65.1245 125.976L64.9559 126.173L74.3477 125.351L76.9819 125.098L77.6844 125.02L77.9794 125.063Z" fill="#263238"/>
<path d="M73.2379 100.06C68.8125 97.699 67.0844 97.2002 67.0844 97.2002L65.7217 103.2L82.3066 111.532L82.5033 104.507C82.5033 104.507 77.5721 102.378 73.2379 100.06Z" fill="#F2F5F9"/>
<path d="M85.7276 100.916L82.4963 104.485L84.2244 111.953L87.1044 105.209" fill="#F2F5F9"/>
<path d="M65.0825 130.023C65.0825 130.142 68.1803 130.023 71.9736 129.7C75.7668 129.376 78.8436 129.067 78.8295 128.948C78.8155 128.828 75.7387 128.948 71.9385 129.264C68.1382 129.58 65.0755 129.896 65.0825 130.023Z" fill="#263238"/>
<g opacity="0.3">
<path opacity="0.3" d="M79.4896 141.223C78.745 142.445 78.0847 144.124 77.045 145.129C76.0586 146.185 74.7239 146.848 73.2869 146.998C72.0172 147.023 70.7707 146.655 69.7185 145.944C68.0836 144.8 66.8538 143.166 66.2062 141.279C66.0938 141.138 68.6718 142.86 70.0697 143.604C71.2593 144.313 72.6487 144.612 74.0245 144.454C76.0967 144.286 77.9512 142.579 79.5247 141.223" fill="black"/>
</g>
<g opacity="0.3">
<path opacity="0.3" d="M82.4748 105.23L83.5987 113.872L67.3721 103.832L82.3062 111.539L82.4748 105.23Z" fill="black"/>
</g>
<path d="M85.3763 113.556C88.1053 125.373 89.9438 137.378 90.8765 149.471C91.5087 157.859 91.9793 168.981 91.9793 168.981L88.2352 173.611L82.5032 168.538C82.5032 168.538 82.7491 144.918 82.4541 137.007C82.2082 130.501 83.2268 113.907 83.2268 113.907L85.3763 113.556Z" fill="#FF6B00"/>
<path d="M56.3018 124.059C56.2307 124.288 56.179 124.523 56.1473 124.761L55.8171 126.609C55.5431 128.211 55.1708 130.347 54.7634 132.707C54.356 135.068 53.9978 137.253 53.7659 138.819C53.6465 139.599 53.5622 140.225 53.506 140.674C53.461 140.906 53.4375 141.141 53.4358 141.377C53.5069 141.147 53.5586 140.912 53.5903 140.674C53.6746 140.203 53.787 139.578 53.9275 138.833L54.9952 132.735C55.4027 130.354 55.7398 128.19 55.9716 126.623C56.084 125.864 56.1683 125.218 56.2386 124.761C56.2801 124.529 56.3012 124.294 56.3018 124.059Z" fill="#263238"/>
<path d="M51.4128 109.727C51.4128 109.762 51.8624 110.127 52.5227 110.816C54.2745 112.608 55.491 114.854 56.035 117.3C56.2387 118.235 56.2808 118.825 56.323 118.825C56.3398 118.685 56.3398 118.543 56.323 118.403C56.2984 118.021 56.2515 117.641 56.1825 117.265C55.947 116.031 55.5204 114.841 54.9181 113.738C54.3194 112.624 53.5517 111.61 52.6421 110.731C52.3661 110.477 52.0727 110.242 51.7641 110.029C51.6635 109.91 51.545 109.808 51.4128 109.727Z" fill="#263238"/>
<path d="M82.4469 107.815L83.8448 106.993L85.3059 109.635L85.3691 113.555L83.2266 113.899L82.3416 111.602L82.4469 107.815Z" fill="#FF725E"/>
<path d="M82.3486 104.429C82.3486 104.429 82.6647 104.977 83.1846 105.834C83.7044 106.691 84.3928 107.942 85.0531 109.347L85.2076 109.684L85.313 109.902L85.4184 109.684C85.9543 108.557 86.4119 107.395 86.7881 106.206C86.9286 105.757 87.034 105.384 87.0972 105.131C87.1417 105 87.1653 104.862 87.1675 104.724C87.1675 104.724 86.9637 105.265 86.6406 106.129C86.3175 106.993 85.8398 108.237 85.2357 109.557H85.4465L85.2849 109.22C84.7226 108.006 84.0771 106.832 83.3531 105.707C83.0722 105.279 82.8333 104.942 82.6507 104.71C82.5609 104.605 82.4595 104.511 82.3486 104.429Z" fill="#263238"/>
<path d="M65.6021 102.897C65.6719 102.95 65.7473 102.995 65.8268 103.031L66.5293 103.382L68.9808 104.654C71.0882 105.729 73.898 107.26 77.0169 108.932C78.9346 109.951 80.7399 110.9 82.3134 111.687L82.4609 111.757V111.63C82.4609 109.593 82.5031 107.872 82.5101 106.621V105.216C82.519 105.05 82.519 104.883 82.5101 104.717C82.4784 104.881 82.4643 105.049 82.468 105.216C82.468 105.574 82.4328 106.045 82.4118 106.621C82.4118 107.865 82.3345 109.586 82.2853 111.63L82.4258 111.539C80.8664 110.738 79.0611 109.79 77.1504 108.771C74.0104 107.092 71.1655 105.581 69.0792 104.555C68.0325 104.036 67.1826 103.628 66.5925 103.347L65.8901 103.038C65.8005 102.979 65.7037 102.932 65.6021 102.897Z" fill="#263238"/>
<path d="M83.606 114.363C83.6412 114.412 84.0135 114.237 84.4349 113.97C84.8564 113.703 85.1795 113.443 85.1374 113.386C85.0952 113.33 84.73 113.506 84.3015 113.78C83.873 114.054 83.5709 114.307 83.606 114.363Z" fill="#263238"/>
<path d="M83.2549 113.169C83.6551 112.543 83.9894 111.876 84.2524 111.181C84.5856 110.507 84.8492 109.801 85.0391 109.073C84.643 109.7 84.3089 110.363 84.0416 111.054C83.7077 111.731 83.4441 112.439 83.2549 113.169Z" fill="#263238"/>
<g opacity="0.3">
<path opacity="0.3" d="M64.6818 148.514C64.6818 148.514 61.3873 152.28 59.4345 154.725C57.8259 156.734 54.8826 158.863 52.4661 160.893L51.9814 164.975C53.9202 164.589 56.5333 162.348 57.8469 160.872C59.2313 159.423 60.4581 157.831 61.5067 156.123C63.2769 152.961 65.7214 149.926 66.3255 146.357L64.6818 148.514Z" fill="black"/>
</g>
<path d="M90.1318 105.595C90.1318 105.595 97.8588 104.239 102.312 111.138C106.766 118.038 119.389 135.236 119.389 135.236L135.25 124.782L141.952 132.763C141.952 132.763 130.347 148.761 122.74 152.126C115.132 155.491 106.934 146.238 106.934 146.238L96.8262 134.513L90.1318 105.595Z" fill="#F2F5F9"/>
<path d="M52.1923 161.035C52.2977 160.947 52.4079 160.865 52.5224 160.789C52.7402 160.627 53.0774 160.423 53.4848 160.086C54.6407 159.194 55.7431 158.235 56.7863 157.213C60.2876 153.672 63.5142 149.869 66.438 145.838V146.007L64.2955 140.815L61.7245 134.562L61.9985 134.633L46.8677 147.461C46.8677 147.461 46.9309 147.349 47.1135 147.166C47.2962 146.984 47.5631 146.731 47.9214 146.407C48.6238 145.754 49.6845 144.82 51.0051 143.66C53.6604 141.335 57.4045 138.103 61.7526 134.401L61.9353 134.246L62.0266 134.471L64.6116 140.717L66.719 145.916L66.7541 146.007L66.6979 146.084C63.7708 150.122 60.5118 153.907 56.9549 157.402C55.8936 158.418 54.7622 159.357 53.5691 160.213C53.1476 160.508 52.7964 160.697 52.5716 160.845C52.4542 160.925 52.3267 160.989 52.1923 161.035Z" fill="#263238"/>
<path d="M101.54 116.682C101.57 116.806 101.582 116.934 101.575 117.061C101.575 117.349 101.575 117.714 101.575 118.15C101.575 119.098 101.575 120.468 101.575 122.155C101.511 125.541 101.308 130.213 101.02 135.363C100.732 140.513 100.486 145.199 100.352 148.557C100.296 150.208 100.247 151.557 100.212 152.554C100.212 152.997 100.212 153.355 100.163 153.643C100.166 153.771 100.152 153.899 100.121 154.023C100.094 153.898 100.082 153.771 100.085 153.643C100.085 153.355 100.085 152.99 100.085 152.554C100.085 151.606 100.085 150.236 100.085 148.55C100.142 145.163 100.352 140.491 100.64 135.342C100.928 130.192 101.174 125.506 101.301 122.148C101.357 120.504 101.406 119.148 101.448 118.15C101.448 117.707 101.483 117.349 101.49 117.061C101.489 116.933 101.506 116.805 101.54 116.682Z" fill="#263238"/>
<path d="M119.726 144.348C119.621 144.348 119.642 142.241 119.515 139.69C119.389 137.14 119.164 135.046 119.269 135.032C119.655 136.548 119.86 138.105 119.881 139.669C120.02 141.229 119.968 142.801 119.726 144.348Z" fill="#263238"/>
<path d="M135.426 124.67L135.854 125.183L137.112 126.715L142.029 132.729V132.764V132.806C140.392 135.005 138.383 137.576 135.953 140.408C133.259 143.634 130.314 146.641 127.144 149.4L125.739 150.489C125.268 150.848 124.749 151.192 124.25 151.508C123.206 152.207 122.045 152.714 120.822 153.004C118.279 153.574 115.539 152.801 113.151 151.466C110.676 150.041 108.462 148.204 106.604 146.035L100.612 139.234L100.858 139.143C100.669 145.522 100.444 152.288 100.156 159.391C99.9965 162.946 99.8373 166.583 99.6781 170.301C99.4674 174.018 99.3269 177.812 98.9054 181.676V181.781H98.8141C97.0207 182.314 95.1817 182.678 93.3209 182.87C91.4524 183.088 89.5487 183.208 87.624 183.257C83.7886 183.348 79.897 183.341 75.893 183.257C67.9272 183.144 59.6945 182.842 51.3072 182.379H51.1878L51.1456 182.266C50.5069 180.608 50.1852 178.844 50.1973 177.067C50.1973 176.161 50.387 175.283 50.4924 174.397C50.5977 173.512 50.7242 172.62 50.8436 171.721C51.3213 168.138 51.7989 164.491 52.2906 160.817L52.5786 160.986C51.6134 161.74 50.5588 162.372 49.4387 162.868C47.9899 163.512 46.4229 163.847 44.8376 163.852C44.0409 163.866 43.2475 163.745 42.4914 163.494C41.7426 163.217 41.0587 162.789 40.4824 162.236C39.378 161.118 38.561 159.749 38.1011 158.246C37.6095 156.8 37.282 155.303 37.1247 153.784C36.8086 150.764 37.0009 147.713 37.6937 144.756C38.2744 141.82 38.8527 138.911 39.4287 136.031C40.0047 133.15 40.5714 130.295 41.1287 127.466C41.7328 124.656 42.4774 121.888 42.9902 119.127C43.4254 116.309 44.8438 113.735 46.9941 111.862C49.0566 110.036 51.4609 108.636 54.0678 107.745L65.567 102.743L65.4757 102.849C65.9814 100.895 66.4732 99.0126 66.9579 97.1508L67 96.9893L67.1545 97.0384C70.0205 98.0431 72.5143 99.5606 75.0571 100.804L82.5944 104.352H82.4188L85.7485 100.6L85.917 100.411L85.9943 100.65C86.465 102.055 86.9075 103.376 87.343 104.675L87.2728 104.591C87.6591 104.795 87.9752 104.97 88.3616 105.167H88.2843C90.6219 105.042 92.9656 105.247 95.2456 105.778C97.427 106.342 99.4059 107.509 100.957 109.144C101.683 109.931 102.328 110.79 102.881 111.708C103.45 112.586 104.033 113.436 104.602 114.279C105.768 115.942 106.895 117.563 107.981 119.141C112.385 125.387 116.277 130.754 119.487 135.173H119.375L131.352 127.333L134.414 125.331L135.454 124.67C135.454 124.67 135.103 124.916 134.414 125.373L131.352 127.417L119.473 135.307L119.41 135.349L119.361 135.286C116.13 130.881 112.224 125.527 107.805 119.289L104.377 114.441C103.809 113.598 103.218 112.748 102.642 111.869C102.096 110.965 101.459 110.12 100.739 109.347C99.211 107.747 97.2634 106.61 95.1192 106.066C92.8633 105.549 90.5461 105.351 88.2351 105.476H88.193H88.1579C87.8207 105.287 87.4554 105.118 87.0831 104.914H87.0269V104.858L85.6712 100.839L85.917 100.888L82.6155 104.605L82.5382 104.682L82.4399 104.64L74.8956 101.127C72.3386 99.8838 69.8239 98.3663 67.0421 97.3967L67.2388 97.2843C66.7541 99.1461 66.2694 101.029 65.7637 102.982V103.059H65.6934L54.1451 108.062L54.0819 107.914C54.1521 108.23 54.0819 108.005 54.0819 108.076H54.0397H53.9835L53.8712 108.118L53.6323 108.202L53.1687 108.378C52.8596 108.511 52.5505 108.638 52.2485 108.778C51.6397 109.059 51.0426 109.368 50.4572 109.706C49.2813 110.38 48.1794 111.176 47.1698 112.08C45.0765 113.904 43.6976 116.411 43.2782 119.155C42.7654 121.965 42.0208 124.691 41.4237 127.501C40.8266 130.312 40.2927 133.178 39.7238 136.059C39.1548 138.939 38.5788 141.848 37.9957 144.777C37.3187 147.729 37.1453 150.775 37.4829 153.784C37.6259 155.29 37.9369 156.774 38.4102 158.21C38.8549 159.655 39.6375 160.972 40.6931 162.053C41.2364 162.571 41.8793 162.973 42.5827 163.234C43.2986 163.47 44.0489 163.584 44.8025 163.571C46.3371 163.564 47.8535 163.238 49.256 162.615C50.3494 162.134 51.3782 161.518 52.3187 160.782L52.67 160.508L52.6138 160.95C52.1291 164.625 51.6444 168.271 51.2089 171.854L50.8506 174.531C50.7452 175.416 50.5837 176.301 50.5556 177.165C50.5501 178.897 50.867 180.615 51.4898 182.231L51.3283 182.112C59.7577 182.575 67.9624 182.877 75.9141 182.997C79.897 183.053 83.8097 183.067 87.638 182.997C89.5581 182.955 91.4453 182.828 93.2998 182.617C95.1345 182.431 96.9477 182.074 98.7157 181.549L98.6104 181.69C99.0248 177.854 99.1793 174.053 99.3901 170.344C99.6008 166.634 99.7202 162.988 99.8748 159.44C100.17 152.33 100.402 145.564 100.577 139.192V138.834L100.816 139.101L106.794 145.923C108.634 148.066 110.821 149.885 113.264 151.304C115.617 152.625 118.293 153.412 120.766 152.843C121.963 152.555 123.099 152.058 124.123 151.374C124.622 151.037 125.135 150.728 125.606 150.37L127.011 149.295C130.177 146.55 133.125 143.562 135.826 140.358C138.264 137.548 140.287 134.977 141.931 132.785V132.862L137.098 126.834L135.854 125.267C135.566 124.86 135.426 124.67 135.426 124.67Z" fill="#121D50"/>
<path d="M103.394 123.573L98.1044 143.54C97.9584 144.072 97.6382 144.54 97.1951 144.869C96.7519 145.197 96.2113 145.368 95.6599 145.353L68.2642 144.819C67.8986 144.811 67.5391 144.723 67.2114 144.56C66.8837 144.398 66.5959 144.165 66.3685 143.879C66.1411 143.592 65.9796 143.259 65.8957 142.903C65.8118 142.547 65.8074 142.177 65.8829 141.819L69.915 122.695C70.0301 122.136 70.335 121.634 70.778 121.274C71.221 120.914 71.7748 120.719 72.3455 120.721H101.209C101.558 120.716 101.903 120.793 102.217 120.946C102.531 121.098 102.805 121.322 103.017 121.599C103.229 121.876 103.374 122.199 103.439 122.542C103.505 122.884 103.489 123.238 103.394 123.573Z" fill="#263238"/>
<path d="M60.945 136.002L62.2446 134.786C62.2446 134.786 63.1086 131.92 63.6495 131.379C64.2526 130.942 64.9313 130.62 65.6515 130.431L68.9179 127.431L68.3208 130.107L73.0623 130.072C73.3365 130.063 73.6071 130.137 73.8381 130.285C74.069 130.433 74.2493 130.648 74.3549 130.901C74.3916 130.983 74.4061 131.072 74.397 131.161C74.3478 131.429 74.2363 131.68 74.0715 131.896C73.9068 132.113 73.6934 132.287 73.4487 132.405L72.7462 132.721C73.0183 132.8 73.2648 132.95 73.4608 133.155C73.6568 133.359 73.7956 133.612 73.8631 133.887C73.9065 134.227 73.8317 134.572 73.6515 134.863C73.4712 135.155 73.1963 135.376 72.8727 135.489C73.0408 135.573 73.189 135.692 73.3073 135.837C73.4256 135.983 73.5113 136.153 73.5586 136.334C73.6059 136.516 73.6136 136.706 73.5813 136.891C73.549 137.076 73.4775 137.252 73.3714 137.407C73.3714 137.407 74.4532 138.693 73.828 139.564C73.2028 140.435 69.6133 141.889 69.6133 141.889L67.6183 142.796C67.1323 142.936 66.6208 142.965 66.1221 142.88L65.3424 142.992L64.5135 143.695C64.5135 143.695 59.7649 141.081 60.945 136.002Z" fill="#F7A58E"/>
<path d="M66.0867 133.95C66.4431 134.002 66.8051 134.002 67.1615 133.95C68.0277 133.891 68.889 133.774 69.7395 133.599C70.59 133.42 71.4277 133.186 72.2472 132.896C72.5953 132.806 72.9271 132.661 73.2307 132.468C73.2307 132.391 71.6501 132.896 69.6833 133.29C67.7164 133.683 66.0446 133.859 66.0867 133.95Z" fill="#65463C"/>
<path d="M64.7522 137.688C66.1419 137.459 67.5147 137.138 68.8615 136.726C70.2304 136.399 71.5771 135.986 72.8936 135.489C71.5033 135.715 70.1303 136.037 68.7843 136.452C67.4133 136.77 66.0661 137.184 64.7522 137.688Z" fill="#65463C"/>
<path d="M65.1316 140.477C65.5751 140.48 66.0169 140.423 66.4452 140.308C67.4916 140.094 68.5202 139.801 69.5219 139.43C70.5233 139.058 71.4954 138.612 72.4301 138.095C72.8254 137.908 73.1959 137.672 73.5329 137.393C73.1182 137.542 72.7165 137.725 72.3317 137.941C71.6293 138.292 70.5826 138.756 69.4236 139.191C68.2645 139.627 67.1827 139.936 66.403 140.14C65.9707 140.217 65.5455 140.33 65.1316 140.477Z" fill="#65463C"/>
<path d="M64.2463 136.866C64.3235 136.866 64.169 136.311 64.2814 135.665C64.3938 135.018 64.7029 134.576 64.6396 134.52C64.5764 134.463 64.1198 134.885 64.0004 135.623C63.9411 135.835 63.9325 136.058 63.9752 136.274C64.0179 136.49 64.1107 136.693 64.2463 136.866Z" fill="#65463C"/>
<path d="M64.197 133.409C64.2462 133.353 64.0004 133.058 63.9652 132.615C63.9301 132.173 64.0917 131.842 64.0285 131.793C63.9652 131.744 63.902 131.828 63.8107 131.983C63.7034 132.186 63.6594 132.416 63.6843 132.643C63.7027 132.874 63.7937 133.093 63.9442 133.269C64.0636 133.409 64.1689 133.451 64.197 133.409Z" fill="#65463C"/>
<path d="M64.5133 140.316C64.5766 140.26 64.3869 139.965 64.2745 139.572C64.1621 139.178 64.1551 138.827 64.0708 138.813C63.9865 138.799 63.8671 139.185 64.0006 139.649C64.134 140.113 64.4642 140.373 64.5133 140.316Z" fill="#65463C"/>
<path d="M71.8396 130.101C70.9217 130.245 69.9942 130.32 69.0649 130.325C68.1342 130.455 67.1946 130.509 66.2551 130.487C67.1335 130.146 68.0665 129.967 69.0087 129.96C69.9528 129.829 70.9132 129.876 71.8396 130.101Z" fill="#65463C"/>
<path d="M30.6612 51.6455C34.3553 51.6492 37.9734 52.6959 41.0991 54.6653C44.2247 56.6346 46.731 59.4466 48.3294 62.7775C49.9279 66.1085 50.5535 69.8231 50.1345 73.494C49.7154 77.1649 48.2686 80.6429 45.9606 83.5277L46.937 89.0499L41.0434 87.8977C38.4666 89.5119 35.5499 90.5051 32.5236 90.7988C29.4972 91.0925 26.444 90.6787 23.605 89.59C20.766 88.5013 18.2188 86.7676 16.1645 84.5256C14.1102 82.2836 12.605 79.5948 11.7677 76.6713C10.9305 73.7478 10.7841 70.6697 11.3401 67.68C11.896 64.6902 13.1392 61.8706 14.9714 59.4437C16.8036 57.0168 19.1747 55.049 21.8976 53.6957C24.6205 52.3424 27.6206 51.6405 30.6612 51.6455Z" fill="white"/>
<path d="M30.6623 51.6455C30.6623 51.6455 30.5499 51.6455 30.3322 51.6455H29.3558H28.6533L27.7963 51.772L26.7918 51.9125C26.4406 51.9827 26.0894 52.0881 25.6749 52.1865C24.7982 52.4053 23.9369 52.6823 23.0969 53.0155C22.1082 53.4374 21.1525 53.9329 20.2379 54.4979C18.0023 55.8917 16.0639 57.7134 14.534 59.8584C12.6795 62.4679 11.4951 65.4934 11.085 68.6686C11.0098 69.0955 10.9698 69.5278 10.9656 69.9613C10.9656 70.3969 10.9094 70.8395 10.9023 71.2821L10.9656 72.624C10.9656 72.8488 10.9656 73.0736 11.0077 73.3265L11.1061 74.0291C11.6353 77.8842 13.3007 81.4943 15.8898 84.3989C16.2209 84.7852 16.5727 85.1534 16.9434 85.5019L18.0814 86.5417L19.3318 87.4761C19.7554 87.7823 20.1963 88.0638 20.6524 88.3192C22.5013 89.407 24.5123 90.1921 26.6092 90.6447C27.6863 90.8584 28.7784 90.9876 29.8756 91.0311C30.9822 91.1012 32.0931 91.0588 33.1912 90.9046C36.0186 90.5559 38.7365 89.597 41.157 88.0944H41.0235L46.9241 89.2466L47.177 89.2958L47.1278 89.0428C46.7906 87.1529 46.4675 85.3122 46.1444 83.5137V83.6542C48.1041 81.216 49.4528 78.3448 50.0781 75.2797C50.6423 72.4933 50.6016 69.6182 49.9587 66.8489C48.8909 62.2408 46.1941 58.1738 42.3652 55.3972L41.7822 54.9686C41.5855 54.8351 41.3747 54.7157 41.178 54.5963C40.7777 54.3644 40.3983 54.1185 40.012 53.8937C39.2806 53.5151 38.5277 53.1796 37.7571 52.889L36.7105 52.5167C36.3733 52.3972 36.008 52.341 35.72 52.2497L34.8138 52.0249C34.5258 51.9546 34.2448 51.9336 33.9779 51.8914C33.4511 51.8211 32.9875 51.7368 32.573 51.7017H31.5404H30.9152C30.8451 51.697 30.7746 51.697 30.7045 51.7017H30.9152L31.5404 51.7439L32.566 51.8141C32.9664 51.8492 33.43 51.9476 33.9709 52.0249C34.2308 52.0741 34.5118 52.0951 34.7928 52.1724L35.6919 52.4113C36.008 52.5026 36.3382 52.5659 36.6753 52.6853L37.7009 53.0717C38.4641 53.3609 39.2079 53.6988 39.9277 54.0834C40.307 54.2942 40.6863 54.5401 41.0797 54.786C41.2764 54.9054 41.4801 55.0248 41.6698 55.1513L42.2458 55.5869C46.0053 58.3534 48.6434 62.3811 49.6777 66.9332C50.3007 69.6678 50.3318 72.504 49.769 75.2516C49.1428 78.2604 47.8115 81.0776 45.8845 83.4715L45.8353 83.5347V83.612C46.1491 85.4106 46.4745 87.2513 46.8117 89.1342L47.0154 88.9304L41.0797 87.7431H41.0095L40.9533 87.7782C38.5796 89.2666 35.9128 90.2251 33.135 90.5885C32.0552 90.7367 30.9633 90.7767 29.8756 90.7079C28.7999 90.6658 27.7291 90.5413 26.6724 90.3355C24.6132 89.8932 22.6378 89.1247 20.821 88.0592C20.3855 87.7782 19.9218 87.5464 19.5214 87.2302L18.3202 86.2818L17.1963 85.2631C16.81 84.9328 16.4939 84.5605 16.1637 84.1741C13.6173 81.3194 11.9724 77.7748 11.4362 73.9869L11.3379 73.3195C11.3379 73.1017 11.3379 72.8769 11.2957 72.6591C11.2957 72.2095 11.2465 71.7739 11.2255 71.3383C11.2044 70.9027 11.2676 70.4671 11.2817 70.0386C11.2894 69.6099 11.3293 69.1825 11.4011 68.7599C11.79 65.6291 12.9431 62.642 14.7588 60.0622C16.2644 57.9335 18.1738 56.1216 20.3784 54.7297C21.2773 54.163 22.2164 53.6629 23.1882 53.2333C24.017 52.8943 24.8663 52.608 25.7311 52.3762C26.1245 52.2778 26.4898 52.1654 26.841 52.0951L27.7963 51.9125L28.6463 51.772L29.3487 51.7298L30.3181 51.6596C30.433 51.6613 30.548 51.6566 30.6623 51.6455Z" fill="#121D50"/>
<path d="M35.9517 71.2681C35.9503 71.6172 36.0525 71.9588 36.2454 72.2497C36.4383 72.5406 36.7132 72.7678 37.0352 72.9023C37.3573 73.0369 37.712 73.0728 38.0545 73.0055C38.397 72.9383 38.7118 72.7709 38.9591 72.5246C39.2064 72.2782 39.375 71.964 39.4436 71.6218C39.5122 71.2795 39.4777 70.9246 39.3444 70.6019C39.2112 70.2793 38.9852 70.0035 38.6951 69.8094C38.405 69.6153 38.0639 69.5117 37.7148 69.5117C37.2484 69.5117 36.801 69.6965 36.4706 70.0257C36.1401 70.3549 35.9535 70.8016 35.9517 71.2681Z" fill="#121D50"/>
<path d="M28.8992 71.2681C28.8978 71.6172 29 71.9588 29.1929 72.2497C29.3858 72.5406 29.6607 72.7678 29.9827 72.9023C30.3048 73.0369 30.6595 73.0728 31.002 73.0055C31.3445 72.9383 31.6593 72.7709 31.9066 72.5246C32.1539 72.2782 32.3225 71.964 32.3911 71.6218C32.4597 71.2795 32.4252 70.9246 32.2919 70.6019C32.1587 70.2793 31.9327 70.0035 31.6426 69.8094C31.3525 69.6153 31.0114 69.5117 30.6623 69.5117C30.1959 69.5117 29.7485 69.6965 29.4181 70.0257C29.0876 70.3549 28.901 70.8016 28.8992 71.2681Z" fill="#121D50"/>
<path d="M21.8325 70.39C21.6584 70.6921 21.5778 71.0391 21.6008 71.387C21.6238 71.7349 21.7494 72.0683 21.9618 72.3448C22.1742 72.6214 22.4637 72.8287 22.7939 72.9407C23.1241 73.0527 23.4801 73.0642 23.8168 72.9739C24.1536 72.8835 24.456 72.6954 24.6859 72.4332C24.9157 72.171 25.0627 71.8465 25.1082 71.5008C25.1537 71.155 25.0956 70.8036 24.9415 70.4908C24.7873 70.1781 24.5439 69.918 24.2419 69.7436C23.8364 69.5115 23.3554 69.4491 22.9041 69.5702C22.4527 69.6913 22.0675 69.986 21.8325 70.39Z" fill="#121D50"/>
</g>
<defs>
<clipPath id="clip0">
<rect width="466" height="324" fill="white"/>
</clipPath>
</defs>
</svg>
