<svg width="446" height="404" viewBox="0 0 446 404" fill="none" xmlns="http://www.w3.org/2000/svg">
<path d="M105.375 387.939C128.945 412.866 186.811 403.74 211.879 387.939C293.235 336.642 435.843 251.27 442.295 127.582C445.041 75.0139 398.77 47.4041 379.445 39.3083C333.014 19.8543 282.089 14.0101 231.824 11.7685C179.321 9.41683 122.963 11.2481 75.7132 36.9166C57.7961 46.6335 40.9477 59.1025 29.3325 76.1247C17.5875 93.4171 10.8261 114.002 8.9885 134.787C6.10219 168.321 15.1007 201.935 28.7133 232.697C42.3259 263.459 60.4727 291.94 77.1314 321.161C88.0475 340.244 85.5207 366.934 105.375 387.939Z" fill="#1F45E4"/>
<path opacity="0.7" d="M105.375 387.939C128.945 412.866 186.811 403.74 211.879 387.939C293.235 336.642 435.843 251.27 442.295 127.582C445.041 75.0139 398.77 47.4041 379.445 39.3083C333.014 19.8543 282.089 14.0101 231.824 11.7685C179.321 9.41683 122.963 11.2481 75.7132 36.9166C57.7961 46.6335 40.9477 59.1025 29.3325 76.1247C17.5875 93.4171 10.8261 114.002 8.9885 134.787C6.10219 168.321 15.1007 201.935 28.7133 232.697C42.3259 263.459 60.4727 291.94 77.1314 321.161C88.0475 340.244 85.5207 366.934 105.375 387.939Z" fill="white"/>
<path d="M310.813 328.166C311.103 241.744 311.103 145.675 310.813 59.833" stroke="#121D50" stroke-linecap="round" stroke-linejoin="round"/>
<path d="M326.852 33.1133C327.082 128.662 327.082 212.722 326.852 308.251" stroke="#121D50" stroke-linecap="round" stroke-linejoin="round"/>
<path d="M310.813 39.3387V4.31351C313.344 3.27057 316.067 2.77935 318.803 2.87248C324.445 2.87248 326.792 4.31351 326.792 4.31351V14.0105" stroke="#121D50" stroke-linecap="round" stroke-linejoin="round"/>
<path d="M411.404 2.87207L414.69 4.21303L393.557 22.226L326.852 33.1138L323.686 32.1731" stroke="#121D50" stroke-linecap="round" stroke-linejoin="round"/>
<path d="M323.686 14.7502L388.224 0.5L411.404 2.8717L391.48 20.7445L323.686 32.1727V14.7502Z" stroke="#121D50" stroke-linecap="round" stroke-linejoin="round"/>
<path d="M258.769 27.9199L256.063 29.5511L272.452 49.1452L310.813 59.8328L314.908 58.8121" stroke="#121D50" stroke-linecap="round" stroke-linejoin="round"/>
<path d="M314.908 40.9199L275.098 25.5488L258.769 27.9205L275.618 48.085L314.908 58.8127V40.9199Z" stroke="#121D50" stroke-linecap="round" stroke-linejoin="round"/>
<path d="M186.522 52.1074V393.302" stroke="#121D50" stroke-linecap="round" stroke-linejoin="round"/>
<path d="M93.0011 26.1592C124.341 33.5945 155.301 44.6024 186.522 52.1078" stroke="#121D50" stroke-linecap="round" stroke-linejoin="round"/>
<path d="M56.6277 45.373C99.3731 55.6104 143.317 66.6183 186.522 77.5862" stroke="#121D50" stroke-linecap="round" stroke-linejoin="round"/>
<path d="M28.6733 68.5488C80.3972 80.6275 133.33 91.6354 186.522 103.074" stroke="#121D50" stroke-linecap="round" stroke-linejoin="round"/>
<path d="M12.7037 95.6387C70.41 106.647 128.336 117.621 186.482 128.562" stroke="#121D50" stroke-linecap="round" stroke-linejoin="round"/>
<path d="M0.5 124.279L186.522 154.051" stroke="#121D50" stroke-linecap="round" stroke-linejoin="round"/>
<path d="M0.5 155.222L186.522 179.529" stroke="#121D50" stroke-linecap="round" stroke-linejoin="round"/>
<path d="M4.83386 186.604C65.4164 191.707 125.34 199.713 186.522 205.017" stroke="#121D50" stroke-linecap="round" stroke-linejoin="round"/>
<path d="M13.4229 218.036C60.4228 221.729 107.363 223.73 155.302 228.734C165.289 228.734 176.275 228.734 186.522 230.505" stroke="#121D50" stroke-linecap="round" stroke-linejoin="round"/>
<path d="M25.058 249.099C79.3985 251.751 132.331 254.753 186.522 255.994" stroke="#121D50" stroke-linecap="round" stroke-linejoin="round"/>
<path d="M39.5994 279.521C88.387 279.771 137.324 280.771 186.522 281.472" stroke="#121D50" stroke-linecap="round" stroke-linejoin="round"/>
<path d="M56.5477 309.042C99.373 308.791 143.317 307.791 186.522 306.96" stroke="#121D50" stroke-linecap="round" stroke-linejoin="round"/>
<path d="M71.3788 337.672C109.33 335.811 148.28 333.809 186.522 332.448" stroke="#121D50" stroke-linecap="round" stroke-linejoin="round"/>
<path d="M174.767 64.8369V361.67" stroke="#121D50" stroke-linecap="round" stroke-linejoin="round"/>
<path d="M118.848 39.1279V223.55" stroke="#121D50" stroke-linecap="round" stroke-linejoin="round"/>
<path d="M55.2294 64.0156V267.822" stroke="#121D50" stroke-linecap="round" stroke-linejoin="round"/>
<path d="M438.559 71.3809L340.854 82.689V312.194" stroke="#121D50" stroke-linecap="round" stroke-linejoin="round"/>
<path d="M445.501 100.853L353.838 108.468V291.83" stroke="#121D50" stroke-linecap="round" stroke-linejoin="round"/>
<path d="M445.501 145.574L356.484 151.939" stroke="#121D50" stroke-linecap="round" stroke-linejoin="round"/>
<path d="M432.328 184.463L359.101 189.236" stroke="#121D50" stroke-linecap="round" stroke-linejoin="round"/>
<path d="M389.702 112.36V253.121" stroke="#121D50" stroke-linecap="round" stroke-linejoin="round"/>
<path d="M94.1198 371.267C96.9647 377.375 100.764 382.99 105.375 387.899C128.945 412.826 187.82 403.7 212.888 387.899C221.117 382.705 228.987 377.161 238.275 371.267" stroke="#121D50" stroke-linecap="round" stroke-linejoin="round"/>
<path d="M328.979 201.875L319.811 237.711L335.791 330.958H335.661L335.281 331.038C328.48 332.529 255.214 348.49 251.628 348.2C247.863 347.89 188.998 338.804 188.998 338.804L136.905 344.908L95.1384 326.485L56.5277 333.31L45.5417 196.742C45.5417 196.742 53.7113 129.944 49.9461 111.961C49.9461 111.961 114.244 121.207 120.176 121.848C126.109 122.488 195.23 100.603 195.23 100.603L253.566 119.966L302.423 113.782L374.741 147.696C374.741 147.696 327.801 194.57 328.979 201.875Z" fill="white" stroke="#121D50" stroke-linecap="round" stroke-linejoin="round"/>
<path d="M57.4665 117.814L120.166 126.661L194.282 108.388L253.546 125.01L300.066 120.006L364.474 147.736C364.474 147.736 327.801 193.239 326.393 196.141C324.985 199.043 313.23 237.721 313.23 237.721L328.74 326.474L253.546 343.066L190.297 332.919L140.171 337.342L97.5553 319.019L62.1605 326.474L50.6752 198.783C50.6752 198.783 61.2217 146.815 57.4665 117.814Z" fill="#1F45E4" stroke="#121D50" stroke-linecap="round" stroke-linejoin="round"/>
<path d="M275.967 165.509L286.084 163.037L335.421 184.132C337.848 181.04 340.575 177.587 343.361 174.065L289.929 151.419L278.644 154.611L285.705 121.517L276.367 122.518L267.798 157.623L240.113 165.389L186.841 170.042L165.548 180.63L166.547 149.397L192.634 137.098L222.955 142.962L228.118 117.844L218.91 115.263L215.994 133.516L192.634 128.512L166.917 140.14L167.756 114.902L155.331 117.965V185.723L123.762 201.434V125.78L120.166 126.661L112.286 125.55L113.645 151.449H92.2621L58.0658 124.609C58.2955 128.482 58.3154 132.615 58.2156 136.828L88.5967 162.296H114.204L115.203 181.62L114.204 189.566L51.2844 205.708L51.614 209.35L113.775 193.649L112.326 206.148L52.6627 220.888L53.7712 233.167L85.3409 224.791L88.3371 262.548L59.1943 293.411L60.3329 306.05L70.5997 295.212L72.9068 324.233L75.8331 323.612L73.8356 291.769L95.0785 269.193L105.375 266.561L146.093 253.402L145.204 259.326L122.563 329.757L131.262 333.499L143.157 295.072L160.685 291.809L195.93 307.08L212.279 308.131L209.492 335.981L213.857 336.682L215.754 308.351L256.762 310.973L286.404 306.71L290.179 334.96L297.799 333.289L294.164 305.589L324.335 301.216L322.817 292.57L258.609 301.116L232.643 298.824L236.328 263.799L258.889 251.45H265.88L316.466 256.584L314.688 246.337L267.308 241.833H256.332L261.885 208.389L275.967 165.509ZM108.182 254.663L91.0136 259.766L88.7366 223.871L115.203 216.866L154.672 196.441L148.141 239.712L108.182 254.663ZM163.891 282.012L146.083 285.555L153.454 261.718L164.63 191.277L187.141 179.649L195.9 215.154L192.634 244.756L182.816 289.628L163.891 282.012ZM245.486 249.499L229.986 256.844L224.283 298.134L198.317 295.852L189.328 292.27L199.315 247.698L203.07 216.856H220.958L250.809 211.852L245.486 249.499ZM252.417 204.657L222.456 210.821H198.376L191.116 179.058L238.136 174.715L264.662 168.261L252.417 204.657Z" fill="white" stroke="#121D50" stroke-linecap="round" stroke-linejoin="round"/>
<path opacity="0.5" d="M264.682 233.248L267.388 211.812L301.944 219.418L299.118 237.721L264.682 233.248Z" fill="white"/>
<path opacity="0.5" d="M286.094 210.821L293.125 191.157L319.152 200.994L313.18 221.329L286.094 210.821Z" fill="white"/>
<path opacity="0.5" d="M280.432 168.261H283.308L294.184 173.184L283.308 206.238L273.111 203.186L269.855 202.465L280.432 168.261Z" fill="white"/>
<path opacity="0.5" d="M301.944 177.027L327.332 187.255L323.097 194.57L299.118 187.255L301.944 177.027Z" fill="white"/>
<path opacity="0.5" d="M286.094 147.696L291.008 125.01L299.118 123.719L311.112 128.542L302.623 151.939L291.178 147.696H286.094Z" fill="white"/>
<path opacity="0.5" d="M307.936 154.391L313.23 141.342L348.844 157.593L341.793 168.261L307.936 154.391Z" fill="white"/>
<path opacity="0.5" d="M232.043 123.719L250.949 129.213L245.207 159.354H242.47H225.781L232.043 123.719Z" fill="white"/>
<path opacity="0.5" d="M255.753 130.033L269.855 127.642L264.682 154.391L250.949 157.943L255.753 130.033Z" fill="white"/>
<path opacity="0.5" d="M221.896 147.696L220.198 160.776L189.438 162.187L170.961 171.724V154.391L193.343 142.793L221.896 147.696Z" fill="white"/>
<path opacity="0.5" d="M172.3 117.815L194.511 111.971L192.794 125.01L171.001 133.546L172.3 117.815Z" fill="white"/>
<path opacity="0.5" d="M197.338 125.01L213.437 128.543L215.994 116.604L199.335 113.782L197.338 125.01Z" fill="white"/>
<path opacity="0.5" d="M127.757 128.542V147.696L151.027 141.341V123.719L127.757 128.542Z" fill="white"/>
<path opacity="0.5" d="M129.355 154.801V192.649L142.208 187.255L140.171 163.948L151.027 160.776V147.696L129.355 154.801Z" fill="white"/>
<path opacity="0.5" d="M90.3745 166.78L92.1423 191.158L109.061 187.255L111.777 179.65V166.78H90.3745Z" fill="white"/>
<path opacity="0.5" d="M62.9196 147.696L85.241 165.009V177.017L60.1031 178.959C60.1031 178.959 63.2192 157.944 62.9196 147.696Z" fill="white"/>
<path opacity="0.5" d="M60.0532 183.733L83.0538 181.621V193.239L55.9984 200.645L60.0532 183.733Z" fill="white"/>
<path opacity="0.5" d="M90.3745 127.642V144.163L109.061 145.574L108.282 128.542L90.3745 127.642Z" fill="white"/>
<path opacity="0.5" d="M168.575 194.57L184.614 187.074L189.438 214.484L165.359 218.727L168.575 194.57Z" fill="white"/>
<path opacity="0.5" d="M172.3 222.901L171.001 241.684L187.7 239.913V218.728L172.3 222.901Z" fill="white"/>
<path opacity="0.5" d="M220.199 181.621L218.021 206.238H227.1L247.284 202.896L258.919 173.185L236.757 179.649L220.199 181.621Z" fill="white"/>
<path opacity="0.5" d="M197.338 183.032V189.717L214.146 189.237V181.621L197.338 183.032Z" fill="white"/>
<path opacity="0.5" d="M221.896 225.803L220.198 245.567L242.35 241.684L245.207 218.728L221.896 225.803Z" fill="white"/>
<path opacity="0.5" d="M202.501 251.531L218.021 252.632L214.146 292.301L199.255 291.83L193.692 289.829L202.501 251.531Z" fill="white"/>
<path opacity="0.5" d="M207.575 222.9L218.021 224.421L215.994 237.721H205.737L207.575 222.9Z" fill="white"/>
<path opacity="0.5" d="M291.008 259.767L311.112 261.728L315.697 285.985L291.008 286.486V259.767Z" fill="white"/>
<path opacity="0.5" d="M245.207 267.823L264.682 266.252L267.388 294.682H242.001L245.207 267.823Z" fill="white"/>
<path opacity="0.5" d="M299.118 310.993L301.944 323.983L315.697 321.731L313.23 308.231L299.118 310.993Z" fill="white"/>
<path opacity="0.5" d="M254.694 316.107L282.019 312.774L283.308 327.885L253.556 335.291L236.707 333.299L242.59 314.696L254.694 316.107Z" fill="white"/>
<path opacity="0.5" d="M113.295 271.915L135.507 267.822L134.019 283.193L127.757 298.184L111.777 302.457L113.295 271.915Z" fill="white"/>
<path opacity="0.5" d="M93.8999 228.104V240.263L111.018 237.721L120.166 234.189L119.707 218.728L113.465 222.901L93.8999 228.104Z" fill="white"/>
<path opacity="0.5" d="M58.2855 237.72L80.8567 232.146L83.0539 255.523L61.4615 259.766L58.2855 237.72Z" fill="white"/>
<path opacity="0.5" d="M59.8634 279.25L72.7469 267.822L76.0927 270.934L62.7697 283.754L59.8634 279.25Z" fill="white"/>
<path opacity="0.5" d="M63.2191 310.993L69.5311 309.492L70.6696 322.241L64.4176 323.142L63.2191 310.993Z" fill="white"/>
<path opacity="0.5" d="M79.7979 318.719L78.5895 296.443L93.8999 294.682V316.677L79.7979 318.719Z" fill="white"/>
<path opacity="0.5" d="M176.315 267.822C181.075 267.822 184.934 263.956 184.934 259.186C184.934 254.416 181.075 250.55 176.315 250.55C171.555 250.55 167.696 254.416 167.696 259.186C167.696 263.956 171.555 267.822 176.315 267.822Z" fill="white"/>
<path opacity="0.1" d="M328.98 201.875L319.811 237.711L335.791 330.958H335.661L335.281 331.038L251.678 348.251L273.421 201.425L302.413 113.782L374.731 147.697C374.731 147.697 327.801 194.57 328.98 201.875Z" fill="black" fill-opacity="0.7"/>
<path opacity="0.1" d="M253.556 119.966L231.424 198.583L212.139 232.727L189.008 338.833L136.915 344.938L175.276 255.524L184.404 188.676L195.97 100.853L253.556 119.966Z" fill="black" fill-opacity="0.7"/>
<path opacity="0.1" d="M119.707 121.798L118.119 194.85L96.2469 326.975L95.1383 326.485L56.5277 333.31L46.4006 207.449L106.863 184.023L116.851 121.428L119.707 121.798Z" fill="black" fill-opacity="0.7"/>
<path d="M270.814 161.365C270.649 161.198 270.443 161.077 270.217 161.014C269.991 160.951 269.753 160.948 269.526 161.005L239.204 168.851L187.6 172.743C187.422 172.753 187.249 172.801 187.091 172.883L119.318 207.718L120.316 185.703V155.951C120.316 155.596 120.175 155.255 119.924 155.003C119.673 154.752 119.333 154.61 118.978 154.61H105.395C105.04 154.61 104.7 154.752 104.449 155.003C104.198 155.255 104.057 155.596 104.057 155.951C104.057 156.307 104.198 156.648 104.449 156.9C104.7 157.151 105.04 157.292 105.395 157.292H117.64V185.603L116.551 209.9C116.536 210.141 116.586 210.383 116.696 210.598C116.806 210.813 116.973 210.994 117.177 211.123C117.382 211.251 117.618 211.321 117.859 211.326C118.1 211.331 118.339 211.271 118.548 211.151L188.13 175.395L239.584 171.512H239.814L267.997 164.217L255.853 207.248V207.398L253.856 219.277L252.677 219.157C252.616 219.157 252.555 219.171 252.5 219.197C252.444 219.224 252.396 219.263 252.357 219.311C252.319 219.359 252.292 219.415 252.278 219.475C252.264 219.535 252.264 219.597 252.278 219.657L253.955 224.35C253.978 224.437 254.023 224.515 254.088 224.577C254.152 224.639 254.232 224.682 254.319 224.701C254.406 224.719 254.497 224.713 254.581 224.683C254.665 224.653 254.739 224.6 254.794 224.531L257.95 219.957C258.14 219.677 257.95 219.337 257.521 219.327H256.522L258.41 207.869L271.163 162.676C271.226 162.446 271.226 162.204 271.165 161.974C271.103 161.743 270.982 161.533 270.814 161.365Z" fill="#1F45E4"/>
<path opacity="0.6" d="M270.814 161.365C270.649 161.198 270.443 161.077 270.217 161.014C269.991 160.951 269.753 160.948 269.526 161.005L239.204 168.851L187.6 172.743C187.422 172.753 187.249 172.801 187.091 172.883L119.318 207.718L120.316 185.703V155.951C120.316 155.596 120.175 155.255 119.924 155.003C119.673 154.752 119.333 154.61 118.978 154.61H105.395C105.04 154.61 104.7 154.752 104.449 155.003C104.198 155.255 104.057 155.596 104.057 155.951C104.057 156.307 104.198 156.648 104.449 156.9C104.7 157.151 105.04 157.292 105.395 157.292H117.64V185.603L116.551 209.9C116.536 210.141 116.586 210.383 116.696 210.598C116.806 210.813 116.973 210.994 117.177 211.123C117.382 211.251 117.618 211.321 117.859 211.326C118.1 211.331 118.339 211.271 118.548 211.151L188.13 175.395L239.584 171.512H239.814L267.997 164.217L255.853 207.248V207.398L253.856 219.277L252.677 219.157C252.616 219.157 252.555 219.171 252.5 219.197C252.444 219.224 252.396 219.263 252.357 219.311C252.319 219.359 252.292 219.415 252.278 219.475C252.264 219.535 252.264 219.597 252.278 219.657L253.955 224.35C253.978 224.437 254.023 224.515 254.088 224.577C254.152 224.639 254.232 224.682 254.319 224.701C254.406 224.719 254.497 224.713 254.581 224.683C254.665 224.653 254.739 224.6 254.794 224.531L257.95 219.957C258.14 219.677 257.95 219.337 257.521 219.327H256.522L258.41 207.869L271.163 162.676C271.226 162.446 271.226 162.204 271.165 161.974C271.103 161.743 270.982 161.533 270.814 161.365Z" fill="black" fill-opacity="0.7"/>
<path d="M111.398 107.787C108.658 105.047 104.946 103.509 101.076 103.509C97.2055 103.509 93.4933 105.047 90.754 107.787C89.3978 109.145 88.3219 110.757 87.5879 112.532C86.8539 114.306 86.4761 116.208 86.4761 118.129C86.4761 120.05 86.8539 121.952 87.5879 123.727C88.3219 125.502 89.3978 127.114 90.754 128.472L101.071 138.809L111.398 128.472C114.132 125.727 115.667 122.007 115.667 118.129C115.667 114.251 114.132 110.532 111.398 107.787ZM105.325 122.387C104.486 123.224 103.418 123.792 102.257 124.021C101.095 124.25 99.8922 124.129 98.7992 123.673C97.7063 123.218 96.7725 122.448 96.1156 121.462C95.4587 120.475 95.1081 119.315 95.1081 118.129C95.1081 116.943 95.4587 115.784 96.1156 114.797C96.7725 113.811 97.7063 113.041 98.7992 112.585C99.8922 112.13 101.095 112.009 102.257 112.238C103.418 112.467 104.486 113.035 105.325 113.871C105.885 114.429 106.33 115.093 106.633 115.824C106.937 116.554 107.093 117.338 107.093 118.129C107.093 118.921 106.937 119.704 106.633 120.435C106.33 121.166 105.885 121.829 105.325 122.387Z" fill="#121D50"/>
<path d="M90.724 124.549C91.8747 126.894 93.5126 128.965 95.5279 130.623" stroke="white" stroke-linecap="round" stroke-linejoin="round"/>
<path d="M94.2695 107.637C89.2758 110.639 87.9775 116.423 89.6154 121.767" stroke="white" stroke-linecap="round" stroke-linejoin="round"/>
<path d="M101.071 105.716C99.8122 105.718 98.5607 105.903 97.3555 106.266" stroke="white" stroke-linecap="round" stroke-linejoin="round"/>
<path d="M243.019 200.714C240.282 197.975 236.571 196.437 232.703 196.437C228.834 196.437 225.123 197.975 222.386 200.714C221.03 202.072 219.954 203.684 219.22 205.458C218.486 207.233 218.108 209.135 218.108 211.056C218.108 212.977 218.486 214.879 219.22 216.654C219.954 218.429 221.03 220.041 222.386 221.399L232.703 231.746L243.019 221.399C244.376 220.041 245.451 218.429 246.185 216.654C246.919 214.879 247.297 212.977 247.297 211.056C247.297 209.135 246.919 207.233 246.185 205.458C245.451 203.684 244.376 202.072 243.019 200.714ZM236.957 215.314C236.118 216.15 235.05 216.719 233.889 216.948C232.727 217.177 231.524 217.056 230.431 216.6C229.338 216.145 228.404 215.375 227.747 214.388C227.091 213.402 226.74 212.242 226.74 211.056C226.74 209.87 227.091 208.711 227.747 207.724C228.404 206.737 229.338 205.968 230.431 205.512C231.524 205.057 232.727 204.936 233.889 205.165C235.05 205.394 236.118 205.962 236.957 206.798C237.517 207.356 237.962 208.02 238.265 208.75C238.568 209.481 238.725 210.265 238.725 211.056C238.725 211.848 238.568 212.631 238.265 213.362C237.962 214.093 237.517 214.756 236.957 215.314Z" fill="#121D50"/>
<path d="M222.346 217.476C223.5 219.821 225.141 221.892 227.16 223.55" stroke="white" stroke-linecap="round" stroke-linejoin="round"/>
<path d="M225.901 200.563C220.908 203.566 219.609 209.36 221.237 214.694" stroke="white" stroke-linecap="round" stroke-linejoin="round"/>
<path d="M232.703 198.643C231.44 198.644 230.185 198.832 228.977 199.203" stroke="white" stroke-linecap="round" stroke-linejoin="round"/>
<path d="M328.979 201.875C327.801 202.346 317.924 203.527 317.924 203.527C318.163 201.165 323.097 196.932 323.097 194.57C323.136 194.292 323.106 194.009 323.009 193.745C322.912 193.482 322.752 193.247 322.542 193.06C322.333 192.874 322.08 192.743 321.808 192.678C321.535 192.613 321.251 192.617 320.98 192.689C320.51 195.751 312.76 201.405 311.112 202.106C309.464 202.806 305 217.887 302.573 220.259C283.597 239.212 265.62 250.16 258.929 263.29C254.634 271.401 248.317 278.262 240.592 283.204C240.592 283.204 236.697 333.24 251.518 310.994C266.34 288.748 271.653 290.089 279.023 280.202C286.394 270.315 300.885 247.708 312.171 228.775C317.924 223.871 322.398 226.143 325.923 222.61C326.662 221.87 326.153 218.848 327.332 216.866C328.51 214.885 330.388 211.302 330.148 209.191C329.908 207.079 331.796 205.888 332.036 204.708C332.275 203.527 330.148 201.405 328.979 201.875Z" fill="#BFBFBF" stroke="#121D50" stroke-miterlimit="10"/>
<path d="M101.39 271.345C97.5453 257.115 82.2149 242.664 67.5636 220.188C65.686 217.376 64.4276 201.705 62.9595 200.674C61.4914 199.643 55.0796 192.498 55.2494 189.406C54.9998 189.277 54.7222 189.213 54.4416 189.219C54.161 189.225 53.8863 189.301 53.6424 189.44C53.3985 189.579 53.193 189.777 53.0446 190.016C52.8962 190.254 52.8096 190.526 52.7925 190.807C52.3031 193.119 56.2581 198.292 55.9984 200.644C55.9984 200.644 46.5805 197.442 45.5318 196.741C44.4831 196.041 41.9763 197.672 41.9564 198.873C41.9364 200.074 43.5443 201.615 42.8752 203.636C42.206 205.658 43.3046 209.551 44.0537 211.732C44.8027 213.914 43.6742 216.736 44.2434 217.646C46.96 221.839 51.8038 220.538 56.4279 226.533C63.5588 247.398 73.0366 272.506 78.24 283.714C83.4433 294.922 88.8864 294.722 98.7837 319.55C108.681 344.377 115.213 294.642 115.213 294.642C108.676 288.201 103.914 280.176 101.39 271.345Z" fill="#BFBFBF" stroke="#121D50" stroke-miterlimit="10"/>
<path d="M107.602 278.12C107.602 278.12 110.159 272.045 105.375 270.114C100.591 268.183 94.609 271.655 94.609 271.655C94.609 271.655 85.7903 273.877 85.4408 283.203C85.4408 283.203 83.4433 314.576 90.7939 314.686C98.1445 314.796 107.602 278.12 107.602 278.12Z" fill="#999999" stroke="#121D50" stroke-linecap="round" stroke-linejoin="round"/>
<path d="M245.217 279.201C245.217 279.201 244.817 274.277 250.809 274.938C256.802 275.598 261.745 284.135 261.396 296.113C261.396 296.113 264.132 311.394 256.772 310.984C249.411 310.574 245.217 279.201 245.217 279.201Z" fill="#999999" stroke="#121D50" stroke-linecap="round" stroke-linejoin="round"/>
<path d="M129.514 306.29C129.514 306.29 109.101 282.443 105.375 274.197C105.375 274.197 91.3133 273.747 89.3957 286.106C88.3064 294.369 88.3064 302.74 89.3957 311.004C89.3957 311.004 103.288 348.891 109.061 363.261L129.514 306.29Z" fill="#757575"/>
<g opacity="0.3">
<path opacity="0.3" d="M122.304 297.644C118.988 298.09 115.791 299.174 112.886 300.836C112.107 301.246 111.338 301.727 110.549 302.247C109.831 302.747 109.163 303.313 108.551 303.938C105.555 306.94 103.618 311.474 102.319 316.808C101.668 319.564 101.184 322.358 100.871 325.174C100.336 330.105 100.109 335.065 100.192 340.024C98.5041 335.501 96.8263 331.018 95.2982 326.905C95.5752 323.83 96.0253 320.773 96.6465 317.748C97.1413 315.325 97.8088 312.941 98.6439 310.613C100.007 306.393 102.372 302.568 105.535 299.465C106.186 298.863 106.884 298.314 107.622 297.824C108.401 297.304 109.17 296.823 109.94 296.383C112.632 294.826 115.535 293.666 118.558 292.94C119.847 294.572 121.115 296.213 122.304 297.644Z" fill="#1F45E4"/>
</g>
<g opacity="0.3">
<path opacity="0.3" d="M114.494 287.756C111.737 288.552 109.038 289.535 106.414 290.698C105.505 291.108 104.567 291.539 103.608 292.019C102.911 292.354 102.243 292.746 101.61 293.19C98.2846 295.602 95.9676 299.454 94.3696 303.877C93.5653 306.163 92.9278 308.504 92.4621 310.882C92.0726 312.884 91.7729 314.885 91.5532 316.827L89.396 310.942C89.396 310.942 89.0564 308.671 88.8067 305.098C88.8067 304.748 88.8067 304.368 88.7368 303.988C89.3239 302.091 90.0448 300.238 90.8941 298.444C92.6495 294.449 95.4348 290.995 98.9637 288.436C99.6802 287.951 100.427 287.513 101.201 287.125C102.07 286.705 102.919 286.305 103.738 285.945C106.114 284.857 108.552 283.908 111.038 283.103C112.147 284.664 113.295 286.205 114.494 287.756Z" fill="#1F45E4"/>
</g>
<g opacity="0.3">
<path opacity="0.3" d="M107.243 277.559C104.96 278.155 102.757 279.026 100.682 280.151C99.0897 280.996 97.5669 281.967 96.1277 283.053C93.5274 285.022 91.1347 287.252 88.9868 289.708C89.1067 288.517 89.2465 287.296 89.4362 286.095C89.814 283.065 91.2675 280.273 93.531 278.229L93.6608 278.149C94.7281 277.381 95.8349 276.67 96.9766 276.018C97.3961 275.768 97.8155 275.538 98.255 275.297L98.3249 275.457C99.1079 275.172 99.9086 274.938 100.722 274.757C102.238 274.405 103.789 274.227 105.346 274.227C105.911 275.374 106.545 276.487 107.243 277.559Z" fill="#1F45E4"/>
</g>
<g opacity="0.3">
<path opacity="0.3" d="M114.334 342.305L109.2 343.816C107.682 338.612 104.616 332.068 100.851 325.173C99.5228 322.731 98.0947 320.239 96.6265 317.737C95.2949 315.456 93.92 313.191 92.5018 310.942C91.2834 308.981 90.0649 307.053 88.8465 305.158C88.8465 304.808 88.8465 304.428 88.7766 304.047C88.6268 301.486 88.5469 298.383 88.6467 295.041L90.9338 298.504C92.0724 300.245 93.2409 302.046 94.4094 303.887C95.8076 306.079 97.2158 308.331 98.594 310.602C99.8524 312.664 101.091 314.745 102.299 316.817C107.652 326.063 112.267 335.24 114.334 342.305Z" fill="#1F45E4"/>
</g>
<path opacity="0.2" d="M113.924 349.68L109.061 363.26C103.298 348.91 89.4357 311.012 89.4357 311.012C88.3465 302.749 88.3465 294.378 89.4357 286.114C90.6043 278.429 96.4268 275.697 100.751 274.736C101.001 274.736 101.261 274.846 101.52 274.906C101.52 274.906 90.3845 282.052 91.613 309.511L102.449 339.533C102.449 339.533 103.578 329.075 107.922 330.586C109.78 331.237 112.436 339.913 113.924 349.68Z" fill="black" fill-opacity="0.7"/>
<path d="M129.514 306.29C129.514 306.29 109.101 282.443 105.375 274.197C105.375 274.197 91.3133 273.747 89.3957 286.106C88.3064 294.369 88.3064 302.74 89.3957 311.004C89.3957 311.004 103.288 348.891 109.061 363.261L129.514 306.29Z" stroke="#121D50" stroke-linecap="round" stroke-linejoin="round"/>
<path d="M173.488 284.984C173.398 285.405 172.989 285.735 172.3 285.985C170.346 286.497 168.315 286.647 166.307 286.425C153.584 285.725 127.747 278.149 121.585 263.079C115.003 247.007 131.881 226.052 149.958 225.552C160.355 225.301 169.114 237.61 171.221 252.011C172.27 258.976 178.182 264.74 173.488 284.984Z" fill="#BFBFBF" stroke="#121D50" stroke-miterlimit="10"/>
<path d="M164.66 261.729C163.98 263.053 163.735 264.559 163.96 266.032" stroke="#121D50" stroke-linecap="round" stroke-linejoin="round"/>
<path d="M164.789 270.104C164.789 270.104 166.627 272.606 167.965 271.455" stroke="#121D50" stroke-linecap="round" stroke-linejoin="round"/>
<path d="M172.3 285.986C170.346 286.498 168.315 286.647 166.307 286.426C166.567 284.535 167.067 282.343 167.236 281.252C167.746 277.78 166.008 276.689 166.747 276.449C167.486 276.209 167.416 279.291 168.884 280.862C170.248 282.408 171.397 284.131 172.3 285.986Z" fill="#121D50"/>
<path d="M167.286 283.353C167.286 283.353 165.029 292.05 165.289 296.463C165.592 299.847 166.204 303.197 167.116 306.47L139.691 308.071C139.691 308.071 143.796 288.277 141.599 281.352C139.402 274.427 159.127 276.949 159.127 276.949" fill="#BFBFBF"/>
<path d="M167.286 283.353C167.286 283.353 165.029 292.05 165.289 296.463C165.592 299.847 166.204 303.197 167.116 306.47L139.691 308.071C139.691 308.071 143.796 288.277 141.599 281.352C139.402 274.427 159.127 276.949 159.127 276.949" stroke="#121D50" stroke-miterlimit="10"/>
<path d="M164.15 242.504C165.299 238.771 167.336 239.142 167.336 239.142C167.336 239.142 166.008 221.179 158.348 219.267C153.164 217.966 151.756 225.782 146.363 220.158C143.367 216.996 137.894 216.155 134.218 218.807C132.051 220.408 132.131 222.64 130.683 224.581C129.235 226.522 126.249 226.442 124.041 226.893C120.646 227.583 117.2 230.115 116.501 233.708C115.922 236.63 119.497 238.931 118.798 241.333C117.959 244.215 115.303 245.946 113.655 248.338C111.657 251.2 111.477 254.913 112.246 258.245C113.385 263.179 115.942 265.11 119.897 267.632C121.894 268.893 123.073 271.195 124.291 273.126C128.406 279.611 133.409 284.354 141.269 285.695C157.059 288.387 164.13 273.786 164.13 273.786C164.13 273.786 162.342 259.316 163.641 257.665C164.939 256.014 167.636 261.668 167.636 261.668C170.941 252.871 164.15 242.504 164.15 242.504Z" fill="#121D50"/>
<path d="M167.786 263.92C167.316 262.148 167.646 254.913 165.458 255.564C163.541 256.154 164.46 263.629 166.457 268.623C168.455 273.617 170.892 273.627 170.961 272.186C171.031 270.745 169.373 269.824 168.964 267.732" fill="#BFBFBF"/>
<path d="M167.786 263.92C167.316 262.148 167.646 254.913 165.458 255.564C163.541 256.154 164.46 263.629 166.457 268.623C168.455 273.617 170.892 273.627 170.961 272.186C171.031 270.745 169.373 269.824 168.964 267.732" stroke="#121D50" stroke-miterlimit="10"/>
<path opacity="0.3" d="M163.022 233.518C163.022 233.518 163.891 225.262 158.328 225.512C152.765 225.763 153.044 233.518 153.044 233.518C153.044 233.518 148.37 231.937 146.772 234.629C145.174 237.321 146.832 242.805 146.832 242.805C146.832 242.805 141.839 244.386 143.057 247.748C144.276 251.111 141.06 251.601 141.06 251.601" stroke="white" stroke-linecap="round" stroke-linejoin="round"/>
<path opacity="0.3" d="M161.793 240.272C161.793 240.272 160.914 247.568 155.711 247.748C155.711 247.748 150.348 264.23 132.171 263.879" stroke="white" stroke-linecap="round" stroke-linejoin="round"/>
<path opacity="0.3" d="M147.811 224.421C147.811 224.421 143.606 220.488 138.573 222.9C133.539 225.311 136.885 232.146 136.885 232.146C136.885 232.146 131.981 231.846 130.373 235.559C128.765 239.271 133.529 241.683 133.529 241.683C133.529 241.683 128.106 244.565 130.373 246.867C132.64 249.169 130.373 253.752 130.373 253.752" stroke="white" stroke-linecap="round" stroke-linejoin="round"/>
<path opacity="0.3" d="M126.838 232.167C126.838 232.167 119.228 234.579 120.846 240.293C122.463 246.007 123.732 245.977 123.732 245.977C123.732 245.977 118.039 247.978 117.68 252.101C117.32 256.224 122.264 256.034 122.264 256.034C122.264 256.034 120.676 260.177 124.731 261.748" stroke="white" stroke-linecap="round" stroke-linejoin="round"/>
<path d="M129.515 303.758C129.515 303.758 147.881 290.749 181.318 304.429L206.396 298.564C206.396 298.564 222.616 342.696 212.888 387.939C212.888 387.939 191.116 403.59 154.692 403.5C115.173 403.41 105.375 387.939 105.375 387.939L111.038 373.498C107.632 357.016 103.218 330.567 106.584 316.888C111.687 296.093 129.515 303.758 129.515 303.758Z" fill="#757575"/>
<g opacity="0.3">
<path opacity="0.3" d="M204.578 392.642C203.05 393.382 201.323 394.173 199.395 394.963C199.235 393.049 199.086 391.157 198.946 389.289C198.796 387.378 198.646 385.487 198.526 383.625C198.107 377.955 197.751 372.537 197.458 367.374C197.344 365.412 197.238 363.491 197.138 361.61C196.739 353.871 196.452 346.762 196.279 340.284C196.219 338.193 196.159 336.151 196.119 334.19C195.979 327.312 195.93 321.231 195.969 315.947C195.969 313.865 195.969 311.894 196.029 310.052C196.083 306.57 196.159 303.528 196.259 300.926L201.652 299.665C201.562 301.927 201.472 304.579 201.423 307.671C201.423 309.532 201.353 311.534 201.333 313.675C201.333 318.679 201.333 324.553 201.423 331.208C201.423 333.209 201.462 335.301 201.542 337.482C201.715 344.06 201.995 351.329 202.381 359.288C202.481 361.189 202.584 363.137 202.691 365.132C202.984 370.282 203.317 375.71 203.69 381.414C203.819 383.285 203.969 385.186 204.119 387.118C204.269 389.049 204.429 390.77 204.578 392.642Z" fill="#1F45E4"/>
</g>
<g opacity="0.3">
<path opacity="0.3" d="M188.699 302.697C188.309 305.649 187.88 309.192 187.46 313.245C187.271 315.096 187.071 317.048 186.881 319.109C186.362 325.003 185.882 331.728 185.513 339.123C185.423 341.065 185.333 343.056 185.273 345.128C185.034 351.742 184.914 358.838 184.984 366.313C184.984 368.184 185.034 370.086 185.074 372.007C185.183 377.371 185.383 382.925 185.703 388.619C185.813 390.47 185.932 392.322 186.062 394.213C186.182 395.924 186.302 397.655 186.452 399.397C184.774 399.87 183.019 400.304 181.188 400.698C181.059 399.116 180.929 397.535 180.819 395.964C180.689 394.093 180.559 392.242 180.459 390.41C180.11 384.656 179.89 379.032 179.76 373.598C179.71 371.707 179.67 369.835 179.65 367.984C179.571 360.589 179.65 353.564 179.86 346.969C179.86 344.968 179.98 343.056 180.07 341.155C180.399 333.619 180.869 326.745 181.388 320.67C181.555 318.669 181.728 316.757 181.908 314.936C182.327 310.813 182.746 307.15 183.136 304.018L188.699 302.697Z" fill="#1F45E4"/>
</g>
<g opacity="0.3">
<path opacity="0.3" d="M170.782 300.836C170.252 305.089 169.603 310.843 168.964 317.668C168.804 319.439 168.644 321.271 168.485 323.182C167.955 329.547 167.486 336.692 167.086 344.417C166.997 346.229 166.907 348.08 166.837 349.951C166.567 356.616 166.397 363.661 166.367 370.966C166.367 372.768 166.367 374.589 166.367 376.43C166.367 382.235 166.537 388.199 166.777 394.263C166.857 396.074 166.937 397.886 167.027 399.717C167.086 400.768 167.146 401.819 167.206 402.889C165.469 403.06 163.701 403.2 161.883 403.3C161.823 402.469 161.783 401.638 161.733 400.818C161.643 398.997 161.554 397.195 161.474 395.404C161.214 389.17 161.064 383.035 161.034 377.051C161.034 375.24 161.034 373.438 161.034 371.657C161.034 364.342 161.214 357.297 161.474 350.642C161.544 348.791 161.613 346.979 161.703 345.198C162.063 337.452 162.552 330.267 163.072 323.863C163.231 321.971 163.391 320.15 163.551 318.409C164.25 310.623 164.979 304.219 165.548 299.615C167.266 299.915 169.004 300.336 170.782 300.836Z" fill="#1F45E4"/>
</g>
<g opacity="0.3">
<path opacity="0.3" d="M151.876 403.47C149.998 403.47 148.201 403.35 146.463 403.24C146.463 402.93 146.393 402.619 146.363 402.309C146.173 400.568 146.023 398.767 145.913 396.925C145.494 390.681 145.354 383.916 145.234 376.631C145.234 376.33 145.234 376.05 145.234 375.75C145.234 374.259 145.184 372.748 145.154 371.187C145.025 364.682 144.855 357.727 144.445 350.402C144.345 348.611 144.236 346.789 144.106 344.958C143.926 342.366 143.706 339.744 143.457 337.072C143.017 332.329 142.777 328.066 142.738 324.123C142.738 322.232 142.738 320.43 142.738 318.739C142.833 311.91 143.84 305.125 145.734 298.565C147.647 298.338 149.57 298.214 151.496 298.194C150.058 302.117 148.42 308.752 148.111 319.029C148.061 320.72 148.041 322.512 148.111 324.403C148.111 328.066 148.37 332.109 148.8 336.562C149.089 339.564 149.329 342.566 149.519 345.468C149.649 347.29 149.759 349.091 149.838 350.852C150.238 358.267 150.408 365.283 150.518 371.867C150.518 373.158 150.518 374.439 150.588 375.7V377.241C150.717 384.246 150.847 390.871 151.267 396.875C151.386 398.706 151.536 400.488 151.726 402.209C151.779 402.629 151.829 403.05 151.876 403.47Z" fill="#1F45E4"/>
</g>
<g opacity="0.3">
<path opacity="0.3" d="M133.999 322.932C133.8 326.414 133.78 329.905 133.939 333.389C134.109 336.712 134.179 339.874 134.179 342.936C134.179 344.818 134.179 346.659 134.109 348.47C133.949 354.675 133.549 360.559 133.11 366.623C133.11 367.174 133.04 367.714 132.99 368.275C132.87 370.096 132.75 371.927 132.631 373.798C132.311 378.802 132.061 384.026 132.011 389.63C132.011 391.131 132.011 392.632 132.011 394.003C132.011 396.004 132.121 398.006 132.241 399.837C132.241 400.388 132.301 400.928 132.351 401.468C130.407 401.088 128.586 400.658 126.888 400.177C126.888 399.377 126.798 398.556 126.768 397.706C126.675 395.764 126.628 393.729 126.628 391.601V389.6C126.698 383.325 126.998 377.591 127.347 372.077C127.467 370.186 127.597 368.315 127.717 366.463C127.717 366.403 127.717 366.333 127.717 366.273C128.176 359.798 128.606 353.544 128.716 346.889C128.765 345.038 128.765 343.136 128.716 341.205C128.716 338.773 128.626 336.272 128.486 333.67C128.308 329.691 128.345 325.706 128.596 321.731C128.706 319.9 128.845 318.078 129.005 316.277C129.455 311.594 130.074 307.061 130.743 302.978C132.35 302.13 134.019 301.407 135.737 300.816H135.796C136.056 300.716 136.326 300.636 136.595 300.546C135.707 305.549 134.818 311.464 134.268 317.558C134.228 319.329 134.089 321.131 133.999 322.932Z" fill="#1F45E4"/>
</g>
<g opacity="0.3">
<path opacity="0.3" d="M127.297 303.037C128.056 303.237 128.666 303.437 129.035 303.578C125.421 305.884 122.785 309.448 121.635 313.585C121.132 315.361 120.85 317.193 120.796 319.039C120.739 320.32 120.766 321.604 120.875 322.881C121.325 328.105 121.625 333.139 121.744 338.002C121.804 340.054 121.844 342.055 121.844 344.007C121.868 350.506 121.558 357.003 120.915 363.471C120.726 365.382 120.516 367.253 120.256 369.115C120.116 370.185 119.967 371.246 119.797 372.307C119.158 376.31 118.548 381.163 118.039 386.087C117.819 388.178 117.63 390.29 117.46 392.371C117.34 393.782 117.24 395.193 117.15 396.564C115.367 395.745 113.645 394.798 111.997 393.732C112.127 392.001 112.276 390.28 112.436 388.609C112.666 386.287 112.906 384.065 113.145 382.024C113.834 375.97 114.494 371.606 114.514 371.476C114.753 369.905 114.983 368.314 115.173 366.713C115.412 364.802 115.622 362.89 115.782 360.929C116.357 354.377 116.587 347.8 116.471 341.225C116.471 339.13 116.411 336.998 116.291 334.83C116.145 331.094 115.899 327.251 115.552 323.302C115.341 321.092 115.341 318.867 115.552 316.657C115.737 314.807 116.119 312.982 116.691 311.213C117.748 307.851 119.602 304.795 122.094 302.307C123.852 302.328 125.601 302.574 127.297 303.037Z" fill="#1F45E4"/>
</g>
<g opacity="0.3">
<path opacity="0.3" d="M209.652 309.402C207.365 310.713 204.589 312.174 201.323 313.655C199.665 314.416 197.877 315.186 195.97 315.947C193.183 317.038 190.157 318.108 186.881 319.109C185.123 319.65 183.286 320.17 181.388 320.64C177.143 321.72 172.842 322.569 168.505 323.182C166.734 323.436 164.926 323.652 163.082 323.833C159.177 324.213 155.092 324.423 150.817 324.423H148.081C146.243 324.373 144.455 324.283 142.718 324.143C139.792 323.899 136.882 323.501 133.999 322.952C132.161 322.602 130.403 322.191 128.695 321.731C126.013 321.011 123.375 320.132 120.796 319.099C118.968 318.369 117.23 317.578 115.582 316.747C112.99 315.447 110.491 313.97 108.102 312.324C108.785 310.665 109.696 309.108 110.808 307.701C112.71 309.012 114.684 310.214 116.721 311.304C118.259 312.124 119.897 312.905 121.635 313.645C124.069 314.675 126.564 315.553 129.105 316.277C130.793 316.757 132.551 317.188 134.388 317.548C137.154 318.12 139.953 318.525 142.768 318.759C144.505 318.919 146.273 319.019 148.121 319.049H148.59C149.319 319.049 150.048 319.049 150.767 319.049C155.041 319.049 159.312 318.819 163.561 318.359C165.409 318.168 167.216 317.918 168.984 317.648C173.341 316.975 177.656 316.052 181.907 314.886C183.845 314.366 185.693 313.805 187.46 313.225C190.566 312.224 193.453 311.123 196.029 310.033C197.977 309.222 199.765 308.401 201.413 307.611C204.059 306.32 206.316 305.099 208.154 304.028C208.613 305.559 209.123 307.351 209.652 309.402Z" fill="#1F45E4"/>
</g>
<g opacity="0.3">
<path opacity="0.3" d="M213.797 329.427C209.877 332.346 205.781 335.02 201.532 337.433C199.875 338.383 198.127 339.344 196.279 340.255C192.712 342.068 189.044 343.675 185.293 345.068C183.535 345.739 181.738 346.349 179.88 346.909C175.631 348.226 171.292 349.229 166.897 349.912C165.139 350.192 163.341 350.412 161.524 350.572C159.047 350.802 156.53 350.922 153.973 350.922C152.605 350.922 151.237 350.922 149.849 350.812C148.071 350.722 146.283 350.572 144.465 350.362L143.417 350.232C140.293 349.826 137.197 349.224 134.149 348.431C132.311 347.96 130.533 347.43 128.825 346.829C126.465 346.02 124.148 345.088 121.884 344.037C120.007 343.157 118.209 342.236 116.511 341.255C112.629 339.037 108.952 336.475 105.525 333.6C105.435 331.038 105.415 328.596 105.525 326.275C108.85 329.492 112.486 332.368 116.381 334.861C118.145 336 119.965 337.048 121.834 338.003C124.127 339.19 126.488 340.239 128.905 341.145C130.623 341.786 132.411 342.376 134.268 342.897C137.511 343.806 140.815 344.475 144.156 344.898C145.973 345.138 147.771 345.308 149.559 345.408C153.635 345.631 157.723 345.531 161.783 345.108C163.614 344.908 165.412 344.658 167.176 344.358C171.581 343.589 175.921 342.489 180.16 341.065C182.027 340.455 183.845 339.784 185.603 339.064C189.195 337.653 192.706 336.043 196.119 334.24C197.977 333.24 199.755 332.239 201.413 331.238C205.354 328.868 209.15 326.261 212.778 323.433C213.138 325.314 213.467 327.325 213.797 329.427Z" fill="#1F45E4"/>
</g>
<g opacity="0.3">
<path opacity="0.3" d="M215.994 357.256C215.994 357.657 215.994 358.057 215.994 358.477C212.159 360.559 207.665 362.86 202.691 365.112C201.003 365.872 199.255 366.633 197.468 367.374C193.533 369.025 189.368 370.596 185.084 371.977C183.336 372.537 181.568 373.078 179.77 373.568C175.377 374.805 170.911 375.764 166.397 376.44C164.63 376.7 162.842 376.91 161.064 377.061C158.937 377.241 156.81 377.331 154.712 377.331C153.334 377.331 151.966 377.331 150.598 377.211C148.97 377.111 147.342 376.94 145.734 376.71L145.244 376.63C140.987 375.991 136.782 375.045 132.661 373.798C130.883 373.258 129.125 372.677 127.407 372.057C124.95 371.176 122.573 370.206 120.266 369.185C118.529 368.411 116.834 367.61 115.183 366.783C113.086 365.722 111.058 364.632 109.121 363.521C108.701 361.239 108.302 358.887 107.922 356.516C110.389 358.047 113.016 359.518 115.792 361.029C117.45 361.91 119.158 362.75 120.926 363.571C123.133 364.572 125.43 365.572 127.777 366.473C129.495 367.14 131.242 367.75 133.02 368.304C136.984 369.576 141.036 370.55 145.145 371.216C145.594 371.296 146.043 371.376 146.503 371.436C147.821 371.627 149.159 371.767 150.498 371.867C154.016 372.085 157.545 372.028 161.054 371.697C162.832 371.527 164.62 371.296 166.397 371.006C170.879 370.294 175.309 369.291 179.66 368.004C181.468 367.494 183.236 366.923 184.994 366.333C189.218 364.912 193.303 363.331 197.148 361.659C198.956 360.889 200.704 360.098 202.381 359.318C207.565 356.906 212.169 354.474 215.934 352.383C215.964 353.954 215.994 355.595 215.994 357.256Z" fill="#1F45E4"/>
</g>
<g opacity="0.3">
<path opacity="0.3" d="M214.855 376.271C214.726 377.271 214.596 378.272 214.446 379.273C214.296 380.273 214.096 381.544 213.897 382.675C211.21 383.966 207.904 385.477 204.149 387.108C202.501 387.829 200.753 388.559 198.946 389.3C194.951 390.941 190.606 392.612 186.062 394.193C184.344 394.784 182.597 395.374 180.819 395.945C176.315 397.376 171.681 398.687 167.047 399.737C165.289 400.148 163.511 400.508 161.753 400.838C158.428 401.449 155.132 401.909 151.926 402.169H151.726C150.408 402.279 149.099 402.319 147.821 402.319C147.322 402.319 146.822 402.319 146.363 402.319C141.578 402.175 136.839 401.342 132.291 399.847C130.428 399.241 128.601 398.529 126.818 397.716C123.549 396.242 120.418 394.48 117.46 392.452C115.652 391.221 113.974 389.95 112.466 388.689C110.58 387.134 108.773 385.484 107.053 383.746L109.22 378.212C110.339 379.403 111.657 380.724 113.215 382.105C114.773 383.486 116.311 384.807 118.109 386.168C120.827 388.228 123.717 390.05 126.748 391.612C128.494 392.518 130.291 393.32 132.131 394.013C136.567 395.711 141.241 396.697 145.983 396.935C147.768 397.018 149.556 396.991 151.337 396.855H151.556C154.908 396.561 158.241 396.09 161.544 395.444C163.301 395.104 165.079 394.714 166.847 394.303C171.421 393.223 176.035 391.882 180.509 390.411C182.277 389.83 184.035 389.24 185.753 388.619C190.297 386.998 194.621 385.297 198.576 383.616C200.404 382.865 202.132 382.115 203.77 381.384C208.354 379.373 212.189 377.541 214.855 376.271Z" fill="#1F45E4"/>
</g>
<path opacity="0.2" d="M181.508 304.379C174.147 308.572 156.44 317.688 143.277 316.677C132.72 315.867 128.296 308.832 127.297 303.038C128.052 303.227 128.793 303.468 129.515 303.758C129.515 303.758 147.891 290.749 181.308 304.419L181.508 304.379Z" fill="black" fill-opacity="0.7"/>
<path opacity="0.2" d="M157.798 403.469C156.8 403.469 155.801 403.469 154.732 403.469C115.213 403.379 105.415 387.908 105.415 387.908L111.078 373.468C108.675 362.225 106.934 350.851 105.865 339.403C108.961 345.798 128.166 382.885 156.6 382.724C176.714 382.594 167.057 394.833 157.798 403.469Z" fill="black" fill-opacity="0.7"/>
<path opacity="0.2" d="M215.994 357.257C216.012 364.623 215.494 371.981 214.446 379.273C204.009 366.684 207.295 343.827 207.295 343.827C208.663 352.734 213.287 356.056 215.994 357.257Z" fill="black" fill-opacity="0.7"/>
<path d="M129.515 303.758C129.515 303.758 147.881 290.749 181.318 304.429L206.396 298.564C206.396 298.564 222.616 342.696 212.888 387.939C212.888 387.939 191.116 403.59 154.692 403.5C115.173 403.41 105.375 387.939 105.375 387.939L111.038 373.498C107.632 357.016 103.218 330.567 106.584 316.888C111.687 296.093 129.515 303.758 129.515 303.758Z" stroke="#121D50" stroke-linecap="round" stroke-linejoin="round"/>
<path d="M141.979 310.894C153.524 311.344 167.536 311.264 177.613 304.819" stroke="#121D50" stroke-linecap="round" stroke-linejoin="round"/>
<path d="M135.507 310.463C136.506 310.563 137.584 310.643 138.623 310.713" stroke="#121D50" stroke-linecap="round" stroke-linejoin="round"/>
<path d="M144.415 382.425C144.478 384.286 144.743 386.135 145.204 387.939" stroke="#121D50" stroke-linecap="round" stroke-linejoin="round"/>
<path d="M141.389 313.525C139.39 318.036 138.748 323.034 139.542 327.906C144.006 344.918 146.673 360.929 144.385 378.182" stroke="#121D50" stroke-linecap="round" stroke-linejoin="round"/>
<path d="M147.681 370.826C153.483 372.262 159.54 372.32 165.369 370.996" stroke="#121D50" stroke-linecap="round" stroke-linejoin="round"/>
<path d="M111.438 334.891C117.667 349.895 129.05 362.17 143.527 369.495" stroke="#121D50" stroke-linecap="round" stroke-linejoin="round"/>
<path d="M108.471 326.475C108.821 327.685 109.19 328.876 109.6 330.067" stroke="#121D50" stroke-linecap="round" stroke-linejoin="round"/>
<path d="M206.396 298.565C204.529 312.863 204.731 327.356 206.995 341.596C210.731 365.613 216.583 365.383 216.583 365.383C216.583 365.383 249.99 324.003 258.929 307.281C258.929 307.281 256.812 283.264 247.404 278.16L206.396 298.565Z" fill="#757575"/>
<g opacity="0.3">
<path opacity="0.3" d="M252.927 316.977C251.588 318.978 250.13 321.11 248.602 323.291C247.803 318.538 246.884 314.145 245.886 310.082C245.406 308.08 244.887 306.199 244.378 304.378C243.239 300.375 242.041 296.782 240.822 293.53C240.123 291.699 239.424 289.977 238.745 288.376C237.999 286.628 237.26 285.017 236.528 283.543L241.391 281.121C242.001 282.362 242.63 283.693 243.249 285.124C243.968 286.725 244.681 288.446 245.386 290.288C246.585 293.37 247.763 296.772 248.892 300.515C249.418 302.316 249.947 304.218 250.48 306.219C251.359 309.551 252.178 313.134 252.927 316.977Z" fill="#1F45E4"/>
</g>
<g opacity="0.3">
<path opacity="0.3" d="M240.692 334.24C239.124 336.342 237.546 338.443 235.988 340.495C235.335 333.776 234.335 327.095 232.992 320.48C232.599 318.479 232.18 316.551 231.734 314.696C230.645 309.993 229.457 305.69 228.238 301.747C227.672 299.899 227.096 298.138 226.51 296.463C225.682 294.041 224.853 291.8 224.064 289.778L228.917 287.356C229.656 289.228 230.435 291.279 231.204 293.491C231.79 295.152 232.386 296.913 232.992 298.775C234.161 302.477 235.329 306.55 236.408 310.973C236.867 312.835 237.313 314.763 237.746 316.758C238.905 322.131 239.913 327.966 240.692 334.24Z" fill="#1F45E4"/>
</g>
<g opacity="0.3">
<path opacity="0.3" d="M228.039 350.833C226.401 352.954 224.853 354.906 223.474 356.667C222.256 347.76 220.718 338.954 219.08 330.648C218.691 328.707 218.311 326.795 217.922 324.924C216.773 319.41 215.595 314.206 214.466 309.453C214.027 307.592 213.587 305.79 213.158 304.079C212.458 301.207 211.779 298.555 211.16 296.153L216.054 293.722C216.663 296.043 217.322 298.615 218.051 301.417C218.481 303.138 218.93 304.95 219.39 306.831C220.458 311.334 221.587 316.258 222.705 321.502C223.105 323.373 223.504 325.294 223.894 327.246C225.372 334.771 226.81 342.717 228.039 350.833Z" fill="#1F45E4"/>
</g>
<g opacity="0.3">
<path opacity="0.3" d="M252.977 284.465C250.68 286.296 248.143 288.247 245.386 290.279C243.928 291.35 242.39 292.44 240.822 293.531C238.365 295.252 235.769 296.994 233.002 298.755C231.464 299.756 229.886 300.756 228.248 301.757C225.425 303.472 222.459 305.186 219.35 306.901C217.752 307.771 216.124 308.652 214.466 309.513C211.47 311.074 208.404 312.605 205.198 314.106C205.198 311.894 205.338 309.863 205.447 308.102C208.111 306.807 210.681 305.503 213.158 304.189C214.805 303.308 216.433 302.418 218.011 301.527C221.008 299.866 223.814 298.185 226.52 296.523C228.138 295.529 229.703 294.529 231.214 293.521C233.871 291.8 236.378 290.089 238.745 288.428C240.313 287.317 241.821 286.226 243.249 285.165C245.633 283.384 247.837 281.683 249.861 280.062C250.531 280.718 251.139 281.435 251.678 282.203C252.161 282.927 252.595 283.683 252.977 284.465Z" fill="#1F45E4"/>
</g>
<g opacity="0.3">
<path opacity="0.3" d="M257.831 299.766C255.514 301.827 253.067 303.989 250.481 306.19C248.993 307.481 247.485 308.772 245.887 310.083C243.27 312.285 240.56 314.503 237.757 316.738C236.189 317.979 234.611 319.23 233.003 320.46C230.007 322.762 226.961 325.064 223.855 327.285C222.27 328.426 220.679 329.554 219.081 330.668C214.956 333.53 210.772 336.262 206.597 338.774C206.327 336.772 206.097 334.821 205.918 332.919C209.913 330.428 213.908 327.736 217.902 324.914C219.49 323.793 221.078 322.662 222.646 321.501C225.722 319.25 228.769 316.938 231.725 314.626C233.303 313.385 234.861 312.144 236.399 310.904C239.145 308.692 241.802 306.49 244.389 304.329C245.927 303.018 247.445 301.727 248.903 300.456C251.566 298.121 254.096 295.883 256.493 293.741C257.042 295.873 257.482 297.924 257.831 299.766Z" fill="#1F45E4"/>
</g>
<path opacity="0.2" d="M258.919 307.221C249.991 323.943 216.583 365.323 216.583 365.323C216.583 365.323 211.59 365.523 207.904 346.679C210.631 356.847 218.021 357.877 218.021 357.877L252.058 312.755C248.433 305.03 251.549 282.794 251.638 282.203C257.481 290.779 258.919 307.221 258.919 307.221Z" fill="black" fill-opacity="0.7"/>
<path d="M206.396 298.565C204.529 312.863 204.731 327.356 206.995 341.596C210.731 365.613 216.583 365.383 216.583 365.383C216.583 365.383 249.99 324.003 258.929 307.281C258.929 307.281 256.812 283.264 247.404 278.16L206.396 298.565Z" stroke="#121D50" stroke-linecap="round" stroke-linejoin="round"/>
<path d="M181.318 304.428C181.318 304.428 167.476 294.261 149.139 292.11C130.803 289.958 131.282 300.806 131.282 300.806C130.531 301.118 129.928 301.708 129.599 302.453C129.27 303.198 129.24 304.042 129.514 304.809C130.333 307.871 155.162 310.823 181.318 304.428Z" fill="#757575"/>
<g opacity="0.3">
<path opacity="0.3" d="M148.051 292C147.551 293.206 147.118 294.439 146.752 295.692C146.313 297.193 145.864 298.975 145.454 301.066C145.045 303.158 144.695 305.439 144.455 308.071C142.458 307.981 140.72 307.841 139.092 307.661C139.352 305.179 139.672 302.947 140.031 300.946C140.391 298.944 140.8 297.113 141.22 295.532C141.589 294.161 141.959 292.96 142.338 291.899C144.242 291.762 146.153 291.795 148.051 292Z" fill="#1F45E4"/>
</g>
<g opacity="0.3">
<path opacity="0.3" d="M162.722 295.212C162.722 295.893 162.722 296.623 162.672 297.424C162.612 299.005 162.492 300.806 162.293 302.828C162.143 304.319 161.943 305.94 161.683 307.671C159.806 307.845 157.978 307.975 156.2 308.061C156.56 305.86 156.81 303.848 156.989 302.057C157.189 300.056 157.289 298.204 157.349 296.663C157.349 295.522 157.349 294.512 157.349 293.661C159.226 294.115 161.017 294.632 162.722 295.212Z" fill="#1F45E4"/>
</g>
<g opacity="0.3">
<path opacity="0.3" d="M181.308 304.418C179.371 304.899 177.433 305.319 175.506 305.699C171.152 304.522 166.742 303.563 162.293 302.827C160.465 302.507 158.697 302.247 156.989 302.026C152.765 301.486 148.9 301.196 145.454 301.026C143.457 300.946 141.639 300.916 140.001 300.936C136.745 300.937 133.491 301.111 130.254 301.456C130.538 301.162 130.877 300.928 131.252 300.766C131.279 298.924 131.955 297.152 133.16 295.762C135.327 295.602 138.014 295.482 141.15 295.492C142.877 295.492 144.725 295.492 146.713 295.622C149.928 295.782 153.474 296.072 157.309 296.563C159.027 296.773 160.795 297.033 162.632 297.353C165.908 297.887 169.347 298.581 172.949 299.435C175.857 300.883 178.651 302.549 181.308 304.418Z" fill="#1F45E4"/>
</g>
<path d="M181.318 304.428C181.318 304.428 167.476 294.261 149.139 292.11C130.803 289.958 131.282 300.806 131.282 300.806C130.531 301.118 129.928 301.708 129.599 302.453C129.27 303.198 129.24 304.042 129.514 304.809C130.333 307.871 155.162 310.823 181.318 304.428Z" stroke="#121D50" stroke-linecap="round" stroke-linejoin="round"/>
<path d="M151.317 299.635C153.093 299.883 154.846 300.275 156.56 300.805" stroke="#121D50" stroke-linecap="round" stroke-linejoin="round"/>
<path d="M131.282 300.806C136.631 299.455 142.155 298.935 147.661 299.265" stroke="#121D50" stroke-linecap="round" stroke-linejoin="round"/>
<path d="M99.5728 299.545C99.5961 301.308 99.7095 303.068 99.9128 304.819" stroke="#121D50" stroke-linecap="round" stroke-linejoin="round"/>
<path d="M107.602 278.12C102.04 281.763 100.072 289.658 99.6626 295.823" stroke="#121D50" stroke-linecap="round" stroke-linejoin="round"/>
<path d="M239.374 324.663C237.959 326.18 236.263 327.407 234.38 328.276" stroke="#121D50" stroke-linecap="round" stroke-linejoin="round"/>
<path d="M255.194 289.618C251.848 300.226 248.283 311.834 241.911 321.641" stroke="#121D50" stroke-linecap="round" stroke-linejoin="round"/>
<path d="M216.583 365.342C216.583 365.342 211.44 367.844 204.599 353.684" stroke="#121D50" stroke-linecap="round" stroke-linejoin="round"/>
<path d="M208.024 378.902C203.09 387.599 195.96 395.684 186.452 399.367" stroke="#121D50" stroke-linecap="round" stroke-linejoin="round"/>
<path d="M211.879 370.826C211.36 372.237 210.741 373.618 210.091 374.969" stroke="#121D50" stroke-linecap="round" stroke-linejoin="round"/>
</svg>
