<svg width="243" height="118" viewBox="0 0 243 118" fill="none" xmlns="http://www.w3.org/2000/svg">
<g clip-path="url(#clip0)">
<path d="M184.519 35.2998C184.519 35.2998 181.541 33.8515 181.029 31.2313C180.518 28.6111 176.293 30.1253 176.293 30.1253C176.293 30.1253 172.095 28.598 171.57 31.2313C171.045 33.8647 168.08 35.2998 168.08 35.2998C169.72 37.8015 175.244 38.6573 176.109 38.789H176.241C177.12 38.6705 182.866 37.8015 184.519 35.2998Z" fill="#DABC73"/>
<path d="M183.115 34.3784C182.541 33.8545 182.022 33.272 181.567 32.6404C181.147 31.9425 172.593 33.7069 172.593 33.7069C172.593 33.7069 175.217 36.8405 177.225 36.5377C181.646 35.8794 183.115 34.3784 183.115 34.3784Z" fill="#CFA848"/>
<path d="M176.214 38.0649C176.214 38.0649 167.24 33.5092 166.558 35.9582C165.876 38.4072 173.472 47.8083 176.214 47.7029C179.888 47.4922 186.448 38.3151 185.582 35.8529C184.795 33.575 176.778 37.9991 176.214 38.0649Z" fill="#AFAFB5"/>
<path d="M177.815 47.703L176.293 40.9221L174.548 47.703H176.044H177.815Z" fill="#FF8700"/>
<path d="M176.254 38.2229L173.997 40.9221L174.299 42.2651L175.939 43.5422L176.66 43.4764L178.235 42.0676L178.537 40.7114L176.254 38.2229Z" fill="#FF8700"/>
<path d="M185.044 35.2603L184.073 34.5493L176.214 38.0648L179.245 42.6205L185.044 35.2603Z" fill="#BBBCC2"/>
<path d="M176.411 47.7029L177.146 93.8785L184.441 96.3934L196.091 96.0642L196.432 55.3001L193.546 43.3184L189.518 36.6824L176.411 47.7029Z" fill="#0E33CB"/>
<path d="M194.005 96.0643L194.031 55.761L195.055 96.0643H194.005Z" fill="#1C3E6B"/>
<path d="M167.463 35.2603L168.447 34.5493L176.293 38.0648L173.276 42.6205L167.463 35.2603Z" fill="#D3D5DB"/>
<path d="M176.805 47.9399L180.111 55.4318L180.859 92.7462L168.46 94.9319L156.075 90.3762V55.3001L158.975 43.3184L162.989 36.6824L176.805 47.9399Z" fill="#0E33CB"/>
<path d="M158.397 85.7547L158.489 55.761L157.348 85.7547H158.397Z" fill="#24518C"/>
<path d="M162.99 36.6824L176.805 48.5719L166.952 50.4021L162.99 36.6824Z" fill="#1C3E6B"/>
<path d="M162.99 36.6823L166.388 34.5493L176.805 47.9398L167.463 48.9669L162.99 36.6823Z" fill="#0E33CB"/>
<path d="M189.518 36.6824L175.703 48.5719L185.569 50.4021L189.518 36.6824Z" fill="#1C3E6B"/>
<path d="M189.518 36.6823L186.12 34.5493L175.703 47.9398L185.044 48.9669L189.518 36.6823Z" fill="#0E33CB"/>
<path d="M176.293 35.6948C176.293 35.6948 168.526 34.0621 166.296 27.9133C164.954 23.7938 164.555 19.424 165.128 15.1284H176.293V35.6948Z" fill="#E6D590"/>
<path d="M176.293 35.6948C176.293 35.6948 184.073 34.0621 186.304 27.9133C187.645 23.7938 188.044 19.424 187.471 15.1284H176.293V35.6948Z" fill="#DABC73"/>
<path d="M190.305 13.5222C190.016 11.4682 188.534 3.98951 182.026 1.52734V1.2245C180.191 0.645921 178.307 0.236064 176.398 0C174.493 0.236849 172.614 0.646698 170.783 1.2245V1.52734C164.223 3.98951 162.779 11.4682 162.491 13.5222H161.795V17.2747H191.04V13.5222H190.305Z" fill="#EC9C4C"/>
<path d="M190.305 13.5222C190.017 11.4682 188.534 3.98951 182.026 1.52734V1.2245C180.191 0.645921 178.307 0.236064 176.398 0V0V17.2747H191.066V13.5222H190.305Z" fill="#FF8700"/>
<path d="M170.783 1.52734C170.783 1.52734 169.248 3.44968 172.501 12.1265C172.2 13.0482 171.098 12.2714 170.888 11.9554C169.337 9.31545 168.217 6.4441 167.568 3.44968C168.444 2.52566 169.556 1.86071 170.783 1.52734Z" fill="#ECCF7F"/>
<path d="M182.013 1.52734C182.013 1.52734 183.509 3.44968 180.281 12.1265C180.583 13.0482 181.698 12.2714 181.895 11.9554C183.446 9.31545 184.566 6.4441 185.215 3.44968C184.346 2.52342 183.237 1.85785 182.013 1.52734Z" fill="#EC9C4C"/>
<g style="mix-blend-mode:multiply" opacity="0.5">
<path d="M161.795 13.5222H191.04V15.1286L161.795 14.9574V13.5222Z" fill="#FF8700"/>
</g>
<path d="M139.072 118C144.674 117.223 175.729 110.969 175.729 110.969L208.371 111.812L242.405 108.441L229.442 77.2754L196.458 81.1201L163.658 80.3959L128.418 87.4796L139.072 118Z" fill="#BDC5CA"/>
<path d="M175.703 110.969L208.345 111.812L196.432 81.1202L163.632 80.396L175.703 110.969Z" fill="#AFB7BC"/>
<path d="M131.803 89.1648L131.751 88.8883L164.551 82.4893L197.416 82.8975L228.104 79.6716L228.13 79.9481L197.429 83.174L164.577 82.7658L131.803 89.1648Z" fill="#426380"/>
<path d="M132.708 91.5218L132.656 91.2453L165.469 84.8462L198.321 85.2676L229.009 82.0286L229.035 82.3182L198.335 85.5441L165.495 85.1227L132.708 91.5218Z" fill="#426380"/>
<path d="M133.627 93.8919L133.574 93.6154L166.374 87.2164L199.24 87.6245L229.928 84.3987L229.954 84.6752L199.253 87.9142L166.401 87.4929L133.627 93.8919Z" fill="#426380"/>
<path d="M134.532 96.2617L134.48 95.9852L167.293 89.573L200.145 89.9944L230.833 86.7554L230.872 87.045L200.158 90.2709L167.319 89.8627L134.532 96.2617Z" fill="#426380"/>
<path d="M135.451 98.6187L135.398 98.3422L168.198 91.9432L201.064 92.3645L231.751 89.1255L231.778 89.402L201.077 92.641L168.224 92.2197L135.451 98.6187Z" fill="#426380"/>
<path d="M136.356 100.989L136.303 100.712L169.117 94.313L201.969 94.7212L232.657 91.4954L232.683 91.7719L201.982 95.0109L169.143 94.5895L136.356 100.989Z" fill="#426380"/>
<path d="M137.274 103.345L137.222 103.069L170.022 96.67L202.887 97.0913L233.575 93.8523L233.601 94.142L202.9 97.3678L170.048 96.9465L137.274 103.345Z" fill="#426380"/>
<path d="M138.18 105.716L138.127 105.439L170.94 99.0401L203.793 99.4483L234.48 96.2224L234.52 96.4989L203.806 99.7379L170.966 99.3166L138.18 105.716Z" fill="#426380"/>
<path d="M139.098 108.085L139.045 107.809L171.845 101.41L204.711 101.818L235.398 98.5923L235.425 98.8688L204.724 102.095L171.872 101.686L139.098 108.085Z" fill="#426380"/>
<path d="M140.003 110.442L139.951 110.166L172.764 103.767L205.616 104.188L236.304 100.949L236.343 101.226L205.629 104.465L172.79 104.043L140.003 110.442Z" fill="#426380"/>
<path d="M140.922 112.812L140.869 112.536L173.682 106.137L206.535 106.545L237.222 103.319L237.248 103.596L206.548 106.835L173.695 106.413L140.922 112.812Z" fill="#426380"/>
<path d="M141.827 115.169L141.774 114.893L174.587 108.494L207.44 108.915L238.127 105.676L238.167 105.953L207.453 109.192L174.614 108.77L141.827 115.169Z" fill="#426380"/>
<path opacity="0.5" d="M222.462 104.017C220.757 104.017 219.497 104.873 219.655 105.874C219.812 106.874 221.4 107.677 223.223 107.664C225.047 107.651 226.306 106.835 226.044 105.821C225.782 104.807 224.168 104.017 222.462 104.017Z" fill="white"/>
<path opacity="0.5" d="M131.383 88.5593H129.586C129.333 88.571 129.084 88.629 128.851 88.7304L129.888 91.7061H131.488C131.698 92.2971 131.99 92.8556 132.354 93.3651L130.727 93.8786H130.649L131.252 95.6166L132.026 96.3013C132.282 96.4678 132.571 96.5754 132.872 96.6163C133.174 96.6573 133.481 96.6307 133.771 96.5383L135.411 96.0248C136.189 96.493 137 96.9023 137.838 97.2493L136.946 98.1315C136.618 98.4475 136.868 98.8688 137.497 99.0531L140.633 99.9485C140.926 100.043 141.236 100.069 141.541 100.026C141.845 99.9828 142.136 99.8707 142.391 99.6983L143.27 98.803C144.369 99.0037 145.476 99.1487 146.59 99.2375L146.773 100.278C146.773 100.659 147.495 100.962 148.23 100.962H151.785C152.52 100.962 153.097 100.646 152.953 100.278L152.703 99.2375C153.752 99.1441 154.795 98.9902 155.826 98.7766L157.138 99.6851C157.417 99.8537 157.727 99.9629 158.05 100.006C158.373 100.049 158.701 100.025 159.014 99.9353L161.756 99.0136C162.32 98.8293 162.386 98.408 161.927 98.0788L160.615 97.1834C161.294 96.8139 161.932 96.3725 162.517 95.8668L164.38 96.3803C165.049 96.5646 165.797 96.4593 166.02 96.1301L167.096 94.5369C167.306 94.2078 166.925 93.7864 166.269 93.6021L164.42 93.0754C164.576 92.5239 164.634 91.9488 164.59 91.3769H166.44C167.109 91.3769 167.529 91.0609 167.372 90.6791L166.624 88.9279C166.46 88.6979 166.24 88.5141 165.985 88.3942C165.73 88.2742 165.448 88.2223 165.167 88.2433H163.37C162.958 87.6287 162.483 87.0594 161.953 86.5448L163.265 86.0049C163.724 85.8074 163.75 85.3861 163.265 85.0569L161.166 83.4901C160.933 83.3298 160.665 83.2261 160.385 83.1873C160.105 83.1484 159.82 83.1755 159.552 83.2662L158.24 83.8061C157.457 83.3483 156.646 82.9393 155.813 82.5816L156.246 81.8442L131.738 86.7686L132.026 86.8608C131.727 87.3907 131.51 87.9635 131.383 88.5593ZM138.822 86.9003C140.924 85.1316 143.598 84.195 146.34 84.2669C151.588 84.2669 156.692 86.7554 157.715 89.9681C157.893 90.5102 157.923 91.0898 157.803 91.6475C157.683 92.2052 157.417 92.7208 157.033 93.1413C155.55 94.6554 152.598 95.6561 148.938 95.6693C142.982 95.6693 137.891 93.1281 137.576 89.9549C137.545 89.3848 137.64 88.8149 137.856 88.2865C138.072 87.7581 138.402 87.2846 138.822 86.9003Z" fill="white"/>
<path opacity="0.5" d="M167.345 96.9464C166.794 96.9464 166.361 97.2097 166.361 97.5126V99.0136C166.361 99.3164 166.821 99.5666 167.372 99.5666H168.933C169.112 100.064 169.359 100.533 169.668 100.962L168.356 101.397C167.87 101.555 167.7 101.91 167.988 102.174L169.445 103.49C169.66 103.63 169.903 103.721 170.157 103.755C170.411 103.789 170.67 103.766 170.914 103.688L172.292 103.266C172.944 103.654 173.623 103.993 174.325 104.28L173.577 105.031C173.302 105.294 173.577 105.65 174.05 105.808L176.674 106.558C176.921 106.635 177.182 106.655 177.438 106.619C177.695 106.583 177.94 106.49 178.156 106.347L178.891 105.584C179.815 105.76 180.748 105.887 181.685 105.966L181.843 106.835C181.843 107.151 182.446 107.401 183.063 107.401H186.041C186.658 107.401 187.104 107.151 187.025 106.835L186.815 105.952C187.697 105.877 188.573 105.749 189.439 105.571L190.502 106.334C190.736 106.476 190.996 106.569 191.267 106.605C191.538 106.641 191.814 106.621 192.076 106.545L194.372 105.781C194.845 105.623 194.91 105.268 194.517 104.991L193.441 104.241C194.011 103.948 194.547 103.595 195.042 103.187L196.616 103.622C197.18 103.767 197.81 103.622 197.994 103.398L198.886 102.081C199.069 101.805 198.755 101.449 198.19 101.291L196.642 100.857C196.778 100.391 196.827 99.905 196.787 99.4217H198.348C198.912 99.4217 199.253 99.1584 199.122 98.8424L198.479 97.3019C198.345 97.1059 198.161 96.9498 197.947 96.8501C197.732 96.7504 197.494 96.7109 197.259 96.7357H195.75C195.406 96.2183 195.011 95.7374 194.569 95.3006L195.671 94.8529C196.065 94.6817 196.078 94.3262 195.671 94.0629L193.9 92.7462C193.711 92.6152 193.494 92.5292 193.267 92.495C193.04 92.4608 192.807 92.4791 192.588 92.5487L191.525 93.0096C190.868 92.6202 190.184 92.2771 189.479 91.9826L189.925 91.2189C190.095 90.9424 189.82 90.5869 189.334 90.4289L187.038 89.7047C186.843 89.6227 186.629 89.6003 186.421 89.6401C186.213 89.6799 186.022 89.7802 185.871 89.9285L185.398 90.7054C184.627 90.5445 183.848 90.4302 183.063 90.363L182.853 89.4809C182.756 89.2978 182.607 89.1476 182.425 89.0492C182.243 88.9509 182.036 88.9086 181.83 88.9279H179.494C179.009 88.9279 178.655 89.1912 178.72 89.5072L178.878 90.3762C178.143 90.4659 177.415 90.6067 176.7 90.7975L175.9 90.047C175.724 89.9138 175.518 89.8271 175.3 89.7949C175.082 89.7627 174.86 89.786 174.653 89.8627L172.672 90.6527C172.252 90.8107 172.134 91.1662 172.41 91.4296L173.184 92.1669C172.622 92.4732 172.087 92.8256 171.583 93.2202L170.271 92.7989C170.052 92.7154 169.815 92.6921 169.585 92.7315C169.354 92.7708 169.138 92.8714 168.959 93.0227L167.739 94.3394C167.49 94.6159 167.647 94.9582 168.106 95.1031L169.418 95.5244C169.149 95.9599 168.95 96.4354 168.828 96.9332L167.345 96.9464ZM177.028 96.2486C178.344 95.1667 180.012 94.609 181.712 94.6817C185.005 94.6817 188.14 96.2091 188.718 98.1972C188.813 98.5333 188.82 98.8884 188.737 99.2277C188.654 99.567 188.485 99.8789 188.245 100.133C186.85 101.257 185.085 101.816 183.299 101.7C179.691 101.7 176.556 100.146 176.306 98.1841C176.267 97.8273 176.312 97.4662 176.437 97.13C176.563 96.7938 176.765 96.4919 177.028 96.2486Z" fill="white"/>
<path opacity="0.5" d="M182.905 99.7641C184.545 99.7641 185.674 99.0136 185.424 98.1051C185.175 97.1966 183.745 96.4855 182.21 96.4987C180.675 96.5119 179.586 97.2624 179.691 98.1577C179.796 99.0531 181.265 99.7772 182.905 99.7641Z" fill="white"/>
<path opacity="0.5" d="M234.231 105.149C234.131 105.012 233.998 104.902 233.844 104.831C233.69 104.759 233.521 104.729 233.352 104.741H232.224C231.974 104.372 231.688 104.028 231.371 103.714L232.158 103.385C232.447 103.266 232.46 103.016 232.158 102.819L230.846 101.871C230.705 101.776 230.544 101.715 230.376 101.692C230.207 101.669 230.036 101.685 229.875 101.739L229.101 102.068C228.632 101.791 228.145 101.545 227.645 101.331L227.96 100.778C228.078 100.58 227.96 100.33 227.54 100.225L225.887 99.6983C225.749 99.6383 225.597 99.6214 225.449 99.6495C225.302 99.6777 225.166 99.7497 225.06 99.8563L224.719 100.422C224.165 100.306 223.604 100.223 223.04 100.172L222.895 99.5403C222.827 99.4075 222.72 99.2986 222.589 99.2281C222.458 99.1576 222.308 99.1287 222.161 99.1453H220.626L222.357 98.5659C222.83 98.4079 222.895 98.0524 222.502 97.7759L221.426 97.0254C221.998 96.7379 222.536 96.3844 223.026 95.9721L224.601 96.4066C224.829 96.4949 225.076 96.5218 225.318 96.4849C225.559 96.448 225.787 96.3483 225.978 96.1959L226.871 94.8792C227.054 94.6027 226.739 94.2472 226.175 94.1024L224.627 93.6547C224.763 93.1893 224.812 92.7028 224.771 92.2196H226.333C226.897 92.2196 227.238 91.9431 227.107 91.6271L226.464 90.0866C226.325 89.8964 226.14 89.7447 225.927 89.6457C225.713 89.5467 225.478 89.5036 225.244 89.5204H223.735C223.387 89.0097 222.992 88.5335 222.554 88.0984L223.656 87.6376C224.05 87.4796 224.063 87.1241 223.656 86.8476L221.885 85.5309C221.695 85.402 221.478 85.3184 221.25 85.2865C221.023 85.2545 220.791 85.2751 220.573 85.3466L219.51 85.7942C218.847 85.4153 218.164 85.0724 217.464 84.7672L217.91 84.0035C218.08 83.727 217.805 83.3715 217.319 83.2267L215.168 82.5157C214.971 82.4354 214.756 82.415 214.548 82.4572C214.34 82.4994 214.15 82.6022 214 82.7527L213.528 83.5295C212.757 83.3686 211.977 83.2543 211.192 83.1872L210.982 82.305C210.889 82.1183 210.741 81.965 210.558 81.8661C210.375 81.7671 210.166 81.7273 209.959 81.752H207.624C207.138 81.752 206.784 82.0285 206.85 82.3445L207.007 83.2135C206.273 83.3055 205.546 83.4418 204.829 83.6217L204.016 82.9502C203.84 82.817 203.634 82.7303 203.416 82.6981C203.198 82.6659 202.976 82.6892 202.769 82.7659L200.788 83.5559C200.368 83.7139 200.25 84.0562 200.526 84.3327L201.287 85.0569C200.728 85.368 200.193 85.72 199.686 86.1102L198.374 85.702C198.155 85.6186 197.918 85.5953 197.688 85.6346C197.457 85.674 197.241 85.7746 197.062 85.9259L195.842 87.2426C195.593 87.5059 195.75 87.8614 196.209 88.0062L197.521 88.4276C197.252 88.8584 197.053 89.3295 196.931 89.8232H195.488C194.937 89.8232 194.504 90.0866 194.504 90.4026V91.8904C194.504 92.2064 194.963 92.4566 195.514 92.4566H197.075C197.257 92.9525 197.504 93.4219 197.81 93.8522L196.498 94.2867C196.012 94.4447 195.842 94.7871 196.131 95.0504L197.587 96.3671C197.802 96.5071 198.045 96.5975 198.299 96.6316C198.554 96.6658 198.812 96.6429 199.056 96.5646L200.434 96.1301C201.089 96.5169 201.768 96.86 202.467 97.1571L201.72 97.8944C201.444 98.1709 201.72 98.5133 202.192 98.6713L204.816 99.4218C205.062 99.5052 205.325 99.5295 205.582 99.493C205.84 99.4564 206.085 99.3599 206.299 99.2111L207.033 98.4606C207.953 98.6321 208.882 98.7552 209.815 98.8293L209.972 99.7114C209.972 100.014 210.589 100.278 211.205 100.278H214.184C214.8 100.278 215.246 100.014 215.168 99.6983L214.958 98.8293C215.839 98.7538 216.715 98.6263 217.582 98.4474L218.644 99.2111C219.101 99.4748 219.642 99.5504 220.153 99.4218C220.125 99.4514 220.104 99.4866 220.09 99.5252C220.076 99.5638 220.071 99.6048 220.074 99.6456L220.193 100.278C219.666 100.339 219.145 100.436 218.631 100.567L218.067 100.041C217.94 99.9424 217.791 99.8777 217.633 99.8524C217.475 99.8271 217.313 99.842 217.162 99.8958L215.745 100.462C215.443 100.58 215.364 100.831 215.548 101.028L216.099 101.555C215.696 101.768 215.313 102.019 214.958 102.305L214.052 102.016C213.901 101.961 213.738 101.947 213.579 101.975C213.42 102.002 213.272 102.071 213.147 102.174L212.281 103.122C212.098 103.306 212.216 103.556 212.544 103.661L213.462 103.964C213.279 104.278 213.138 104.614 213.042 104.965H211.966C211.573 104.965 211.258 105.149 211.258 105.373V106.453C211.258 106.677 211.586 106.848 211.979 106.848H213.108C213.227 107.208 213.404 107.546 213.633 107.848L212.649 108.164C212.294 108.283 212.176 108.533 212.386 108.717L213.423 109.652C213.58 109.75 213.755 109.814 213.939 109.839C214.122 109.864 214.308 109.849 214.485 109.797L215.469 109.481C215.942 109.761 216.433 110.007 216.939 110.218L216.388 110.745C216.352 110.79 216.332 110.846 216.332 110.903C216.332 110.961 216.352 111.016 216.388 111.061L231.659 109.56L231.83 109.428L232.132 109.507L234.06 109.284L234.52 108.599C234.651 108.401 234.428 108.151 234.021 108.033L232.919 107.717C233.009 107.382 233.04 107.035 233.011 106.69H234.139C234.533 106.69 234.782 106.492 234.69 106.268L234.231 105.149ZM218.566 93.7206C217.254 95.0372 214.84 95.8273 211.77 95.8404C206.758 95.8404 202.481 93.7206 202.218 91.0477C202.185 90.5578 202.262 90.0667 202.443 89.6107C202.625 89.1548 202.907 88.7459 203.268 88.4144C205.045 86.9489 207.293 86.1815 209.592 86.2551C214.013 86.2551 218.277 88.3486 219.143 91.0477C219.3 91.5036 219.329 91.9939 219.227 92.4653C219.125 92.9366 218.897 93.3708 218.566 93.7206ZM226.976 107.23C225.979 108.039 224.713 108.439 223.433 108.349C220.809 108.349 218.592 107.23 218.408 105.834C218.391 105.589 218.43 105.343 218.521 105.115C218.612 104.887 218.753 104.683 218.933 104.517C219.874 103.734 221.071 103.331 222.292 103.385C224.653 103.385 226.91 104.478 227.317 105.9C227.374 106.132 227.373 106.376 227.313 106.608C227.254 106.84 227.138 107.054 226.976 107.23Z" fill="white"/>
<path d="M139.583 103.188L141.263 108.652L171.294 99.356L169.615 93.8918L139.583 103.188ZM168.736 97.4337C168.548 97.4913 168.345 97.4717 168.172 97.3791C167.998 97.2865 167.869 97.1285 167.811 96.9399C167.754 96.7514 167.773 96.5476 167.866 96.3736C167.958 96.1995 168.115 96.0693 168.303 96.0117C168.396 95.9832 168.494 95.9733 168.591 95.9827C168.688 95.992 168.782 96.0205 168.867 96.0663C168.953 96.1122 169.029 96.1745 169.091 96.2499C169.153 96.3252 169.2 96.4121 169.228 96.5054C169.257 96.5988 169.266 96.6969 169.257 96.7941C169.248 96.8912 169.219 96.9856 169.174 97.0718C169.128 97.158 169.066 97.2343 168.991 97.2964C168.916 97.3585 168.829 97.4052 168.736 97.4337Z" fill="#EC9C4C"/>
<path d="M141.879 108.454L141.63 108.533L141.092 106.808L141.355 106.729L141.879 108.454Z" fill="#A35600"/>
<path d="M143.239 106.147L142.988 106.225L143.52 107.948L143.771 107.87L143.239 106.147Z" fill="#A35600"/>
<path d="M145.124 105.572L144.874 105.649L145.401 107.373L145.652 107.296L145.124 105.572Z" fill="#A35600"/>
<path d="M146.998 104.992L146.747 105.069L147.274 106.794L147.525 106.717L146.998 104.992Z" fill="#A35600"/>
<path d="M148.89 104.387L148.64 104.465L149.168 106.189L149.418 106.112L148.89 104.387Z" fill="#A35600"/>
<path d="M151.313 105.544L151.05 105.623L150.525 103.885L150.775 103.806L151.313 105.544Z" fill="#A35600"/>
<path d="M153.202 104.952L152.94 105.031L152.415 103.306L152.664 103.227L153.202 104.952Z" fill="#A35600"/>
<path d="M154.774 103.729L154.522 103.806L155.043 105.537L155.295 105.461L154.774 103.729Z" fill="#A35600"/>
<path d="M156.431 102.06L156.18 102.137L156.708 103.861L156.959 103.784L156.431 102.06Z" fill="#A35600"/>
<path d="M158.857 103.201L158.594 103.28L158.069 101.555L158.319 101.476L158.857 103.201Z" fill="#A35600"/>
<path d="M160.202 100.921L159.951 100.998L160.48 102.722L160.73 102.645L160.202 100.921Z" fill="#A35600"/>
<path d="M162.081 100.305L161.831 100.383L162.364 102.106L162.614 102.028L162.081 100.305Z" fill="#A35600"/>
<path d="M164.511 101.449L164.249 101.528L163.724 99.8036L163.987 99.7246L164.511 101.449Z" fill="#A35600"/>
<path d="M166.193 100.113L165.941 100.19L166.462 101.921L166.714 101.845L166.193 100.113Z" fill="#A35600"/>
<path d="M168.277 100.291L168.028 100.37L167.503 98.6449L167.752 98.5659L168.277 100.291Z" fill="#A35600"/>
<path d="M170.166 99.6982L169.917 99.7772L169.379 98.0524L169.641 97.9734L170.166 99.6982Z" fill="#A35600"/>
<path d="M181.2 70.9949L181.318 73.4307L185.687 86.7949L186.894 86.3999L182.525 73.0225L181.2 70.9949Z" fill="#EC9C4C"/>
<path d="M186.094 86.6633L185.91 86.7159L181.554 73.3517L181.738 73.2859L186.094 86.6633Z" fill="#FF8700"/>
<path d="M182.317 73.12L182.143 73.177L186.475 86.5501L186.65 86.4931L182.317 73.12Z" fill="#FF8700"/>
<path d="M181.2 70.9949L181.239 71.9034L181.699 71.7585L181.2 70.9949Z" fill="#636363"/>
<path d="M149.227 98.7503C149.227 98.7503 152.008 106.94 155.668 106.071C159.329 105.202 161.074 104.214 156.797 95.7614C152.52 87.3084 149.227 98.7503 149.227 98.7503Z" fill="#E8D792"/>
<path d="M192.168 86.9003C192.168 86.9003 184.021 89.7443 182.446 86.2947C180.872 82.845 180.596 80.87 189.872 79.0793C199.148 77.2886 192.168 86.9003 192.168 86.9003Z" fill="#E8D792"/>
<path d="M192.116 88.0457L188.796 78.6184C188.796 78.6184 203.032 73.9574 202.927 66.189C202.927 62.871 199.502 59.9612 195.055 56.9723C191.263 54.339 189.505 36.7351 189.505 36.7351C189.505 36.7351 196.563 39.3684 200.29 43.7793C204.016 48.1901 214.722 57.42 215.784 67.2424C217.293 81.6336 192.116 88.0457 192.116 88.0457Z" fill="#0E33CB"/>
<path d="M148.859 99.3559L156.98 94.9319C156.98 94.9319 150.696 79.7638 151.732 72.0745C152.218 68.5195 153.714 61.7913 157.426 56.9196C160.221 53.2593 162.976 36.6824 162.976 36.6824C162.976 36.6824 155.918 39.3157 152.192 43.7266C148.466 48.1374 139.938 59.5266 139.072 71.482C137.93 85.9785 148.859 99.3559 148.859 99.3559Z" fill="#0E33CB"/>
<path d="M175.703 58.6182C176.318 58.6182 176.818 58.1171 176.818 57.499C176.818 56.8809 176.318 56.3799 175.703 56.3799C175.087 56.3799 174.587 56.8809 174.587 57.499C174.587 58.1171 175.087 58.6182 175.703 58.6182Z" fill="#E8D792"/>
<path d="M175.703 70.7579C176.318 70.7579 176.818 70.2568 176.818 69.6387C176.818 69.0206 176.318 68.5195 175.703 68.5195C175.087 68.5195 174.587 69.0206 174.587 69.6387C174.587 70.2568 175.087 70.7579 175.703 70.7579Z" fill="#E8D792"/>
<path d="M56.101 35.2998C56.101 35.2998 53.1359 33.8515 52.6111 31.2313C52.0863 28.6111 47.8879 30.1253 47.8879 30.1253C47.8879 30.1253 43.6895 28.598 43.1647 31.2313C42.6399 33.8647 39.6748 35.2998 39.6748 35.2998C41.3279 37.8015 46.8383 38.6573 47.7042 38.789H47.8354C48.7013 38.6705 54.4479 37.8015 56.101 35.2998Z" fill="#DABC73"/>
<path d="M54.7102 34.3784C54.1355 33.8545 53.6166 33.272 53.162 32.6404C52.7422 31.9425 44.188 33.7069 44.188 33.7069C44.188 33.7069 46.812 36.8405 48.8062 36.5377C53.2276 35.8794 54.7102 34.3784 54.7102 34.3784Z" fill="#CFA848"/>
<path d="M47.7961 38.0649C47.7961 38.0649 38.8221 33.5092 38.1398 35.9582C37.4576 38.4072 45.054 47.8083 47.7961 47.7029C51.4697 47.4922 58.0297 38.3151 57.1638 35.8529C56.4159 33.575 48.3603 37.9991 47.7961 38.0649Z" fill="#AFAFB5"/>
<path d="M49.3968 47.703L47.888 40.9221L46.1299 47.703H47.6256H49.3968Z" fill="#FF8700"/>
<path d="M47.8484 38.2229L45.5918 40.9221L45.8804 42.2651L47.5204 43.5422L48.242 43.4764L49.8295 42.0676L50.1182 40.7114L47.8484 38.2229Z" fill="#FF8700"/>
<path d="M56.639 35.2603L55.655 34.5493L47.7961 38.0648L50.8269 42.6205L56.639 35.2603Z" fill="#BBBCC2"/>
<path d="M48.0061 47.7029L48.7277 93.8785L56.0224 96.3934L67.6729 96.0642L68.0272 55.3001L65.1277 43.3184L61.113 36.6824L48.0061 47.7029Z" fill="#0E33CB"/>
<path d="M65.5867 96.0643L65.6129 55.761L66.6363 96.0643H65.5867Z" fill="#1C3E6B"/>
<path d="M39.0449 35.2603L40.0289 34.5493L47.8878 38.0648L44.8571 42.6205L39.0449 35.2603Z" fill="#D3D5DB"/>
<path d="M48.3997 47.9399L51.6928 55.4318L52.4406 92.7462L40.0554 94.9319L27.657 90.3762V55.3001L30.5565 43.3184L34.5712 36.6824L48.3997 47.9399Z" fill="#0E33CB"/>
<path d="M29.9793 85.7547L30.0711 55.761L28.9297 85.7547H29.9793Z" fill="#24518C"/>
<path d="M34.5713 36.6824L48.3997 48.5719L38.5335 50.4021L34.5713 36.6824Z" fill="#1C3E6B"/>
<path d="M34.5713 36.6823L37.9694 34.5493L48.3997 47.9398L39.0452 48.9669L34.5713 36.6823Z" fill="#0E33CB"/>
<path d="M61.1129 36.6824L47.2844 48.5719L57.1506 50.4021L61.1129 36.6824Z" fill="#1C3E6B"/>
<path d="M61.1129 36.6823L57.7017 34.5493L47.2844 47.9398L56.639 48.9669L61.1129 36.6823Z" fill="#0E33CB"/>
<path d="M47.8879 35.6948C47.8879 35.6948 40.1077 34.0621 37.8773 27.9133C36.5449 23.7918 36.1548 19.422 36.7359 15.1284H47.8879V35.6948Z" fill="#E6D590"/>
<path d="M47.8879 35.6948C47.8879 35.6948 55.655 34.0621 57.8854 27.9133C59.2221 23.7928 59.6168 19.423 59.0399 15.1284H47.8879V35.6948Z" fill="#DABC73"/>
<path d="M61.8868 13.5222C61.6637 11.4682 60.1287 3.95001 53.6081 1.52734V1.2245C51.7728 0.645921 49.8889 0.236064 47.9796 0C46.075 0.238267 44.1956 0.648089 42.3643 1.2245V1.52734C35.8436 3.95001 34.3742 11.4682 34.1118 13.5222H33.4033V17.2747H62.6215V13.5222H61.8868Z" fill="#EC9C4C"/>
<path d="M61.8869 13.5222C61.6639 11.4682 60.1288 3.95001 53.6082 1.52734V1.2245C51.7729 0.645921 49.889 0.236064 47.9797 0V0V17.2747H62.6216V13.5222H61.8869Z" fill="#FF8700"/>
<path d="M42.3645 1.52734C42.3645 1.52734 40.8557 3.44968 44.0833 12.1265C43.7815 13.0482 42.6794 12.2714 42.4695 11.9554C40.9191 9.31545 39.7986 6.4441 39.1501 3.44968C40.026 2.52566 41.1379 1.86071 42.3645 1.52734Z" fill="#ECCF7F"/>
<path d="M53.5951 1.52734C53.5951 1.52734 55.1039 3.44968 51.8633 12.1265C52.165 13.0482 53.2802 12.2714 53.477 11.9554C55.0348 9.31766 56.16 6.4458 56.8095 3.44968C55.9336 2.52566 54.8217 1.86071 53.5951 1.52734Z" fill="#EC9C4C"/>
<g style="mix-blend-mode:multiply" opacity="0.5">
<path d="M33.3772 13.5222H62.6216V15.1286L33.3772 14.9574V13.5222Z" fill="#FF8700"/>
</g>
<path d="M10.6272 118C16.2294 117.184 47.2319 110.969 47.2319 110.969L79.8744 111.812L113.986 108.441L101.024 77.2754L68.0271 81.1201L35.2271 80.3959L0 87.4796L10.6272 118Z" fill="#BDC5CA"/>
<path d="M47.2845 110.969L79.927 111.812L68.0272 81.1202L35.2141 80.396L47.2845 110.969Z" fill="#AFB7BC"/>
<path d="M3.385 89.1648L3.33252 88.8883L36.1456 82.4893L68.998 82.8975L99.6856 79.6716L99.7118 79.9481L69.0111 83.174L36.1587 82.7658L3.385 89.1648Z" fill="#426380"/>
<path d="M4.29027 91.5218L4.23779 91.2453L37.0508 84.8462L69.9033 85.2676L100.591 82.0286L100.63 82.3182L69.9164 85.5441L37.0771 85.1227L4.29027 91.5218Z" fill="#426380"/>
<path d="M5.20849 93.8919L5.15601 93.6154L37.9691 87.2164L70.8215 87.6245L101.509 84.3987L101.535 84.6752L70.8346 87.9142L37.9822 87.4929L5.20849 93.8919Z" fill="#426380"/>
<path d="M6.12712 96.2617L6.06152 95.9852L38.8746 89.573L71.727 89.9944L102.415 86.7554L102.454 87.045L71.7401 90.2709L38.9008 89.8627L6.12712 96.2617Z" fill="#426380"/>
<path d="M7.03222 98.6187L6.97974 98.3422L39.7928 91.9432L72.6452 92.3645L103.333 89.1255L103.359 89.402L72.6583 92.641L39.8059 92.2197L7.03222 98.6187Z" fill="#426380"/>
<path d="M7.93749 100.989L7.88501 100.712L40.6981 94.313L73.5505 94.7212L104.238 91.4954L104.277 91.7719L73.5636 95.0109L40.7243 94.5895L7.93749 100.989Z" fill="#426380"/>
<path d="M8.85595 103.345L8.80347 103.069L41.6165 96.67L74.4689 97.0913L105.157 93.8523L105.183 94.142L74.482 97.3678L41.6296 96.9465L8.85595 103.345Z" fill="#426380"/>
<path d="M9.77434 105.716L9.70874 105.439L42.5218 99.0401L75.3742 99.4483L106.062 96.2224L106.101 96.4989L75.3873 99.7379L42.548 99.3166L9.77434 105.716Z" fill="#426380"/>
<path d="M10.6797 108.085L10.6272 107.809L43.4403 101.41L76.2927 101.818L106.98 98.5923L107.007 98.8688L76.3058 102.095L43.4665 101.686L10.6797 108.085Z" fill="#426380"/>
<path d="M11.5981 110.442L11.5325 110.166L44.3455 103.767L77.1979 104.188L107.886 100.949L107.925 101.226L77.2111 104.465L44.3718 104.043L11.5981 110.442Z" fill="#426380"/>
<path d="M12.5034 112.812L12.4509 112.536L45.264 106.137L78.1164 106.545L108.804 103.319L108.83 103.596L78.1295 106.835L45.2902 106.413L12.5034 112.812Z" fill="#426380"/>
<path d="M13.4216 115.169L13.3691 114.893L46.1691 108.494L79.0215 108.915L109.722 105.676L109.748 105.953L79.0346 109.192L46.1953 108.77L13.4216 115.169Z" fill="#426380"/>
<path d="M11.165 103.188L12.8444 108.652L42.876 99.356L41.1967 93.8918L11.165 103.188ZM40.3176 97.4337C40.1788 97.4767 40.0303 97.4774 39.891 97.4358C39.7518 97.3941 39.6279 97.3119 39.5352 97.1996C39.4425 97.0873 39.385 96.9499 39.3701 96.8049C39.3552 96.6598 39.3835 96.5135 39.4514 96.3846C39.5193 96.2556 39.6238 96.1498 39.7516 96.0805C39.8795 96.0111 40.0249 95.9814 40.1696 95.9951C40.3143 96.0087 40.4517 96.0651 40.5645 96.1571C40.6772 96.2491 40.7603 96.3726 40.8031 96.512C40.8604 96.6989 40.8415 96.9009 40.7505 97.0737C40.6595 97.2465 40.5038 97.376 40.3176 97.4337Z" fill="#EC9C4C"/>
<path d="M13.4741 108.454L13.2117 108.533L12.6738 106.808L12.9362 106.729L13.4741 108.454Z" fill="#A35600"/>
<path d="M14.8236 106.147L14.573 106.225L15.1048 107.948L15.3555 107.87L14.8236 106.147Z" fill="#A35600"/>
<path d="M16.702 105.566L16.4512 105.643L16.9785 107.367L17.2293 107.29L16.702 105.566Z" fill="#A35600"/>
<path d="M18.5756 104.986L18.3247 105.063L18.852 106.788L19.1029 106.71L18.5756 104.986Z" fill="#A35600"/>
<path d="M20.4813 104.398L20.2305 104.475L20.7584 106.2L21.0092 106.122L20.4813 104.398Z" fill="#A35600"/>
<path d="M22.8944 105.544L22.6451 105.623L22.1072 103.885L22.3696 103.806L22.8944 105.544Z" fill="#A35600"/>
<path d="M24.7838 104.952L24.5214 105.031L23.9966 103.306L24.2459 103.227L24.7838 104.952Z" fill="#A35600"/>
<path d="M26.127 102.658L25.8762 102.735L26.4047 104.459L26.6555 104.382L26.127 102.658Z" fill="#A35600"/>
<path d="M28.0084 102.06L27.7576 102.138L28.2861 103.862L28.5369 103.784L28.0084 102.06Z" fill="#A35600"/>
<path d="M30.4383 103.201L30.1759 103.28L29.6511 101.555L29.9135 101.476L30.4383 103.201Z" fill="#A35600"/>
<path d="M31.7923 100.905L31.5415 100.982L32.07 102.706L32.3208 102.629L31.7923 100.905Z" fill="#A35600"/>
<path d="M33.6732 100.304L33.4226 100.382L33.9553 102.105L34.2059 102.027L33.6732 100.304Z" fill="#A35600"/>
<path d="M36.0931 101.449L35.8438 101.528L35.3059 99.8036L35.5683 99.7246L36.0931 101.449Z" fill="#A35600"/>
<path d="M37.4391 99.1481L37.1882 99.2253L37.7155 100.95L37.9664 100.873L37.4391 99.1481Z" fill="#A35600"/>
<path d="M39.8717 100.291L39.6093 100.37L39.0845 98.6449L39.3338 98.5659L39.8717 100.291Z" fill="#A35600"/>
<path d="M41.2101 97.977L40.9595 98.0549L41.4913 99.778L41.7419 99.7001L41.2101 97.977Z" fill="#A35600"/>
<path d="M52.7817 70.9949L52.9129 73.4307L57.2688 86.7949L58.4758 86.3999L54.12 73.0225L52.7817 70.9949Z" fill="#EC9C4C"/>
<path d="M57.6755 86.6633L57.5049 86.7159L53.136 73.3517L53.3197 73.2859L57.6755 86.6633Z" fill="#FF8700"/>
<path d="M53.9115 73.0972L53.7368 73.1543L58.0738 86.5258L58.2484 86.4688L53.9115 73.0972Z" fill="#FF8700"/>
<path d="M52.7817 70.9949L52.8342 71.9034L53.2803 71.7585L52.7817 70.9949Z" fill="#636363"/>
<path d="M20.8215 98.7503C20.8215 98.7503 23.5898 106.94 27.2634 106.071C30.937 105.202 32.6689 104.214 28.3918 95.7614C24.1146 87.3084 20.8215 98.7503 20.8215 98.7503Z" fill="#E8D792"/>
<path d="M63.7499 86.9003C63.7499 86.9003 55.6024 89.7443 54.0411 86.2947C52.4798 82.845 52.1781 80.87 61.4539 79.0793C70.7297 77.2886 63.7499 86.9003 63.7499 86.9003Z" fill="#E8D792"/>
<path d="M63.6974 88.0457L60.3518 78.6184C60.3518 78.6184 74.5739 73.9574 74.482 66.189C74.482 62.871 71.0446 59.9612 66.61 56.9723C62.8184 54.339 61.0603 36.7351 61.0603 36.7351C61.0603 36.7351 68.1188 39.3684 71.8449 43.7793C75.571 48.1901 86.3687 57.3673 87.3921 67.1502C88.8746 81.6336 63.6974 88.0457 63.6974 88.0457Z" fill="#0E33CB"/>
<path d="M20.4409 99.3559L28.5622 94.9319C28.5622 94.9319 22.2777 79.7638 23.3142 72.0745C23.7996 68.5195 25.2822 61.7913 29.0082 56.9196C31.7897 53.2593 34.5449 36.6824 34.5449 36.6824C34.5449 36.6824 27.4994 39.3157 23.7734 43.7266C20.0473 48.1374 11.5062 59.5266 10.6534 71.482C9.51195 85.9785 20.4409 99.3559 20.4409 99.3559Z" fill="#0E33CB"/>
<path d="M48.3996 57.499C48.3996 57.7204 48.3342 57.9368 48.2116 58.1208C48.0891 58.3049 47.9149 58.4483 47.7112 58.533C47.5074 58.6177 47.2831 58.6399 47.0668 58.5967C46.8505 58.5535 46.6518 58.4469 46.4958 58.2904C46.3399 58.1339 46.2336 57.9345 46.1906 57.7174C46.1476 57.5003 46.1697 57.2753 46.2541 57.0708C46.3385 56.8663 46.4814 56.6915 46.6648 56.5685C46.8482 56.4455 47.0638 56.3799 47.2844 56.3799C47.4308 56.3799 47.5759 56.4088 47.7112 56.4651C47.8465 56.5213 47.9694 56.6038 48.0729 56.7077C48.1765 56.8116 48.2587 56.935 48.3147 57.0708C48.3707 57.2065 48.3996 57.3521 48.3996 57.499Z" fill="#E8D792"/>
<path d="M48.3995 69.6387C48.3891 69.8552 48.3163 70.064 48.1898 70.2398C48.0634 70.4155 47.8889 70.5506 47.6874 70.6287C47.4859 70.7068 47.2662 70.7245 47.0549 70.6797C46.8436 70.6348 46.6498 70.5294 46.497 70.3761C46.3443 70.2228 46.2392 70.0284 46.1945 69.8163C46.1499 69.6042 46.1675 69.3837 46.2453 69.1815C46.3231 68.9793 46.4578 68.8041 46.6329 68.6773C46.808 68.5504 47.0161 68.4773 47.2318 68.4669C47.3872 68.4594 47.5423 68.4845 47.6874 68.5407C47.8325 68.597 47.9642 68.683 48.0742 68.7934C48.1841 68.9037 48.2699 69.0359 48.3259 69.1815C48.3819 69.3271 48.407 69.4828 48.3995 69.6387Z" fill="#E8D792"/>
</g>
<defs>
<clipPath id="clip0">
<rect width="242.378" height="118" fill="white"/>
</clipPath>
</defs>
</svg>
