<svg width="535" height="535" viewBox="0 0 535 535" fill="none" xmlns="http://www.w3.org/2000/svg">
<path d="M142.666 439.657L102.919 411.379L111.787 391.519C105.5 383.94 100.253 375.557 96.1839 366.591L74.4118 365.916L66.3069 317.851L86.6522 310.063C87.5568 300.26 89.7661 290.621 93.2218 281.402L78.3331 265.528L106.614 225.797L126.486 234.664C134.07 228.38 142.458 223.135 151.428 219.067L152.119 197.311L200.221 189.204L208.006 209.54C217.818 210.44 227.466 212.649 236.692 216.106L252.558 201.224L292.307 229.493L283.445 249.356C289.731 256.937 294.978 265.321 299.049 274.287L320.815 274.977L328.92 323.058L308.58 330.836C308.177 335.172 307.52 339.481 306.614 343.74L306.354 344.946L252.678 331.741L252.883 330.625C254.79 320.111 253.67 309.272 249.652 299.37C245.635 289.468 238.886 280.911 230.191 274.694C204.951 256.743 169.804 262.661 151.845 287.888C133.885 313.114 139.809 348.242 165.044 366.199C170.265 369.923 176.086 372.723 182.256 374.475L183.317 374.777L173.019 429.104L171.792 428.803C167.288 427.74 162.855 426.394 158.52 424.775L142.666 439.657ZM105.927 410.562L142.455 436.545L157.98 421.983L158.686 422.254C162.747 423.81 166.899 425.119 171.119 426.174L180.53 376.489C174.486 374.647 168.782 371.837 163.639 368.168C137.318 349.439 131.14 312.8 149.869 286.492C168.597 260.183 205.255 254.008 231.579 272.731C240.49 279.102 247.445 287.833 251.661 297.941C255.877 308.049 257.186 319.132 255.441 329.944L304.493 342.022C305.299 338.01 305.878 333.957 306.228 329.88L306.291 329.127L326.199 321.514L318.736 277.326L297.438 276.651L297.136 275.96C293.014 266.71 287.614 258.084 281.095 250.333L280.607 249.754L289.288 230.319L252.76 204.342L237.235 218.901L236.529 218.633C227.064 215.014 217.138 212.742 207.041 211.882L206.287 211.816L198.671 191.917L154.469 199.361L153.793 220.65L153.102 220.952C143.848 225.073 135.218 230.471 127.463 236.988L126.884 237.477L107.441 228.8L81.452 265.311L96.021 280.829L95.7495 281.535C92.1291 290.993 89.8557 300.913 88.9959 311.004L88.9326 311.754L69.0246 319.373L76.472 363.561L97.7765 364.236L98.0781 364.927C102.2 374.177 107.6 382.803 114.119 390.554L114.608 391.13L105.927 410.562Z" fill="#FF6B00"/>
<path d="M209.243 188.996L208.063 167.487L161.726 160.799L154.487 181.084C150.039 181.571 145.624 182.325 141.266 183.342L152.185 235.062C160.332 232.959 168.841 232.668 177.113 234.209C185.384 235.751 193.217 239.087 200.058 243.983L225.229 197.29C220.138 194.09 214.791 191.316 209.243 188.996Z" fill="#FF6B00"/>
<path d="M197.606 380.14V377.728C208.894 377.764 219.931 374.404 229.282 368.084C238.633 361.764 245.865 352.777 250.036 342.293L252.274 343.197C247.924 354.129 240.384 363.498 230.633 370.087C220.883 376.676 209.375 380.179 197.606 380.14Z" fill="#FF6B00"/>
<path d="M197.606 396.605V394.193C214.545 394.257 230.999 388.541 244.248 377.991L245.756 379.884C232.078 390.773 215.092 396.672 197.606 396.605Z" fill="#5577FF"/>
<path d="M252.515 400.419L251.164 398.42C266.179 388.297 278.021 374.132 285.321 357.564L287.529 358.538C280.047 375.522 267.907 390.042 252.515 400.419Z" fill="#FF6B00"/>
<path d="M387.595 139.875L385.808 141.496L425.001 184.67L426.788 183.049L387.595 139.875Z" fill="#88929F"/>
<path d="M323.668 299.218L319.774 276.15L298.243 275.468C294.073 266.112 288.614 257.384 282.024 249.539L290.799 229.897L252.657 202.762L236.972 217.484C233.034 215.983 229.013 214.711 224.928 213.676L215.23 265.835C228.485 270.123 239.731 279.078 246.874 291.033C254.017 302.989 256.572 317.132 254.063 330.83L305.419 343.478C306.369 339.021 307.042 334.51 307.434 329.971L327.55 322.276L323.668 299.218ZM150.855 287.188C155.165 281.113 160.624 275.94 166.923 271.962L140.717 226.053C135.78 229.017 131.086 232.368 126.679 236.074L107.027 227.301L93.4537 246.362L79.8801 265.419L94.609 281.097C90.9486 290.668 88.6528 300.706 87.789 310.916L67.6609 318.619L71.555 341.684L75.4401 364.752L96.9738 365.433C101.141 374.792 106.603 383.521 113.199 391.362L104.424 411.008L123.491 424.575L142.563 438.143L158.248 423.421C162.752 425.142 167.366 426.562 172.06 427.669L181.908 375.666C175.608 373.88 169.661 371.024 164.329 367.224C138.518 348.811 132.479 312.996 150.855 287.188Z" fill="#FF6B00"/>
<path d="M301.739 151.422C303.231 147.529 304.168 143.447 304.523 139.293L312.704 136.167L311.12 126.775L309.54 117.383L300.774 117.106C299.076 113.297 296.852 109.745 294.168 106.553L297.74 98.5544L289.978 93.034L282.239 87.5044L275.85 93.4983C271.954 92.0099 267.868 91.0742 263.712 90.7184L260.578 82.5327L251.17 84.1216L241.774 85.6954L241.494 94.457C237.683 96.1546 234.13 98.3771 230.936 101.06L222.934 97.4871L217.411 105.248L211.888 113.008L217.885 119.394C216.394 123.287 215.458 127.37 215.103 131.523L206.911 134.659L208.495 144.048L210.078 153.439L218.844 153.717C220.541 157.525 222.763 161.077 225.447 164.269L221.875 172.265L229.636 177.789L237.4 183.309L243.789 177.315C247.685 178.805 251.771 179.74 255.927 180.095L259.061 188.284L268.457 186.701L277.853 185.118L278.13 176.356C281.941 174.661 285.495 172.44 288.687 169.757L296.69 173.326L302.213 165.566L307.739 157.808L301.739 151.422ZM246.268 154.437C242.504 151.76 239.618 148.026 237.976 143.709C236.334 139.392 236.01 134.685 237.044 130.184C238.079 125.682 240.425 121.589 243.788 118.42C247.15 115.252 251.376 113.152 255.933 112.385C260.489 111.617 265.171 112.218 269.386 114.111C273.601 116.003 277.16 119.103 279.612 123.017C282.065 126.932 283.301 131.485 283.164 136.101C283.028 140.718 281.525 145.19 278.845 148.953C277.067 151.452 274.813 153.576 272.213 155.204C269.614 156.831 266.719 157.931 263.693 158.441C260.668 158.95 257.572 158.859 254.582 158.172C251.593 157.485 248.768 156.216 246.268 154.437Z" fill="#FF6B00"/>
<path d="M386.698 142.025C388.218 142.025 389.675 141.421 390.75 140.347C391.825 139.273 392.429 137.816 392.429 136.296H391.084C391.084 137.161 390.827 138.005 390.347 138.724C389.867 139.442 389.184 140.002 388.385 140.333C387.587 140.663 386.708 140.75 385.86 140.581C385.012 140.413 384.234 139.997 383.622 139.386C383.011 138.775 382.595 137.996 382.426 137.149C382.258 136.301 382.344 135.423 382.675 134.625C383.006 133.826 383.566 133.144 384.285 132.664C385.003 132.184 385.848 131.928 386.713 131.928H387.389V62.7817H386.04V130.637C384.629 130.853 383.349 131.588 382.451 132.698C381.554 133.808 381.103 135.213 381.187 136.637C381.271 138.062 381.884 139.404 382.906 140.401C383.928 141.397 385.286 141.976 386.713 142.025H386.698Z" fill="#6D747A"/>
<path d="M385.15 130.345H388.369V97.6832H385.15V130.345Z" fill="#88929F"/>
<path d="M348.459 184.663L346.671 183.041L386.791 138.895L388.336 140.686L348.459 184.663Z" fill="#88929F"/>
<path d="M452.792 226.96C457.33 223.555 461.596 219.802 465.552 215.736L428.833 177.689C423.416 183.564 416.831 188.243 409.5 191.429C402.17 194.615 394.255 196.236 386.261 196.189C378.268 196.143 370.373 194.429 363.08 191.159C355.787 187.888 349.257 183.132 343.908 177.195L307.847 215.968C311.631 219.83 315.697 223.404 320.012 226.662L315.82 247.785L337.42 256.785L359.023 265.779L371.067 247.927C381.21 249.38 391.506 249.408 401.656 248.008L413.619 265.896L435.258 256.987L456.886 248.078L452.792 226.96Z" fill="#FF6B00"/>
<path d="M355.641 462.89H429.065L405.924 533.924L408.086 534.626L432.199 460.614H353.988L330.108 533.924L332.27 534.626L355.641 462.89Z" fill="#121D50"/>
<path d="M380.632 533.924L357.49 462.89H430.911L454.282 534.626L456.448 533.924L432.564 460.614H354.356L378.466 534.626L380.632 533.924Z" fill="#121D50"/>
<path d="M438.675 482.982H348.809V485.255H438.675V482.982Z" fill="#121D50"/>
<path d="M447.073 507.681H339.552V509.954H447.073V507.681Z" fill="#121D50"/>
<path d="M154.218 124.957C152.434 124.457 150.856 123.401 149.715 121.942C149.116 121.199 148.688 120.334 148.46 119.408C148.232 118.481 148.211 117.516 148.397 116.581C148.901 112.903 148.56 108.923 148.165 106.161C145.824 103.337 144.432 99.8481 144.186 96.189C143.939 92.5298 144.852 88.8861 146.793 85.774C148.734 82.662 151.606 80.2396 155.002 78.8502C158.397 77.4607 162.144 77.1746 165.711 78.0325C169.278 78.8904 172.485 80.8487 174.877 83.63C177.268 86.4112 178.724 89.8742 179.036 93.5282C179.349 97.1823 178.503 100.842 176.619 103.989C174.734 107.135 171.907 109.61 168.537 111.06C166.534 114.259 165.101 117.274 164.278 120.021C163.445 123.778 159.229 126.051 154.861 125.113C154.644 125.073 154.43 125.021 154.218 124.957ZM166.109 79.6231C162.797 78.6623 159.264 78.7936 156.033 79.9973C152.802 81.201 150.045 83.4132 148.171 86.306C146.296 89.1988 145.404 92.6183 145.626 96.0577C145.848 99.4972 147.173 102.774 149.404 105.401L149.537 105.558L149.567 105.76C149.983 108.624 150.37 112.869 149.827 116.81V116.864C149.679 117.602 149.696 118.362 149.877 119.092C150.058 119.822 150.398 120.502 150.873 121.085C151.954 122.449 153.484 123.386 155.19 123.73C158.809 124.51 162.26 122.704 162.912 119.704V119.677V119.65C163.786 116.72 165.325 113.512 167.457 110.12L167.578 109.93L167.786 109.842C170.857 108.571 173.458 106.376 175.227 103.563C176.997 100.75 177.849 97.4566 177.665 94.1385C177.48 90.8205 176.27 87.6416 174.2 85.0412C172.129 82.4409 169.302 80.5476 166.109 79.6231Z" fill="#FF6B00"/>
<path d="M152.273 118.462L153.941 99.3623L157.153 103.39L160.122 101.223L161.678 104.168L165.955 101.853L159.832 120.048L158.478 119.596L163.443 104.838L161.09 106.11L159.63 103.351L156.888 105.353L155.054 103.053L153.697 118.586L152.273 118.462Z" fill="#FF6B00"/>
<path d="M161.264 124.743L149.151 122.118L148.093 126.998L160.206 129.622L161.264 124.743Z" fill="#FF6B00"/>
<path d="M164.293 120.182L148.283 116.713L146.579 124.568L162.589 128.037L164.293 120.182Z" fill="#FF6B00"/>
<path d="M20.084 300.523L19.2213 300.228L26.4636 279.15L42.6494 274.67L48.2175 251.563L60.6811 245.892L63.2812 227.943L64.1832 228.076L61.5137 246.516L49.0018 252.211L43.4125 275.405L27.1724 279.901L20.084 300.523Z" fill="#FF6B00"/>
<path d="M44.8997 273.476C45.2096 273.845 45.4029 274.298 45.4553 274.777C45.5077 275.256 45.4168 275.74 45.1941 276.167C44.9714 276.594 44.6269 276.946 44.2041 277.178C43.7814 277.409 43.2994 277.51 42.8192 277.468C42.339 277.426 41.882 277.243 41.5062 276.941C41.1304 276.639 40.8525 276.233 40.7078 275.773C40.563 275.313 40.5579 274.821 40.6931 274.359C40.8283 273.896 41.0976 273.484 41.4671 273.174C41.9624 272.76 42.6022 272.558 43.2459 272.615C43.8896 272.671 44.4845 272.981 44.8997 273.476Z" fill="white"/>
<path d="M44.8875 277.257C44.4487 277.623 43.9109 277.852 43.3423 277.913C42.7737 277.974 42.1996 277.865 41.6928 277.6C41.1859 277.336 40.7689 276.927 40.4946 276.425C40.2202 275.923 40.1008 275.352 40.1513 274.782C40.2019 274.213 40.4202 273.671 40.7787 273.226C41.1371 272.78 41.6196 272.451 42.1652 272.28C42.7108 272.108 43.295 272.102 43.844 272.263C44.393 272.423 44.8821 272.742 45.2495 273.18C45.7414 273.769 45.9795 274.529 45.9116 275.293C45.8437 276.057 45.4755 276.764 44.8875 277.257ZM41.7596 273.53C41.4599 273.781 41.2414 274.116 41.1318 274.491C41.0221 274.867 41.0263 275.266 41.1437 275.639C41.2611 276.012 41.4864 276.342 41.7913 276.587C42.0961 276.832 42.4668 276.981 42.8565 277.016C43.2461 277.05 43.6373 276.968 43.9805 276.781C44.3238 276.593 44.6037 276.308 44.7849 275.962C44.9661 275.615 45.0404 275.223 44.9986 274.834C44.9567 274.445 44.8005 274.077 44.5497 273.777C44.2123 273.375 43.729 273.123 43.2058 273.077C42.6827 273.03 42.1625 273.193 41.7596 273.53Z" fill="#FF6B00"/>
<path d="M50.5461 250.462C50.856 250.831 51.0493 251.284 51.1017 251.763C51.1541 252.242 51.0632 252.726 50.8405 253.153C50.6178 253.581 50.2733 253.933 49.8505 254.164C49.4278 254.396 48.9458 254.497 48.4656 254.455C47.9853 254.413 47.5284 254.229 47.1526 253.927C46.7767 253.625 46.4989 253.219 46.3541 252.759C46.2094 252.3 46.2043 251.807 46.3395 251.345C46.4746 250.882 46.744 250.47 47.1135 250.161C47.6088 249.746 48.2486 249.545 48.8923 249.601C49.536 249.658 50.1308 249.967 50.5461 250.462Z" fill="white"/>
<path d="M50.5344 254.234C50.0956 254.601 49.5578 254.83 48.989 254.891C48.4202 254.952 47.846 254.844 47.3389 254.579C46.8318 254.315 46.4146 253.905 46.1401 253.404C45.8656 252.902 45.7461 252.33 45.7967 251.761C45.8474 251.191 46.0658 250.649 46.4245 250.204C46.7832 249.758 47.2659 249.429 47.8118 249.258C48.3576 249.086 48.942 249.081 49.491 249.242C50.0401 249.402 50.5291 249.722 50.8963 250.161C51.3872 250.749 51.6247 251.509 51.5569 252.272C51.4891 253.035 51.1214 253.741 50.5344 254.234ZM47.4064 250.498C47.1063 250.749 46.8873 251.084 46.7773 251.459C46.6673 251.835 46.6712 252.234 46.7884 252.607C46.9056 252.981 47.1309 253.311 47.4358 253.556C47.7407 253.801 48.1115 253.951 48.5014 253.985C48.8912 254.02 49.2825 253.938 49.6259 253.75C49.9692 253.563 50.2492 253.277 50.4303 252.93C50.6114 252.584 50.6856 252.191 50.6435 251.802C50.6013 251.413 50.4447 251.045 50.1935 250.746C49.8554 250.345 49.3719 250.094 48.8493 250.05C48.3267 250.005 47.8077 250.17 47.4064 250.507V250.498Z" fill="#FF6B00"/>
<path d="M62.8137 244.634C63.1235 245.003 63.3169 245.456 63.3693 245.935C63.4217 246.414 63.3308 246.898 63.1081 247.325C62.8854 247.753 62.5408 248.104 62.1181 248.336C61.6954 248.568 61.2134 248.669 60.7332 248.627C60.2529 248.584 59.796 248.401 59.4201 248.099C59.0443 247.797 58.7664 247.391 58.6217 246.931C58.477 246.472 58.4719 245.979 58.607 245.517C58.7422 245.054 59.0116 244.642 59.3811 244.333C59.8763 243.918 60.5162 243.716 61.1598 243.773C61.8035 243.83 62.3984 244.139 62.8137 244.634Z" fill="white"/>
<path d="M62.8015 248.415C62.3627 248.782 61.8249 249.011 61.2562 249.072C60.6874 249.134 60.1131 249.025 59.606 248.76C59.0989 248.496 58.6817 248.087 58.4072 247.585C58.1327 247.083 58.0132 246.511 58.0638 245.942C58.1145 245.372 58.3329 244.83 58.6916 244.385C59.0503 243.939 59.5331 243.61 60.0789 243.439C60.6247 243.268 61.2091 243.262 61.7582 243.423C62.3072 243.583 62.7963 243.903 63.1634 244.342C63.4073 244.633 63.5913 244.969 63.7051 245.332C63.8189 245.694 63.8601 246.075 63.8265 246.453C63.7929 246.832 63.6851 247.2 63.5092 247.536C63.3333 247.873 63.0928 248.171 62.8015 248.415ZM59.6765 244.679C59.3762 244.93 59.1569 245.264 59.0465 245.64C58.9361 246.015 58.9396 246.415 59.0564 246.788C59.1732 247.161 59.3982 247.492 59.7028 247.737C60.0074 247.983 60.3781 248.132 60.7679 248.167C61.1577 248.202 61.5491 248.121 61.8926 247.934C62.2362 247.746 62.5164 247.461 62.6979 247.115C62.8795 246.768 62.9541 246.376 62.9124 245.987C62.8707 245.598 62.7145 245.23 62.4637 244.93C62.1263 244.529 61.6439 244.277 61.1217 244.23C60.5995 244.183 60.08 244.345 59.6765 244.679Z" fill="#FF6B00"/>
<path d="M28.7802 278.167C29.0901 278.536 29.2834 278.989 29.3358 279.468C29.3882 279.947 29.2973 280.431 29.0746 280.858C28.8519 281.286 28.5074 281.638 28.0846 281.869C27.6619 282.101 27.1799 282.202 26.6997 282.16C26.2195 282.118 25.7625 281.934 25.3867 281.632C25.0108 281.33 24.733 280.924 24.5883 280.464C24.4435 280.005 24.4384 279.513 24.5736 279.05C24.7088 278.587 24.9781 278.175 25.3476 277.866C25.8429 277.451 26.4827 277.25 27.1264 277.306C27.7701 277.363 28.3649 277.672 28.7802 278.167Z" fill="white"/>
<path d="M28.7681 281.948C28.3294 282.315 27.7916 282.543 27.2228 282.605C26.654 282.666 26.0798 282.558 25.5727 282.293C25.0656 282.028 24.6484 281.619 24.3739 281.118C24.0994 280.616 23.9799 280.044 24.0305 279.474C24.0811 278.905 24.2996 278.363 24.6582 277.918C25.0169 277.472 25.4997 277.143 26.0456 276.972C26.5914 276.8 27.1758 276.795 27.7248 276.955C28.2739 277.116 28.7629 277.436 29.1301 277.875C29.3739 278.166 29.558 278.502 29.6717 278.864C29.7855 279.227 29.8268 279.608 29.7932 279.986C29.7595 280.364 29.6517 280.732 29.4759 281.069C29.3 281.405 29.0595 281.704 28.7681 281.948ZM25.6402 278.212C25.3394 278.464 25.12 278.798 25.0097 279.175C24.8994 279.551 24.9032 279.951 25.0206 280.325C25.1379 280.699 25.3636 281.029 25.669 281.275C25.9745 281.521 26.3459 281.67 26.7364 281.705C27.127 281.739 27.519 281.658 27.8629 281.469C28.2068 281.281 28.4871 280.995 28.6685 280.648C28.8498 280.301 28.9239 279.907 28.8816 279.518C28.8392 279.128 28.6821 278.76 28.4303 278.459C28.0925 278.058 27.6092 277.806 27.0863 277.76C26.5634 277.714 26.0434 277.876 25.6402 278.212Z" fill="#FF6B00"/>
<path d="M392.667 336.525C392.667 336.525 391.249 334.044 393.5 327.399C395.674 320.971 403.2 321.553 405.592 325.671C407.984 329.79 407.179 332.349 403.656 336.999C400.132 341.648 394.145 338.654 392.667 336.525Z" fill="#EEA886"/>
<path d="M410.153 450.881C410.153 450.881 410.524 453.613 410.572 454.023C410.621 454.433 414.717 453.779 414.717 453.779L415.049 450.531C415.049 450.531 410.666 450.51 410.153 450.881Z" fill="#EEA886"/>
<path d="M410.527 453.676C410.527 453.676 409.23 455.319 407.975 456.037C406.72 456.755 404.745 457.038 404.003 457.78C403.469 458.316 402.051 460.623 407.266 460.575C412.482 460.526 414.994 460.9 415.552 460.017C416.11 459.133 414.744 453.489 414.744 453.489C414.744 453.489 413.468 453.848 410.527 453.676Z" fill="#152B3D"/>
<path d="M381.778 450.881C381.778 450.881 382.149 453.613 382.197 454.023C382.246 454.433 386.339 453.779 386.339 453.779L386.671 450.531C386.671 450.531 382.294 450.51 381.778 450.881Z" fill="#EEA886"/>
<path d="M382.158 453.676C382.158 453.676 380.861 455.319 379.603 456.037C378.345 456.754 373.727 457.342 372.985 458.084C372.451 458.621 371.559 460.776 378.897 460.574C384.11 460.433 386.625 460.9 387.183 460.017C387.741 459.133 386.375 453.489 386.375 453.489C384.979 453.689 383.566 453.752 382.158 453.676Z" fill="#152B3D"/>
<path d="M408.774 382.914C408.774 382.914 410.886 389.438 410.584 395.061C410.283 400.684 411.673 406.838 412.228 412.711C412.85 419.263 415.392 434.766 415.483 438.269C415.573 441.773 415.091 452.958 415.091 452.958L410.002 453.079C410.002 453.079 405.728 425.977 404.621 423.209C403.514 420.442 398.024 400.73 397.84 398.517C397.656 396.304 408.774 382.914 408.774 382.914Z" fill="#0E33CB"/>
<path d="M387.678 382.233C387.678 382.233 384.589 399.488 384.218 402.928C383.847 406.368 383.615 419.586 383.419 421.736C383.223 423.885 382.188 449.884 381.205 453.092H386.879C386.879 453.092 392.703 434.194 392.703 425.251C392.703 416.309 396.561 405.81 399.038 399.925C401.514 394.04 407.227 393.895 408.759 382.942C408.774 382.914 389.75 378.754 387.678 382.233Z" fill="#0E33CB"/>
<path d="M394.724 338.28C394.724 338.28 395.367 340.143 394.724 341.47C394.082 342.797 402.902 342.001 402.902 342.001C402.902 342.001 402.503 339.257 403.656 336.999C404.808 334.741 394.724 338.28 394.724 338.28Z" fill="#EEA886"/>
<path d="M409.182 384.334C409.182 384.334 406.012 387.591 387.391 383.828L387.693 382.233L408.859 383.029L409.182 384.334Z" fill="#0E33CB"/>
<path d="M393.391 341.901C393.391 341.901 390.136 342.233 389.204 342.411C388.272 342.589 382.01 341.292 380.725 341.16C379.44 341.027 373.963 337.273 373.788 336.83C373.613 336.387 370.47 328.388 370.28 326.675C370.09 324.963 367.206 325.84 367.454 327.028C367.918 329.256 368.515 334.659 368.841 336.227C369.194 337.918 370.141 341.747 370.672 342.221C371.203 342.694 376.138 346.442 380.967 348.037C383.929 349.023 386.769 350.345 389.431 351.977H413.233C413.233 351.977 422.49 338.751 422.689 336.758C422.888 334.765 416.222 321.52 414.892 319.874C413.561 318.227 411.64 320.416 411.64 320.416C411.64 320.416 415.625 332.096 416.165 333.758C416.704 335.419 411.531 342.715 410.114 342.736C408.696 342.757 405.055 342.293 403.439 342.227C402.3 342.137 401.181 341.876 400.121 341.452L393.391 341.901Z" fill="#EEA886"/>
<path d="M383.136 350.738C383.136 350.738 386.049 352.674 386.315 355.993C386.668 359.49 387.29 362.954 388.176 366.356C388.707 368.15 387.708 381.169 387.573 382.1C387.437 383.032 405.99 385.239 408.841 383.029C408.841 383.029 409.637 370.875 409.969 367.42C410.301 363.965 411.896 355.595 412.427 354.456C412.958 353.316 419.407 344.286 419.667 343.095C419.667 343.095 416.33 337.783 413.935 337.716C413.935 337.716 410.135 342.166 408.898 342.365C407.661 342.564 400.063 341.175 400.063 341.159C400.063 341.144 399.234 342.287 394.827 340.957C394.827 340.957 389.581 341.56 388.728 341.66C387.693 341.79 380.508 340.755 380.508 340.755C380.508 340.755 377.625 345.622 378.131 348.076L383.136 350.738Z" fill="#121D50"/>
<path d="M370.443 327.713C370.443 327.713 369.791 324.634 370.575 323.751C371.022 323.248 372.084 321.915 372.192 321.719C372.301 321.523 373.441 320.863 373.441 320.543C373.441 320.224 372.313 319.835 371.329 320.739C370.346 321.644 369.737 321.843 369.345 321.743C368.953 321.644 368.391 318.39 368.34 317.582C368.289 316.774 367.981 314.649 367.474 314.793C366.968 314.938 366.995 315.87 366.995 315.87C366.995 315.87 366.392 314.257 366.015 314.573C365.637 314.89 365.674 315.674 365.674 315.674C365.674 315.674 364.938 314.769 364.742 315.43C364.626 315.838 364.626 316.27 364.742 316.678C364.742 316.678 363.984 316.262 363.933 317.281C363.882 318.3 364.156 321.318 364.693 322.406C365.23 323.495 367.248 326.299 367.49 327.399C367.731 328.5 370.443 327.713 370.443 327.713Z" fill="#EEA886"/>
<path d="M412.289 322.307C412.289 322.307 410.072 318.586 409.32 318.254C408.569 317.923 407.511 317.733 406.573 317.07C405.634 316.406 404.413 315.864 404.479 315.628C404.546 315.393 405.64 315.496 406.817 316.005C407.993 316.515 408.506 316.268 408.627 316.005C408.747 315.743 407.999 313.865 407.646 313.421C407.293 312.978 404.766 310.44 405.185 310.063C405.604 309.686 407.245 311.082 407.511 311.371C407.511 311.371 406.205 308.625 406.714 308.492C407.224 308.359 408.177 309.333 408.177 309.333C408.177 309.333 408.066 306.984 410.59 310.795C410.59 310.795 410.059 309.532 410.835 309.951C411.61 310.37 412.364 312.743 412.608 313.937C412.853 315.131 413.957 318.942 414.898 319.861C415.839 320.781 412.289 322.307 412.289 322.307Z" fill="#EEA886"/>
<path d="M403.656 336.999C403.656 336.999 402.488 337.101 400.009 336.245C397.529 335.389 397.342 331.053 396.806 331.566C395.711 332.612 394.676 331.891 394.263 331.264C394.263 331.264 395.469 329.669 394.911 328.901C394.497 328.379 393.999 327.931 393.436 327.574C393.436 327.574 395.183 319.168 403.125 322.997C412.427 327.499 403.656 336.999 403.656 336.999Z" fill="#353A3D"/>
<path d="M394.724 341.47L395.005 340.264C395.005 340.264 400.075 340.162 402.847 340.566L403.149 342.019C403.149 342.019 399.59 343.611 394.724 341.47Z" fill="#254380"/>
<path d="M395.976 330.514C396.438 329.751 398.139 329.235 398.338 331.4C398.495 333.079 395.297 334.913 395.267 333.348C395.237 331.783 395.668 331.011 395.976 330.514Z" fill="#EEA886"/>
<path d="M370.316 327.004C370.316 327.004 368.479 327.046 367.601 327.848C367.575 328.157 367.627 328.469 367.752 328.753C368.643 328.34 369.584 328.045 370.551 327.875C370.551 327.875 370.542 327.218 370.316 327.004Z" fill="#E55353"/>
<path d="M368.165 327.468C368.105 327.612 368.088 327.77 368.117 327.923C368.147 328.076 368.221 328.216 368.33 328.327C368.439 328.438 368.579 328.514 368.732 328.545C368.884 328.576 369.043 328.562 369.187 328.503C369.331 328.445 369.455 328.345 369.542 328.216C369.629 328.087 369.677 327.935 369.678 327.78C369.679 327.624 369.634 327.471 369.548 327.341C369.462 327.211 369.34 327.11 369.197 327.049C369.101 327.009 368.999 326.988 368.896 326.987C368.792 326.987 368.69 327.006 368.594 327.045C368.498 327.084 368.411 327.142 368.337 327.214C368.264 327.287 368.205 327.373 368.165 327.468Z" fill="#353A3D"/>
<path d="M49.4907 163.886C49.4907 163.886 47.0776 159.476 45.7202 157.89C44.3628 156.304 39.8082 155.11 40.4265 153.084C41.0449 151.058 47.1288 151.938 48.8059 153.922C50.483 155.906 55.5988 156.611 55.7737 157.446C55.9487 158.282 53.9971 162.873 52.9022 163.618C51.8072 164.363 49.4907 163.886 49.4907 163.886Z" fill="#121D50"/>
<path d="M39.2743 167.619C39.2743 167.619 35.353 164.517 33.4738 163.603C31.5947 162.69 26.9464 163.401 26.7081 161.294C26.4699 159.186 32.403 157.582 34.7317 158.737C37.0603 159.892 42.0312 158.508 42.5259 159.207C43.0206 159.907 43.0507 164.888 42.3419 166.012C41.6331 167.137 39.2743 167.619 39.2743 167.619Z" fill="#121D50"/>
<path d="M47.9673 175.696C47.9673 175.696 49.6775 164.016 49.5991 161.975C49.578 161.396 53.1162 161.613 52.9503 162.726C52.5913 165.138 54.2232 174.539 53.9397 176.257C53.6561 177.976 47.8225 176.782 47.9673 175.696Z" fill="#EEA886"/>
<path d="M42.6132 179.055C42.6132 179.055 39.4219 167.703 38.6648 165.825C38.333 164.987 41.5937 163.684 42.0371 165.183C42.7308 167.532 47.9009 175.518 48.3232 177.21C48.7455 178.901 42.9088 180.107 42.6132 179.055Z" fill="#EEA886"/>
<path d="M44.8515 186.939C44.8515 186.939 41.4128 175.344 40.882 174.11L46.3114 170.761C46.3114 170.761 48.824 178.166 49.1769 180.017C49.5298 181.868 44.8515 186.939 44.8515 186.939Z" fill="#0E33CB"/>
<path d="M140.856 156.307C140.856 156.307 135.62 157.63 133.125 161.589C130.63 165.548 128.48 170.109 123.795 172.181C119.111 174.252 119.084 179.579 119.449 180.402C119.814 181.226 134.199 197.389 137.339 198.013C140.479 198.637 146.355 198.203 145.727 194.048C145.1 189.894 138.938 180.96 142.409 176.453C145.881 171.945 146.738 167.794 146.738 167.794L140.856 156.307Z" fill="#2E334D"/>
<path d="M139.942 175.639C139.809 175.6 139.673 175.575 139.535 175.564C139.12 175.528 138.702 175.578 138.307 175.711C138.141 175.775 137.981 175.855 137.831 175.95C136.585 176.682 133.638 178.663 133.24 178.72C132.781 178.775 133.17 171.907 133.17 171.907C133.17 171.907 134.739 169.133 134.935 167.309C135.131 165.485 139.942 175.639 139.942 175.639Z" fill="#EEA886"/>
<path d="M103.094 182.818C103.094 182.818 97.339 178.784 90.5914 180.041C83.8439 181.298 83.1169 184.449 80.8004 184.588C78.4838 184.726 70.7469 184.069 64.3944 185.92C58.042 187.771 52.688 187.97 51.958 187.443C51.228 186.915 55.9275 176.333 55.9275 174.879L48.0548 172.829C48.0548 172.829 45.8077 182.218 44.9239 184.334C43.9828 186.599 42.1669 190.859 44.7489 194.561C47.3309 198.264 54.54 196.596 58.9047 197.341C63.2693 198.086 82.8123 197.609 86.2268 197.425C89.9309 197.229 101.109 196.699 101.109 196.699L103.094 182.818Z" fill="#0E33CB"/>
<path d="M150.363 161.912C150.363 161.912 150.731 167.595 149.458 169.298C149.143 169.751 148.783 170.171 148.382 170.55C148.057 170.83 147.809 171.189 147.664 171.593C147.272 172.684 147.033 174.225 146.723 174.554C146.412 174.882 145.401 173.999 145.045 173.999C144.69 173.999 141.227 176.984 140.397 176.372C139.568 175.76 134.518 170.643 134.944 167.122C135.369 163.6 136.916 158.363 142.605 158.396C148.294 158.429 149.929 160.498 150.363 161.912Z" fill="#EEA886"/>
<path d="M133.173 189.032C133.061 189.267 130.971 192.605 128.679 194.543C127.729 195.345 126.742 195.909 125.852 195.909C125.578 195.909 125.312 195.909 125.056 195.909C122.426 195.978 120.405 196.382 116.855 196.557C113.166 196.741 104.219 196.229 103.954 196.229C103.688 196.229 101.109 196.69 101.109 196.69C100.183 195.565 102.617 182.872 103.094 182.821C103.571 182.77 106.536 183.879 109.38 183.424C112.225 182.969 113.35 182.697 117.582 177.738C121.813 172.778 126.048 171.521 127.837 171.919C129.626 172.317 133.176 171.919 133.176 171.919C133.176 171.919 133.327 188.703 133.173 189.032Z" fill="#6D747A"/>
<path d="M147.974 165.979C147.974 165.979 149.033 168.726 149.594 169.105C149.594 169.105 151.642 166.941 150.327 161.604C149.012 156.268 144.056 155.764 140.856 156.307C136.874 156.982 132.863 170.453 133.071 171.765C133.279 173.076 137.74 164.803 141.649 165.469C145.558 166.136 145.598 166.353 147.974 165.979Z" fill="#2E334D"/>
<path d="M139.535 175.564C139.12 175.528 138.702 175.578 138.307 175.712C138.141 175.775 137.981 175.855 137.831 175.95C136.926 174.524 136.066 171.144 136.039 171.029C136.648 172.329 139.535 175.564 139.535 175.564Z" fill="#A77860"/>
<path d="M128.679 194.537C127.729 195.339 126.743 195.903 125.853 195.903C125.578 195.903 125.313 195.903 125.056 195.903L126.353 185.377L128.679 194.537Z" fill="#6D747A"/>
<path d="M149.262 212.663L146.723 214.972C144.533 213.8 139.043 209.847 137.975 208.942C136.868 207.999 129.481 201.824 128.468 200.416C127.454 199.008 126.148 184.464 126.281 183.797C126.413 183.131 132.703 182.802 133.414 184.34C133.414 184.34 133.743 192.637 133.912 194.027C134.076 195.431 134.648 196.756 135.556 197.838C136.877 199.454 139.685 203.208 142.403 206.244C143.064 206.977 148.424 211.942 149.262 212.663Z" fill="#EEA886"/>
<path d="M133.942 184.536C133.942 184.536 134.341 173.489 130.745 173.625C126.202 173.8 125.521 179.353 126.139 185.383C126.139 185.395 132.929 185.462 133.942 184.536Z" fill="#6D747A"/>
<path d="M148.041 211.584C148.242 211.892 148.53 212.134 148.867 212.28C149.715 212.567 150.979 212.015 151.582 213.125C152.185 214.234 149.22 216.999 148.421 217.168C147.621 217.336 146.337 216.088 145.335 213.634C144.334 211.18 148.041 211.584 148.041 211.584Z" fill="#EEA886"/>
<path d="M151.329 212.778C152.393 213.605 153.414 214.487 154.387 215.419C155.735 216.721 157.102 218.434 156.761 218.757C156.287 219.197 155.367 217.728 153.944 216.522C152.635 215.41 152.71 215.841 152.71 215.841C152.71 215.841 152.71 215.717 153.889 217.192C155.174 218.778 156.502 220.662 156.106 220.933C155.856 221.105 155.844 221.15 155.286 220.647C155.545 221.003 155.485 221.12 155.346 221.235C154.628 221.838 152.378 219.782 151.485 218.968C152.167 219.598 152.601 220.131 151.908 220.213C151.114 220.306 148.062 217.264 146.864 216.275C145.549 215.196 151.329 212.778 151.329 212.778Z" fill="#EEA886"/>
<path d="M105.682 183.321C105.682 183.321 104.476 192.016 105.079 196.286C105.079 196.286 105.709 196.756 106.97 196.376C106.97 196.376 107.272 186.888 107.987 183.517C107.975 183.523 107.592 183.231 105.682 183.321Z" fill="#CED3D6"/>
<path d="M106.907 26.8364H105.969V189.897H106.907V26.8364Z" fill="#CED3D6"/>
<path d="M459.841 395.544C463.941 393.585 468.025 406.636 468.025 406.636C474.995 415.844 484.738 403.594 483.785 417.358C482.117 441.442 511.536 424.932 497.962 450.077C484.388 475.222 509.94 464.295 501.509 484.571C493.079 504.847 504.004 529.03 491.323 519.093C491.323 519.093 480.162 494.611 468.637 487.038C457.111 479.464 475.535 470.479 471.934 460.204C466.697 445.262 454.086 445.85 463.186 429.792C472.287 413.734 445.897 402.21 459.841 395.544Z" fill="#3BC171"/>
<path d="M495.332 509.879C489.833 506.013 483.399 479.08 483.016 463.041C482.82 454.822 480.389 451.4 478.244 448.379C476.196 445.49 474.425 442.997 475.457 437.271C477.427 426.33 472.248 421.609 472.193 421.56L472.797 420.879C473.029 421.081 478.422 425.95 476.356 437.434C475.391 442.783 476.98 445.02 478.989 447.851C481.101 450.824 483.725 454.523 483.927 463.017C484.34 480.232 490.919 505.664 495.857 509.146L495.332 509.879Z" fill="#EBF9F1"/>
<path d="M497.389 511.875C496.607 511.868 495.828 511.784 495.063 511.625C492.952 511.196 491.555 510.078 490.934 508.308C489.453 504.087 492.885 497.189 495.672 493.872C495.721 493.815 500.384 488.117 499.895 480.217C499.814 478.894 499.675 477.67 499.554 476.599C499.205 473.473 498.951 471.215 500.293 469.707C501.479 468.377 503.762 467.802 507.934 467.783C515.252 467.747 518.144 464.72 520.47 462.287C521.456 461.253 522.388 460.276 523.522 459.658C527.169 457.668 531.03 457.376 532.707 458.965C533.501 459.718 534.173 461.193 532.855 463.948C531.649 466.463 530.089 468.058 528.834 469.336C527.145 471.061 526.029 472.197 526.611 474.462C526.747 474.995 526.913 475.532 527.061 476.072C528.189 479.928 529.474 484.3 522.865 487.266C521.465 487.894 520.186 488.397 519.061 488.837C514.452 490.646 511.668 491.738 508.528 498.365C507.925 499.646 507.385 500.861 506.866 502.037C504.381 507.633 502.508 511.875 497.389 511.875ZM523.933 460.439C522.925 460.988 522.081 461.874 521.103 462.896C518.66 465.453 515.62 468.625 507.916 468.673C504.079 468.691 501.931 469.191 500.948 470.292C499.874 471.498 500.109 473.587 500.435 476.482C500.556 477.573 500.695 478.809 500.779 480.154C501.301 488.427 496.556 494.207 496.357 494.448C493.597 497.731 490.472 504.268 491.778 508.016C492.285 509.469 493.446 510.388 495.229 510.747C501.449 512.004 503.165 508.115 506.01 501.672C506.531 500.49 507.068 499.26 507.684 497.976C510.977 491.023 514.051 489.817 518.705 487.99C519.821 487.553 521.088 487.058 522.47 486.437C528.349 483.793 527.296 480.166 526.165 476.328C526.005 475.776 525.845 475.23 525.706 474.688C524.997 471.923 526.394 470.5 528.162 468.697C529.432 467.401 530.876 465.932 532.011 463.553C532.614 462.305 533.099 460.611 532.056 459.634C530.683 458.331 527.19 458.69 523.933 460.466V460.439Z" fill="#3BC171"/>
<path d="M495.163 517.121L494.258 517.076C494.303 516.222 495.446 496.121 503.521 490.242C512.38 483.79 515.173 476.853 516.491 472.197C518.057 466.713 526.035 465.248 526.373 465.188L526.53 466.092C526.454 466.092 518.775 467.521 517.363 472.457C515.997 477.241 513.14 484.366 504.046 490.987C496.327 496.604 495.175 516.916 495.163 517.121Z" fill="#3BC171"/>
<path d="M513.623 415.838C507.892 413.872 509.077 424.925 506.652 433.105C504.227 441.284 479.677 436.675 489.981 457.158C500.285 477.642 476.947 464.009 483.921 481.881C490.895 499.754 484.524 518.872 492.104 514.012C499.684 509.152 496.36 486.639 504.239 483.965C512.118 481.29 513.406 478.17 505.606 470.901C497.805 463.632 526.05 456.411 519.08 441.728C512.109 427.045 520.253 418.099 513.623 415.838Z" fill="#3BC171"/>
<path d="M495.618 513.144C494.897 510.084 488.735 483.157 494.484 479.901C499.551 477.034 499.428 465.875 498.638 455.338C497.938 446.009 509.922 441.65 510.432 441.469L510.733 442.325C510.616 442.367 498.894 446.636 499.542 455.268C500.354 466.089 500.447 477.579 494.93 480.694C490.563 483.166 494.584 504.814 496.502 512.936L495.618 513.144Z" fill="#EBF9F1"/>
<path d="M508.664 503.557L500.472 534.626H482.162L473.967 503.557H508.664Z" fill="url(#paint0_linear)"/>
<path d="M508.664 503.557C508.664 503.557 490.626 506.942 490.626 534.611H482.162L473.967 503.557H508.664Z" fill="url(#paint1_linear)"/>
<path d="M460.87 179.926C457.304 177.291 455.042 175.793 455.018 175.778L456.348 173.767C456.442 173.827 458.68 175.307 462.303 177.988L460.87 179.926Z" fill="#E0E0E0"/>
<path d="M78.3329 339.064L76.8247 337.177C80.5951 334.183 84.4259 331.243 88.2054 328.433L89.6442 330.372C85.9039 333.167 82.0943 336.088 78.3329 339.064ZM101.257 322.09L99.8908 320.1C103.857 317.386 107.887 314.712 111.866 312.191L113.16 314.23C109.217 316.735 105.215 319.379 101.272 322.09H101.257ZM125.355 306.846L124.148 304.756C128.311 302.344 132.546 300.02 136.729 297.822L137.849 299.96C133.707 302.143 129.505 304.455 125.37 306.846H125.355ZM458.276 297.952L458.152 295.54C462.848 295.317 467.515 294.675 472.097 293.622L472.649 295.968C467.927 297.058 463.117 297.722 458.276 297.952ZM443.827 297.741C439.354 297.415 434.676 296.872 429.518 296.076L429.886 293.691C434.978 294.478 439.596 295.015 444.002 295.335L443.827 297.741ZM150.638 293.676L149.618 291.49C153.98 289.461 158.408 287.529 162.785 285.741L163.69 287.975C159.361 289.736 154.969 291.656 150.644 293.667L150.638 293.676ZM415.371 293.505C411.172 292.642 406.588 291.629 401.36 290.405L401.912 288.056C407.115 289.262 411.679 290.285 415.857 291.141L415.371 293.505ZM486.349 291.093L485.278 288.931C487.383 287.886 489.422 286.716 491.386 285.427C493.407 284.101 495.308 282.714 497.054 281.318L498.562 283.199C496.752 284.646 494.792 286.076 492.708 287.444C490.665 288.781 488.544 289.994 486.355 291.074L486.349 291.093ZM387.431 287.052L381.7 285.638C379.005 284.975 376.282 284.305 373.531 283.627L374.107 281.285C376.862 281.96 379.586 282.631 382.279 283.299L388.01 284.71L387.431 287.052ZM177.019 282.928L176.22 280.652C180.744 279.066 185.344 277.582 189.899 276.247L190.577 278.562C186.071 279.862 181.507 281.336 177.025 282.91L177.019 282.928ZM359.626 280.284C354.634 279.117 350.073 278.092 345.681 277.151L346.185 274.793C350.592 275.737 355.168 276.765 360.175 277.935L359.626 280.284ZM204.347 274.914L203.792 272.565C208.437 271.468 213.173 270.482 217.863 269.635L218.292 272.008C213.65 272.828 208.956 273.808 204.353 274.896L204.347 274.914ZM331.679 274.332C326.883 273.428 322.148 272.62 317.608 271.92L317.979 269.538C322.543 270.244 327.303 271.046 332.123 271.95L331.679 274.332ZM508.688 272.689L506.721 271.29C509.433 267.544 511.37 263.296 512.419 258.793L514.772 259.326C513.652 264.133 511.585 268.67 508.694 272.671L508.688 272.689ZM303.471 269.994C298.69 269.433 293.912 268.974 289.276 268.628L289.454 266.216C294.126 266.565 298.937 267.027 303.751 267.591L303.471 269.994ZM232.375 269.861L232.073 267.467C236.791 266.864 241.602 266.403 246.38 266.062L246.552 268.474C241.819 268.788 237.053 269.258 232.381 269.843L232.375 269.861ZM275.038 267.886C270.27 267.747 265.54 267.723 260.786 267.82L260.738 265.408C265.531 265.311 270.3 265.335 275.108 265.474L275.038 267.886ZM512.688 245.035C511.857 240.441 510.414 235.979 508.396 231.769L510.582 230.75C512.692 235.152 514.2 239.817 515.068 244.619L512.688 245.035ZM501.289 219.607C498.574 215.734 495.641 212.02 492.502 208.482L494.312 206.89C497.509 210.497 500.499 214.283 503.268 218.229L501.289 219.607ZM482.651 198.24C479.333 195.059 475.771 191.863 472.046 188.739L473.599 186.891C477.363 190.051 480.971 193.283 484.322 196.5L482.651 198.24Z" fill="#CED3D6"/>
<path d="M61.7427 352.888L60.1561 351.079C61.9961 349.471 63.8311 347.896 65.661 346.354L67.2204 348.197C65.3965 349.73 63.5707 351.294 61.7427 352.888Z" fill="#CED3D6"/>
<path d="M19.2336 377.255L47.4547 361.478L37.7571 360.838L19.2336 377.255Z" fill="#BDC5CA"/>
<path d="M19.2336 377.255L27.9207 363.293L35.2052 363.1L19.2336 377.255Z" fill="#CED3D6"/>
<path d="M40.9665 365.104L41.5305 368.659L19.2336 377.255L40.9665 365.104Z" fill="#CED3D6"/>
<path d="M255.984 369.781H187.932C184.799 369.781 182.258 372.32 182.258 375.452V456.287C182.258 459.419 184.799 461.958 187.932 461.958H255.984C259.118 461.958 261.658 459.419 261.658 456.287V375.452C261.658 372.32 259.118 369.781 255.984 369.781Z" fill="white"/>
<path d="M230.46 408.014C229.578 405.486 228.204 403.159 226.417 401.164C224.631 399.17 222.467 397.549 220.051 396.395C217.635 395.241 215.014 394.576 212.34 394.439C209.665 394.302 206.99 394.695 204.469 395.596C201.947 396.498 199.629 397.889 197.648 399.69C195.667 401.491 194.062 403.666 192.926 406.09C191.79 408.514 191.145 411.139 191.029 413.813C190.913 416.488 191.327 419.158 192.248 421.672C192.402 422.103 192.568 422.525 192.749 422.938C194.864 427.74 198.759 431.535 203.615 433.528C208.471 435.52 213.91 435.553 218.79 433.622C223.671 431.69 227.612 427.943 229.787 423.168C231.962 418.393 232.201 412.961 230.453 408.014H230.46ZM216.482 429.161C212.849 430.464 208.857 430.337 205.314 428.805C201.772 427.273 198.946 424.451 197.409 420.912C197.277 420.611 197.15 420.285 197.035 419.962C196.023 417.131 195.873 414.063 196.605 411.146C197.337 408.229 198.917 405.595 201.147 403.576C203.377 401.557 206.155 400.244 209.131 399.804C212.107 399.363 215.147 399.815 217.866 401.101C220.585 402.387 222.862 404.451 224.408 407.03C225.954 409.61 226.7 412.59 226.552 415.593C226.404 418.597 225.368 421.489 223.576 423.904C221.783 426.319 219.314 428.148 216.482 429.161Z" fill="#BDC5CA"/>
<path d="M196.83 410.312L191.983 408.804C193.245 404.778 195.73 401.244 199.092 398.693C202.455 396.143 206.528 394.702 210.748 394.57L210.898 399.645C207.735 399.744 204.681 400.825 202.16 402.737C199.64 404.65 197.777 407.299 196.83 410.318V410.312Z" fill="#6D747A"/>
<path d="M197.403 420.912L192.749 422.938C192.568 422.525 192.402 422.103 192.248 421.672C190.757 417.524 190.664 413.003 191.983 408.798L196.83 410.305C195.842 413.457 195.912 416.845 197.029 419.953C197.144 420.285 197.271 420.602 197.403 420.912Z" fill="#88929F"/>
<path d="M195.892 427.985C194.6 426.468 193.541 424.767 192.749 422.938L197.404 420.912C197.998 422.284 198.793 423.56 199.762 424.699L195.892 427.985Z" fill="#CED3D6"/>
<path d="M248.051 420.403C246.043 419.484 243.755 419.393 241.68 420.15C239.606 420.906 237.914 422.449 236.97 424.444C236.025 426.439 235.906 428.726 236.636 430.808C237.366 432.891 238.888 434.602 240.872 435.571C241.044 435.649 241.216 435.725 241.388 435.794C242.161 436.097 242.974 436.285 243.801 436.352C245.76 436.51 247.712 435.977 249.318 434.845C250.924 433.712 252.081 432.053 252.589 430.155C253.096 428.258 252.921 426.242 252.095 424.46C251.269 422.678 249.843 421.242 248.066 420.403H248.051ZM250.162 430.678C249.479 432.119 248.274 433.248 246.79 433.835C245.306 434.422 243.654 434.424 242.169 433.84C242.039 433.789 241.913 433.732 241.783 433.671C241.036 433.319 240.365 432.822 239.81 432.21C239.254 431.598 238.825 430.883 238.547 430.105C238.268 429.327 238.146 428.502 238.187 427.677C238.228 426.852 238.431 426.042 238.785 425.296C239.127 424.531 239.618 423.842 240.23 423.27C240.842 422.698 241.562 422.253 242.348 421.963C243.134 421.672 243.971 421.541 244.808 421.578C245.645 421.615 246.467 421.818 247.224 422.177C247.982 422.535 248.66 423.041 249.219 423.665C249.779 424.289 250.208 425.018 250.482 425.81C250.755 426.601 250.868 427.44 250.813 428.276C250.758 429.112 250.537 429.928 250.162 430.678Z" fill="#BDC5CA"/>
<path d="M238.887 430.913L237.029 431.887C236.219 430.341 235.911 428.581 236.148 426.852C236.384 425.123 237.154 423.51 238.35 422.239L239.88 423.68C238.981 424.633 238.403 425.842 238.225 427.139C238.047 428.436 238.279 429.757 238.887 430.916V430.913Z" fill="#6D747A"/>
<path d="M242.157 433.841L241.388 435.795C241.216 435.725 241.044 435.65 240.872 435.571C239.223 434.793 237.873 433.497 237.029 431.881L238.887 430.907C239.521 432.118 240.534 433.089 241.771 433.672C241.901 433.732 242.027 433.79 242.157 433.841Z" fill="#CED3D6"/>
<path d="M252.051 406.027C252.809 404.425 253.041 402.624 252.712 400.882C252.383 399.14 251.511 397.547 250.22 396.331C249.579 395.73 248.848 395.231 248.054 394.854C246.041 393.903 243.733 393.79 241.637 394.539C239.541 395.289 237.828 396.84 236.876 398.852C236.794 399.02 236.722 399.192 236.652 399.367C235.861 401.391 235.886 403.644 236.722 405.65C237.559 407.656 239.142 409.259 241.137 410.123C243.133 410.986 245.385 411.041 247.421 410.277C249.457 409.513 251.116 407.99 252.051 406.027ZM241.771 408.138C240.327 407.457 239.196 406.253 238.608 404.769C238.02 403.284 238.02 401.632 238.607 400.148C238.658 400.018 238.715 399.889 238.776 399.759C239.309 398.635 240.163 397.695 241.231 397.056C242.298 396.417 243.532 396.109 244.774 396.171C246.017 396.233 247.214 396.662 248.213 397.403C249.212 398.144 249.968 399.165 250.387 400.336C250.806 401.508 250.868 402.777 250.565 403.983C250.262 405.189 249.608 406.279 248.686 407.114C247.764 407.949 246.615 408.492 245.384 408.674C244.153 408.856 242.896 408.67 241.771 408.138Z" fill="#BDC5CA"/>
<path d="M241.542 396.868L240.567 395.007C241.718 394.403 242.993 394.075 244.293 394.048C245.592 394.021 246.88 394.297 248.054 394.854C248.848 395.231 249.579 395.729 250.22 396.331L248.778 397.86C247.825 396.962 246.615 396.383 245.317 396.206C244.019 396.028 242.698 396.259 241.539 396.868H241.542Z" fill="#88929F"/>
<path d="M238.607 400.136L236.652 399.367C236.722 399.192 236.794 399.02 236.875 398.851C237.653 397.201 238.95 395.851 240.567 395.007L241.542 396.868C240.33 397.499 239.358 398.511 238.776 399.747C238.715 399.877 238.658 400.006 238.607 400.136Z" fill="#6D747A"/>
<path d="M236.088 401.761C236.155 400.94 236.343 400.133 236.646 399.367L238.601 400.136C238.373 400.715 238.232 401.325 238.182 401.945L236.088 401.761Z" fill="#CED3D6"/>
<path d="M206.009 438.327H191.983V440.196H206.009V438.327Z" fill="#CED3D6"/>
<path d="M234.459 438.327H226.21V440.196H234.459V438.327Z" fill="#CED3D6"/>
<path d="M195.521 377.692H188.807V379.128H195.521V377.692Z" fill="#BDC5CA"/>
<path d="M227.208 383.092H216.792V384.527H227.208V383.092Z" fill="#BDC5CA"/>
<path d="M209.683 383.092H203.325V384.527H209.683V383.092Z" fill="#BDC5CA"/>
<path d="M201.403 383.092H188.807V384.527H201.403V383.092Z" fill="#BDC5CA"/>
<path d="M207.511 377.692H197.563V379.128H207.511V377.692Z" fill="#BDC5CA"/>
<path d="M214.407 383.092H211.674V384.527H214.407V383.092Z" fill="#BDC5CA"/>
<path d="M227.205 377.773H219.776V379.209H227.205V377.773Z" fill="#BDC5CA"/>
<path d="M236.194 383.092H229.857V384.527H236.194V383.092Z" fill="#BDC5CA"/>
<path d="M217.83 377.773H209.955V379.209H217.83V377.773Z" fill="#BDC5CA"/>
<path d="M278.543 427.961L265.642 435.049L252.687 414.671L268.357 409.229L278.543 427.961Z" fill="#292C47"/>
<path d="M277.726 427.349L265.661 433.979L253.544 414.918L268.2 409.832L277.726 427.349Z" fill="#BDC5CA"/>
<path d="M282.145 423.786C282.145 423.786 279.901 422.712 278.914 422.151C277.928 421.591 275.391 420.819 275.189 420.644C274.987 420.469 267.672 420.011 267.229 419.628C266.786 419.245 266.354 420.532 268.249 420.939C270.143 421.346 272.773 422.369 272.924 423.11C273.075 423.852 270.978 424.015 270.767 424.636C270.556 425.257 270.828 425.109 271.126 425.239C271.425 425.368 273.612 424.159 274.574 424.503C275.536 424.847 277.005 424.371 277.744 424.624L282.063 426.08L282.145 423.786Z" fill="#EEA886"/>
<path d="M265.015 432.493C265.015 432.493 263.127 430.795 262.216 430.081C261.305 429.366 259.589 427.283 259.335 427.159C259.082 427.036 255.812 420.327 255.278 420.059C254.744 419.791 255.782 418.886 256.913 420.508C258.044 422.13 260.023 424.22 260.777 424.069C261.531 423.918 260.883 421.88 261.38 421.443C261.878 421.006 261.848 421.313 262.089 421.545C262.331 421.777 262.038 424.307 262.738 425.079C263.438 425.851 263.558 427.422 264.083 428.019C264.608 428.615 267.142 431.519 267.142 431.519L265.015 432.493Z" fill="#EEA886"/>
<path d="M305.642 523.205C305.642 523.205 306.05 526.036 306.101 526.462C306.152 526.887 310.64 526.211 310.64 526.211L311.005 522.841C311.005 522.841 306.203 522.807 305.642 523.205Z" fill="#424773"/>
<path d="M306.067 526.103C306.067 526.103 304.647 527.809 303.271 528.551C301.896 529.293 299.733 529.591 298.922 530.36C298.318 530.915 296.783 533.309 302.496 533.26C308.209 533.212 310.963 533.598 311.575 532.681C312.188 531.765 310.688 525.91 310.688 525.91C310.688 525.91 309.319 526.398 306.067 526.103Z" fill="#292C47"/>
<path d="M273.491 523.205C273.491 523.205 273.898 526.036 273.949 526.462C274.001 526.887 278.474 526.211 278.474 526.211L278.836 522.841C278.836 522.841 274.043 522.807 273.491 523.205Z" fill="#424773"/>
<path d="M273.892 526.103C273.892 526.103 272.469 527.809 271.096 528.551C269.724 529.292 264.656 529.908 263.857 530.676C263.254 531.231 262.291 533.468 270.33 533.26C276.04 533.112 278.797 533.598 279.409 532.681C280.021 531.765 278.525 525.91 278.525 525.91C278.525 525.91 277.237 526.431 273.892 526.103Z" fill="#292C47"/>
<path d="M301.926 450.456C301.926 450.456 306.149 457.152 305.829 463.207C305.51 469.261 307.359 475.87 307.992 482.201C308.698 489.253 311.588 505.947 311.693 509.719C311.799 513.491 311.244 525.533 311.244 525.533L305.458 525.665C305.458 525.665 300.599 496.483 299.341 493.504C298.083 490.525 291.839 469.3 291.631 466.918C291.423 464.536 301.926 450.456 301.926 450.456Z" fill="#292C47"/>
<path d="M279.723 451.364C279.723 451.364 276.544 467.946 276.124 471.661C275.705 475.375 275.425 489.594 275.219 491.913C275.014 494.231 273.82 522.219 272.701 525.659H280.1C280.1 525.659 285.777 505.311 285.777 495.684C285.777 486.057 290.165 474.751 292.998 468.402C295.83 462.052 302.309 461.898 304.053 450.113C304.05 450.113 282.082 447.625 279.723 451.364Z" fill="#292C47"/>
<path d="M294.889 394.13C294.889 394.13 289.227 392.02 286.615 396.325C284.003 400.63 284.256 409.253 287.11 410.315C289.963 411.376 294.249 410.821 295.712 408.126C297.175 405.43 298.49 401.535 298.427 398.93C298.364 396.325 296.373 394.893 294.889 394.13Z" fill="#EEA886"/>
<path d="M287.725 410.526C287.725 410.526 287.961 412.051 287.571 412.805C287.182 413.559 294.907 413.577 294.907 413.577C295.316 411.022 295.921 408.502 296.717 406.039C297.924 402.572 287.725 410.526 287.725 410.526Z" fill="#EEA886"/>
<path d="M296.717 406.024C296.717 406.024 296.183 406.905 294.002 406.564C291.821 406.223 289.176 403.329 288.271 403.009C287.366 402.69 287.366 402.159 287.366 402.159L286.796 402.988L285.831 403.051C285.831 403.051 286.712 400.461 285.384 399.406C284.057 398.351 286.763 391.027 293.74 393.467C293.74 393.467 299.1 394.941 298.907 397.989C298.714 401.037 297.923 404.508 296.717 406.024Z" fill="#3A3F47"/>
<path d="M287.113 412.714C287.113 412.714 287.137 411.276 287.788 411.138C288.44 410.999 294.988 410.372 295.788 410.685V412.362C295.788 412.362 294.246 413.308 287.113 412.714Z" fill="#CED3D6"/>
<path d="M287.499 401.064C287.623 400.555 288.923 399.096 289.42 400.657C289.918 402.219 288.669 404.324 287.972 404.146C287.276 403.968 287.191 402.346 287.499 401.064Z" fill="#EEA886"/>
<path d="M261.124 429.707C261.103 429.722 261.094 429.725 261.124 429.707V429.707Z" fill="#323657"/>
<path d="M307.042 466.3C303.846 467.156 300.585 467.753 297.293 468.085C291.372 468.736 276.58 467.85 276.48 467.15C276.381 466.451 279.662 441.119 279.475 439.813C279.288 438.508 279.189 433.859 279.189 433.859C279.117 435.134 277.816 440.335 276.251 443.172C275.684 444.197 273.784 447.393 272.87 446.679C268.439 443.142 261.576 429.816 261.142 429.704C261.507 429.544 264.394 428.215 264.798 428.079C265.154 427.961 268.351 431.344 270.288 433.443C271.15 434.377 271.763 435.056 271.763 435.056C272.324 433.798 274.36 425.875 274.993 423.131C276.423 416.945 276.2 416.688 276.2 416.688C280.531 415.38 287.104 412.715 287.104 412.715L295.779 412.362C295.779 412.362 303.739 414.114 306.876 415.528C307.178 415.663 307.178 422.628 307.989 424.455L305.392 429.936C305.392 429.936 303.884 440.79 303.582 445.614C303.443 447.839 307.042 466.3 307.042 466.3Z" fill="#0E33CB"/>
<path d="M308.36 433.497C308.134 434.226 307.105 434.844 306.436 435.113C305.996 435.292 305.515 435.341 305.048 435.255L304.707 435.191L298.762 434.088C298.762 434.088 297.462 419.115 306.885 415.527C307.132 415.609 310.441 426.791 308.36 433.497Z" fill="#0E33CB"/>
<path d="M306.435 435.113C305.996 435.292 305.514 435.341 305.048 435.254L304.707 435.191L305.31 427.539L306.435 435.113Z" fill="#121D50"/>
<path d="M271.769 435.055L271.045 438.134C271.045 438.134 270.254 435.046 270.294 433.442C271.156 434.377 271.769 435.055 271.769 435.055Z" fill="#121D50"/>
<path d="M296.5 394.652C296.5 394.652 303.92 393.723 296.626 406.109L296.5 394.652Z" fill="#3A3F47"/>
<path d="M258.65 413.577L257.896 412.281L263.835 410.233L264.59 411.521L258.65 413.577Z" fill="#292C47"/>
<path d="M148.047 411.02H145.673V518.903H148.047V411.02Z" fill="#6D747A"/>
<path d="M94.7056 411.02H92.3318V518.903H94.7056V411.02Z" fill="#6D747A"/>
<path d="M151.383 365.949H87.5086C83.5721 365.949 80.381 369.138 80.381 373.073V493.972C80.381 497.906 83.5721 501.096 87.5086 501.096H151.383C155.32 501.096 158.511 497.906 158.511 493.972V373.073C158.511 369.138 155.32 365.949 151.383 365.949Z" fill="#BDC5CA"/>
<path d="M149.326 368.125H89.5689C85.6791 368.125 82.5258 371.277 82.5258 375.166V488.774C82.5258 492.662 85.6791 495.814 89.5689 495.814H149.326C153.216 495.814 156.369 492.662 156.369 488.774V375.166C156.369 371.277 153.216 368.125 149.326 368.125Z" fill="white"/>
<path d="M131.089 364.927H107.806V370.182H131.089V364.927Z" fill="#6D747A"/>
<path d="M118.324 427.898L116.77 423.843C115.23 423.657 113.713 423.309 112.246 422.806L109.079 425.778L100.213 419.471L101.984 415.506C101.027 414.29 100.201 412.976 99.5197 411.587L95.1792 411.448L93.3694 400.724L97.4294 399.171C97.6145 397.631 97.9613 396.116 98.464 394.649L95.4929 391.486L101.803 382.625L105.767 384.392C106.985 383.438 108.299 382.613 109.688 381.931L109.827 377.59L120.556 375.781L122.109 379.836C123.65 380.021 125.166 380.369 126.634 380.873L129.801 377.903L138.666 384.211L136.895 388.172C137.853 389.388 138.679 390.702 139.36 392.092L143.7 392.228L145.51 402.955L141.45 404.508C141.265 406.047 140.918 407.563 140.415 409.03L143.387 412.196L137.076 421.057L133.113 419.287C131.891 420.243 130.571 421.068 129.177 421.747L129.038 426.089L118.324 427.898ZM111.688 420.023L112.394 420.294C114.109 420.95 115.908 421.362 117.739 421.518L118.493 421.582L119.874 425.2L126.706 424.048L126.83 420.183L127.521 419.881C129.199 419.135 130.763 418.157 132.169 416.975L132.745 416.489L136.274 418.063L140.292 412.419L137.649 409.606L137.918 408.897C138.574 407.184 138.986 405.386 139.143 403.558L139.209 402.804L142.829 401.423L141.676 394.591L137.812 394.471L137.511 393.78C136.764 392.103 135.785 390.539 134.603 389.134L134.114 388.555L135.692 385.031L130.045 381.012L127.228 383.656L126.522 383.385C124.806 382.73 123.007 382.318 121.177 382.161L120.423 382.097L119.042 378.479L112.21 379.628L112.086 383.493L111.395 383.795C109.718 384.542 108.153 385.52 106.747 386.701L106.171 387.186L102.642 385.613L98.6239 391.257L101.266 394.073L100.998 394.778C100.341 396.493 99.9289 398.291 99.7731 400.121L99.7067 400.872L96.0871 402.255L97.2394 409.084L101.103 409.208L101.405 409.898C102.152 411.574 103.131 413.137 104.313 414.542L104.801 415.12L103.224 418.648L108.87 422.664L111.688 420.023Z" fill="#88929F"/>
<path d="M112.445 411.738L112.415 411.713C109.799 409.851 108.029 407.026 107.495 403.861C106.961 400.695 107.705 397.447 109.564 394.829L111.531 396.225C110.04 398.323 109.444 400.927 109.872 403.464C110.301 406.001 111.72 408.265 113.817 409.757L112.445 411.738ZM129.336 408.846L127.367 407.453C128.855 405.356 129.449 402.754 129.019 400.219C128.589 397.683 127.169 395.423 125.071 393.934L126.45 391.953C128.026 393.077 129.312 394.56 130.2 396.28C131.087 398 131.551 399.907 131.553 401.842C131.564 404.35 130.791 406.799 129.342 408.846H129.336Z" fill="#88929F"/>
<path d="M134.844 452.229L133.985 449.983C133.372 449.889 132.767 449.75 132.175 449.567L130.422 451.213L125.011 447.363L125.991 445.168C125.623 444.669 125.294 444.143 125.005 443.594L122.592 443.519L121.488 436.97L123.735 436.111C123.829 435.498 123.968 434.893 124.151 434.302L122.505 432.547L126.356 427.138L128.552 428.121C129.051 427.752 129.577 427.422 130.127 427.135L130.202 424.723L136.754 423.62L137.613 425.866C138.227 425.956 138.832 426.094 139.423 426.279L141.179 424.636L146.59 428.483L145.61 430.678C145.978 431.177 146.307 431.704 146.593 432.255L149.006 432.33L150.107 438.876L147.86 439.735C147.769 440.348 147.631 440.952 147.447 441.544L149.094 443.295L145.242 448.704L143.046 447.725C142.547 448.092 142.02 448.422 141.471 448.71L141.393 451.122L134.844 452.229ZM131.605 446.802L132.311 447.073C133.159 447.396 134.048 447.599 134.953 447.676L135.707 447.74L136.392 449.527L139.043 449.081L139.107 447.167L139.797 446.865C140.627 446.496 141.401 446.012 142.096 445.427L142.672 444.942L144.421 445.723L145.981 443.531L144.672 442.135L144.94 441.429C145.265 440.582 145.468 439.692 145.543 438.788L145.61 438.034L147.399 437.35L146.952 434.7L145.037 434.639L144.735 433.949C144.365 433.119 143.881 432.345 143.296 431.649L142.811 431.073L143.589 429.324L141.399 427.765L140.002 429.074L139.297 428.805C138.448 428.481 137.557 428.278 136.651 428.202L135.9 428.139L135.215 426.348L132.561 426.797L132.501 428.709L131.81 429.01C130.981 429.382 130.208 429.866 129.512 430.449L128.932 430.937L127.186 430.156L125.626 432.348L126.936 433.741L126.664 434.446C126.341 435.296 126.138 436.185 126.061 437.091L125.991 437.847L124.203 438.532L124.649 441.185L126.565 441.245L126.866 441.936C127.235 442.765 127.72 443.539 128.305 444.233L128.791 444.812L128.012 446.558L130.214 448.098L131.605 446.802ZM135.792 444.857C134.236 444.856 132.726 444.332 131.504 443.37C130.282 442.408 129.419 441.063 129.054 439.552C128.688 438.041 128.841 436.45 129.489 435.037C130.136 433.623 131.24 432.468 132.624 431.756C134.007 431.045 135.589 430.819 137.116 431.115C138.643 431.41 140.027 432.211 141.044 433.387C142.062 434.563 142.655 436.046 142.727 437.6C142.8 439.153 142.348 440.685 141.444 441.951C140.804 442.852 139.956 443.586 138.972 444.09C137.988 444.595 136.897 444.855 135.792 444.848V444.857ZM135.813 433.424C135.558 433.424 135.304 433.446 135.053 433.488C133.91 433.682 132.886 434.309 132.196 435.239C131.505 436.169 131.2 437.33 131.346 438.48C131.491 439.629 132.075 440.678 132.975 441.407C133.875 442.136 135.023 442.49 136.178 442.394C137.333 442.297 138.406 441.759 139.173 440.891C139.94 440.022 140.342 438.892 140.295 437.734C140.248 436.577 139.755 435.482 138.92 434.679C138.085 433.876 136.972 433.426 135.813 433.424Z" fill="#88929F"/>
<path d="M60.4249 526.247C60.4249 526.247 62.6661 528.602 64.9495 529.096C67.2328 529.591 68.8195 530.218 68.8375 531.569C68.8556 532.919 62.283 533.809 59.6799 532.449C55.7888 530.417 55.3937 531.029 54.9623 530.013C54.531 528.997 55.4812 526.28 55.454 525.958C55.4088 525.557 60.4249 526.247 60.4249 526.247Z" fill="#202338"/>
<path d="M60.1713 525.123C60.2781 525.492 60.3627 525.868 60.4247 526.247C60.3795 526.272 55.2969 526.85 55.4477 525.946C55.5714 525.228 55.7494 524.438 55.7494 524.438L60.1713 525.123Z" fill="#2F6B8C"/>
<path d="M35.0876 526.862C35.0876 526.862 36.7375 529.157 38.9455 529.684C41.1535 530.212 42.532 531.192 42.6375 532.512C42.7431 533.833 37.5097 535.527 33.8298 533.236C31.4167 531.728 30.5118 531.807 30.0231 530.845C29.5345 529.883 30.2765 527.185 30.2283 526.871C30.1679 526.488 35.0876 526.862 35.0876 526.862Z" fill="#202338"/>
<path d="M35.0211 525.729C35.065 526.105 35.0871 526.484 35.0875 526.862C35.0483 526.887 30.198 527.746 30.2282 526.862C30.2677 526.334 30.3689 525.812 30.5298 525.307L35.0211 525.729Z" fill="#2F6B8C"/>
<path d="M55.0407 458.889C55.0407 458.889 57.3964 475.994 58.3587 481.776C59.4838 488.536 59.8668 494.138 60.1685 497.62C60.5606 502.022 60.3434 524.547 60.6179 525.831C60.8924 527.116 55.0497 526.434 55.0497 526.434C55.0497 526.434 50.7605 497.071 49.5841 492.386C48.4922 488.02 45.4818 470.027 44.4834 471.221C43.485 472.415 40.2605 492.908 39.5125 496.351C38.7644 499.794 35.8024 526.905 35.8024 526.905C35.8024 526.905 30.8344 527.984 29.468 526.905C29.468 526.905 29.7697 502.743 30.2432 496.29C30.4212 493.83 28.6868 466.846 32.8463 455.965C35.0483 450.209 55.0407 458.889 55.0407 458.889Z" fill="#323657"/>
<path d="M55.2456 459.706L55.5111 462.275C55.5111 462.275 48.3352 465.181 30.8615 465.181V462.242L55.2456 459.706Z" fill="#0E33CB"/>
<path d="M75.374 427.386C75.374 427.386 76.4177 429.692 77.0391 429.837C77.6604 429.982 78.3964 430.741 78.9273 430.989C79.4582 431.236 81.1292 431.353 81.5787 431.791C81.7627 431.972 82.4655 433.509 82.8757 433.832C83.2859 434.154 84.1999 434.709 83.9163 435.056C83.6328 435.403 82.6857 435.128 82.6857 435.128C82.7826 435.213 82.8534 435.324 82.8897 435.448C82.926 435.572 82.9263 435.704 82.8908 435.828C82.5891 436.572 82.0914 436.606 82.0914 436.606C82.0914 436.606 82.2483 437.166 82.0462 437.441C81.946 437.607 81.8111 437.749 81.6508 437.858C81.4904 437.966 81.3083 438.039 81.1171 438.071C81.0671 438.37 80.9133 438.642 80.6828 438.84C80.5291 438.963 80.3461 439.044 80.1516 439.076C79.9571 439.108 79.7577 439.089 79.5728 439.021C79.5728 439.021 79.0751 439.708 78.6166 439.572C78.1581 439.437 77.8927 439.096 77.5639 438.897C77.2351 438.698 74.9517 436.06 74.1102 433.597C73.5448 432.011 72.7698 430.508 71.8057 429.128L75.374 427.386Z" fill="#EEA886"/>
<path d="M74.9001 439.053C74.9001 439.053 66.7771 442.747 63.8904 442.035C62.5572 441.707 60.7987 439.867 59.1306 437.703C58.5786 436.991 58.0387 436.243 57.5259 435.502C55.4748 432.544 53.8701 429.71 53.8701 429.71C53.8701 429.71 47.8163 422.619 52.6636 419.459C52.6636 419.459 54.4251 418.799 56.0449 420.532C57.6647 422.266 59.568 425.899 59.9933 426.825C60.4186 427.75 66.3638 436.325 66.6745 436.518C66.9852 436.711 69.5793 436.026 71.6636 435.851C75.063 435.568 74.3783 435.426 74.3783 435.426L74.9001 439.053Z" fill="#1F45E4"/>
<path d="M48.13 417.867C48.13 417.867 54.3618 419.155 55.1038 419.812C55.9061 420.508 57.3208 427.331 57.4053 429.234C57.4897 431.136 56.6542 439.075 55.8518 442.032C55.0495 444.99 56.9106 457.578 55.4205 459.652C55.4205 459.652 42.5709 463.771 30.231 462.167C30.231 462.167 32.8793 450.287 32.3876 446.235C31.7542 441.043 30.231 429.083 30.231 429.083C30.231 429.083 31.8809 421.03 32.9788 420.101C34.0768 419.173 41.7263 417.659 41.7263 417.659L48.13 417.867Z" fill="#1F45E4"/>
<path d="M34.249 434.121C34.249 434.121 33.0726 441.776 33.1541 442.262C33.2355 442.747 27.8241 440.73 34.249 434.121Z" fill="#0E33CB"/>
<path d="M26.1592 464.804L20.7435 455.82C19.8262 454.298 17.8483 453.808 16.3258 454.725L2.75668 462.897C1.23418 463.814 0.743606 465.791 1.66094 467.313L7.07667 476.297C7.99401 477.819 9.97189 478.309 11.4944 477.392L25.0635 469.22C26.586 468.303 27.0766 466.326 26.1592 464.804Z" fill="#0E33CB"/>
<path d="M111.576 417.827L102.211 402.291L9.56744 458.086L18.9325 473.622L111.576 417.827Z" fill="#EB4747"/>
<path d="M102.213 402.285L9.56921 458.08L12.6904 463.258L105.334 407.463L102.213 402.285Z" fill="#6D747A"/>
<path d="M108.474 412.662L105.353 407.484L12.7094 463.279L15.8306 468.457L108.474 412.662Z" fill="#88929F"/>
<path d="M111.564 417.819L108.443 412.642L15.7996 468.437L18.9208 473.614L111.564 417.819Z" fill="#BDC5CA"/>
<path d="M111.573 417.825L102.21 402.291L123.231 398.052L128.64 396.961L125.147 401.23L111.573 417.825Z" fill="#EDDAD3"/>
<path d="M105.332 407.468C104.992 407.673 104.615 407.809 104.222 407.868C103.83 407.928 103.429 407.909 103.044 407.813C102.658 407.718 102.296 407.548 101.976 407.312C101.657 407.076 101.387 406.78 101.182 406.44C100.977 406.1 100.841 405.723 100.781 405.331C100.722 404.938 100.741 404.538 100.836 404.153C100.932 403.768 101.102 403.405 101.338 403.086C101.574 402.766 101.87 402.496 102.21 402.292L105.332 407.468Z" fill="#BDC5CA"/>
<path d="M108.451 412.648C107.764 413.061 106.941 413.185 106.162 412.992C105.384 412.798 104.714 412.304 104.301 411.617C103.887 410.93 103.763 410.107 103.957 409.329C104.15 408.551 104.645 407.882 105.332 407.468L108.451 412.648Z" fill="#CED3D6"/>
<path d="M111.573 417.825C110.886 418.239 110.063 418.363 109.285 418.17C108.506 417.977 107.837 417.483 107.423 416.797C107.009 416.11 106.884 415.287 107.077 414.509C107.27 413.731 107.764 413.062 108.451 412.648L111.573 417.825Z" fill="#DBDEE0"/>
<path d="M12.0759 456.57L6.38416 459.998L9.50533 465.176L15.197 461.748L12.0759 456.57Z" fill="#BDC5CA"/>
<path d="M18.3062 466.928L15.1851 461.75L9.49078 465.18L12.612 470.358L18.3062 466.928Z" fill="#CED3D6"/>
<path d="M21.4263 472.104L18.3052 466.926L12.6135 470.354L15.7346 475.531L21.4263 472.104Z" fill="#F2F5F9"/>
<path d="M105.329 407.468L128.64 396.961L102.21 402.291L105.329 407.468Z" fill="#BDC5CA"/>
<path d="M108.451 412.648L128.64 396.961L105.329 407.468L108.451 412.648Z" fill="#CED3D6"/>
<path d="M108.451 412.648L128.64 396.961L111.573 417.825L108.451 412.648Z" fill="#DBDEE0"/>
<path d="M125.147 401.23L123.231 398.052L128.64 396.961L125.147 401.23Z" fill="#0E33CB"/>
<path d="M47.0202 459.857C46.7394 459.837 46.4635 459.773 46.2028 459.667C46.2028 459.667 45.7835 459.366 45.4728 459.179C45.3936 459.127 45.3109 459.081 45.2255 459.04C44.7372 458.873 44.279 458.629 43.8681 458.316C43.3433 457.879 41.5667 455.41 41.5667 455.41L42.6284 454.068L43.4459 452.672C43.4459 452.672 47.5843 453.315 48.1212 453.664C48.1725 453.7 48.2238 453.737 48.266 453.773C48.6913 454.114 48.8692 454.548 49.0683 454.753C49.1407 454.828 49.8254 455.63 49.7711 455.938C49.7531 456.112 49.6906 456.279 49.5898 456.423C49.489 456.566 49.3531 456.681 49.195 456.758C49.195 456.758 49.014 457.596 48.5616 457.964C48.5129 458.193 48.4123 458.408 48.2674 458.592C48.1226 458.776 47.9373 458.924 47.7261 459.025C47.7261 459.025 47.4908 459.785 47.0202 459.857Z" fill="#EEA886"/>
<path d="M36.4055 419.929C37.2229 420.231 38.0886 422.224 37.4431 426.098C36.7524 430.259 35.3799 432.034 34.8279 433.008C34.2759 433.982 31.2385 439.973 31.7844 440.763C32.3304 441.553 37.4853 446.636 37.7839 447.049C38.0826 447.462 43.8408 452.672 43.8408 452.672L40.93 456.767C40.93 456.767 28.4966 447.061 27.5283 446.09C26.5601 445.12 23.6584 443.075 24.7322 439.702C25.8211 436.262 27.7787 428.205 28.1286 427.575C28.4785 426.945 31.0062 417.837 36.4055 419.929Z" fill="#1F45E4"/>
<path d="M82.5557 434.833C82.5557 434.833 80.5619 432.614 79.5695 432.653C78.5771 432.692 79.2497 433.533 79.2497 433.533C79.2497 433.533 78.5952 432.692 77.8864 433.135C77.1775 433.578 78.0221 434.525 78.0221 434.525C77.933 434.456 77.8304 434.405 77.7209 434.377C77.6114 434.349 77.4973 434.344 77.3857 434.362C77.2741 434.38 77.1675 434.421 77.0725 434.483C76.9775 434.544 76.8962 434.624 76.8337 434.718C76.3088 435.415 77.1805 436.039 77.1805 436.039C77.1805 436.039 75.8624 435.846 76.1459 436.919C76.6195 438.728 78.5771 439.599 78.5771 439.599C78.5771 439.599 79.1381 439.82 79.5966 439.108C79.5966 439.108 80.8333 439.575 81.1742 438.149C81.1742 438.149 82.6612 437.806 82.2058 436.642C82.2088 436.642 83.7019 436.072 82.5557 434.833Z" fill="#EEA886"/>
<path d="M50.9506 418.5C50.9506 418.5 51.3247 416.794 45.9887 416.39C40.6528 415.986 37.0392 417.195 36.9396 418.726C36.8401 420.258 50.465 424.078 50.465 424.078L50.9506 418.5Z" fill="#1F45E4"/>
<path d="M45.5511 398.601C45.5511 398.601 53.0497 395.827 52.5822 405.789C52.1146 415.75 50.3561 416.76 45.4244 415.37C40.4926 413.98 40.0764 407.697 39.4218 404.682C38.7673 401.667 43.1018 399.035 45.5511 398.601Z" fill="#EEA886"/>
<path d="M49.3759 419.456C49.3759 419.456 47.5661 420.249 41.7295 417.671C41.7295 417.671 41.8923 413.661 40.7461 409.916C39.5999 406.172 48.5886 414.909 48.5886 414.909C48.4951 414.975 48.477 415.352 48.5313 415.874C48.5884 416.396 48.6842 416.913 48.8179 417.421C49.1436 418.66 49.0743 418.44 49.3759 419.456Z" fill="#EEA886"/>
<path d="M40.4776 409.609C40.4776 409.609 40.4565 406.947 41.5635 406.703C42.6705 406.458 43.2406 407.996 43.2406 407.996L44.1455 407.948C44.1455 407.948 43.3492 405.252 44.4049 404.631C45.4606 404.01 51.7739 404.556 52.5672 403.648C53.3605 402.741 52.2082 397.347 50.4859 396.819C48.7635 396.292 44.058 395.215 41.0718 397.878C41.0718 397.878 38.5049 398.984 38.3993 401.101C38.2937 403.217 39.5757 408.165 40.4776 409.609Z" fill="#163342"/>
<path d="M48.8149 417.409C43.0024 416.441 42.1367 413.124 42.1367 413.076C44.396 415.989 48.5434 415.862 48.5434 415.862C48.5956 416.384 48.6864 416.901 48.8149 417.409Z" fill="#B07C63"/>
<path d="M42.8152 405.587C42.4834 404.71 40.6134 404.821 40.8064 406.211C40.9995 407.601 42.5438 409.748 43.1651 409.344C43.7864 408.94 43.2737 406.793 42.8152 405.587Z" fill="#EEA886"/>
<path d="M294.762 125.795C294.762 125.795 297.854 131.032 299.157 131.888C300.928 133.049 299.818 134.225 298.979 134.225C298.141 134.225 293.851 134.526 292.895 133.459C291.939 132.392 291.478 129.166 290.597 128.333C289.716 127.501 288.808 124.149 291.025 123.335C292.986 122.593 294.762 125.795 294.762 125.795Z" fill="#E8E8E8"/>
<path d="M293.423 123.479C293.423 123.479 296.964 129.615 297.574 130.519C298.183 131.424 296.424 131.424 295.335 130.993C294.247 130.562 291.505 126.169 291.113 125.364C290.84 124.712 290.81 123.985 291.028 123.313L293.423 123.479Z" fill="#EBA684"/>
<path d="M289.837 126.781L290.654 133.067L291.088 133.088L290.953 128.563L289.837 126.781Z" fill="#E8E8E8"/>
<path d="M264.113 125.795C264.113 125.795 267.205 131.032 268.508 131.888C270.282 133.049 269.172 134.225 268.33 134.225C267.489 134.225 263.202 134.527 262.246 133.459C261.29 132.392 260.828 129.166 259.948 128.334C259.067 127.502 258.138 124.062 260.376 123.335C262.349 122.675 264.113 125.795 264.113 125.795Z" fill="#E8E8E8"/>
<path d="M262.961 123.494C262.961 123.494 266.315 129.615 266.925 130.519C267.534 131.424 265.775 131.424 264.686 130.993C263.597 130.562 260.856 126.169 260.463 125.364C260.193 124.712 260.163 123.985 260.379 123.313L262.961 123.494Z" fill="#EBA684"/>
<path d="M259.191 126.781L260.008 133.067L260.439 133.088L260.304 128.563L259.191 126.781Z" fill="#E8E8E8"/>
<path d="M250.401 78.1247L278.368 90.8631C278.368 90.8631 281.49 91.8761 281.84 95.3403C282.932 106.155 291.025 123.314 291.025 123.314C293.622 124.583 293.423 123.479 293.423 123.479C291.788 118.23 289.803 96.5885 289.085 87.9023C288.934 86.0571 288.841 84.7969 288.82 84.3929C288.82 84.1185 288.518 83.7597 287.987 83.3406C284.151 80.2291 268.36 73.7891 268.36 73.7891C256.503 73.4755 250.401 78.1247 250.401 78.1247Z" fill="#EBA684"/>
<path d="M245.137 83.585C246.003 91.1406 256.796 90.2753 256.796 90.2753H269.872C269.872 90.2753 266.436 97.9183 265.109 104.361C263.703 111.202 260.385 123.305 260.385 123.305C260.385 123.305 260.602 123.715 262.967 123.485C262.967 123.485 273.223 103.032 277.162 97.8912C278.01 96.7847 280.432 90.7788 280.848 87.1939C280.99 85.9879 280.902 85.0593 280.453 84.6794C279.527 83.9712 278.563 83.3129 277.566 82.7076C273.47 80.1268 266.354 76.15 262.391 75.2606C257.082 74.0546 248.685 71.8325 248.685 71.8325C248.685 71.8325 244.263 76.0475 245.137 83.585Z" fill="#EBA684"/>
<path d="M254.03 25.3953C254.03 25.3953 252.072 21.6808 253.028 17.7252C253.984 13.7695 257.652 9.82888 263.03 11.6379C268.409 13.4469 272.755 17.6227 269.531 22.4527C266.306 27.2827 272.447 29.4595 270.885 31.757C269.323 34.0544 269.911 36.4513 270.583 36.988C271.256 37.5247 273.383 39.4271 273.147 41.6824C272.912 43.9376 262.717 35.1097 262.717 35.1097C262.717 35.1097 257.151 23.9481 254.03 25.3953Z" fill="#464240"/>
<path d="M270.42 72.8697C270.42 72.8697 269.609 76.8043 248.721 71.8386C248.721 71.8265 255.725 69.514 270.42 72.8697Z" fill="#EB4747"/>
<path d="M248.482 72.942L247.514 74.7963L270.42 75.4626C269.214 71.4195 269.603 65.9442 269.817 61.7895C270.074 56.7153 272.879 53.1847 272.58 48.0532C274.088 48.2974 274.351 48.3547 275.865 48.5748C273.551 41.984 272.758 38.7188 265.57 36.1832C263.229 35.357 261.694 35.1942 259.16 35.4023C250.838 36.0897 248.326 36.1862 244.238 43.7267C250.639 44.7457 249.583 47.0432 251.526 53.4078C252.473 56.5103 253.459 59.9715 252.953 63.2458C252.452 66.4688 248.482 70.0175 248.482 72.942Z" fill="#F2F5F9"/>
<path d="M261.769 37.781C258.361 37.1389 259.085 35.2454 259.085 35.2454C259.085 35.2454 259.245 34.1751 259.305 32.8334C259.305 32.4867 259.332 32.1219 259.329 31.7541C259.329 31.194 259.297 30.6344 259.236 30.0777C258.955 27.7924 265.419 29.1551 265.419 29.1551C265.419 29.1551 265.045 33.7801 265.938 35.167C266.831 36.5539 265.175 38.4232 261.769 37.781Z" fill="#EEA886"/>
<path d="M255.269 35.2306C255.269 35.2306 262.141 43.1631 264.68 45.0023C264.68 45.0023 267.6 42.3641 265.799 35.4025C265.799 35.4025 262.484 33.7443 255.269 35.2306Z" fill="#EEA886"/>
<path d="M255.456 16.1457C255.456 16.1457 251.888 23.0169 255.426 29.5263C258.964 36.0357 265.92 26.6922 266.369 25.6068C266.819 24.5214 269.205 18.3105 264.463 16.4261C259.721 14.5417 256.467 14.2794 255.456 16.1457Z" fill="#EEA886"/>
<path d="M256.642 18.5813C256.642 18.5813 254.186 21.8074 253.885 24.1892C253.386 21.1255 254.02 17.985 255.67 15.3553C258.436 11.0258 265.467 15.1503 266.409 16.8809C267.35 18.6115 270.11 20.1341 265.473 27.566C265.486 27.566 257.148 21.7772 256.642 18.5813Z" fill="#464240"/>
<path d="M262.345 30.2197C262.345 30.2197 261.742 31.5735 259.305 32.8307C259.305 32.484 259.335 32.1131 259.332 31.7423C260.467 31.5488 261.517 31.0182 262.345 30.2197Z" fill="#A77860"/>
<path d="M226.279 66.7585C226.279 66.7585 224.584 67.5123 223.778 67.1686C222.993 66.899 222.169 66.7615 221.338 66.7616C220.813 66.7616 219.169 66.1736 219.2 66.8158C219.23 67.458 221.866 67.9042 222.406 68.1032C222.946 68.3022 220.789 69.4901 220.596 70.0178C220.403 70.5454 222.828 74.0006 224.216 73.0147C225.603 72.0288 226.327 70.063 226.611 69.9394C226.967 69.7356 227.311 69.5101 227.639 69.264L226.279 66.7585Z" fill="#DE9D7D"/>
<path d="M220.85 69.7158C220.85 69.7158 216.871 73.0142 216.808 73.4574C216.744 73.9006 216.956 74.1117 217.342 73.8192C217.728 73.5268 221.287 70.747 221.287 70.747C221.287 70.747 217.302 75.4534 217.167 75.8031C217.088 76.0051 217.468 76.4302 217.695 76.2945C217.921 76.1589 222.156 71.7268 222.156 71.7268C222.156 71.7268 218.443 76.1257 218.422 76.4573C218.425 76.5404 218.452 76.6209 218.499 76.6891C218.547 76.7574 218.613 76.8105 218.69 76.8423C218.767 76.874 218.851 76.883 218.933 76.8683C219.015 76.8535 219.091 76.8155 219.151 76.7588C219.453 76.4573 223.148 72.568 223.148 72.568C223.148 72.568 220.663 75.9478 220.816 76.2433C220.91 76.4272 221.224 76.8071 221.833 75.9146C222.442 75.0222 224.128 73.0745 224.128 73.0745L220.85 69.7158Z" fill="#DE9D7D"/>
<path d="M268.502 90.2845H256.786C256.786 90.2845 245.997 91.1498 245.137 83.5852C244.278 76.0205 248.685 71.8267 248.685 71.8267C248.685 71.8267 254.385 73.3342 259.362 74.5402C262.321 73.9255 265.343 73.6624 268.363 73.7563C268.363 73.7563 289.478 80.7239 288.829 84.3932C288.823 84.4143 279.997 79.6958 268.502 90.2845Z" fill="#202338"/>
<path d="M260.877 77.1992L283.21 76.8735L271.935 82.596L260.877 77.1992Z" fill="#BDC5CA"/>
<path d="M267.814 74.3468C264.189 75.5244 260.293 75.5895 256.63 74.5338L256.343 72.2363L269.012 72.9418L267.814 74.3468Z" fill="#F2F2F2"/>
<path d="M271.935 82.5961L260.877 78.3148V77.1992L272.806 81.5016L271.935 82.5961Z" fill="#88929F"/>
<path d="M267.736 75.4112C267.722 75.6 267.757 75.7892 267.838 75.9605C267.918 76.1319 268.042 76.2796 268.196 76.3895C268.35 76.4994 268.53 76.5679 268.718 76.5882C268.907 76.6085 269.097 76.5801 269.271 76.5056L270.568 75.9539C270.758 75.8731 270.915 75.7312 271.014 75.5509C271.114 75.3706 271.15 75.1622 271.117 74.9589C270.577 71.5821 269.419 58.4367 271.117 56.1815C271.641 55.5159 272.057 54.7722 272.351 53.9776C273.47 56.8599 274.86 60.5683 275.412 62.5673L285.97 76.5961L289.505 77.5006C285.092 66.8667 281.545 61.2347 281.545 61.2347C280.854 59.3804 278.875 53.7695 277.12 48.7737C276.013 45.617 275.008 42.7075 274.45 41.1457C274.173 40.3533 273.627 39.6832 272.906 39.2523C271.271 38.2754 268.547 36.7378 266.08 35.5408H266.05L265.811 35.4263C270.508 42.5296 268.677 62.5824 267.751 75.4082C267.739 75.3931 267.736 75.4021 267.736 75.4112Z" fill="#121D50"/>
<path d="M250.304 36.0083C248.796 36.2405 245.071 39.8615 243.092 43.5127C240.83 47.6824 238.529 52.431 236.806 53.9898C233.633 56.8631 224.759 67.0146 224.337 66.7673C224.174 66.6739 226.771 69.7824 227.1 69.9452C227.266 70.0175 241.69 57.5234 243.086 55.6209C244.401 53.8119 247.912 46.2412 248.965 46.4101C249.976 48.6812 250.834 51.0169 251.535 53.4019C251.553 53.4682 251.574 53.5345 251.595 53.6008C252.428 56.4259 252.353 59.4891 251.897 62.9473C251.556 65.5463 249.614 69.7974 248.443 71.8657C248.379 72.0396 248.35 72.2246 248.358 72.4099C248.365 72.5952 248.41 72.7771 248.489 72.9451C248.554 73.1386 248.693 73.2987 248.875 73.3913L253.098 74.9621L254.093 75.3299C254.399 75.4433 254.726 75.4863 255.05 75.4557C255.375 75.4252 255.689 75.3219 255.968 75.1536C256.247 74.9853 256.484 74.7562 256.663 74.4835C256.841 74.2108 256.956 73.9013 256.998 73.5782C257.939 66.3422 259.13 58.9404 260.081 56.1545C264.246 43.9287 258.452 34.748 258.452 34.748C258.452 34.748 251.626 35.5169 250.304 36.0083Z" fill="#121D50"/>
<path d="M271.935 82.596L278.577 64.4668L299.993 64.8165L293.662 81.5227L271.935 82.596Z" fill="#BDC5CA"/>
<path d="M285.43 72.4869C284.775 73.7924 284.974 75.2004 285.87 75.6616C286.766 76.1229 288.024 75.4144 288.678 74.1089C289.333 72.8034 289.134 71.3954 288.235 70.9341C287.336 70.4728 286.081 71.1814 285.43 72.4869Z" fill="#88929F"/>
<path d="M262.852 22.9836C262.852 22.9836 264.225 25.1183 262.958 26.9604C261.691 28.8026 263.278 30.6086 263.561 32.5563C263.845 34.504 258.27 39.6807 264.466 42.2887C270.662 44.8967 272.61 40.5852 271.048 38.2154C269.485 35.8456 268.348 33.9221 268.212 30.5422C268.077 27.1624 266.952 21.8982 262.852 22.9836Z" fill="#464240"/>
<path d="M216.916 0.374023H245.514V21.0931V25.4558L241.15 21.0931H216.916V0.374023Z" fill="#BDC5CA"/>
<defs>
<linearGradient id="paint0_linear" x1="473.967" y1="519.093" x2="508.664" y2="519.093" gradientUnits="userSpaceOnUse">
<stop stop-color="#AFAFB5"/>
<stop offset="1" stop-color="#D3D5DB"/>
</linearGradient>
<linearGradient id="paint1_linear" x1="473.967" y1="519.093" x2="508.664" y2="519.093" gradientUnits="userSpaceOnUse">
<stop stop-color="#AFAFB5"/>
<stop offset="1" stop-color="#BBBCC2"/>
</linearGradient>
</defs>
</svg>
