<svg width="553" height="306" viewBox="0 0 553 306" fill="none" xmlns="http://www.w3.org/2000/svg">
<g clip-path="url(#clip0)">
<path d="M8.32227 305.459V305.82L8.55387 305.472L8.32227 305.459Z" fill="#3B3361"/>
<path d="M385.372 224.976L384.616 224.357C391.276 216.152 393.988 209.309 392.907 203.435C391.435 195.441 383.043 190.593 375.642 186.318C371.486 183.917 367.562 181.651 365.349 179.077C363.686 177.148 362.997 175.057 363.29 172.865C363.98 167.891 369.515 164.186 369.749 164.031L370.287 164.849C370.233 164.885 364.883 168.459 364.258 173.002C364 174.903 364.608 176.731 366.08 178.438C368.187 180.885 372.042 183.113 376.116 185.47C383.7 189.853 392.297 194.82 393.852 203.262C395.015 209.43 392.225 216.534 385.372 224.976Z" fill="#282142"/>
<path d="M408.167 251.78L404.876 249.671C410.28 241.195 410.28 233.508 404.876 227.436C395.869 217.343 377.621 225.319 377.438 225.401L375.846 221.828C379.562 220.269 383.469 219.214 387.464 218.692C396.196 217.581 403.224 219.703 407.794 224.829C414.392 232.242 414.529 241.814 408.167 251.78Z" fill="#282142"/>
<path d="M327.129 170.367C325.162 165.994 323.928 161.328 323.475 156.553C322.587 146.283 326.29 138.269 334.185 133.374C339.952 129.8 346.298 128.766 352.541 130.381C359.746 132.245 365.477 137.374 367.091 140.254L363.681 142.17C362.608 140.249 357.804 135.788 351.563 134.176C346.303 132.815 341.149 133.661 336.241 136.711C329.589 140.837 326.604 147.397 327.366 156.221C327.78 160.52 328.886 164.723 330.641 168.667L327.129 170.367Z" fill="#282142"/>
<path d="M369.358 137.194L359.94 142.643L361.432 145.233L370.85 139.784L369.358 137.194Z" fill="#282142"/>
<path d="M441.086 130.368H434.658V160.217H441.086V130.368Z" fill="#282142"/>
<path d="M441.768 151.105H434.233C433.546 151.666 432.992 152.374 432.613 153.177C432.233 153.98 432.038 154.858 432.041 155.746V161.21L443.95 161.195V155.733C443.953 154.848 443.758 153.973 443.381 153.172C443.003 152.372 442.452 151.665 441.768 151.105Z" fill="#FF6B00"/>
<path d="M445.085 161.177H431.009V162.889H445.085V161.177Z" fill="#282142"/>
<path d="M428.093 192.305L425.679 192.659L418.837 174.923L425.414 173.959L428.093 192.305Z" fill="#282142"/>
<path d="M453.163 192.174L455.597 192.081L459.102 173.394L452.458 173.647L453.163 192.174Z" fill="#282142"/>
<path d="M445.577 169.307H431.408C430.576 169.304 429.779 168.971 429.191 168.381C428.604 167.791 428.273 166.992 428.271 166.158C428.273 165.325 428.605 164.527 429.193 163.938C429.782 163.349 430.579 163.017 431.41 163.015H445.582C446.413 163.018 447.21 163.35 447.798 163.94C448.386 164.529 448.717 165.328 448.719 166.161C448.716 166.995 448.384 167.794 447.795 168.383C447.207 168.973 446.409 169.305 445.577 169.307Z" fill="#FF6B00"/>
<path d="M433.034 164.031C432.562 163.512 431.906 163.198 431.207 163.155C430.507 163.113 429.818 163.346 429.287 163.804L420.023 171.813C419.52 172.239 419.117 172.771 418.843 173.371C418.568 173.971 418.43 174.624 418.436 175.284C418.443 175.943 418.595 176.594 418.881 177.188C419.167 177.782 419.581 178.306 420.092 178.721C420.581 179.117 421.147 179.405 421.754 179.567C422.361 179.729 422.995 179.762 423.615 179.662C424.235 179.562 424.828 179.333 425.354 178.989C425.879 178.644 426.327 178.193 426.667 177.664L433.299 167.311C433.619 166.811 433.765 166.22 433.716 165.628C433.666 165.037 433.423 164.478 433.024 164.039L433.034 164.031Z" fill="#FF6B00"/>
<path d="M421.729 174.054C421.5 174.34 421.367 174.691 421.35 175.057C421.334 175.422 421.433 175.784 421.636 176.09C421.838 176.395 422.131 176.628 422.474 176.754C422.817 176.881 423.192 176.895 423.543 176.795C423.895 176.694 424.205 176.484 424.43 176.195C424.654 175.906 424.781 175.552 424.791 175.186C424.802 174.82 424.696 174.46 424.489 174.158C424.281 173.856 423.984 173.629 423.639 173.508C423.303 173.39 422.939 173.379 422.597 173.477C422.255 173.575 421.952 173.777 421.729 174.054Z" fill="#282142"/>
<path d="M429.843 165.241C429.667 165.46 429.565 165.73 429.552 166.011C429.539 166.292 429.616 166.57 429.771 166.804C429.927 167.039 430.152 167.218 430.416 167.315C430.679 167.412 430.967 167.423 431.237 167.346C431.507 167.268 431.746 167.107 431.918 166.885C432.09 166.662 432.187 166.391 432.196 166.11C432.204 165.828 432.122 165.552 431.963 165.32C431.804 165.088 431.575 164.913 431.31 164.82C431.052 164.73 430.772 164.723 430.51 164.798C430.247 164.873 430.014 165.028 429.843 165.241Z" fill="#282142"/>
<path d="M443.533 164.163C443.933 163.585 444.541 163.186 445.23 163.052C445.918 162.918 446.632 163.058 447.218 163.443L457.46 170.148C458.015 170.503 458.484 170.977 458.835 171.536C459.186 172.094 459.409 172.723 459.489 173.378C459.569 174.033 459.504 174.697 459.298 175.324C459.093 175.951 458.752 176.525 458.299 177.004C457.867 177.463 457.342 177.825 456.76 178.066C456.179 178.308 455.552 178.424 454.923 178.406C454.293 178.389 453.674 178.238 453.107 177.965C452.539 177.691 452.036 177.3 451.629 176.818L443.693 167.432C443.31 166.979 443.087 166.412 443.058 165.819C443.029 165.227 443.196 164.641 443.533 164.152V164.163Z" fill="#FF6B00"/>
<path d="M444.614 165.651C444.56 165.926 444.594 166.212 444.712 166.466C444.831 166.721 445.027 166.931 445.272 167.066C445.517 167.202 445.799 167.256 446.077 167.22C446.355 167.184 446.615 167.061 446.818 166.867C447.021 166.674 447.158 166.421 447.208 166.145C447.258 165.869 447.219 165.584 447.097 165.331C446.975 165.078 446.776 164.871 446.528 164.74C446.281 164.608 445.998 164.558 445.721 164.599C445.45 164.638 445.199 164.76 445.001 164.949C444.803 165.137 444.668 165.382 444.614 165.651Z" fill="#282142"/>
<path d="M453.173 173.513C453.102 173.872 453.146 174.244 453.3 174.577C453.454 174.909 453.709 175.184 454.029 175.361C454.349 175.538 454.717 175.608 455.08 175.562C455.442 175.515 455.781 175.354 456.046 175.102C456.311 174.85 456.49 174.52 456.555 174.16C456.621 173.8 456.57 173.428 456.411 173.098C456.251 172.768 455.991 172.498 455.668 172.327C455.345 172.155 454.976 172.091 454.614 172.143C454.262 172.195 453.935 172.354 453.677 172.599C453.419 172.844 453.243 173.163 453.173 173.513Z" fill="#282142"/>
<path d="M439.097 128.795H415.406V136.433H439.097V128.795Z" fill="#282142"/>
<path d="M418.291 140.973H402.943C400.731 140.973 398.609 140.093 397.044 138.525C395.479 136.957 394.6 134.831 394.6 132.614C394.6 131.516 394.816 130.429 395.235 129.414C395.654 128.4 396.268 127.478 397.043 126.702C397.818 125.925 398.738 125.31 399.75 124.89C400.763 124.47 401.848 124.254 402.943 124.254H418.291V140.973Z" fill="#FF6B00"/>
<path d="M438.17 140.973H427.362V124.254H438.17C439.266 124.254 440.351 124.47 441.364 124.89C442.376 125.31 443.296 125.925 444.071 126.702C444.845 127.478 445.46 128.4 445.879 129.414C446.298 130.429 446.514 131.516 446.513 132.614C446.513 133.711 446.298 134.799 445.878 135.813C445.459 136.827 444.844 137.749 444.07 138.525C443.295 139.301 442.375 139.917 441.363 140.337C440.351 140.757 439.266 140.973 438.17 140.973Z" fill="#FF6B00"/>
<path d="M440.139 136.603C439.337 136.94 438.454 137.03 437.601 136.864C436.748 136.698 435.963 136.281 435.346 135.668C434.728 135.055 434.306 134.272 434.133 133.418C433.96 132.565 434.043 131.679 434.373 130.873C434.702 130.067 435.262 129.377 435.983 128.89C436.703 128.403 437.552 128.141 438.421 128.137C439.29 128.133 440.141 128.387 440.866 128.868C441.591 129.349 442.157 130.034 442.494 130.837C442.943 131.915 442.947 133.127 442.505 134.208C442.064 135.288 441.213 136.15 440.139 136.603ZM437.455 130.187C436.991 130.383 436.595 130.711 436.317 131.132C436.04 131.552 435.893 132.046 435.895 132.55C435.897 133.055 436.048 133.547 436.33 133.965C436.611 134.383 437.01 134.708 437.476 134.899C437.942 135.09 438.453 135.139 438.947 135.038C439.44 134.938 439.892 134.693 440.247 134.335C440.601 133.977 440.842 133.522 440.938 133.027C441.034 132.532 440.982 132.019 440.787 131.554C440.526 130.931 440.028 130.437 439.403 130.181C438.778 129.925 438.078 129.927 437.455 130.187Z" fill="#282142"/>
<path d="M372.254 167.694L359.028 147.178L354.755 149.944L367.98 170.46L372.254 167.694Z" fill="#282142"/>
<path d="M330.289 180.292C329.336 178.807 329.011 177.003 329.385 175.278C329.759 173.552 330.801 172.047 332.283 171.091L366.466 149.042L373.656 160.236L339.473 182.288C338.74 182.761 337.92 183.085 337.061 183.241C336.202 183.397 335.321 183.381 334.469 183.196C333.616 183.011 332.808 182.659 332.09 182.16C331.373 181.662 330.761 181.027 330.289 180.292Z" fill="#282142"/>
<path d="M370.704 170.849L407.686 143.405C409.976 141.706 411.533 139.197 412.039 136.387C412.545 133.578 411.963 130.681 410.411 128.287C408.86 125.896 406.457 124.187 403.692 123.508C400.928 122.829 398.009 123.232 395.529 124.633L355.544 147.325L370.704 170.849Z" fill="#FF6B00"/>
<path d="M404.894 140.455C403.703 141.23 402.309 141.633 400.89 141.614C399.47 141.595 398.087 141.155 396.917 140.348C395.747 139.542 394.842 138.407 394.316 137.085C393.79 135.763 393.667 134.315 393.963 132.924C394.258 131.532 394.959 130.259 395.976 129.267C396.993 128.274 398.281 127.606 399.677 127.346C401.073 127.087 402.515 127.249 403.82 127.81C405.124 128.372 406.233 129.309 407.007 130.502C408.043 132.103 408.402 134.05 408.006 135.917C407.61 137.783 406.49 139.415 404.894 140.455ZM398.718 130.914C398.028 131.363 397.486 132.007 397.161 132.764C396.837 133.521 396.743 134.358 396.893 135.169C397.043 135.979 397.429 136.727 398.003 137.317C398.577 137.908 399.313 138.314 400.118 138.485C400.922 138.657 401.759 138.585 402.523 138.28C403.287 137.974 403.944 137.449 404.41 136.769C404.875 136.09 405.13 135.287 405.14 134.463C405.151 133.639 404.917 132.83 404.469 132.139C403.866 131.217 402.922 130.571 401.845 130.344C400.767 130.117 399.644 130.327 398.72 130.927L398.718 130.914Z" fill="#282142"/>
<path d="M385.089 237.745C382.95 239.604 380.466 241.023 377.779 241.92C375.093 242.818 372.256 243.176 369.431 242.975C366.606 242.773 363.848 242.016 361.316 240.747C358.783 239.477 356.524 237.721 354.669 235.577L319.254 194.66C317.399 192.516 315.982 190.027 315.087 187.335C314.191 184.643 313.833 181.801 314.034 178.97C314.235 176.14 314.99 173.377 316.257 170.839C317.523 168.3 319.276 166.037 321.416 164.178C323.555 162.319 326.039 160.9 328.726 160.003C331.413 159.106 334.249 158.747 337.074 158.949C339.899 159.15 342.657 159.907 345.189 161.177C347.722 162.446 349.981 164.203 351.836 166.347L387.251 207.269C390.997 211.598 392.874 217.24 392.468 222.956C392.063 228.671 389.409 233.991 385.089 237.745Z" fill="#FF6B00"/>
<path d="M327.275 170.96C325.579 172.434 324.357 174.379 323.764 176.549C323.17 178.719 323.233 181.017 323.942 183.151C324.652 185.286 325.978 187.162 327.752 188.542C329.526 189.921 331.668 190.743 333.908 190.903C336.148 191.063 338.385 190.553 340.335 189.439C342.286 188.325 343.864 186.656 344.868 184.644C345.873 182.632 346.259 180.366 345.979 178.133C345.698 175.901 344.763 173.802 343.292 172.102C341.319 169.823 338.523 168.422 335.52 168.208C332.516 167.994 329.551 168.984 327.275 170.96ZM339.164 184.696C338.15 185.578 336.897 186.139 335.565 186.308C334.232 186.477 332.879 186.245 331.678 185.644C330.476 185.042 329.479 184.097 328.814 182.928C328.148 181.758 327.844 180.418 327.939 179.075C328.034 177.733 328.524 176.448 329.348 175.385C330.171 174.322 331.291 173.527 332.565 173.101C333.84 172.675 335.211 172.638 336.507 172.993C337.803 173.349 338.964 174.081 339.844 175.098C341.021 176.46 341.612 178.233 341.486 180.03C341.36 181.827 340.528 183.5 339.172 184.683L339.164 184.696Z" fill="#282142"/>
<path d="M373.27 205.232C378.466 205.232 383.45 207.3 387.124 210.982C390.799 214.664 392.863 219.658 392.863 224.865V241.711H353.676V224.865C353.676 219.658 355.74 214.664 359.415 210.982C363.089 207.3 368.073 205.232 373.27 205.232Z" fill="#282142"/>
<path d="M367.649 217.833C366.318 218.99 365.359 220.517 364.893 222.221C364.428 223.924 364.477 225.728 365.034 227.403C365.591 229.079 366.632 230.551 368.025 231.634C369.417 232.716 371.099 233.361 372.857 233.486C374.615 233.611 376.371 233.211 377.902 232.337C379.433 231.462 380.671 230.152 381.459 228.572C382.247 226.992 382.55 225.214 382.33 223.462C382.109 221.709 381.375 220.062 380.22 218.728C378.672 216.939 376.477 215.84 374.12 215.672C371.762 215.504 369.435 216.282 367.649 217.833ZM376.98 228.614C376.184 229.306 375.201 229.746 374.155 229.877C373.109 230.009 372.048 229.827 371.105 229.355C370.163 228.882 369.381 228.14 368.859 227.223C368.337 226.305 368.099 225.253 368.174 224.2C368.249 223.146 368.633 222.139 369.28 221.304C369.926 220.47 370.805 219.847 371.805 219.513C372.804 219.179 373.881 219.149 374.897 219.428C375.914 219.707 376.825 220.282 377.516 221.08C377.974 221.61 378.324 222.225 378.546 222.89C378.767 223.556 378.855 224.258 378.806 224.958C378.756 225.658 378.569 226.341 378.256 226.968C377.943 227.595 377.509 228.155 376.98 228.614Z" fill="#FF6B00"/>
<path d="M399.323 239.73H349.221V254.48H399.323V239.73Z" fill="#282142"/>
<path d="M416.631 260.305H327.592C327.545 260.719 327.52 261.136 327.52 261.553V304.376H416.701V261.553C416.701 261.136 416.678 260.72 416.631 260.305Z" fill="#FF6B00"/>
<path d="M397.176 246.829H346.98C336.239 249.753 328.38 254.787 327.559 261.932H416.598C415.777 254.787 407.918 249.753 397.176 246.829Z" fill="#FF6B00"/>
<path d="M419.351 291.349H325.472V304.381H419.351V291.349Z" fill="#282142"/>
<path d="M363.591 272.69C362.955 272.69 362.345 272.437 361.894 271.986C361.444 271.536 361.191 270.924 361.19 270.287C361.191 269.649 361.444 269.038 361.894 268.587C362.345 268.137 362.955 267.884 363.591 267.884C364.227 267.884 364.837 268.137 365.287 268.587C365.737 269.038 365.99 269.649 365.99 270.287C365.99 270.924 365.737 271.535 365.287 271.986C364.837 272.437 364.227 272.69 363.591 272.69Z" fill="#282142"/>
<path d="M371.72 272.69C371.084 272.69 370.474 272.437 370.024 271.986C369.575 271.535 369.322 270.924 369.322 270.287C369.322 269.649 369.575 269.038 370.024 268.587C370.474 268.137 371.084 267.884 371.72 267.884C372.356 267.884 372.967 268.137 373.416 268.587C373.866 269.038 374.119 269.649 374.119 270.287C374.119 270.924 373.866 271.535 373.416 271.986C372.967 272.437 372.356 272.69 371.72 272.69Z" fill="#282142"/>
<path d="M379.85 272.69C379.214 272.69 378.604 272.437 378.154 271.986C377.704 271.535 377.451 270.924 377.451 270.287C377.451 269.649 377.704 269.038 378.154 268.587C378.604 268.137 379.214 267.884 379.85 267.884C380.486 267.884 381.096 268.137 381.547 268.587C381.997 269.038 382.25 269.649 382.251 270.287C382.25 270.924 381.997 271.536 381.547 271.986C381.096 272.437 380.486 272.69 379.85 272.69Z" fill="#282142"/>
<path d="M387.982 272.69C387.346 272.69 386.736 272.437 386.286 271.986C385.836 271.535 385.583 270.924 385.583 270.287C385.583 269.649 385.836 269.038 386.286 268.587C386.736 268.137 387.346 267.884 387.982 267.884C388.618 267.884 389.228 268.137 389.678 268.587C390.127 269.038 390.38 269.649 390.38 270.287C390.38 270.924 390.127 271.535 389.678 271.986C389.228 272.437 388.618 272.69 387.982 272.69Z" fill="#282142"/>
<path d="M351.887 289.27H337.505V276.037H351.887V289.27ZM337.734 289.046H351.671V276.259H337.734V289.046Z" fill="#282142"/>
<path d="M341.892 254.565C343.354 252.456 345.546 250.971 347.721 249.666H346.663C344.489 250.973 342.289 252.459 340.832 254.565H341.892Z" fill="#282142"/>
<path d="M344.404 254.565C345.863 252.456 348.056 250.971 350.228 249.666H349.172C346.998 250.973 344.798 252.459 343.346 254.565H344.404Z" fill="#282142"/>
<path d="M346.918 254.565C348.375 252.456 350.567 250.971 352.734 249.666H351.679C349.51 250.973 347.317 252.459 345.86 254.565H346.918Z" fill="#282142"/>
<path d="M349.432 254.565C350.884 252.456 353.076 250.971 355.243 249.666H354.188C352.019 250.973 349.829 252.459 348.375 254.565H349.432Z" fill="#282142"/>
<path d="M351.947 254.565C353.395 252.456 355.585 250.971 357.75 249.666H356.694C354.53 250.973 352.338 252.459 350.889 254.565H351.947Z" fill="#282142"/>
<path d="M354.461 254.565C355.904 252.456 358.097 250.971 360.259 249.666H359.201C357.039 250.973 354.847 252.459 353.401 254.565H354.461Z" fill="#282142"/>
<path d="M356.972 254.565C358.416 252.456 360.606 250.971 362.765 249.666H361.71C359.551 250.973 357.358 252.459 355.915 254.565H356.972Z" fill="#282142"/>
<path d="M100.784 119.355L79.6823 130.858L68.9384 104.257L63.4159 105.647C63.4159 105.647 66.9955 136.549 72.7393 142.206C78.4831 147.864 107.789 135.401 107.789 135.401C114.969 130.799 108.427 116.206 100.784 119.355Z" fill="#F7A594"/>
<path d="M69.3244 108.151C69.3244 108.151 71.1258 102.22 70.6986 100.688C70.2714 99.1568 64.3475 97.6741 64.1287 98.3935C63.91 99.113 63.4699 100.872 67.3172 101.55C65.0165 104.105 62.6207 108.994 69.3244 108.151Z" fill="#F7A594"/>
<path d="M69.6513 108.383C69.6513 108.383 69.6513 103.182 68.622 101.186C67.2555 98.5252 63.8071 97.0605 63.8071 97.0605C63.8071 97.0605 58.4236 102.166 58.3207 103.007C58.2178 103.847 63.5241 108.458 63.5241 108.458C63.5241 108.458 67.4485 111.544 69.6513 108.383Z" fill="#F7A594"/>
<path d="M68.3388 101.684C68.3388 101.684 65.732 88.961 63.7427 89.5128C62.8266 89.7707 65.2868 101.931 65.2868 101.931L68.3388 101.684Z" fill="#F7A594"/>
<path d="M69.8263 106.47C69.8128 106.474 69.7986 106.474 69.7851 106.47C69.7761 106.468 69.7676 106.464 69.7601 106.458C69.7526 106.453 69.7463 106.446 69.7415 106.438C69.7367 106.43 69.7336 106.421 69.7322 106.412C69.7308 106.403 69.7313 106.394 69.7336 106.385C70.1788 104.647 70.8839 101.599 70.6317 100.712C70.2998 99.5308 66.3985 98.3009 64.7619 98.2802C64.2755 98.2802 64.2034 98.3834 64.1931 98.4169C64.049 98.8913 63.9358 99.4483 64.2884 100.01C64.7155 100.709 65.7397 101.207 67.3301 101.485L67.4536 101.509L67.3687 101.601C66.414 102.661 65.31 104.293 65.0526 105.694C65.0514 105.703 65.0483 105.712 65.0436 105.719C65.0389 105.727 65.0325 105.734 65.0251 105.739C65.0176 105.745 65.0091 105.748 65.0001 105.75C64.9911 105.752 64.9819 105.752 64.9729 105.75C64.9548 105.747 64.9388 105.737 64.9281 105.722C64.9175 105.707 64.9133 105.689 64.9163 105.67C65.1736 104.283 66.2287 102.677 67.1757 101.601C65.6136 101.31 64.6023 100.799 64.1648 100.083C64.023 99.824 63.9396 99.5373 63.9205 99.2427C63.9014 98.9482 63.947 98.6531 64.0542 98.3782C64.1031 98.2158 64.3321 98.1384 64.7567 98.1436C66.414 98.1616 70.3976 99.3967 70.7578 100.673C71.0152 101.601 70.3075 104.675 69.8597 106.426C69.8576 106.435 69.8535 106.444 69.8477 106.451C69.8419 106.459 69.8346 106.465 69.8263 106.47Z" fill="#E6836F"/>
<path d="M62.6207 104.675L62.5641 104.696L62.5178 104.709L62.4895 104.67C61.5451 103.445 59.5301 103.1 59.5095 103.097C59.5004 103.096 59.4917 103.093 59.4838 103.088C59.476 103.083 59.4692 103.077 59.4639 103.069C59.4586 103.062 59.4549 103.053 59.453 103.044C59.4511 103.035 59.4511 103.026 59.4529 103.017C59.4561 102.999 59.4658 102.984 59.4802 102.973C59.4946 102.963 59.5124 102.958 59.5301 102.96C59.615 102.96 61.5888 103.308 62.5667 104.546C63.7685 104.077 65.2327 100.993 65.2482 100.959C65.252 100.951 65.2574 100.944 65.264 100.938C65.2707 100.932 65.2784 100.928 65.2868 100.925C65.2951 100.922 65.304 100.921 65.3128 100.922C65.3217 100.922 65.3303 100.924 65.3382 100.928C65.3467 100.932 65.3544 100.937 65.3607 100.943C65.3671 100.95 65.372 100.957 65.3752 100.966C65.3783 100.975 65.3796 100.984 65.379 100.993C65.3785 101.002 65.3759 101.011 65.3717 101.019C65.3151 101.148 63.874 104.175 62.6207 104.675Z" fill="#E6836F"/>
<path d="M104.636 118.006C104.636 118.006 100.215 118.597 89.6052 125.389C90.7838 129.966 94.3197 141.925 94.3197 141.925C94.3197 141.925 110.532 136.905 112.74 131.441C114.948 125.977 112.593 115.791 104.636 118.006Z" fill="#FF6B00"/>
<path d="M156.413 304.185H139.658C139.355 304.028 139.097 303.797 138.909 303.512C138.044 291.026 136.804 285.013 136.804 285.013L148.471 284.539L151.112 293.821C155.021 296.503 159.681 302.246 156.413 304.185Z" fill="#121D50"/>
<path d="M138.389 304.409H158.263C158.778 304.409 158.598 301.642 158.096 301.642L138.35 301.753C137.82 301.753 137.872 304.409 138.389 304.409Z" fill="#231F20"/>
<path d="M131.466 171.218C137.306 180.215 141.57 223.689 149.614 289.147L137.722 289.773C134.151 272.34 130.123 263.5 126.032 238.367C116.235 216.191 111.152 195.17 108.545 173.533C106.023 157.216 125.995 148.65 131.466 171.218Z" fill="#121D50"/>
<path d="M117.406 174.312C116.574 206.142 110.913 233.181 110.913 233.181C109.626 259.841 107.858 258.949 105.396 290.021L94.6465 289.876C93.7433 276.563 86.5738 214.504 92.14 174.673C94.8241 156.729 119.125 150.79 117.406 174.312Z" fill="#121D50"/>
<path d="M105.385 290.021C106.343 295.178 107.03 299.177 106.628 303.834L80.5984 304.35C80.5984 304.35 78.025 301.836 81.2624 298.063C84.4997 294.291 90.6526 296.475 94.644 289.884L105.385 290.021Z" fill="#231F20"/>
<path d="M79.4173 304.409H107.071C107.586 304.409 107.444 301.642 106.94 301.642L79.4044 301.753C78.8846 301.753 78.9 304.409 79.4173 304.409Z" fill="#121D50"/>
<path d="M92.9326 172.804C92.9326 178.309 131.948 176.715 131.948 171.21C134.184 123.163 145.772 128.081 142.807 123.248C137.694 114.912 111.875 115.384 102.58 118.968C98.8875 120.391 93.9311 126.188 92.3459 135.432C91.5301 140.185 95.0222 145.718 95.5755 149.56C96.8519 158.446 93.1926 171.527 92.9326 172.804Z" fill="#FF6B00"/>
<path d="M117.254 122.74C123.839 123.7 127.936 119.094 128.898 117.168L128.438 103.811L120.887 103.076C118.741 103.255 116.633 103.744 114.626 104.528L112.925 113.323L112.552 115.229C111.685 117.111 110.656 121.784 117.254 122.74Z" fill="#F7A594"/>
<path d="M125.898 106.841C124.714 108.667 119.755 113.344 112.925 113.329L114.397 105.722L125.898 106.841Z" fill="#E6836F"/>
<path d="M109.186 89.2472C108.594 91.8774 107.385 97.656 107.575 100.314C107.879 104.365 111.654 108.86 114.945 109.448C118.759 109.837 123.896 108.7 126.685 106.299C128.229 104.476 131.245 100.149 132.627 96.3641C135.512 88.4659 129.956 81.5424 122.877 79.936C115.797 78.3295 111.031 81.0422 109.186 89.2472Z" fill="#F7A594"/>
<path d="M130.26 101.581C131.734 98.9814 129.776 97.9293 127.63 99.9458C127.998 97.986 130.229 92.241 128.252 90.3354C126.021 88.1256 116.199 89.0874 110.923 83.577C110.923 83.577 114.855 74.9361 127.763 80.0391C142.342 87.7826 130.26 101.581 130.26 101.581Z" fill="#73382A"/>
<path d="M132.249 102.252C133.372 100.899 133.43 99.092 132.379 98.2175C131.329 97.3429 129.567 97.7315 128.445 99.0854C127.322 100.439 127.264 102.246 128.314 103.12C129.365 103.995 131.126 103.606 132.249 102.252Z" fill="#F7A594"/>
<path d="M140.129 120.541C135.754 120.025 131.443 141.237 134.467 147.051C134.467 147.479 134.467 147.915 134.49 148.353C134.524 150.009 134.565 151.706 134.619 153.446C134.642 154.22 134.668 154.98 134.694 155.749C134.75 157.448 134.817 159.153 134.884 160.844C135.422 173.959 136.235 186.192 136.235 186.192H90.5317C90.8972 177.2 92.207 167.971 93.1051 160.844C93.3367 158.99 93.5426 157.275 93.6919 155.749C93.7742 154.924 93.8411 154.155 93.8874 153.446C94.0007 151.747 94.0032 150.393 93.8488 149.473C93.7893 149.102 93.7549 148.728 93.7459 148.353C93.5169 141.649 98.0383 122.887 101.291 119.37C105.854 117.251 110.813 117.083 110.813 117.083C110.491 126.624 114.279 135.192 114.279 135.192C114.279 135.192 123.955 126.871 129.233 116.972C133.86 117.717 138.085 118.648 140.129 120.541Z" fill="#FFB655"/>
<path d="M93.8848 153.446C93.998 151.747 94.0006 150.393 93.8462 149.473C93.7867 149.102 93.7523 148.728 93.7433 148.354H134.48C134.513 150.009 134.555 151.706 134.609 153.446H93.8848Z" fill="#FF6B00"/>
<path d="M134.874 160.844H93.1025C93.3341 158.99 93.54 157.275 93.6893 155.749H134.683C134.74 157.448 134.807 159.152 134.874 160.844Z" fill="#FF6B00"/>
<path d="M112.434 84.7683C112.434 84.7683 108.404 86.5191 104.217 84.8198C104.853 87.6872 125.103 91.9367 127.699 90.8228C130.296 89.7088 117.946 83.546 112.434 84.7683Z" fill="#5C2D22"/>
<path d="M134.83 94.2265C135.391 90.1008 136.032 79.508 126.672 76.785C118.353 74.3663 112.385 79.3765 109.565 82.677C108.345 82.8653 105.059 81.9705 104.48 82.6538C104.343 83.0587 104.48 83.8451 107.812 85.1731L107.797 85.2066C119.879 87.8626 130.185 91.2431 134.539 97.0526C134.932 97.2355 135.35 97.3555 135.78 97.4085C136.181 97.4085 135.183 95.7891 134.83 94.2265Z" fill="#FFB655"/>
<path d="M118.203 85.4051C118.203 85.4051 122.007 76.4188 131.024 78.8194L131.196 78.4352C129.673 77.5141 128.048 76.775 126.353 76.2331C123.505 75.7819 116.906 76.8829 113.108 83.8193C115.056 84.8198 118.203 85.4051 118.203 85.4051Z" fill="#FFDD69"/>
<path d="M134.933 144.431L141.32 158.639L115.385 171.599L115.867 177.066C115.867 177.066 150.093 172.7 153.104 165.174C156.115 157.647 143.927 125.381 143.927 125.381C140.507 117.15 135.929 137.565 134.933 144.431Z" fill="#F7C4B9"/>
<path d="M115.473 171.95L102.781 172.273C102.781 172.273 106.677 178.523 115.548 177.388C127.226 175.895 122.612 171.458 115.473 171.95Z" fill="#F7C4B9"/>
<path d="M72.5077 172.089V172.734C72.5051 172.767 72.5051 172.799 72.5077 172.832C72.5746 173.25 73.0739 173.575 73.6812 173.575H127.902C128.51 173.575 129.009 173.25 129.076 172.832C129.08 172.799 129.08 172.767 129.076 172.734V172.089H72.5077Z" fill="#6D747A"/>
<path d="M72.5154 172.832C72.5823 173.25 73.0815 173.575 73.6888 173.575H127.91C128.517 173.575 129.017 173.25 129.084 172.832H72.5154Z" fill="#88929F"/>
<path d="M66.2158 134.937L65.9019 135.247L66.0717 135.486L66.4757 134.922L66.2158 134.937Z" fill="#241F3C"/>
<path d="M73.2951 171.991H117.285C117.455 171.997 117.624 171.963 117.78 171.893C117.935 171.823 118.073 171.719 118.182 171.587C118.291 171.456 118.368 171.302 118.409 171.136C118.449 170.97 118.451 170.797 118.414 170.63L112.609 135.979C112.537 135.606 112.341 135.268 112.053 135.022C111.765 134.775 111.402 134.633 111.024 134.62H67.0367C66.8664 134.614 66.6971 134.647 66.5416 134.717C66.3861 134.787 66.2486 134.891 66.1396 135.022C66.0306 135.153 65.9529 135.308 65.9126 135.474C65.8723 135.639 65.8703 135.812 65.9069 135.979L71.7099 170.633C71.7814 171.005 71.9772 171.343 72.2652 171.59C72.5532 171.837 72.9164 171.978 73.2951 171.991Z" fill="#6D747A"/>
<path d="M72.9735 172.311H116.96C117.131 172.317 117.301 172.284 117.456 172.214C117.612 172.144 117.75 172.04 117.859 171.908C117.968 171.777 118.045 171.622 118.086 171.456C118.126 171.29 118.127 171.116 118.09 170.95L112.287 136.299C112.216 135.925 112.021 135.587 111.733 135.34C111.445 135.092 111.081 134.95 110.702 134.937H66.7125C66.5421 134.932 66.3728 134.965 66.2173 135.035C66.0618 135.105 65.9244 135.21 65.8154 135.341C65.7065 135.472 65.6288 135.627 65.5885 135.793C65.5482 135.959 65.5462 136.132 65.5828 136.299L71.3883 170.96C71.4614 171.331 71.6578 171.667 71.9457 171.913C72.2335 172.158 72.5958 172.298 72.9735 172.311Z" fill="#CED3D6"/>
<path d="M92.0428 160.564C95.2295 160.196 97.5039 157.211 97.1229 153.896C96.7419 150.581 93.8497 148.192 90.663 148.56C87.4764 148.928 85.2019 151.913 85.5829 155.228C85.9639 158.543 88.8561 160.932 92.0428 160.564Z" fill="#6D747A"/>
<path d="M134.897 146.688L149.714 139.169C149.714 139.169 145.399 123.8 140.491 120.861C138.098 122.299 136.938 125.608 135.628 131.551C134.498 136.688 133.994 141.871 134.897 146.688Z" fill="#FF6B00"/>
<path d="M114.354 99.3243H114.323C114.256 99.3114 112.66 98.9813 112.153 98.1356C111.646 97.2898 114.966 93.966 115.995 92.9655C116.01 92.9513 116.027 92.9401 116.046 92.9325C116.065 92.9249 116.085 92.9212 116.105 92.9214C116.126 92.9216 116.146 92.9259 116.164 92.9339C116.183 92.9419 116.2 92.9535 116.214 92.9681C116.228 92.9826 116.239 92.9999 116.247 93.0188C116.255 93.0377 116.258 93.0579 116.258 93.0782C116.258 93.0986 116.254 93.1187 116.246 93.1374C116.238 93.1561 116.226 93.173 116.211 93.1873C114.189 95.1573 112.166 97.5476 112.421 97.9757C112.856 98.7028 114.369 99.0071 114.384 99.0071C114.421 99.0165 114.453 99.0386 114.474 99.0694C114.496 99.1002 114.505 99.1377 114.502 99.1751C114.498 99.2125 114.481 99.2474 114.454 99.2733C114.427 99.2992 114.391 99.3146 114.354 99.3165V99.3243Z" fill="#73382A"/>
<path d="M116.947 102.821C115.266 102.803 113.601 102.489 112.027 101.895C111.99 101.879 111.96 101.848 111.945 101.81C111.929 101.772 111.929 101.73 111.945 101.692C111.952 101.673 111.964 101.655 111.978 101.641C111.993 101.626 112.01 101.614 112.029 101.606C112.048 101.598 112.068 101.594 112.088 101.594C112.109 101.594 112.129 101.599 112.148 101.607C112.205 101.63 117.84 103.927 121.737 101.106C121.771 101.082 121.813 101.072 121.854 101.079C121.896 101.086 121.932 101.11 121.957 101.144C121.981 101.178 121.99 101.22 121.983 101.262C121.976 101.303 121.953 101.34 121.919 101.364C120.38 102.476 118.584 102.821 116.947 102.821Z" fill="#73382A"/>
<path d="M113.013 91.7048C112.871 92.3237 112.475 92.7594 112.13 92.6769C111.785 92.5944 111.615 92.0323 111.76 91.416C111.904 90.7997 112.297 90.3614 112.645 90.4413C112.992 90.5212 113.157 91.0885 113.013 91.7048Z" fill="#5C2D22"/>
<path d="M123.036 94.2833C122.82 94.9434 122.347 95.3792 121.976 95.258C121.605 95.1368 121.479 94.5025 121.693 93.8423C121.906 93.1822 122.385 92.7464 122.756 92.8676C123.126 92.9888 123.265 93.6232 123.036 94.2833Z" fill="#5C2D22"/>
<path d="M249.001 121.198C256.857 121.198 263.227 114.817 263.227 106.944C263.227 99.0716 256.857 92.6897 249.001 92.6897C241.144 92.6897 234.775 99.0716 234.775 106.944C234.775 114.817 241.144 121.198 249.001 121.198Z" fill="#0E0E0E"/>
<path d="M314.792 104.017L314.88 104.164C314.995 104.355 315.181 104.492 315.397 104.547C315.613 104.601 315.841 104.567 316.032 104.453L318.668 102.39C320.61 100.89 319.856 100.126 317.867 101.176L315.08 102.852C314.984 102.909 314.901 102.984 314.834 103.074C314.768 103.164 314.72 103.266 314.693 103.374C314.666 103.483 314.661 103.595 314.678 103.706C314.695 103.816 314.734 103.922 314.792 104.017Z" fill="#FFA88F"/>
<path d="M309.136 112.302C309.136 112.302 317.687 111.712 316.491 103.365C315.976 99.8582 306.454 104.265 306.454 104.265C306.454 104.265 307.687 98.721 305.641 99.2161C304.74 103.084 303.889 106.782 303.14 110.178C303.101 111.537 306.665 113.421 309.136 112.302Z" fill="#FFA88F"/>
<path d="M266.785 116.864C263.335 110.309 270.041 102.424 277.133 108.94L291.652 125.523L303.436 109.492C304.859 111.506 305.795 112.46 307.88 112.372C307.88 112.372 299.946 134.891 293.788 136.353C286.485 138.07 269.493 121.268 266.785 116.864Z" fill="#FFA88F"/>
<path d="M318.161 96.9547C318.243 96.011 316.956 95.2425 316.833 95.8382L310.446 94.2266C310.219 94.1823 309.985 94.2287 309.792 94.3561C309.599 94.4834 309.465 94.6813 309.416 94.9073L305.07 111.707C304.998 111.934 305.018 112.18 305.126 112.392C305.234 112.605 305.421 112.766 305.646 112.841L312.141 114.582C312.167 114.695 312.228 114.796 312.316 114.871C313.06 115.08 313.513 114.804 313.75 114.419C313.825 114.314 313.88 114.195 313.909 114.069C313.953 113.837 318.153 97.1713 318.161 96.9547Z" fill="black"/>
<path d="M312.247 114.848L304.784 112.865C304.551 112.788 304.358 112.622 304.246 112.404C304.133 112.185 304.111 111.931 304.185 111.696L308.67 94.42C308.72 94.1865 308.86 93.9822 309.059 93.8514C309.259 93.7206 309.502 93.6738 309.735 93.7212L317.067 95.5958C317.296 95.6661 317.488 95.8243 317.601 96.0358C317.715 96.2473 317.74 96.4951 317.672 96.7252L313.328 114.118C313.305 114.237 313.259 114.351 313.193 114.452C313.126 114.554 313.04 114.641 312.939 114.709C312.839 114.777 312.726 114.824 312.607 114.848C312.488 114.872 312.366 114.871 312.247 114.848Z" fill="black"/>
<path d="M312.383 114.747L312.286 114.729L304.823 112.738C304.618 112.669 304.449 112.522 304.353 112.329C304.257 112.136 304.24 111.912 304.308 111.707L308.786 94.4535C308.829 94.2511 308.95 94.0736 309.122 93.959C309.294 93.8443 309.504 93.8016 309.707 93.8398L317.041 95.7067H317.075C317.166 95.7356 317.251 95.7826 317.324 95.8451C317.397 95.9076 317.457 95.9842 317.499 96.0703C317.595 96.2563 317.618 96.4716 317.564 96.6737L313.215 114.084C313.179 114.277 313.076 114.45 312.923 114.572C312.77 114.694 312.578 114.756 312.383 114.747Z" fill="black"/>
<path d="M317.296 96.7149L312.955 114.064L304.555 111.833L309.03 94.5747L317.296 96.7149Z" fill="#AAE0FF"/>
<path d="M313.063 107.241C313.19 107.451 313.395 107.603 313.633 107.662C313.871 107.722 314.123 107.686 314.334 107.56L317.996 105.358C318.206 105.231 318.358 105.026 318.418 104.787C318.478 104.549 318.441 104.296 318.315 104.084C318.187 103.875 317.982 103.724 317.744 103.664C317.506 103.605 317.255 103.642 317.044 103.767L313.382 105.98C313.175 106.107 313.026 106.309 312.966 106.545C312.906 106.781 312.941 107.03 313.063 107.241Z" fill="#FFA88F"/>
<path d="M312.291 109.515C312.418 109.725 312.623 109.876 312.861 109.935C313.099 109.995 313.351 109.958 313.562 109.832L317.226 107.633C317.436 107.505 317.587 107.299 317.646 107.061C317.705 106.822 317.668 106.57 317.543 106.359C317.416 106.149 317.212 105.997 316.974 105.937C316.737 105.877 316.485 105.914 316.274 106.039L312.61 108.241C312.4 108.369 312.249 108.574 312.189 108.812C312.129 109.051 312.166 109.303 312.291 109.515Z" fill="#FFA88F"/>
<path d="M313.104 110.748C313.153 110.831 313.218 110.903 313.295 110.961C313.372 111.019 313.46 111.062 313.554 111.086C313.647 111.11 313.744 111.115 313.84 111.101C313.935 111.087 314.027 111.055 314.11 111.005L317.008 109.265C317.174 109.165 317.295 109.002 317.343 108.814C317.391 108.625 317.363 108.425 317.265 108.257C317.165 108.09 317.003 107.969 316.815 107.921C316.626 107.872 316.427 107.9 316.259 107.999L313.361 109.742C313.194 109.841 313.073 110.003 313.025 110.191C312.977 110.38 313.005 110.58 313.104 110.748Z" fill="#FFA88F"/>
<path d="M245.074 133.029C246.142 136.804 247.482 140.602 248.761 144.016C250.702 149.194 252.498 157.508 252.966 159.457L281.909 160.143C281.006 149.166 284.086 126.933 283.548 125.549C282.02 121.609 276.201 111.196 272.002 107.241C267.802 103.285 245.118 108.272 242.719 116.854C241.641 121.07 243.355 126.967 245.074 133.029Z" fill="#FF6B00"/>
<path d="M266.222 105.851C266.222 105.851 271.544 114.932 268.345 115.368C257.246 113.976 251.775 109.554 251.561 109.267C253.841 106.91 254.341 106.557 256.669 106.116C260.766 105.338 266.222 105.851 266.222 105.851Z" fill="#FFA88F"/>
<path d="M265.81 175.013C255.517 211.585 233.867 283.27 233.867 283.27L224.325 281.596L241.641 174.312C245.172 159.098 268.595 152.768 265.81 175.013Z" fill="#0E33CB"/>
<path d="M216.826 302.081C214.605 300.338 219.415 298.154 219.415 298.154L224.353 282.166L224.376 281.738H234.569L235.28 288.143L226.404 302.068L216.826 302.081Z" fill="#121D50"/>
<path d="M230.241 302.081L228.926 287.303L235.295 288.105L231.708 302.081H230.241Z" fill="#121D50"/>
<path d="M263.18 173.835C265.059 211.789 273.71 286.738 273.71 286.738L283.381 286.223L287.499 179.268C287.334 159.447 265.429 151.533 263.18 173.835Z" fill="#0E33CB"/>
<path d="M288.747 304.409C290.97 302.671 286.173 300.477 286.173 300.477L284.115 284.49L284.091 284.059L273.898 284.033L273.173 290.436L279.166 304.386L288.747 304.409Z" fill="#121D50"/>
<path d="M275.329 304.376L279.531 289.608L273.16 290.395L273.865 304.371L275.329 304.376Z" fill="#121D50"/>
<path d="M252.308 154.973C252.308 154.973 241.896 161.793 241.139 177.484C253.038 179.611 287.131 182.731 287.131 182.731C287.859 171.713 286.101 161.623 281.693 155.274C257.627 154.117 252.308 154.973 252.308 154.973Z" fill="#0E33CB"/>
<path d="M260.555 93.0688L261.008 95.5752L262.64 104.577L263.196 107.643C263.005 110.964 254.395 111.408 251.947 109.123C251.917 108.525 251.829 107.13 251.726 105.454C251.533 102.31 251.273 98.177 251.173 96.4287L251.15 95.9723L254.848 94.83L260.555 93.0688Z" fill="#FFA88F"/>
<path d="M261.008 95.5752L262.712 104.969C254.559 105.485 251.407 98.4271 251.407 98.4271L251.463 97.7206C253.902 96.8366 256.395 96.1088 258.926 95.5417C259.615 95.4106 260.324 95.422 261.008 95.5752Z" fill="#FC8968"/>
<path d="M268.878 84.4513C271.693 91.5243 268.909 98.8217 265.424 100.395C259.75 102.955 250.756 99.8789 247.941 92.811C245.125 85.7431 247.534 78.1312 253.314 75.8104C259.094 73.4897 266.065 77.3756 268.878 84.4513Z" fill="#FFA88F"/>
<path d="M262.635 76.3262C262.635 76.3262 251.896 82.721 251.229 100.013C242.346 92.9013 240.13 85.4904 244.724 78.8093C248.846 72.8141 257.38 72.3835 262.635 76.3262Z" fill="#0E0E0E"/>
<path d="M261.847 76.8598C261.847 76.8598 265.707 77.5689 268.795 84.25C267.192 78.2677 260.334 67.9585 248.774 75.1399C237.215 82.3212 261.847 76.8598 261.847 76.8598Z" fill="#0E0E0E"/>
<path d="M254.323 91.5398C254.576 92.0034 254.686 92.5319 254.639 93.0582C254.592 93.5845 254.39 94.085 254.059 94.4963C253.727 94.9075 253.282 95.211 252.778 95.3683C252.275 95.5255 251.736 95.5295 251.23 95.3796C250.725 95.2298 250.275 94.9329 249.938 94.5265C249.6 94.1202 249.391 93.6227 249.337 93.0971C249.282 92.5716 249.384 92.0415 249.63 91.5742C249.877 91.107 250.256 90.7234 250.72 90.4723C251.339 90.1363 252.066 90.06 252.741 90.2601C253.417 90.4602 253.985 90.9204 254.323 91.5398Z" fill="#FFA88F"/>
<path d="M264.765 91.0445C264.737 91.04 264.71 91.0264 264.69 91.0058C264.669 90.9851 264.656 90.9585 264.652 90.9297C264.647 90.901 264.652 90.8716 264.666 90.8459C264.679 90.8201 264.701 90.7994 264.727 90.7866C264.727 90.7866 266.013 90.3973 266.338 89.7346C266.349 89.7135 266.355 89.69 266.355 89.6662C266.355 89.6424 266.349 89.619 266.338 89.5979C266.119 89.0822 264.364 88.4298 263.708 88.2209C263.674 88.2103 263.645 88.1866 263.628 88.1549C263.612 88.1232 263.608 88.0862 263.619 88.052C263.63 88.0179 263.653 87.9893 263.685 87.9726C263.716 87.9559 263.753 87.9525 263.788 87.9631C264.045 88.043 266.279 88.7753 266.585 89.4922C266.612 89.5486 266.625 89.6102 266.625 89.6727C266.625 89.7351 266.612 89.7968 266.585 89.8532C266.212 90.6267 264.863 91.029 264.804 91.0471L264.765 91.0445Z" fill="#73382A"/>
<path d="M259.065 94.0151C265.88 95.3276 267.243 93.1719 267.243 93.1719C267.243 93.1719 266.438 97.3337 262.815 97.4317C260.234 97.4987 259.065 94.0151 259.065 94.0151Z" fill="#F27550"/>
<path d="M265.337 84.3688C265.509 84.8845 265.885 85.2352 266.176 85.1424C266.466 85.0495 266.567 84.5441 266.397 84.0233C266.227 83.5024 265.851 83.1569 265.558 83.2497C265.265 83.3425 265.167 83.8479 265.337 84.3688Z" fill="#5C2D22"/>
<path d="M256.911 87.5197C257.148 88.0715 257.591 88.4118 257.902 88.2778C258.214 88.1437 258.27 87.5867 258.033 87.0349C257.797 86.4831 257.351 86.1453 257.043 86.2794C256.734 86.4134 256.672 86.9678 256.911 87.5197Z" fill="#5C2D22"/>
<path d="M242.012 90.9518C240.725 86.955 238.257 76.5556 247.071 72.2184C254.907 68.3634 261.7 72.2932 265.084 75.0755C266.327 75.0497 269.433 73.5876 270.126 74.1627C270.332 74.5443 270.342 75.3462 267.256 77.2569L267.28 77.2853C255.751 82.0299 246.113 87.1871 242.802 93.7109C242.444 93.9622 242.049 94.1554 241.631 94.2833C241.224 94.3452 241.932 92.5711 242.012 90.9518Z" fill="#FFB655"/>
<path d="M256.976 79.2941C256.976 79.2941 251.636 71.0426 243.108 74.9956L242.869 74.6449C244.223 73.4636 245.711 72.4458 247.302 71.6125C250.051 70.6688 256.791 70.6095 261.765 76.829C259.997 78.1621 256.976 79.2941 256.976 79.2941Z" fill="#FFDD69"/>
<path d="M264.963 140.623C270.11 142.57 285.435 115.575 288.029 110.497C290.803 103.161 267.071 128.009 266.564 127.426C264.261 124.161 257.845 117.483 255.55 115.224C251.175 110.925 240.187 118.38 244.402 125.177C244.402 125.177 256.708 138.449 264.963 140.623Z" fill="#FFA88F"/>
<path d="M285.558 114.334L282.663 113.664L285.17 105.637C285.898 105.376 286.666 105.246 287.439 105.252C288.333 105.29 289.21 105.514 290.013 105.91C290.013 105.91 290.934 108.842 290.996 109.316C291.454 112.857 285.558 114.334 285.558 114.334Z" fill="#FFA88F"/>
<path d="M284.308 108.393C284.308 108.228 287.074 99.1799 287.074 99.1799C287.074 99.1799 287.846 99.5461 287.905 100.985C287.964 102.424 287.185 108.414 287.187 108.398L284.308 108.393Z" fill="#FFA88F"/>
<path d="M290.242 106.952C289.587 106.629 288.857 106.488 288.129 106.542L288.103 106.385C288.863 106.318 289.626 106.464 290.309 106.805L290.242 106.952Z" fill="#E6836F"/>
<path d="M290.566 108.043C289.911 107.72 289.181 107.579 288.453 107.635L288.428 107.475C289.187 107.409 289.951 107.554 290.633 107.896L290.566 108.043Z" fill="#E6836F"/>
<path d="M290.893 109.44C290.238 109.117 289.508 108.977 288.78 109.033L288.755 108.873C289.514 108.81 290.276 108.955 290.96 109.293L290.893 109.44Z" fill="#E6836F"/>
<path d="M212.778 167.848L171.815 168.657L172.25 110.99C177.525 102.646 207.979 104.355 212.358 110.972L212.778 167.848Z" fill="#FF6B00"/>
<path d="M163.088 283.726L162.769 294.017L174.576 297.331L176.393 285.255L163.088 283.726Z" fill="#F7A58E"/>
<path d="M175.883 304.409L175.075 293.927C175.075 293.927 169.337 296.694 167.412 295.144C166.815 290.15 160.934 289.513 157.924 294.211L149.882 298.166L152.499 304.409H175.883Z" fill="#DE7C44"/>
<path d="M158.806 304.409C157.52 300.516 154.987 297.854 152.1 297.854C148.767 297.854 146.099 300.046 145.216 304.409H158.806Z" fill="#B36132"/>
<path d="M223.071 283.726L223.388 294.017L211.581 297.331L209.767 285.255L223.071 283.726Z" fill="#F7A58E"/>
<path d="M210.276 304.409L211.085 293.927C211.085 293.927 216.821 296.694 218.748 295.144C219.343 290.15 225.225 289.513 228.234 294.211L236.278 298.166L233.663 304.409H210.276Z" fill="#DE7C44"/>
<path d="M227.354 304.409C228.64 300.516 231.17 297.854 234.06 297.854C237.39 297.854 240.061 300.046 240.941 304.409H227.354Z" fill="#B36132"/>
<path d="M200.096 112.4C199.095 118.249 185.919 118.249 184.378 112.4L185.091 102.976L185.299 100.201H199.18L199.515 104.69L200.096 112.4Z" fill="#F7A58E"/>
<path d="M199.579 104.6C193.372 108.424 188.138 105.503 185.168 102.878L185.376 100.106H199.25L199.579 104.6Z" fill="#DE8A73"/>
<path d="M184.391 107.999C185.59 112.14 188.663 113.483 192.6 115.291C196.004 113.581 198.189 111.978 199.87 107.999L201.627 110.348C201.627 110.348 202.098 119.512 192.482 119.512C182.129 119.512 182.515 112.112 182.515 112.112L184.391 107.999Z" fill="#FF6B00"/>
<path d="M224.026 289.353L209.643 290.289L192.448 196.243L177.023 290.289L163.083 289.353C161.616 249.024 168.42 179.446 171.218 148.152C171.442 145.633 171.686 143.364 171.949 141.376L174.265 135.445L179.27 122.74L204.152 122.594L209.53 135.448L212.497 142.541C212.824 143.573 213.138 145.772 213.437 148.9C215.704 172.873 225.732 251.765 224.026 289.353Z" fill="#0E33CB"/>
<path d="M213.437 148.908C194.489 143.075 177.409 146.45 171.218 148.152C171.442 145.633 171.686 143.364 171.948 141.376L174.265 135.445H209.52L212.487 142.539C212.819 143.591 213.138 145.78 213.437 148.908Z" fill="#121D50"/>
<path d="M178.608 150.832H206.324C206.324 150.832 211.643 169.861 192.685 169.861C173.727 169.861 178.608 150.832 178.608 150.832Z" fill="#121D50"/>
<path d="M177.659 106.892L179.561 125.533L183.161 125.27L181.375 106.307L177.659 106.892Z" fill="#0E33CB"/>
<path d="M205.789 106.892L203.887 125.533L200.287 125.27L202.075 106.307L205.789 106.892Z" fill="#0E33CB"/>
<path d="M162.617 283.68L178.315 284.902C178.315 284.902 179.18 285.008 178.892 287.77C178.603 290.531 177.911 290.957 177.911 290.957L162.213 289.894C161.233 288.886 161.928 284.912 162.617 283.68Z" fill="#0F4CA8"/>
<path d="M224.567 284.454L208.869 285.676C208.869 285.676 208.002 285.782 208.292 288.546C208.583 291.31 209.273 291.733 209.273 291.733L224.971 290.671C225.943 289.66 225.256 285.689 224.567 284.454Z" fill="#0F4CA8"/>
<path d="M204.26 136.5C202.579 137.297 200.896 138.032 199.226 138.705C195.167 140.347 190.986 141.671 186.722 142.665C175.384 145.27 166.47 144.47 165.255 140.249C163.454 134.004 165.729 113.896 173.93 109.36C176.465 112.857 176.341 117.581 176.053 121.722C175.091 125.964 174.576 130.278 174.174 132.885C175.456 132.376 176.779 131.981 178.13 131.704C184.73 130.244 195.292 129.662 202.32 131.049C205.022 131.58 204.937 135.737 204.26 136.5Z" fill="#F7A58E"/>
<path d="M199.437 138.186C199.419 138.375 199.347 138.554 199.229 138.702C195.169 140.344 190.989 141.668 186.725 142.663L186.689 142.614C183.171 137.583 174.177 132.882 174.177 132.882C175.399 132.217 176.746 131.815 178.132 131.701C186.658 130.791 199.324 137.16 199.437 138.186Z" fill="#DE7F64"/>
<path d="M217.346 141.642C214.88 150.063 192.677 141.881 178.258 133.506C177.945 131.701 177.775 130.329 179.936 128.924C189.715 128.053 204.787 131.554 208.714 132.534C209.309 132.681 209.649 132.771 209.677 132.776C209.633 132.704 208.521 130.853 207.86 127.029C207.651 125.798 207.512 124.557 207.443 123.311C206.247 116.846 209.409 111.939 211.321 109.827C215.781 112.506 219.569 134.05 217.346 141.642Z" fill="#F7A58E"/>
<path d="M176.318 107.813C167.617 111.346 165.968 119.695 165.968 119.695L175.747 124.853C175.747 124.853 179.27 115.157 176.318 107.813Z" fill="#FF6B00"/>
<path d="M209.798 108.919C203.439 113.604 207.158 125.989 207.158 125.989L218.39 120.035L218.493 119.883C218.493 119.883 215.091 111.266 209.798 108.919Z" fill="#FF6B00"/>
<path d="M179.936 128.929C179.936 128.929 176.205 128.413 174.627 129.834C174.394 130.838 174.243 131.859 174.174 132.887C174.174 132.887 176.771 132.49 178.292 133.627C179.813 134.764 183.763 128.872 179.936 128.929Z" fill="#F7A58E"/>
<path d="M210.109 133.07C211.101 132.69 212.073 132.259 213.022 131.781C213.913 131.312 213.635 130.278 213.226 130.567L209.932 131.559C209.932 131.559 210.786 130.438 211.03 129.6C211.071 129.499 211.089 129.391 211.084 129.282C211.078 129.174 211.048 129.068 210.997 128.972C210.946 128.877 210.875 128.793 210.788 128.728C210.701 128.663 210.601 128.618 210.495 128.597L208.074 130.809C208.395 130.2 209.139 127.859 207.742 127.833C207.453 129.288 206.275 130.842 205.683 131.84C206.967 132.16 208.73 132.49 210.109 133.07Z" fill="#F7A58E"/>
<path d="M210.138 133.145L210.084 132.993C211.071 132.612 212.039 132.182 212.984 131.704C213.14 131.635 213.274 131.524 213.37 131.384C213.467 131.243 213.522 131.078 213.529 130.907C213.536 130.851 213.529 130.793 213.507 130.741C213.486 130.688 213.452 130.641 213.408 130.605C213.386 130.596 213.361 130.593 213.337 130.597C213.313 130.601 213.29 130.612 213.272 130.628H213.249L209.716 131.693L209.867 131.495C209.867 131.482 210.717 130.373 210.953 129.561C210.989 129.465 211.005 129.363 210.998 129.26C210.991 129.158 210.963 129.058 210.915 128.968C210.822 128.824 210.68 128.718 210.516 128.671L207.783 131.17L208.002 130.757C208.259 130.273 208.715 128.854 208.339 128.212C208.283 128.12 208.206 128.043 208.112 127.989C208.019 127.935 207.914 127.905 207.806 127.903C207.549 129.056 206.79 130.239 206.167 131.196C206.01 131.438 205.863 131.665 205.74 131.866L205.601 131.781C205.724 131.577 205.858 131.35 206.03 131.106C206.658 130.144 207.436 128.945 207.662 127.802V127.735H207.731C207.878 127.727 208.023 127.76 208.153 127.829C208.282 127.898 208.39 128.001 208.465 128.127C208.815 128.725 208.534 129.837 208.29 130.474L210.457 128.491H210.498C210.722 128.544 210.917 128.682 211.043 128.875C211.102 128.985 211.137 129.106 211.146 129.231C211.155 129.355 211.137 129.48 211.095 129.597C210.86 130.237 210.534 130.84 210.127 131.387L213.19 130.476C213.231 130.445 213.281 130.426 213.333 130.421C213.384 130.417 213.437 130.427 213.483 130.451C213.555 130.499 213.612 130.566 213.648 130.645C213.685 130.723 213.7 130.81 213.691 130.897C213.685 131.097 213.622 131.292 213.51 131.458C213.398 131.625 213.241 131.756 213.058 131.838C212.108 132.324 211.133 132.76 210.138 133.145Z" fill="#DE7F64"/>
<path d="M210.989 133.537C195.111 128.155 180.091 128.996 179.941 129.006V128.844C180.091 128.844 195.145 127.993 211.051 133.382L210.989 133.537Z" fill="#F7F1F0"/>
<path d="M174.329 132.709L174.167 132.689C174.167 132.671 174.404 130.822 174.648 128.999C175.163 125.239 175.199 125.239 175.299 125.239V125.319L175.363 125.366C175.248 125.59 174.687 129.881 174.329 132.709Z" fill="#DE7F64"/>
<path d="M205.047 89.1596C204.533 96.5834 199.401 104.286 192.438 104.788C187.425 104.922 180.052 96.8618 179.828 89.1596C177.983 65.496 206.9 65.5089 205.047 89.1596Z" fill="#F7A58E"/>
<path d="M181.009 92.2899C180.81 92.3861 180.592 92.4346 180.371 92.4318C179.414 92.4472 178.39 91.6582 177.885 90.3689C177.26 88.8217 177.646 87.1534 178.75 86.6428C179.074 86.5024 179.434 86.4681 179.779 86.5449C180.603 86.715 181.442 87.4499 181.882 88.5561C182.499 90.1213 182.116 91.7794 181.009 92.2899Z" fill="#F7A58E"/>
<path d="M206.777 90.3769C206.311 91.5399 205.421 92.2902 204.556 92.4037C204.249 92.4582 203.934 92.4187 203.65 92.2902C203.053 92.0324 202.667 91.3851 202.546 90.6193C202.428 89.9401 202.507 89.2413 202.772 88.6054C202.772 88.5925 202.772 88.5771 202.772 88.5642C203.251 87.3729 204.183 86.5941 205.089 86.5245C205.369 86.4957 205.653 86.5392 205.912 86.6509C207.016 87.1563 207.415 88.8195 206.777 90.3769Z" fill="#F7A58E"/>
<path d="M179.774 86.5527C178.562 84.5878 178.279 80.8334 178.647 75.8258C178.647 75.8258 181.195 69.8435 192.42 69.8435C203.645 69.8435 206.157 76.2719 206.157 76.2719C206.203 80.4595 206.303 84.758 205.101 86.5244C204.412 86.9292 203.995 87.7492 203.583 88.5743C203.88 85.62 203.712 82.6373 203.086 79.7349C203.086 79.7349 201.416 76.5427 191.861 76.5427C182.306 76.5427 181.424 79.9722 181.424 79.9722C181.066 83.4739 181.017 86.4032 181.534 88.2829C181.326 87.6383 181.043 87.0014 179.774 86.5527Z" fill="#231F20"/>
<path d="M207.055 82.3031L177.852 81.9344C177.826 81.3809 177.819 80.8402 177.831 80.3125C178.04 69.944 185.07 65.0086 192.366 65.1968C204.584 65.5114 206.671 75.8954 207.003 80.3279C207.059 80.9848 207.076 81.6443 207.055 82.3031Z" fill="#FFDD69"/>
<path d="M194.386 80.9083H189.337L190.001 64.6143H193.722L194.386 80.9083Z" fill="#FFE99E"/>
<path d="M207.055 82.3031L177.852 81.9343C177.826 81.3808 177.819 80.8402 177.831 80.3124C187.27 78.1464 196.998 78.1722 207.003 80.3279C207.059 80.9847 207.076 81.6442 207.055 82.3031Z" fill="#E8A64D"/>
<path d="M176.439 81.1326C186.761 78.5179 197.428 78.554 208.431 81.1326C208.431 81.1326 210.192 84.562 191.818 84.562C175.963 84.562 176.439 81.1326 176.439 81.1326Z" fill="#FFDD69"/>
<path d="M193.997 93.8837H193.971C193.915 93.9043 192.572 94.3788 191.812 93.974C191.053 93.5691 192.047 89.5904 192.366 88.3656C192.38 88.3379 192.403 88.3159 192.432 88.3033C192.46 88.2908 192.492 88.2883 192.522 88.2965C192.552 88.3046 192.579 88.3228 192.597 88.348C192.615 88.3733 192.625 88.404 192.623 88.4352C191.993 90.8229 191.55 93.5279 191.933 93.7316C192.587 94.0797 193.861 93.631 193.874 93.6284C193.905 93.6182 193.939 93.6198 193.97 93.633C194 93.6461 194.025 93.6699 194.039 93.6999C194.053 93.7299 194.056 93.7641 194.047 93.796C194.038 93.8279 194.017 93.8554 193.989 93.8734L193.997 93.8837Z" fill="#73382A"/>
<path d="M192.603 98.4271C191.133 98.4104 189.678 98.1364 188.302 97.6175C188.286 97.6107 188.271 97.6007 188.258 97.588C188.246 97.5754 188.236 97.5603 188.229 97.5437C188.222 97.5271 188.219 97.5094 188.219 97.4915C188.219 97.4736 188.223 97.4559 188.23 97.4395C188.244 97.4061 188.27 97.3794 188.304 97.3654C188.337 97.3514 188.374 97.3511 188.408 97.3648C188.457 97.3854 193.382 99.3941 196.787 96.929C196.801 96.9158 196.818 96.9057 196.836 96.8994C196.854 96.8932 196.874 96.8909 196.893 96.8927C196.912 96.8945 196.931 96.9004 196.948 96.91C196.964 96.9195 196.979 96.9326 196.99 96.9482C197.002 96.9638 197.01 96.9817 197.014 97.0007C197.018 97.0196 197.017 97.0392 197.013 97.0581C197.009 97.077 197.001 97.0948 196.989 97.1103C196.978 97.1258 196.963 97.1387 196.946 97.1482C195.67 98.024 194.149 98.4718 192.603 98.4271Z" fill="#73382A"/>
<path d="M186.725 87.8343C186.779 88.5795 186.486 89.2087 186.066 89.2371C185.647 89.2654 185.266 88.6904 185.212 87.9478C185.158 87.2052 185.451 86.5734 185.871 86.5425C186.29 86.5115 186.671 87.0865 186.725 87.8343Z" fill="#231F20"/>
<path d="M199.615 88.1875C199.538 88.9301 199.136 89.4974 198.719 89.4535C198.303 89.4097 198.027 88.7728 198.104 88.0302C198.182 87.2875 198.583 86.7203 199 86.7641C199.417 86.8079 199.695 87.4552 199.615 88.1875Z" fill="#231F20"/>
<path d="M185.008 100.526C185.008 100.526 187.839 104.734 192.296 106.158C197.615 104.451 199.543 101.503 199.543 101.503C199.543 101.503 195.397 103.726 192.155 103.742C188.493 103.757 185.008 100.526 185.008 100.526Z" fill="#231F20"/>
<path d="M176.125 303.254H147.087V304.456H176.125V303.254Z" fill="#B36132"/>
<path d="M238.962 303.233H209.924V304.435H238.962V303.233Z" fill="#B36132"/>
<path d="M177.685 80.6091C177.525 80.6091 177.229 67.822 189.198 65.4136C185.577 66.5404 179.478 71.401 180.212 78.6004C180.361 80.0702 183.781 79.1161 183.781 79.1161L177.685 80.6091Z" fill="#FFDD69"/>
<path d="M552.46 304.92H0V306H552.46C552.534 306.005 552.608 305.995 552.677 305.97C552.747 305.946 552.811 305.907 552.866 305.856C552.92 305.805 552.963 305.744 552.992 305.676C553.022 305.608 553.037 305.534 553.037 305.46C553.037 305.386 553.022 305.312 552.992 305.244C552.963 305.176 552.92 305.115 552.866 305.064C552.811 305.013 552.747 304.974 552.677 304.95C552.608 304.925 552.534 304.915 552.46 304.92Z" fill="#0D0D0D"/>
</g>
<defs>
<clipPath id="clip0">
<rect width="553" height="306" fill="white"/>
</clipPath>
</defs>
</svg>
