<svg width="181" height="122" viewBox="0 0 181 122" fill="none" xmlns="http://www.w3.org/2000/svg">
<path d="M180.07 0.0400391H0.949951V121.19H180.07V0.0400391Z" fill="#FF6B00"/>
<path d="M1 0L85 76.75C86.5001 78.1281 88.463 78.8928 90.5 78.8928C92.537 78.8928 94.4999 78.1281 96 76.75L180.07 0H1Z" fill="#FEF6F4"/>
<path d="M180.07 121.19L90.51 27.7197L180.07 113.23V121.19Z" fill="#FEF6F4"/>
<path d="M0.949951 121.19L90.51 27.7197L0.949951 113.23V121.19Z" fill="#FEF6F4"/>
<path d="M1 0L83.73 70C85.6239 71.6022 88.0243 72.4813 90.505 72.4813C92.9857 72.4813 95.3861 71.6022 97.28 70L180.07 0H1Z" fill="#FF6B00"/>
</svg>
