<svg width="278" height="94" viewBox="0 0 278 94" fill="none" xmlns="http://www.w3.org/2000/svg">
<g clip-path="url(#clip0)">
<path d="M63.7671 31.7561C63.7671 31.7561 56.834 28.7355 56.3882 26.5121C55.9423 24.2887 52.3866 25.5801 52.3866 25.5801C52.3866 25.5801 48.8309 24.2775 48.3962 26.5121C47.9615 28.7467 41.0061 31.7561 41.0061 31.7561C42.3994 33.8785 51.7178 41.8063 52.4535 41.8625H52.565C53.3006 41.8063 62.3738 33.8785 63.7671 31.7561Z" fill="#DABC73"/>
<path d="M76.92 51.3513C76.92 51.093 76.92 50.8348 76.8531 50.599C75.9948 42.2556 75.8388 40.8744 72.6955 37.1239C69.5522 33.3733 63.5666 31.1387 63.5666 31.1387C62.4027 33.066 60.7507 34.6466 58.7801 35.7182C56.8094 36.7898 54.5913 37.3137 52.3532 37.2362C50.1152 37.3137 47.897 36.7898 45.9264 35.7182C43.9558 34.6466 42.3038 33.066 41.1399 31.1387C41.1399 31.1387 35.1654 33.3845 32.0221 37.1239C28.8789 40.8632 28.6782 42.2556 27.8645 50.599C27.8645 50.8348 27.8088 51.093 27.7865 51.3513H36.0237L36.4027 54.5292L68.2481 54.8661L69.0729 51.4075L76.92 51.3513Z" fill="#EC9C4C"/>
<path d="M76.853 50.599C75.9947 42.2556 75.8387 40.8744 72.6954 37.1239C69.5521 33.3733 63.5665 31.1387 63.5665 31.1387C62.4347 33.0056 60.8439 34.5468 58.9479 35.613C57.0518 36.6792 54.9147 37.2344 52.7433 37.2249V54.6527L68.248 54.8099L69.0728 51.3513H76.8753C76.8976 51.093 76.8753 50.8348 76.853 50.599Z" fill="#FF8700"/>
<path d="M58.1605 29.1964C57.6729 28.7563 57.2355 28.2628 56.8563 27.7251C56.4996 27.1298 49.2656 28.6236 49.2656 28.6236C49.2656 28.6236 51.4949 31.2855 53.1669 31.0271C56.9121 30.4656 58.1605 29.1964 58.1605 29.1964Z" fill="#CFA848"/>
<path d="M68.0363 70.2726L69.006 53.9565H52.1526L51.7513 70.2726H68.0363Z" fill="#0E33CB"/>
<path d="M52.6987 70.2726L52.7321 53.9565H35.7561L36.8485 70.2726H52.6987Z" fill="#1F45E4"/>
<path d="M52.3867 30.3189C52.3867 30.3189 45.8215 28.9152 43.9711 23.7049C42.8388 20.2055 42.5035 16.494 42.9903 12.8462H52.4313L52.3867 30.3189Z" fill="#E6D590"/>
<path d="M52.3867 30.3189C52.3867 30.3189 58.9631 28.9377 60.8469 23.7273C61.9781 20.2198 62.3059 16.4996 61.8055 12.8462H52.3867V30.3189Z" fill="#DABC73"/>
<path d="M64.2354 11.4763C64.0347 9.73575 62.7417 3.36877 57.2354 1.30259V1.03309C55.6827 0.546305 54.0898 0.200561 52.4759 0C50.8621 0.201738 49.2694 0.54746 47.7163 1.03309V1.30259C42.21 3.36877 40.9616 9.73575 40.7164 11.4763H40.1256V14.6654H64.8596V11.4763H64.2354Z" fill="#EC9C4C"/>
<path d="M64.2353 11.4763C64.0347 9.73575 62.7417 3.36877 57.2354 1.30259V1.03309C55.6826 0.546305 54.0898 0.200561 52.4758 0V0V14.6654H64.8595V11.4763H64.2353Z" fill="#FF8700"/>
<path d="M47.7163 1.30273C47.7163 1.30273 46.4456 2.93097 49.1765 10.2861C48.9201 11.0609 47.9838 10.4097 47.8166 10.1289C46.5044 7.89225 45.5561 5.4584 45.0077 2.91975C45.7448 2.13883 46.6824 1.5791 47.7163 1.30273Z" fill="#ECCF7F"/>
<path d="M57.2242 1.30273C57.2242 1.30273 58.4949 2.93097 55.764 10.2861C56.0204 11.0609 56.9567 10.4097 57.1239 10.1289C58.4417 7.89502 59.3903 5.46023 59.9328 2.91975C59.1957 2.13883 58.2581 1.5791 57.2242 1.30273Z" fill="#EC9C4C"/>
<g style="mix-blend-mode:multiply" opacity="0.5">
<path d="M40.1256 11.4763H64.8484V12.8466L40.1256 12.6893V11.4763Z" fill="#FF8700"/>
</g>
<path d="M44.2497 55.2591H40.9281V30.2965L44.2497 29.4094V55.2591Z" fill="#1F45E4"/>
<path d="M60.4456 55.2591H63.7672V30.2965L60.4456 29.4094V55.2591Z" fill="#0E33CB"/>
<path d="M66.0968 45.5571H38.9106V56.7752H66.0968V45.5571Z" fill="#1F45E4"/>
<path d="M66.0856 45.5571H52.7322V56.7752H66.0856V45.5571Z" fill="#0E33CB"/>
<path d="M43.5248 48.1848C43.4995 48.4187 43.3894 48.6349 43.2156 48.792C43.0418 48.949 42.8166 49.0359 42.5831 49.0359C42.3497 49.0359 42.1244 48.949 41.9506 48.792C41.7768 48.6349 41.6667 48.4187 41.6414 48.1848C41.627 48.0515 41.6406 47.9167 41.6814 47.7891C41.7222 47.6614 41.7891 47.5439 41.878 47.4441C41.9668 47.3443 42.0755 47.2645 42.197 47.2098C42.3185 47.1552 42.4501 47.127 42.5831 47.127C42.7162 47.127 42.8477 47.1552 42.9692 47.2098C43.0907 47.2645 43.1994 47.3443 43.2883 47.4441C43.3771 47.5439 43.4441 47.6614 43.4849 47.7891C43.5256 47.9167 43.5392 48.0515 43.5248 48.1848Z" fill="#E8D792"/>
<path d="M63.2764 48.1848C63.2511 48.4187 63.141 48.6349 62.9672 48.792C62.7934 48.949 62.5682 49.0359 62.3347 49.0359C62.1012 49.0359 61.876 48.949 61.7022 48.792C61.5284 48.6349 61.4183 48.4187 61.393 48.1848C61.3786 48.0515 61.3922 47.9167 61.433 47.7891C61.4737 47.6614 61.5407 47.5439 61.6296 47.4441C61.7184 47.3443 61.8271 47.2645 61.9486 47.2098C62.0701 47.1552 62.2017 47.127 62.3347 47.127C62.4678 47.127 62.5993 47.1552 62.7208 47.2098C62.8423 47.2645 62.951 47.3443 63.0399 47.4441C63.1287 47.5439 63.1957 47.6614 63.2364 47.7891C63.2772 47.9167 63.2908 48.0515 63.2764 48.1848Z" fill="#DABC73"/>
<path d="M60.9806 64.3885V57.7744C60.5045 57.4618 59.9625 57.2657 59.3978 57.2017C54.6383 56.629 50.7593 56.3932 47.1367 57.3814C46.571 57.5161 46.0159 57.6925 45.4759 57.9092L44.3613 63.4452C45.0858 64.0291 45.9106 64.5681 45.0301 66.0055C43.9154 67.8807 43.6479 73.428 43.6479 73.428C42.1654 74.652 43.7371 75.2134 45.0858 75.4043C46.2004 75.584 49.1319 75.5279 47.6606 74.1804C47.6606 74.1804 50.3135 69.6887 50.2466 67.3081C51.4281 65.4665 55.0061 66.8364 57.6367 66.1851C58.7736 65.9409 59.8672 65.5244 60.8803 64.9499V64.7141H51.9408V64.3772L60.9806 64.3885ZM48.4297 60.3235L48.0173 60.2449L48.4409 57.999L48.8421 58.0776L48.4297 60.3235ZM49.4775 60.3235L49.0651 60.2449L49.4886 57.999L49.8899 58.0776L49.4775 60.3235ZM50.5252 60.3235L50.1128 60.2449L50.5364 57.999L50.9377 58.0776L50.5252 60.3235ZM51.573 60.3235L51.1606 60.2449L51.573 57.999L51.9854 58.0776L51.573 60.3235Z" fill="#FF8700"/>
<path d="M104.953 76.2353C104.953 75.4124 104.792 74.5976 104.48 73.8374C104.167 73.0772 103.709 72.3865 103.131 71.8046C102.554 71.2228 101.868 70.7612 101.114 70.4463C100.359 70.1314 99.5502 69.9694 98.7335 69.9694C98.4699 69.9523 98.2056 69.9523 97.9421 69.9694H11.925V82.4339H98.7892C100.418 82.4192 101.975 81.7618 103.128 80.6029C104.28 79.4439 104.936 77.8757 104.953 76.2353Z" fill="#2E2E2E"/>
<path d="M93.5281 91.945L103.571 80.1655L87.9215 77.9309L80.1301 85.6791L93.5281 91.945Z" fill="#2E2E2E"/>
<path d="M87.4533 81.5356H0.5L11.156 69.947H98.1093L87.4533 81.5356Z" fill="#0B132B"/>
<path d="M11.4569 81.1763H1.82642L11.8248 70.3064H21.4553L11.4569 81.1763Z" fill="#6D747A"/>
<path d="M22.2356 81.1763H12.6162L22.6146 70.3064H32.2339L22.2356 81.1763Z" fill="#6D747A"/>
<path d="M33.0253 81.1763H23.4059L33.4042 70.3064H43.0236L33.0253 81.1763Z" fill="#6D747A"/>
<path d="M43.8151 81.1763H34.1846L44.1829 70.3064H53.8134L43.8151 81.1763Z" fill="#6D747A"/>
<path d="M54.5936 81.1763H44.9742L54.9726 70.3064H64.592L54.5936 81.1763Z" fill="#6D747A"/>
<path d="M65.3834 81.1763H55.764L65.7624 70.3064H75.3818L65.3834 81.1763Z" fill="#6D747A"/>
<path d="M76.1731 81.1763H66.5426L76.541 70.3064H86.1715L76.1731 81.1763Z" fill="#6D747A"/>
<path d="M86.9518 81.1763H77.3324L87.3307 70.3064H96.9501L86.9518 81.1763Z" fill="#6D747A"/>
<path d="M95.0886 87.7453C95.0886 86.0835 94.4333 84.4897 93.2669 83.3146C92.1005 82.1396 90.5185 81.4794 88.8689 81.4794C88.6091 81.4623 88.3485 81.4623 88.0887 81.4794H0.5V93.9439H88.9358C90.5631 93.9292 92.1197 93.2715 93.2704 92.1122C94.4212 90.9529 95.0741 89.3847 95.0886 87.7453Z" fill="#0B132B"/>
<path d="M88.8354 81.1763L98.3099 70.5422C99.6587 70.5793 100.959 71.0572 102.015 71.9039C103.07 72.7506 103.824 73.9201 104.162 75.2361C101.509 78.2118 94.2526 86.9145 94.2526 86.9145C94.2526 86.9145 94.5424 81.8725 88.8354 81.1763Z" fill="#666666"/>
<path d="M104.162 76.0557L94.2414 88.1271C94.3566 89.3504 94.161 90.5831 93.673 91.7092C98.1315 86.4764 103.348 80.48 103.348 80.48C103.905 79.0734 104.182 77.57 104.162 76.0557Z" fill="#666666"/>
<path d="M42.7339 75.1572C42.7339 75.1572 48.151 77.6838 49.5555 74.2701C50.9599 70.8564 51.3278 68.8913 45.0858 67.3753C38.8437 65.8594 42.7339 75.1572 42.7339 75.1572Z" fill="#E8D792"/>
<path d="M43.3692 75.4156C43.3692 75.4156 35.054 71.7548 34.1065 71.4292C30.1495 70.1041 26.5938 67.2519 26.7722 64.1301C26.9773 59.0997 27.5098 54.0881 28.3661 49.1279L36.8374 48.5215C36.8374 48.5215 37.7068 52.2271 34.1623 60.3122C32.2005 64.8039 42.3549 67.6674 42.3549 67.6674L43.3692 75.4156Z" fill="#E8D792"/>
<path d="M61.9391 75.1572C61.9391 75.1572 56.5108 77.6838 55.1063 74.2701C53.7019 70.8564 53.334 68.8913 59.6318 67.3753C65.9295 65.8594 61.9391 75.1572 61.9391 75.1572Z" fill="#DABC73"/>
<path d="M61.2926 75.4156C61.2926 75.4156 69.6078 71.7548 70.5664 71.4292C74.5234 70.1041 78.068 67.2519 77.9008 64.1301C77.692 59.0994 77.1558 54.0879 76.2957 49.1279L67.8133 48.5215C67.8133 48.5215 66.9438 52.2271 70.4996 60.3122C72.4613 64.8039 62.2958 67.6674 62.2958 67.6674L61.2926 75.4156Z" fill="#DABC73"/>
<path d="M36.0236 51.2951L36.3469 53.9003H37.0268V48.2856H28.1097C28.0428 48.9706 27.9648 49.7005 27.8867 50.5315C27.8867 50.7673 27.831 51.0256 27.8087 51.2838H36.0459L36.0236 51.2951Z" fill="#EC9C4C"/>
<path d="M76.8531 50.5991C76.7639 49.7906 76.6859 49.0607 76.619 48.3533H67.4678L67.7464 53.9679H68.4932L69.1063 51.3739H76.9088C76.8977 51.0932 76.8754 50.8349 76.8531 50.5991Z" fill="#FF8700"/>
<path d="M150.052 31.7561C150.052 31.7561 143.107 28.7355 142.662 26.5121C142.216 24.2887 138.671 25.5801 138.671 25.5801C138.671 25.5801 135.115 24.2775 134.67 26.5121C134.224 28.7467 127.291 31.7561 127.291 31.7561C128.673 33.8785 137.991 41.8063 138.738 41.8625H138.85C139.574 41.8063 148.647 33.8785 150.052 31.7561Z" fill="#DABC73"/>
<path d="M163.238 51.3513C163.238 51.093 163.238 50.8348 163.171 50.599C162.313 42.2556 162.168 40.8744 159.013 37.1239C155.859 33.3733 149.862 31.1387 149.862 31.1387C148.648 33.0227 146.986 34.571 145.026 35.6429C143.067 36.7149 140.873 37.2764 138.643 37.2764C136.414 37.2764 134.219 36.7149 132.26 35.6429C130.301 34.571 128.638 33.0227 127.424 31.1387C127.424 31.1387 121.461 33.3845 118.307 37.1239C115.152 40.8632 114.963 42.2556 114.149 50.599C114.149 50.8348 114.149 51.093 114.082 51.3513H122.308L122.698 54.5292L154.533 54.8661L155.369 51.4075L163.238 51.3513Z" fill="#EC9C4C"/>
<path d="M163.126 50.599C162.268 42.2556 162.123 40.8744 158.969 37.1239C155.814 33.3733 149.862 31.1387 149.862 31.1387C148.729 33.0065 147.136 34.5481 145.238 35.6143C143.34 36.6805 141.201 37.2353 139.028 37.2249V54.6527L154.533 54.8099L155.369 51.3513H163.171C163.171 51.093 163.149 50.8348 163.126 50.599Z" fill="#FF8700"/>
<path d="M144.434 29.1964C143.964 28.7474 143.542 28.2505 143.174 27.7139C142.818 27.1186 135.584 28.6124 135.584 28.6124C135.584 28.6124 137.813 31.2742 139.496 31.0159C143.174 30.4656 144.434 29.1964 144.434 29.1964Z" fill="#CFA848"/>
<path d="M154.321 70.2726L155.279 53.9565H138.437L138.036 70.2726H154.321Z" fill="#0E33CB"/>
<path d="M138.972 70.2726L139.017 53.9565H122.03L123.122 70.2726H138.972Z" fill="#1F45E4"/>
<path d="M138.716 30.3189C138.716 30.3189 132.139 28.9377 130.256 23.7273C129.116 20.2294 128.777 16.5173 129.264 12.8687H138.716V30.3189Z" fill="#E6D590"/>
<path d="M138.716 30.3189C138.716 30.3189 145.281 28.9377 147.176 23.7273C148.308 20.2279 148.644 16.5165 148.157 12.8687H138.716V30.3189Z" fill="#DABC73"/>
<path d="M150.509 11.4763C150.264 9.73575 149.015 3.39123 143.509 1.30259V1.03309C141.945 0.543147 140.341 0.197361 138.716 0C137.106 0.20245 135.517 0.548164 133.967 1.03309V1.30259C128.461 3.39123 127.202 9.73575 126.967 11.4763H126.455V14.6654H151.189V11.4763H150.509Z" fill="#EC9C4C"/>
<path d="M150.509 11.4763C150.264 9.73575 149.015 3.39123 143.509 1.30259V1.03309C141.946 0.543147 140.341 0.197361 138.716 0V0V14.6654H151.122V11.4763H150.509Z" fill="#FF8700"/>
<path d="M134.001 1.30273C134.001 1.30273 132.73 2.93097 135.461 10.2861C135.205 11.0609 134.268 10.4097 134.09 10.1289C132.777 7.88878 131.828 5.45106 131.281 2.90852C132.026 2.13361 132.966 1.57835 134.001 1.30273Z" fill="#ECCF7F"/>
<path d="M143.498 1.30273C143.498 1.30273 144.768 2.93097 142.037 10.2861C142.294 11.0609 143.23 10.4097 143.397 10.1289C144.716 7.89155 145.665 5.45288 146.206 2.90852C145.468 2.13171 144.53 1.57594 143.498 1.30273Z" fill="#EC9C4C"/>
<g style="mix-blend-mode:multiply" opacity="0.5">
<path d="M126.399 11.4763H151.133V12.8466L126.399 12.6893V11.4763Z" fill="#FF8700"/>
</g>
<path d="M130.523 55.2591H127.202V30.2965L130.523 29.4094V55.2591Z" fill="#1F45E4"/>
<path d="M146.73 55.2591H150.04V30.2965L146.73 29.4094V55.2591Z" fill="#0E33CB"/>
<path d="M152.37 45.5571H125.184V56.7752H152.37V45.5571Z" fill="#1F45E4"/>
<path d="M152.37 45.5571H139.017V56.7752H152.37V45.5571Z" fill="#0E33CB"/>
<path d="M129.798 48.1847C129.8 48.309 129.777 48.4323 129.73 48.5475C129.684 48.6626 129.615 48.7672 129.527 48.855C129.44 48.9429 129.336 49.0124 129.222 49.0592C129.108 49.1061 128.986 49.1295 128.862 49.128C128.738 49.1295 128.615 49.1062 128.501 49.0594C128.386 49.0127 128.281 48.9434 128.193 48.8557C128.105 48.768 128.035 48.6635 127.987 48.5483C127.939 48.4331 127.915 48.3095 127.915 48.1847C127.915 47.9316 128.015 47.6888 128.192 47.5098C128.37 47.3308 128.611 47.2302 128.862 47.2302C128.986 47.2302 129.109 47.255 129.223 47.3031C129.337 47.3512 129.441 47.4217 129.528 47.5105C129.615 47.5992 129.684 47.7046 129.73 47.8203C129.777 47.936 129.8 48.0599 129.798 48.1847Z" fill="#E8D792"/>
<path d="M149.561 48.1847C149.561 48.4379 149.461 48.6806 149.283 48.8596C149.106 49.0386 148.865 49.1392 148.614 49.1392C148.362 49.1392 148.121 49.0386 147.944 48.8596C147.766 48.6806 147.666 48.4379 147.666 48.1847C147.666 47.9316 147.766 47.6888 147.944 47.5098C148.121 47.3308 148.362 47.2302 148.614 47.2302C148.865 47.2302 149.106 47.3308 149.283 47.5098C149.461 47.6888 149.561 47.9316 149.561 48.1847Z" fill="#DABC73"/>
<path d="M147.466 65.5564V58.9536C146.993 58.6328 146.45 58.4324 145.883 58.3697C141.123 57.797 137.233 57.5612 133.622 58.5494C133.056 58.6841 132.501 58.8605 131.961 59.0771L130.846 64.6132C131.571 65.1971 132.396 65.7361 131.515 67.1734C130.401 69.0487 130.133 74.596 130.133 74.596C128.651 75.82 130.222 76.3814 131.56 76.5723C132.897 76.7632 135.617 76.6958 134.146 75.3483C134.146 75.3483 136.799 70.8566 136.732 68.476C137.913 66.6344 141.491 68.0044 144.122 67.3531C145.259 67.1088 146.352 66.6924 147.365 66.1179V65.8821H138.314V65.5452L147.466 65.5564ZM134.937 61.4914L134.525 61.4128L134.948 59.167L135.35 59.2456L134.937 61.4914ZM135.985 61.4914L135.572 61.4128L135.985 59.167L136.397 59.2456L135.985 61.4914ZM137.022 61.4914L136.62 61.4128L137.033 59.167L137.445 59.2456L137.022 61.4914ZM138.069 61.4914L137.668 61.4128L138.08 59.167L138.493 59.2456L138.069 61.4914Z" fill="#FF8700"/>
<path d="M157.364 59.9641H156.583V65.0959H157.364V59.9641Z" fill="#EC9C4C"/>
<path d="M150.219 59.021H147.867V66.0393H150.219V59.021Z" fill="#EC9C4C"/>
<path d="M156.361 59.021H154.265V66.0393H156.361V59.021Z" fill="#EC9C4C"/>
<path d="M153.998 58.5493H150.486V66.0392H153.998V58.5493Z" fill="#2E2E2E"/>
<path d="M191.227 76.2352C191.227 74.5734 190.571 72.9797 189.405 71.8046C188.239 70.6295 186.657 69.9693 185.007 69.9693C184.743 69.9526 184.479 69.9526 184.216 69.9693H98.1985V82.4338H185.074C186.701 82.4192 188.258 81.7614 189.408 80.6021C190.559 79.4428 191.212 77.8747 191.227 76.2352Z" fill="#2E2E2E"/>
<path d="M179.802 91.945L189.844 80.1655L174.195 77.9309L166.404 85.6791L179.802 91.945Z" fill="#2E2E2E"/>
<path d="M173.727 81.5356H86.7734L97.4294 69.947H184.383L173.727 81.5356Z" fill="#0B132B"/>
<path d="M97.7304 81.1763H88.0999L98.0982 70.3064H107.729L97.7304 81.1763Z" fill="#6D747A"/>
<path d="M108.52 81.1763H98.8895L108.888 70.3064H118.518L108.52 81.1763Z" fill="#6D747A"/>
<path d="M119.299 81.1763H109.679L119.678 70.3064H129.297L119.299 81.1763Z" fill="#6D747A"/>
<path d="M130.088 81.1763H120.469L130.456 70.3064H140.087L130.088 81.1763Z" fill="#6D747A"/>
<path d="M140.878 81.1763H131.248L141.246 70.3064H150.877L140.878 81.1763Z" fill="#6D747A"/>
<path d="M151.657 81.1763H142.037L152.036 70.3064H161.655L151.657 81.1763Z" fill="#6D747A"/>
<path d="M162.447 81.1763H152.827L162.826 70.3064H172.445L162.447 81.1763Z" fill="#6D747A"/>
<path d="M173.236 81.1763H163.606L173.604 70.3064H183.235L173.236 81.1763Z" fill="#6D747A"/>
<path d="M181.362 87.7454C181.364 86.923 181.204 86.1085 180.893 85.3483C180.581 84.5882 180.124 83.8974 179.548 83.3154C178.971 82.7334 178.286 82.2717 177.532 81.9566C176.778 81.6416 175.97 81.4794 175.153 81.4795C174.89 81.4619 174.626 81.4619 174.362 81.4795H86.7734V93.9439H175.209C176.837 93.9292 178.393 93.2715 179.544 92.1122C180.695 90.9529 181.348 89.3848 181.362 87.7454Z" fill="#0B132B"/>
<path d="M175.109 81.1763L184.595 70.5422C185.938 70.5847 187.232 71.0652 188.281 71.9116C189.33 72.758 190.078 73.9246 190.413 75.2361C187.76 78.2118 180.515 86.9145 180.515 86.9145C180.515 86.9145 180.816 81.8725 175.109 81.1763Z" fill="#666666"/>
<path d="M190.413 76.0557L180.526 88.1271C180.635 89.3512 180.435 90.5833 179.946 91.7092C184.405 86.4764 189.621 80.48 189.621 80.48C190.171 79.0719 190.44 77.5685 190.413 76.0557Z" fill="#666666"/>
<path d="M129.007 75.1574C129.007 75.1574 134.436 77.684 135.829 74.2703C137.222 70.8566 137.612 68.8915 131.303 67.4204C124.995 65.9494 129.007 75.1574 129.007 75.1574Z" fill="#E8D792"/>
<path d="M129.654 75.4156C129.654 75.4156 121.35 71.7548 120.38 71.4292C116.423 70.1041 112.867 67.2519 113.045 64.1301C113.254 59.0994 113.791 54.0879 114.651 49.1279L123.122 48.5215C123.122 48.5215 124.002 52.2271 120.447 60.3122C118.485 64.8039 128.639 67.6674 128.639 67.6674L129.654 75.4156Z" fill="#E8D792"/>
<path d="M148.213 75.1574C148.213 75.1574 142.784 77.684 141.38 74.2703C139.975 70.8566 139.607 68.8915 145.916 67.4204C152.225 65.9494 148.213 75.1574 148.213 75.1574Z" fill="#DABC73"/>
<path d="M147.566 75.4156C147.566 75.4156 155.87 71.7548 156.84 71.4292C160.797 70.1041 164.341 67.2519 164.174 64.1301C163.965 59.0994 163.429 54.0879 162.569 49.1279L154.098 48.5215C154.098 48.5215 153.217 52.2271 156.773 60.3122C158.735 64.8039 148.58 67.6674 148.58 67.6674L147.566 75.4156Z" fill="#DABC73"/>
<path d="M122.297 51.2951L122.62 53.9452H123.3V48.3306H114.383C114.305 49.0155 114.227 49.7454 114.149 50.5764C114.149 50.8122 114.149 51.0705 114.082 51.3288H122.308L122.297 51.2951Z" fill="#EC9C4C"/>
<path d="M163.127 50.5991C163.037 49.7906 162.97 49.0607 162.892 48.3533H153.741L154.02 53.9679H154.733L155.357 51.3739H163.16C163.171 51.0932 163.149 50.8349 163.127 50.5991Z" fill="#FF8700"/>
<path d="M236.325 31.7561C236.325 31.7561 229.381 28.7355 228.935 26.5121C228.489 24.2887 224.945 25.5801 224.945 25.5801C224.945 25.5801 221.389 24.2775 220.943 26.5121C220.497 28.7467 213.564 31.7561 213.564 31.7561C214.957 33.8785 224.276 41.8063 225.011 41.8625H225.123C225.859 41.8063 234.932 33.8785 236.325 31.7561Z" fill="#DABC73"/>
<path d="M249.478 51.3513C249.478 51.093 249.422 50.8348 249.4 50.599C248.553 42.2556 248.397 40.8744 245.242 37.1239C242.088 33.3733 236.124 31.1387 236.124 31.1387C234.91 33.0227 233.248 34.571 231.289 35.6429C229.329 36.7149 227.135 37.2764 224.906 37.2764C222.676 37.2764 220.482 36.7149 218.522 35.6429C216.563 34.571 214.901 33.0227 213.687 31.1387C213.687 31.1387 207.723 33.3845 204.569 37.1239C201.414 40.8632 201.225 42.2556 200.411 50.599C200.411 50.8348 200.411 51.093 200.344 51.3513H208.582L208.972 54.5292L240.817 54.8661L241.642 51.4075L249.478 51.3513Z" fill="#EC9C4C"/>
<path d="M249.4 50.599C248.553 42.2556 248.397 40.8744 245.242 37.1239C242.088 33.3733 236.124 31.1387 236.124 31.1387C234.991 33.0065 233.398 34.5481 231.5 35.6143C229.602 36.6805 227.463 37.2353 225.29 37.2249V54.6527L240.806 54.8099L241.631 51.3513H249.433C249.444 51.093 249.422 50.8348 249.4 50.599Z" fill="#FF8700"/>
<path d="M230.719 29.1964C230.229 28.7545 229.789 28.2612 229.403 27.7251C229.047 27.1298 221.812 28.6236 221.812 28.6236C221.812 28.6236 224.042 31.2855 225.725 31.0271C229.459 30.4656 230.719 29.1964 230.719 29.1964Z" fill="#CFA848"/>
<path d="M240.594 70.2726L241.564 53.9565H224.71L224.309 70.2726H240.594Z" fill="#0E33CB"/>
<path d="M225.257 70.2726L225.29 53.9565H208.314L209.406 70.2726H225.257Z" fill="#1F45E4"/>
<path d="M224.945 30.3189C224.945 30.3189 218.368 28.9377 216.484 23.7273C215.352 20.2279 215.017 16.5165 215.504 12.8687H224.945V30.3189Z" fill="#E6D590"/>
<path d="M224.945 30.3189C224.945 30.3189 231.51 28.9377 233.405 23.7273C234.537 20.2279 234.872 16.5165 234.386 12.8687H224.945V30.3189Z" fill="#DABC73"/>
<path d="M236.804 11.4763C236.559 9.73575 235.311 3.39123 229.804 1.30259V1.03309C228.248 0.546811 226.651 0.201083 225.034 0C223.42 0.200561 221.827 0.546305 220.274 1.03309V1.30259C214.768 3.39123 213.519 9.73575 213.274 11.4763H212.683V14.6654H237.406V11.4763H236.804Z" fill="#EC9C4C"/>
<path d="M236.804 11.4763C236.559 9.73575 235.311 3.39123 229.804 1.30259V1.03309C228.248 0.546811 226.651 0.201083 225.034 0V0V14.6654H237.44V11.4763H236.804Z" fill="#FF8700"/>
<path d="M220.274 1.30273C220.274 1.30273 219.004 2.93097 221.734 10.2861C221.478 11.0609 220.542 10.4097 220.375 10.1289C219.056 7.89155 218.107 5.45288 217.566 2.90852C218.304 2.13171 219.242 1.57594 220.274 1.30273Z" fill="#ECCF7F"/>
<path d="M229.771 1.30273C229.771 1.30273 231.042 2.93097 228.311 10.2861C228.567 11.0609 229.503 10.4097 229.682 10.1289C230.995 7.88878 231.943 5.45106 232.491 2.90852C231.746 2.13361 230.806 1.57835 229.771 1.30273Z" fill="#EC9C4C"/>
<g style="mix-blend-mode:multiply" opacity="0.5">
<path d="M212.683 11.4763H237.406V12.8466L212.683 12.6893V11.4763Z" fill="#FF8700"/>
</g>
<path d="M216.797 55.2591H213.475V30.2965L216.797 29.4094V55.2591Z" fill="#1F45E4"/>
<path d="M233.003 55.2591H236.325V30.2965L233.003 29.4094V55.2591Z" fill="#0E33CB"/>
<path d="M238.644 45.5571H211.457V56.7752H238.644V45.5571Z" fill="#1F45E4"/>
<path d="M238.644 45.5571H225.29V56.7752H238.644V45.5571Z" fill="#0E33CB"/>
<path d="M216.083 48.1847C216.083 48.3095 216.058 48.4331 216.01 48.5483C215.963 48.6635 215.893 48.768 215.805 48.8557C215.717 48.9434 215.612 49.0127 215.497 49.0594C215.382 49.1062 215.259 49.1295 215.136 49.128C215.012 49.1295 214.89 49.1061 214.776 49.0592C214.661 49.0124 214.557 48.9429 214.47 48.855C214.383 48.7672 214.314 48.6626 214.268 48.5475C214.221 48.4323 214.198 48.309 214.199 48.1847C214.198 48.0599 214.221 47.936 214.267 47.8203C214.314 47.7046 214.383 47.5992 214.47 47.5105C214.557 47.4217 214.66 47.3512 214.775 47.3031C214.889 47.255 215.012 47.2302 215.136 47.2302C215.387 47.2302 215.628 47.3308 215.805 47.5098C215.983 47.6888 216.083 47.9316 216.083 48.1847Z" fill="#E8D792"/>
<path d="M235.834 48.1847C235.834 48.3735 235.779 48.558 235.675 48.715C235.571 48.872 235.423 48.9943 235.25 49.0665C235.076 49.1388 234.886 49.1577 234.702 49.1209C234.519 49.084 234.35 48.9931 234.217 48.8596C234.085 48.7261 233.995 48.5561 233.958 48.3709C233.921 48.1858 233.94 47.9939 234.012 47.8194C234.084 47.645 234.205 47.496 234.361 47.3911C234.517 47.2862 234.7 47.2302 234.887 47.2302C235.138 47.2302 235.379 47.3308 235.557 47.5098C235.735 47.6888 235.834 47.9316 235.834 48.1847Z" fill="#DABC73"/>
<path d="M212.728 62.8837L213.709 57.7969C213.298 58.055 212.949 58.3999 212.683 58.8075C212.374 59.321 212.177 59.8958 212.108 60.4927C212.039 61.0896 212.098 61.6945 212.282 62.2661C212.38 62.5047 212.533 62.7164 212.728 62.8837Z" fill="#EC9C4C"/>
<path d="M229.537 64.0628V57.46C229.058 57.1457 228.512 56.9496 227.943 56.8873C223.183 56.3146 219.304 56.0788 215.749 57.0669C215.18 57.2036 214.621 57.3799 214.077 57.5947L212.962 63.1307C213.687 63.7147 214.511 64.2537 213.62 65.691C212.505 67.5663 212.238 73.1135 212.238 73.1135C210.766 74.3375 212.338 74.899 213.676 75.0899C214.79 75.2583 217.733 75.2134 216.261 73.8659C216.261 73.8659 218.914 69.3742 218.847 66.9936C220.029 65.152 223.596 66.522 226.238 65.8707C227.375 65.6264 228.468 65.21 229.481 64.6355V64.3996H220.43V64.0628H229.537ZM216.997 60.009L216.596 59.9304L217.008 57.6846L217.421 57.7632L216.997 60.009ZM218.045 60.009L217.644 59.9304L218.056 57.6846L218.468 57.7632L218.045 60.009ZM219.093 60.009L218.691 59.9304L219.104 57.6846L219.516 57.7632L219.093 60.009ZM220.14 60.009L219.739 59.9304L220.152 57.6846L220.553 57.7632L220.14 60.009Z" fill="#FF8700"/>
<path d="M219.238 68.229H220.675C220.904 68.2427 221.129 68.1695 221.306 68.024C221.484 67.8784 221.601 67.6711 221.634 67.443C221.7 66.904 221.734 66.4099 221.734 66.4099C221.136 66.3998 220.54 66.4716 219.962 66.6232C219.713 66.7167 219.491 66.8711 219.316 67.0724C219.334 67.4597 219.308 67.8478 219.238 68.229Z" fill="#EC9C4C"/>
<path d="M239.424 58.4819H238.644V63.6137H239.424V58.4819Z" fill="#EC9C4C"/>
<path d="M236.983 65.0847H231.644V65.7361H236.983V65.0847Z" fill="#FF8700"/>
<path d="M236.983 73.4504H231.644V74.1019H236.983V73.4504Z" fill="#FF8700"/>
<path d="M235.69 73.0464H232.992C232.715 71.9075 232.58 70.738 232.591 69.5653C232.606 68.3979 232.741 67.2351 232.992 66.0955H235.69C235.941 67.2354 236.079 68.3978 236.102 69.5653C236.095 70.7376 235.957 71.9054 235.69 73.0464Z" fill="#2E2E2E"/>
<path d="M232.29 57.5386H229.938V64.5568H232.29V57.5386Z" fill="#EC9C4C"/>
<path d="M238.421 57.5386H236.325V64.5568H238.421V57.5386Z" fill="#EC9C4C"/>
<path d="M236.069 57.0671H232.557V64.557H236.069V57.0671Z" fill="#2E2E2E"/>
<path d="M277.5 76.2353C277.5 75.4125 277.339 74.5977 277.027 73.8374C276.714 73.0772 276.256 72.3865 275.678 71.8046C275.101 71.2228 274.415 70.7612 273.66 70.4464C272.906 70.1315 272.097 69.9694 271.28 69.9694C271.02 69.9523 270.76 69.9523 270.5 69.9694H184.483V82.4339H271.358C272.984 82.4163 274.537 81.7572 275.686 80.5982C276.834 79.4393 277.485 77.8728 277.5 76.2353Z" fill="#0B132B"/>
<path d="M266.075 91.945L276.129 80.1655L260.479 77.9309L252.688 85.6791L266.075 91.945Z" fill="#0B132B"/>
<path d="M260.011 81.5356H173.058L183.703 69.947H270.667L260.011 81.5356Z" fill="#0B132B"/>
<path d="M184.004 81.1763H174.384L184.383 70.3064H194.002L184.004 81.1763Z" fill="#6D747A"/>
<path d="M194.793 81.1763H185.174L195.161 70.3064H204.792L194.793 81.1763Z" fill="#6D747A"/>
<path d="M205.583 81.1763H195.953L205.951 70.3064H215.582L205.583 81.1763Z" fill="#6D747A"/>
<path d="M216.362 81.1763H206.742L216.741 70.3064H226.36L216.362 81.1763Z" fill="#6D747A"/>
<path d="M227.152 81.1763H217.532L227.531 70.3064H237.15L227.152 81.1763Z" fill="#6D747A"/>
<path d="M237.941 81.1763H228.311L238.309 70.3064H247.94L237.941 81.1763Z" fill="#6D747A"/>
<path d="M248.72 81.1763H239.101L249.099 70.3064H258.718L248.72 81.1763Z" fill="#6D747A"/>
<path d="M259.51 81.1763H249.89L259.889 70.3064H269.508L259.51 81.1763Z" fill="#6D747A"/>
<path d="M267.647 87.7453C267.647 86.0835 266.991 84.4897 265.825 83.3146C264.658 82.1395 263.076 81.4794 261.427 81.4794C261.163 81.4623 260.899 81.4623 260.636 81.4794H173.058V93.9438H261.483C263.111 93.9292 264.669 93.2718 265.821 92.1129C266.974 90.9539 267.629 89.3857 267.647 87.7453Z" fill="#0B132B"/>
<path d="M261.382 81.1763L270.868 70.5422C272.213 70.5841 273.508 71.0642 274.559 71.9105C275.61 72.7568 276.361 73.9237 276.698 75.2361C274.045 78.2118 266.788 86.9145 266.788 86.9145C266.788 86.9145 267.1 81.8725 261.382 81.1763Z" fill="#6D747A"/>
<path d="M276.697 76.0557L266.799 88.1271C266.908 89.3502 266.713 90.5813 266.231 91.7092C270.689 86.4764 275.895 80.48 275.895 80.48C276.445 79.0717 276.718 77.5689 276.697 76.0557Z" fill="#6D747A"/>
<path d="M215.281 75.1574C215.281 75.1574 220.709 77.684 222.113 74.2703C223.518 70.8566 223.886 68.8915 217.588 67.4204C211.29 65.9494 215.281 75.1574 215.281 75.1574Z" fill="#E8D792"/>
<path d="M215.927 75.4156C215.927 75.4156 207.623 71.7548 206.653 71.4292C202.696 70.1041 199.152 67.2519 199.319 64.1301C199.528 59.0994 200.064 54.0879 200.924 49.1279L209.406 48.5215C209.406 48.5215 210.276 52.2271 206.72 60.3122C204.758 64.8039 214.924 67.6674 214.924 67.6674L215.927 75.4156Z" fill="#E8D792"/>
<path d="M234.486 75.1574C234.486 75.1574 229.058 77.684 227.664 74.2703C226.271 70.8566 225.892 68.8915 232.19 67.4204C238.488 65.9494 234.486 75.1574 234.486 75.1574Z" fill="#DABC73"/>
<path d="M233.839 75.4156C233.839 75.4156 242.144 71.7548 243.113 71.4292C247.07 70.1041 250.626 67.2519 250.448 64.1301C250.239 59.0994 249.703 54.0879 248.843 49.1279L240.371 48.5215C240.371 48.5215 239.502 52.2271 243.046 60.3122C245.008 64.8039 234.854 67.6674 234.854 67.6674L233.839 75.4156Z" fill="#DABC73"/>
<path d="M243.179 58.4819H239.736V63.6137H243.179L244.595 62.794V59.3017L243.179 58.4819Z" fill="#2E2E2E"/>
<path d="M208.57 51.2951L208.938 53.9003H209.618V48.2856H200.701C200.634 48.9706 200.556 49.7005 200.467 50.5315C200.467 50.7673 200.467 51.0256 200.4 51.2838H208.637L208.57 51.2951Z" fill="#EC9C4C"/>
<path d="M249.4 50.5991C249.322 49.7906 249.244 49.0607 249.166 48.3533H240.026L240.304 53.9679H241.007L241.631 51.3739H249.433C249.444 51.0932 249.422 50.8349 249.4 50.5991Z" fill="#FF8700"/>
<path d="M5.71652 83.8936C4.94713 83.8936 4.19502 84.1234 3.5553 84.554C2.91557 84.9847 2.41697 85.5967 2.12253 86.3128C1.8281 87.0289 1.75106 87.8169 1.90117 88.5771C2.05127 89.3373 2.42176 90.0356 2.9658 90.5837C3.50984 91.1318 4.20299 91.505 4.9576 91.6562C5.71221 91.8075 6.49438 91.7299 7.2052 91.4332C7.91603 91.1366 8.52358 90.6343 8.95103 89.9898C9.37848 89.3454 9.60663 88.5877 9.60663 87.8125C9.60663 87.2979 9.50601 86.7883 9.31051 86.3128C9.11502 85.8373 8.82847 85.4053 8.46724 85.0414C8.10601 84.6775 7.67717 84.3888 7.2052 84.1919C6.73323 83.9949 6.22738 83.8936 5.71652 83.8936ZM5.71652 90.0359C5.27561 90.0359 4.8446 89.9042 4.478 89.6574C4.11139 89.4107 3.82566 89.0599 3.65693 88.6495C3.4882 88.2392 3.44405 87.7876 3.53007 87.352C3.61609 86.9163 3.82841 86.5161 4.14018 86.202C4.45195 85.888 4.84917 85.6741 5.28161 85.5874C5.71405 85.5007 6.16228 85.5452 6.56963 85.7152C6.97698 85.8852 7.32515 86.173 7.57011 86.5424C7.81506 86.9117 7.94581 87.3459 7.94581 87.7901C7.94581 88.085 7.88815 88.3771 7.77611 88.6495C7.66408 88.922 7.49987 89.1696 7.29287 89.3781C7.08586 89.5867 6.8401 89.7521 6.56963 89.865C6.29916 89.9778 6.00928 90.0359 5.71652 90.0359Z" fill="#6D747A"/>
<path d="M22.425 83.8936C21.6556 83.8936 20.9035 84.1234 20.2638 84.554C19.6241 84.9847 19.1255 85.5967 18.831 86.3128C18.5366 87.0289 18.4596 87.8169 18.6097 88.5771C18.7598 89.3373 19.1303 90.0356 19.6743 90.5837C20.2183 91.1318 20.9115 91.505 21.6661 91.6562C22.4207 91.8075 23.2029 91.7299 23.9137 91.4332C24.6245 91.1366 25.2321 90.6343 25.6595 89.9898C26.087 89.3454 26.3151 88.5877 26.3151 87.8125C26.3151 86.7732 25.9053 85.7764 25.1757 85.0414C24.4462 84.3065 23.4567 83.8936 22.425 83.8936ZM22.425 90.0359C21.9841 90.0359 21.5531 89.9042 21.1865 89.6574C20.8199 89.4107 20.5342 89.0599 20.3654 88.6495C20.1967 88.2392 20.1526 87.7876 20.2386 87.352C20.3246 86.9163 20.5369 86.5161 20.8487 86.202C21.1604 85.888 21.5577 85.6741 21.9901 85.5874C22.4225 85.5007 22.8708 85.5452 23.2781 85.7152C23.6855 85.8852 24.0336 86.173 24.2786 86.5424C24.5236 86.9117 24.6543 87.3459 24.6543 87.7901C24.6543 88.085 24.5966 88.3771 24.4846 88.6495C24.3726 88.922 24.2084 89.1696 24.0014 89.3781C23.7944 89.5867 23.5486 89.7521 23.2781 89.865C23.0077 89.9778 22.7178 90.0359 22.425 90.0359Z" fill="#6D747A"/>
<path d="M39.1335 83.8936C38.3641 83.8936 37.612 84.1234 36.9723 84.554C36.3326 84.9847 35.834 85.5967 35.5395 86.3128C35.2451 87.0289 35.1681 87.8169 35.3182 88.5771C35.4683 89.3373 35.8388 90.0356 36.3828 90.5837C36.9268 91.1318 37.62 91.505 38.3746 91.6562C39.1292 91.8075 39.9114 91.7299 40.6222 91.4332C41.333 91.1366 41.9406 90.6343 42.368 89.9898C42.7955 89.3454 43.0236 88.5877 43.0236 87.8125C43.0236 86.7732 42.6138 85.7764 41.8842 85.0414C41.1547 84.3065 40.1652 83.8936 39.1335 83.8936ZM39.1335 90.0359C38.6926 90.0359 38.2616 89.9042 37.895 89.6574C37.5284 89.4107 37.2427 89.0599 37.0739 88.6495C36.9052 88.2392 36.861 87.7876 36.9471 87.352C37.0331 86.9163 37.2454 86.5161 37.5572 86.202C37.8689 85.888 38.2662 85.6741 38.6986 85.5874C39.131 85.5007 39.5793 85.5452 39.9866 85.7152C40.394 85.8852 40.7421 86.173 40.9871 86.5424C41.2321 86.9117 41.3628 87.3459 41.3628 87.7901C41.3628 88.085 41.3051 88.3771 41.1931 88.6495C41.0811 88.922 40.9169 89.1696 40.7099 89.3781C40.5029 89.5867 40.2571 89.7521 39.9866 89.865C39.7162 89.9778 39.4263 90.0359 39.1335 90.0359Z" fill="#6D747A"/>
<path d="M55.842 83.8936C55.0726 83.8936 54.3205 84.1234 53.6808 84.554C53.0411 84.9847 52.5425 85.5967 52.248 86.3128C51.9536 87.0289 51.8766 87.8169 52.0267 88.5771C52.1768 89.3373 52.5473 90.0356 53.0913 90.5837C53.6353 91.1318 54.3285 91.505 55.0831 91.6562C55.8377 91.8075 56.6199 91.7299 57.3307 91.4332C58.0415 91.1366 58.6491 90.6343 59.0765 89.9898C59.504 89.3454 59.7321 88.5877 59.7321 87.8125C59.7321 86.7732 59.3223 85.7764 58.5927 85.0414C57.8632 84.3065 56.8737 83.8936 55.842 83.8936ZM55.842 90.0359C55.4011 90.0359 54.9701 89.9042 54.6035 89.6574C54.2369 89.4107 53.9512 89.0599 53.7824 88.6495C53.6137 88.2392 53.5695 87.7876 53.6556 87.352C53.7416 86.9163 53.9539 86.5161 54.2657 86.202C54.5774 85.888 54.9747 85.6741 55.4071 85.5874C55.8395 85.5007 56.2878 85.5452 56.6951 85.7152C57.1025 85.8852 57.4506 86.173 57.6956 86.5424C57.9406 86.9117 58.0713 87.3459 58.0713 87.7901C58.0713 88.085 58.0136 88.3771 57.9016 88.6495C57.7896 88.922 57.6254 89.1696 57.4184 89.3781C57.2113 89.5867 56.9656 89.7521 56.6951 89.865C56.4247 89.9778 56.1348 90.0359 55.842 90.0359Z" fill="#6D747A"/>
<path d="M72.5394 83.8936C71.7704 83.8958 71.0194 84.1275 70.3812 84.5595C69.7429 84.9915 69.2461 85.6043 68.9533 86.3206C68.6606 87.0369 68.5852 87.8245 68.7365 88.584C68.8879 89.3435 69.2592 90.0407 69.8037 90.5877C70.3482 91.1346 71.0414 91.5068 71.7957 91.6571C72.55 91.8074 73.3316 91.7291 74.0418 91.4322C74.7519 91.1352 75.3588 90.6329 75.7858 89.9887C76.2127 89.3444 76.4406 88.5872 76.4406 87.8126C76.4406 87.297 76.3396 86.7864 76.1434 86.3102C75.9472 85.834 75.6597 85.4015 75.2973 85.0374C74.9349 84.6734 74.5047 84.3849 74.0315 84.1887C73.5582 83.9924 73.0512 83.8921 72.5394 83.8936ZM72.5394 90.036C72.0984 90.036 71.6674 89.9042 71.3008 89.6575C70.9342 89.4107 70.6485 89.0599 70.4798 88.6496C70.311 88.2392 70.2669 87.7876 70.3529 87.352C70.4389 86.9163 70.6512 86.5161 70.963 86.2021C71.2748 85.888 71.672 85.6741 72.1045 85.5874C72.5369 85.5008 72.9851 85.5452 73.3925 85.7152C73.7998 85.8852 74.148 86.1731 74.3929 86.5424C74.6379 86.9117 74.7686 87.3459 74.7686 87.7901C74.7686 88.085 74.711 88.3771 74.599 88.6496C74.4869 88.922 74.3227 89.1696 74.1157 89.3782C73.9087 89.5867 73.6629 89.7521 73.3925 89.865C73.122 89.9779 72.8321 90.036 72.5394 90.036Z" fill="#6D747A"/>
<path d="M89.2479 83.8936C88.4785 83.8936 87.7264 84.1234 87.0867 84.554C86.4469 84.9847 85.9483 85.5967 85.6539 86.3128C85.3595 87.0289 85.2824 87.8169 85.4325 88.5771C85.5826 89.3373 85.9531 90.0356 86.4972 90.5837C87.0412 91.1318 87.7344 91.505 88.489 91.6562C89.2436 91.8075 90.0258 91.7299 90.7366 91.4332C91.4474 91.1366 92.0549 90.6343 92.4824 89.9898C92.9098 89.3454 93.138 88.5877 93.138 87.8125C93.138 86.7732 92.7281 85.7764 91.9986 85.0414C91.2691 84.3065 90.2796 83.8936 89.2479 83.8936ZM89.2479 90.0359C88.807 90.0359 88.376 89.9042 88.0094 89.6574C87.6428 89.4107 87.357 89.0599 87.1883 88.6495C87.0196 88.2392 86.9754 87.7876 87.0614 87.352C87.1475 86.9163 87.3598 86.5161 87.6716 86.202C87.9833 85.888 88.3805 85.6741 88.813 85.5874C89.2454 85.5007 89.6937 85.5452 90.101 85.7152C90.5084 85.8852 90.8565 86.173 91.1015 86.5424C91.3464 86.9117 91.4772 87.3459 91.4772 87.7901C91.4772 88.085 91.4195 88.3771 91.3075 88.6495C91.1955 88.922 91.0312 89.1696 90.8242 89.3781C90.6172 89.5867 90.3715 89.7521 90.101 89.865C89.8305 89.9778 89.5407 90.0359 89.2479 90.0359Z" fill="#6D747A"/>
<path d="M105.956 83.8936C105.187 83.8936 104.435 84.1234 103.795 84.554C103.155 84.9847 102.657 85.5967 102.362 86.3128C102.068 87.0289 101.991 87.8169 102.141 88.5771C102.291 89.3373 102.662 90.0356 103.206 90.5837C103.75 91.1318 104.443 91.505 105.197 91.6562C105.952 91.8075 106.734 91.7299 107.445 91.4332C108.156 91.1366 108.763 90.6343 109.191 89.9898C109.618 89.3454 109.847 88.5877 109.847 87.8125C109.847 86.7732 109.437 85.7764 108.707 85.0414C107.978 84.3065 106.988 83.8936 105.956 83.8936ZM105.956 90.0359C105.515 90.0359 105.084 89.9042 104.718 89.6574C104.351 89.4107 104.066 89.0599 103.897 88.6495C103.728 88.2392 103.684 87.7876 103.77 87.352C103.856 86.9163 104.068 86.5161 104.38 86.202C104.692 85.888 105.089 85.6741 105.521 85.5874C105.954 85.5007 106.402 85.5452 106.81 85.7152C107.217 85.8852 107.565 86.173 107.81 86.5424C108.055 86.9117 108.186 87.3459 108.186 87.7901C108.186 88.085 108.128 88.3771 108.016 88.6495C107.904 88.922 107.74 89.1696 107.533 89.3781C107.326 89.5867 107.08 89.7521 106.81 89.865C106.539 89.9778 106.249 90.0359 105.956 90.0359Z" fill="#6D747A"/>
<path d="M122.665 83.8936C121.895 83.8936 121.143 84.1234 120.504 84.554C119.864 84.9847 119.365 85.5967 119.071 86.3128C118.776 87.0289 118.699 87.8169 118.85 88.5771C119 89.3373 119.37 90.0356 119.914 90.5837C120.458 91.1318 121.151 91.505 121.906 91.6562C122.661 91.8075 123.443 91.7299 124.154 91.4332C124.864 91.1366 125.472 90.6343 125.899 89.9898C126.327 89.3454 126.555 88.5877 126.555 87.8125C126.555 86.7732 126.145 85.7764 125.416 85.0414C124.686 84.3065 123.697 83.8936 122.665 83.8936ZM122.665 90.0359C122.224 90.0359 121.793 89.9042 121.426 89.6574C121.06 89.4107 120.774 89.0599 120.605 88.6495C120.437 88.2392 120.392 87.7876 120.478 87.352C120.564 86.9163 120.777 86.5161 121.089 86.202C121.4 85.888 121.798 85.6741 122.23 85.5874C122.662 85.5007 123.111 85.5452 123.518 85.7152C123.925 85.8852 124.274 86.173 124.518 86.5424C124.763 86.9117 124.894 87.3459 124.894 87.7901C124.894 88.085 124.837 88.3771 124.724 88.6495C124.612 88.922 124.448 89.1696 124.241 89.3781C124.034 89.5867 123.788 89.7521 123.518 89.865C123.248 89.9778 122.958 90.0359 122.665 90.0359Z" fill="#6D747A"/>
<path d="M139.373 83.8936C138.604 83.8936 137.852 84.1234 137.212 84.554C136.572 84.9847 136.074 85.5967 135.779 86.3128C135.485 87.0289 135.408 87.8169 135.558 88.5771C135.708 89.3373 136.079 90.0356 136.623 90.5837C137.167 91.1318 137.86 91.505 138.614 91.6562C139.369 91.8075 140.151 91.7299 140.862 91.4332C141.573 91.1366 142.18 90.6343 142.608 89.9898C143.035 89.3454 143.264 88.5877 143.264 87.8125C143.261 86.7741 142.85 85.779 142.121 85.0447C141.392 84.3104 140.404 83.8965 139.373 83.8936ZM139.373 90.0359C138.932 90.0359 138.501 89.9042 138.135 89.6574C137.768 89.4107 137.483 89.0599 137.314 88.6495C137.145 88.2392 137.101 87.7876 137.187 87.352C137.273 86.9163 137.485 86.5161 137.797 86.202C138.109 85.888 138.506 85.6741 138.938 85.5874C139.371 85.5007 139.819 85.5452 140.227 85.7152C140.634 85.8852 140.982 86.173 141.227 86.5424C141.472 86.9117 141.603 87.3459 141.603 87.7901C141.603 88.085 141.545 88.3771 141.433 88.6495C141.321 88.922 141.157 89.1696 140.95 89.3781C140.743 89.5867 140.497 89.7521 140.227 89.865C139.956 89.9778 139.666 90.0359 139.373 90.0359Z" fill="#6D747A"/>
<path d="M156.071 83.8936C155.301 83.8936 154.549 84.1234 153.91 84.554C153.27 84.9847 152.771 85.5967 152.477 86.3128C152.182 87.0289 152.105 87.8169 152.255 88.5771C152.406 89.3373 152.776 90.0356 153.32 90.5837C153.864 91.1318 154.557 91.505 155.312 91.6562C156.066 91.8075 156.849 91.7299 157.559 91.4332C158.27 91.1366 158.878 90.6343 159.305 89.9898C159.733 89.3454 159.961 88.5877 159.961 87.8125C159.961 86.7732 159.551 85.7764 158.821 85.0414C158.092 84.3065 157.102 83.8936 156.071 83.8936ZM156.071 90.0359C155.63 90.0359 155.199 89.9042 154.832 89.6574C154.466 89.4107 154.18 89.0599 154.011 88.6495C153.842 88.2392 153.798 87.7876 153.884 87.352C153.97 86.9163 154.183 86.5161 154.494 86.202C154.806 85.888 155.203 85.6741 155.636 85.5874C156.068 85.5007 156.517 85.5452 156.924 85.7152C157.331 85.8852 157.679 86.173 157.924 86.5424C158.169 86.9117 158.3 87.3459 158.3 87.7901C158.3 88.085 158.242 88.3771 158.13 88.6495C158.018 88.922 157.854 89.1696 157.647 89.3781C157.44 89.5867 157.194 89.7521 156.924 89.865C156.653 89.9778 156.364 90.0359 156.071 90.0359Z" fill="#6D747A"/>
<path d="M172.779 83.8936C172.01 83.8936 171.258 84.1234 170.618 84.554C169.978 84.9847 169.48 85.5967 169.185 86.3128C168.891 87.0289 168.814 87.8169 168.964 88.5771C169.114 89.3373 169.485 90.0356 170.029 90.5837C170.573 91.1318 171.266 91.505 172.02 91.6562C172.775 91.8075 173.557 91.7299 174.268 91.4332C174.979 91.1366 175.586 90.6343 176.014 89.9898C176.441 89.3454 176.669 88.5877 176.669 87.8125C176.669 87.2979 176.569 86.7883 176.373 86.3128C176.178 85.8373 175.891 85.4053 175.53 85.0414C175.169 84.6775 174.74 84.3888 174.268 84.1919C173.796 83.9949 173.29 83.8936 172.779 83.8936ZM172.779 90.0359C172.338 90.0359 171.907 89.9042 171.541 89.6574C171.174 89.4107 170.888 89.0599 170.72 88.6495C170.551 88.2392 170.507 87.7876 170.593 87.352C170.679 86.9163 170.891 86.5161 171.203 86.202C171.515 85.888 171.912 85.6741 172.344 85.5874C172.777 85.5007 173.225 85.5452 173.632 85.7152C174.04 85.8852 174.388 86.173 174.633 86.5424C174.878 86.9117 175.009 87.3459 175.009 87.7901C175.009 88.085 174.951 88.3771 174.839 88.6495C174.727 88.922 174.563 89.1696 174.356 89.3781C174.149 89.5867 173.903 89.7521 173.632 89.865C173.362 89.9778 173.072 90.0359 172.779 90.0359Z" fill="#6D747A"/>
<path d="M189.488 83.8936C188.717 83.8847 187.96 84.1069 187.315 84.5321C186.669 84.9573 186.163 85.5662 185.862 86.2815C185.561 86.9967 185.477 87.7861 185.622 88.5492C185.768 89.3124 186.134 90.0149 186.677 90.5675C187.219 91.1201 187.912 91.4978 188.668 91.6527C189.424 91.8076 190.208 91.7326 190.921 91.4374C191.635 91.1421 192.245 90.6399 192.674 89.9945C193.104 89.3491 193.333 88.5896 193.333 87.8126C193.333 86.7809 192.93 85.7909 192.21 85.0572C191.49 84.3235 190.512 83.9054 189.488 83.8936ZM189.488 90.036C189.047 90.036 188.616 89.9043 188.249 89.6575C187.883 89.4107 187.597 89.06 187.428 88.6496C187.259 88.2392 187.215 87.7876 187.301 87.352C187.387 86.9163 187.6 86.5162 187.911 86.2021C188.223 85.888 188.62 85.6741 189.053 85.5874C189.485 85.5008 189.934 85.5452 190.341 85.7152C190.748 85.8852 191.096 86.1731 191.341 86.5424C191.586 86.9117 191.717 87.3459 191.717 87.7901C191.717 88.0851 191.659 88.3771 191.547 88.6496C191.435 88.9221 191.271 89.1696 191.064 89.3782C190.857 89.5867 190.611 89.7522 190.341 89.865C190.07 89.9779 189.781 90.036 189.488 90.036Z" fill="#6D747A"/>
<path d="M206.196 83.8937C205.425 83.887 204.67 84.1112 204.026 84.5377C203.382 84.9643 202.878 85.574 202.579 86.2895C202.279 87.005 202.197 87.794 202.343 88.5564C202.49 89.3188 202.858 90.0203 203.4 90.5717C203.943 91.1232 204.636 91.4998 205.392 91.6537C206.147 91.8077 206.931 91.7321 207.644 91.4365C208.356 91.1409 208.966 90.6386 209.395 89.9934C209.824 89.3483 210.053 88.5892 210.053 87.8127C210.053 86.7791 209.648 85.7874 208.925 85.0534C208.203 84.3194 207.222 83.9026 206.196 83.8937ZM206.196 90.0361C205.755 90.0361 205.324 89.9044 204.958 89.6576C204.591 89.4108 204.305 89.0601 204.137 88.6497C203.968 88.2393 203.924 87.7877 204.01 87.3521C204.096 86.9164 204.308 86.5163 204.62 86.2022C204.932 85.8881 205.329 85.6742 205.761 85.5875C206.194 85.5009 206.642 85.5454 207.049 85.7153C207.457 85.8853 207.805 86.1732 208.05 86.5425C208.295 86.9118 208.426 87.3461 208.426 87.7902C208.426 88.0852 208.368 88.3772 208.256 88.6497C208.144 88.9222 207.98 89.1697 207.773 89.3783C207.566 89.5868 207.32 89.7523 207.049 89.8651C206.779 89.978 206.489 90.0361 206.196 90.0361Z" fill="#6D747A"/>
<path d="M222.894 83.8936C222.124 83.8913 221.371 84.1193 220.729 84.5486C220.088 84.9778 219.588 85.5891 219.292 86.305C218.996 87.0209 218.917 87.8093 219.066 88.5702C219.215 89.3312 219.584 90.0305 220.128 90.5797C220.671 91.1289 221.365 91.5033 222.12 91.6554C222.874 91.8076 223.657 91.7306 224.369 91.4343C225.08 91.138 225.688 90.6357 226.116 89.991C226.544 89.3463 226.773 88.5881 226.773 87.8126C226.773 86.7751 226.364 85.78 225.637 85.0454C224.91 84.3107 223.923 83.8965 222.894 83.8936ZM222.894 90.036C222.453 90.036 222.022 89.9042 221.655 89.6575C221.289 89.4107 221.003 89.0599 220.834 88.6496C220.665 88.2392 220.621 87.7876 220.707 87.352C220.793 86.9163 221.006 86.5161 221.317 86.2021C221.629 85.888 222.026 85.6741 222.459 85.5874C222.891 85.5008 223.339 85.5452 223.747 85.7152C224.154 85.8852 224.502 86.1731 224.747 86.5424C224.992 86.9117 225.123 87.3459 225.123 87.7901C225.123 88.085 225.065 88.3771 224.953 88.6496C224.841 88.922 224.677 89.1696 224.47 89.3782C224.263 89.5867 224.017 89.7521 223.747 89.865C223.476 89.9779 223.186 90.036 222.894 90.036Z" fill="#6D747A"/>
<path d="M239.602 83.8936C238.833 83.8936 238.081 84.1234 237.441 84.554C236.801 84.9847 236.303 85.5967 236.008 86.3128C235.714 87.0289 235.637 87.8169 235.787 88.5771C235.937 89.3373 236.307 90.0356 236.851 90.5837C237.395 91.1318 238.089 91.505 238.843 91.6562C239.598 91.8075 240.38 91.7299 241.091 91.4332C241.802 91.1366 242.409 90.6343 242.837 89.9898C243.264 89.3454 243.492 88.5877 243.492 87.8125C243.492 87.2979 243.392 86.7883 243.196 86.3128C243.001 85.8373 242.714 85.4053 242.353 85.0414C241.992 84.6775 241.563 84.3888 241.091 84.1919C240.619 83.9949 240.113 83.8936 239.602 83.8936ZM239.602 90.0359C239.161 90.0359 238.73 89.9042 238.364 89.6574C237.997 89.4107 237.711 89.0599 237.543 88.6495C237.374 88.2392 237.33 87.7876 237.416 87.352C237.502 86.9163 237.714 86.5161 238.026 86.202C238.338 85.888 238.735 85.6741 239.167 85.5874C239.6 85.5007 240.048 85.5452 240.455 85.7152C240.863 85.8852 241.211 86.173 241.456 86.5424C241.701 86.9117 241.831 87.3459 241.831 87.7901C241.831 88.085 241.774 88.3771 241.662 88.6495C241.55 88.922 241.386 89.1696 241.179 89.3781C240.971 89.5867 240.726 89.7521 240.455 89.865C240.185 89.9778 239.895 90.0359 239.602 90.0359Z" fill="#6D747A"/>
<path d="M256.311 83.8936C255.542 83.8958 254.791 84.1275 254.152 84.5595C253.514 84.9915 253.017 85.6043 252.725 86.3206C252.432 87.0369 252.356 87.8245 252.508 88.584C252.659 89.3435 253.03 90.0407 253.575 90.5877C254.119 91.1346 254.813 91.5068 255.567 91.6571C256.321 91.8074 257.103 91.7291 257.813 91.4322C258.523 91.1352 259.13 90.6329 259.557 89.9887C259.984 89.3444 260.212 88.5872 260.212 87.8126C260.212 87.297 260.111 86.7864 259.915 86.3102C259.718 85.834 259.431 85.4015 259.069 85.0374C258.706 84.6734 258.276 84.3849 257.803 84.1887C257.329 83.9924 256.822 83.8921 256.311 83.8936ZM256.311 90.036C255.87 90.036 255.439 89.9042 255.072 89.6575C254.705 89.4107 254.42 89.0599 254.251 88.6496C254.082 88.2392 254.038 87.7876 254.124 87.352C254.21 86.9163 254.422 86.5161 254.734 86.2021C255.046 85.888 255.443 85.6741 255.876 85.5874C256.308 85.5008 256.756 85.5452 257.164 85.7152C257.571 85.8852 257.919 86.1731 258.164 86.5424C258.409 86.9117 258.54 87.3459 258.54 87.7901C258.54 88.085 258.482 88.3771 258.37 88.6496C258.258 88.922 258.094 89.1696 257.887 89.3782C257.68 89.5867 257.434 89.7521 257.164 89.865C256.893 89.9779 256.603 90.036 256.311 90.036Z" fill="#6D747A"/>
</g>
<defs>
<clipPath id="clip0">
<rect width="277" height="94" fill="white" transform="translate(0.5)"/>
</clipPath>
</defs>
</svg>
