<svg width="1435" height="203" viewBox="0 0 1435 203" fill="none" xmlns="http://www.w3.org/2000/svg">
<g filter="url(#filter0_d)">
<path d="M1259.86 134.41C1259.86 131.532 1260.71 128.718 1262.31 126.325C1263.91 123.932 1266.18 122.067 1268.84 120.966C1271.5 119.866 1274.43 119.578 1277.25 120.14C1280.07 120.702 1282.67 122.089 1284.7 124.125C1286.74 126.161 1288.12 128.754 1288.68 131.577C1289.24 134.401 1288.95 137.326 1287.85 139.985C1286.75 142.643 1284.88 144.915 1282.49 146.513C1280.09 148.11 1277.28 148.962 1274.4 148.96C1272.49 148.96 1270.6 148.583 1268.83 147.852C1267.07 147.121 1265.47 146.049 1264.11 144.698C1262.76 143.346 1261.69 141.742 1260.96 139.977C1260.23 138.212 1259.86 136.32 1259.86 134.41V134.41Z" stroke="#121D50" stroke-width="2" stroke-miterlimit="10"/>
<path d="M1274.41 115.01C1276.34 115.01 1277.91 113.443 1277.91 111.51C1277.91 109.577 1276.34 108.01 1274.41 108.01C1272.48 108.01 1270.91 109.577 1270.91 111.51C1270.91 113.443 1272.48 115.01 1274.41 115.01Z" stroke="#121D50" stroke-width="2" stroke-miterlimit="10"/>
<path d="M1288.13 115.76C1288.62 115.277 1289.25 114.951 1289.92 114.822C1290.6 114.693 1291.3 114.766 1291.94 115.033C1292.57 115.3 1293.11 115.749 1293.49 116.323C1293.88 116.897 1294.08 117.571 1294.08 118.26C1294.08 118.949 1293.88 119.623 1293.49 120.197C1293.11 120.771 1292.57 121.219 1291.94 121.486C1291.3 121.753 1290.6 121.827 1289.92 121.698C1289.25 121.568 1288.62 121.242 1288.13 120.76C1287.8 120.434 1287.53 120.045 1287.35 119.616C1287.17 119.186 1287.08 118.725 1287.08 118.26C1287.08 117.794 1287.17 117.333 1287.35 116.904C1287.53 116.475 1287.8 116.086 1288.13 115.76V115.76Z" stroke="#121D50" stroke-width="2" stroke-miterlimit="10"/>
<path d="M1297.31 130.91C1298 130.91 1298.68 131.115 1299.25 131.5C1299.83 131.885 1300.28 132.431 1300.54 133.071C1300.81 133.71 1300.88 134.414 1300.74 135.093C1300.61 135.772 1300.27 136.396 1299.78 136.885C1299.3 137.375 1298.67 137.708 1297.99 137.843C1297.31 137.978 1296.61 137.909 1295.97 137.644C1295.33 137.379 1294.78 136.93 1294.4 136.355C1294.02 135.779 1293.81 135.102 1293.81 134.41C1293.81 133.482 1294.18 132.592 1294.84 131.935C1295.49 131.279 1296.38 130.91 1297.31 130.91V130.91Z" stroke="#121D50" stroke-width="2" stroke-miterlimit="10"/>
<path d="M1293.08 148.13C1293.57 148.619 1293.9 149.243 1294.04 149.922C1294.17 150.601 1294.1 151.304 1293.84 151.944C1293.57 152.583 1293.12 153.13 1292.55 153.515C1291.97 153.899 1291.3 154.104 1290.6 154.104C1289.91 154.104 1289.24 153.899 1288.66 153.515C1288.08 153.13 1287.64 152.583 1287.37 151.944C1287.11 151.304 1287.04 150.601 1287.17 149.922C1287.31 149.243 1287.64 148.619 1288.13 148.13C1288.45 147.805 1288.84 147.547 1289.27 147.371C1289.69 147.195 1290.15 147.104 1290.6 147.104C1291.06 147.104 1291.52 147.195 1291.94 147.371C1292.37 147.547 1292.75 147.805 1293.08 148.13Z" stroke="#121D50" stroke-width="2" stroke-miterlimit="10"/>
<path d="M1277.91 157.32C1277.91 158.012 1277.7 158.688 1277.32 159.263C1276.94 159.839 1276.39 160.287 1275.75 160.552C1275.11 160.818 1274.41 160.888 1273.73 160.753C1273.05 160.619 1272.43 160.287 1271.94 159.798C1271.45 159.31 1271.11 158.687 1270.98 158.009C1270.84 157.33 1270.91 156.627 1271.17 155.987C1271.44 155.348 1271.88 154.8 1272.46 154.415C1273.03 154.029 1273.71 153.822 1274.4 153.82C1275.33 153.82 1276.22 154.188 1276.88 154.844C1277.54 155.5 1277.91 156.391 1277.91 157.32V157.32Z" stroke="#121D50" stroke-width="2" stroke-miterlimit="10"/>
<path d="M1260.68 153.09C1260.19 153.572 1259.56 153.898 1258.89 154.028C1258.21 154.157 1257.51 154.084 1256.87 153.817C1256.24 153.55 1255.7 153.101 1255.32 152.527C1254.93 151.953 1254.73 151.279 1254.73 150.59C1254.73 149.901 1254.93 149.227 1255.32 148.653C1255.7 148.079 1256.24 147.63 1256.87 147.363C1257.51 147.096 1258.21 147.023 1258.89 147.152C1259.56 147.281 1260.19 147.608 1260.68 148.09C1261.01 148.415 1261.28 148.804 1261.46 149.233C1261.64 149.663 1261.73 150.124 1261.73 150.59C1261.73 151.056 1261.64 151.517 1261.46 151.947C1261.28 152.376 1261.01 152.765 1260.68 153.09V153.09Z" stroke="#121D50" stroke-width="2" stroke-miterlimit="10"/>
<path d="M1251.5 137.91C1250.81 137.91 1250.13 137.705 1249.56 137.32C1248.98 136.936 1248.53 136.389 1248.27 135.75C1248 135.11 1247.93 134.406 1248.07 133.727C1248.2 133.048 1248.54 132.425 1249.03 131.935C1249.51 131.446 1250.14 131.112 1250.82 130.977C1251.5 130.842 1252.2 130.912 1252.84 131.177C1253.48 131.441 1254.03 131.89 1254.41 132.466C1254.79 133.041 1255 133.718 1255 134.41C1255 135.338 1254.63 136.229 1253.97 136.885C1253.32 137.541 1252.43 137.91 1251.5 137.91V137.91Z" stroke="#121D50" stroke-width="2" stroke-miterlimit="10"/>
<path d="M1255.73 120.69C1255.25 120.197 1254.92 119.574 1254.79 118.897C1254.66 118.22 1254.74 117.52 1255 116.884C1255.27 116.249 1255.72 115.707 1256.29 115.325C1256.87 114.944 1257.54 114.74 1258.23 114.74C1258.92 114.74 1259.59 114.944 1260.17 115.325C1260.74 115.707 1261.19 116.249 1261.46 116.884C1261.72 117.52 1261.8 118.22 1261.67 118.897C1261.54 119.574 1261.21 120.197 1260.73 120.69C1260.4 121.024 1260.02 121.289 1259.59 121.47C1259.16 121.651 1258.7 121.745 1258.23 121.745C1257.76 121.745 1257.3 121.651 1256.87 121.47C1256.44 121.289 1256.06 121.024 1255.73 120.69V120.69Z" stroke="#121D50" stroke-width="2" stroke-miterlimit="10"/>
<path d="M1242 134.41C1242 127.999 1243.9 121.733 1247.46 116.403C1251.02 111.073 1256.09 106.919 1262.01 104.466C1267.93 102.013 1274.45 101.372 1280.74 102.623C1287.02 103.875 1292.8 106.963 1297.33 111.496C1301.86 116.03 1304.95 121.806 1306.2 128.093C1307.45 134.381 1306.8 140.898 1304.35 146.82C1301.9 152.742 1297.74 157.803 1292.41 161.363C1287.08 164.923 1280.81 166.822 1274.4 166.82C1265.81 166.817 1257.56 163.402 1251.49 157.324C1245.41 151.246 1242 143.004 1242 134.41V134.41Z" stroke="#121D50" stroke-width="2" stroke-miterlimit="10"/>
</g>
<g filter="url(#filter1_d)">
<path d="M763.518 108.989C761.221 105.87 759.9 102.14 759.722 98.2711C759.545 94.4018 760.52 90.5668 762.522 87.2513C764.525 83.9359 767.466 81.2889 770.974 79.6453C774.481 78.0017 778.397 77.4353 782.226 78.0178C786.056 78.6004 789.626 80.3056 792.486 82.9177C795.346 85.5299 797.367 88.9317 798.294 92.6927C799.22 96.4537 799.01 100.405 797.69 104.047C796.37 107.688 794 110.857 790.879 113.151C786.698 116.225 781.468 117.513 776.337 116.732C771.207 115.952 766.596 113.167 763.518 108.989V108.989Z" stroke="#121D50" stroke-width="2" stroke-miterlimit="10"/>
</g>
<g filter="url(#filter2_d)">
<path d="M724.799 112.812C724.048 111.791 723.616 110.57 723.559 109.304C723.501 108.037 723.82 106.782 724.476 105.697C725.132 104.612 726.095 103.746 727.243 103.208C728.391 102.67 729.673 102.485 730.926 102.676C732.179 102.866 733.348 103.424 734.284 104.279C735.22 105.134 735.882 106.247 736.186 107.478C736.489 108.709 736.421 110.002 735.989 111.194C735.558 112.387 734.782 113.424 733.761 114.175C733.084 114.676 732.314 115.037 731.497 115.239C730.679 115.442 729.83 115.481 728.997 115.354C728.165 115.227 727.365 114.938 726.645 114.501C725.925 114.065 725.297 113.491 724.799 112.812V112.812Z" stroke="#121D50" stroke-width="2" stroke-miterlimit="10"/>
</g>
<g filter="url(#filter3_d)">
<path d="M782.418 140.66C785.269 138.561 785.879 134.549 783.781 131.698C781.683 128.846 777.67 128.236 774.819 130.334C771.968 132.433 771.357 136.445 773.456 139.296C775.554 142.148 779.566 142.758 782.418 140.66Z" stroke="#121D50" stroke-width="2" stroke-miterlimit="10"/>
</g>
<g filter="url(#filter4_d)">
<path d="M1043.15 134.159C1040.86 142.092 1045.43 150.379 1053.36 152.669C1061.3 154.96 1069.58 150.386 1071.87 142.453C1074.16 134.52 1069.59 126.233 1061.66 123.943C1053.72 121.652 1045.44 126.226 1043.15 134.159Z" stroke="#121D50" stroke-width="2" stroke-miterlimit="10"/>
<path d="M1106.89 103.03L1062.94 124.312" stroke="#121D50" stroke-width="2" stroke-miterlimit="10"/>
<path d="M1066.61 150.165L1112.81 149.848" stroke="#121D50" stroke-width="2" stroke-miterlimit="10"/>
<path d="M1124.71 159.498L1129.34 160.835L1131.07 157.014C1133.62 157.52 1136.23 157.735 1138.83 157.654L1139.9 161.709L1144.7 161.147L1144.8 156.952C1147.23 156.448 1149.59 155.686 1151.85 154.678L1154.38 158.031L1158.6 155.701L1157.11 151.783C1159.28 150.33 1161.27 148.636 1163.05 146.734L1166.69 148.824L1169.69 145.1L1166.8 142.071C1168.16 139.998 1169.3 137.785 1170.18 135.468L1174.34 136.055L1175.68 131.415L1171.85 129.694C1172.36 127.139 1172.58 124.534 1172.5 121.929L1176.54 120.85L1176 116.04L1171.81 115.935C1171.31 113.508 1170.55 111.142 1169.54 108.877L1172.89 106.358L1170.56 102.136L1166.63 103.625C1165.19 101.456 1163.5 99.4595 1161.6 97.6741L1163.69 94.0412L1159.9 91.0527L1156.88 93.9385C1154.79 92.5841 1152.57 91.4544 1150.25 90.5685L1150.83 86.4149L1146.2 85.0778L1144.48 88.9013C1141.92 88.3945 1139.32 88.1799 1136.71 88.2616L1135.63 84.2037L1130.85 84.7687L1130.74 88.9634C1128.31 89.4662 1125.95 90.2278 1123.68 91.2349L1121.16 87.8846L1116.93 90.2121L1118.42 94.1296C1116.26 95.5866 1114.27 97.2802 1112.48 99.179L1108.85 97.0892L1105.86 100.869L1108.75 103.898C1107.39 105.973 1106.26 108.187 1105.37 110.501L1101.21 109.914L1099.88 114.535L1103.71 116.256C1103.21 118.812 1102.99 121.416 1103.06 124.021L1099.01 125.1L1099.58 129.884L1103.76 129.99C1104.27 132.413 1105.03 134.775 1106.04 137.037L1102.68 139.566L1105.02 143.791L1108.94 142.299C1110.39 144.464 1112.08 146.46 1113.98 148.25L1111.89 151.883L1115.68 154.871L1118.71 151.988C1120.78 153.344 1123 154.475 1125.31 155.362L1124.71 159.498Z" stroke="#121D50" stroke-width="2" stroke-miterlimit="10"/>
</g>
<g filter="url(#filter5_d)">
<path d="M913.33 98.74V91.61H909.05C908.468 87.6901 906.93 83.9739 904.57 80.79L907.57 77.79L902.57 72.79L899.57 75.79C896.39 73.4306 892.677 71.8918 888.76 71.31V67H881.62V71.28C877.7 71.8618 873.984 73.4005 870.8 75.76L867.8 72.76L862.8 77.76L865.8 80.76C863.438 83.9527 861.902 87.6801 861.33 91.61H857V98.73H861.33C861.912 102.65 863.45 106.366 865.81 109.55L862.81 112.55L867.81 117.55L870.81 114.55C873.988 116.916 877.701 118.458 881.62 119.04V123.32H888.74V119.04C892.652 118.471 896.364 116.95 899.55 114.61L902.55 117.61L907.55 112.61L904.55 109.61C906.916 106.432 908.458 102.719 909.04 98.8L913.33 98.74Z" stroke="#121D50" stroke-width="2" stroke-miterlimit="10"/>
<path d="M870.33 95.17C870.33 92.2227 871.204 89.3415 872.842 86.891C874.479 84.4405 876.807 82.5307 879.53 81.4033C882.253 80.2758 885.25 79.9813 888.14 80.5571C891.031 81.1328 893.686 82.5529 895.769 84.6377C897.853 86.7225 899.271 89.3783 899.845 92.2693C900.419 95.1603 900.122 98.1565 898.993 100.879C897.863 103.601 895.952 105.928 893.501 107.564C891.049 109.2 888.167 110.072 885.22 110.07C883.264 110.07 881.327 109.685 879.519 108.936C877.712 108.187 876.07 107.089 874.687 105.705C873.305 104.322 872.208 102.679 871.46 100.871C870.713 99.0636 870.329 97.1262 870.33 95.17V95.17Z" stroke="#121D50" stroke-width="2" stroke-miterlimit="10"/>
</g>
<g filter="url(#filter6_d)">
<path d="M336.33 77.74V70.61H332.05C331.468 66.6901 329.93 62.9739 327.57 59.79L330.57 56.79L325.57 51.79L322.57 54.79C319.39 52.4306 315.677 50.8918 311.76 50.31V46H304.62V50.28C300.7 50.8618 296.984 52.4005 293.8 54.76L290.8 51.76L285.8 56.76L288.8 59.76C286.438 62.9527 284.902 66.6801 284.33 70.61H280V77.73H284.33C284.912 81.6499 286.45 85.3661 288.81 88.55L285.81 91.55L290.81 96.55L293.81 93.55C296.988 95.9159 300.701 97.4585 304.62 98.04V102.32H311.74V98.04C315.652 97.4715 319.364 95.9502 322.55 93.61L325.55 96.61L330.55 91.61L327.55 88.61C329.916 85.4325 331.458 81.7187 332.04 77.8L336.33 77.74Z" stroke="#121D50" stroke-width="2" stroke-miterlimit="10"/>
<path d="M293.33 74.17C293.33 71.2227 294.204 68.3415 295.842 65.891C297.479 63.4405 299.807 61.5307 302.53 60.4033C305.253 59.2758 308.25 58.9813 311.14 59.5571C314.031 60.1328 316.686 61.5529 318.769 63.6377C320.853 65.7225 322.271 68.3783 322.845 71.2693C323.419 74.1603 323.122 77.1565 321.993 79.8789C320.863 82.6014 318.952 84.9277 316.501 86.5638C314.049 88.1998 311.167 89.072 308.22 89.07C306.264 89.07 304.327 88.6845 302.519 87.9356C300.712 87.1867 299.07 86.089 297.687 84.7053C296.305 83.3216 295.208 81.6789 294.46 79.8713C293.713 78.0636 293.329 76.1262 293.33 74.17V74.17Z" stroke="#121D50" stroke-width="2" stroke-miterlimit="10"/>
</g>
<g filter="url(#filter7_d)">
<path d="M670.33 111.74V104.61H666.05C665.468 100.69 663.93 96.9739 661.57 93.79L664.57 90.79L659.57 85.79L656.57 88.79C653.39 86.4306 649.677 84.8918 645.76 84.31V80H638.62V84.28C634.7 84.8618 630.984 86.4005 627.8 88.76L624.8 85.76L619.8 90.76L622.8 93.76C620.438 96.9527 618.902 100.68 618.33 104.61H614V111.73H618.33C618.912 115.65 620.45 119.366 622.81 122.55L619.81 125.55L624.81 130.55L627.81 127.55C630.988 129.916 634.701 131.458 638.62 132.04V136.32H645.74V132.04C649.652 131.471 653.364 129.95 656.55 127.61L659.55 130.61L664.55 125.61L661.55 122.61C663.916 119.432 665.458 115.719 666.04 111.8L670.33 111.74Z" stroke="#121D50" stroke-width="2" stroke-miterlimit="10"/>
<path d="M627.33 108.17C627.33 105.223 628.204 102.341 629.842 99.891C631.479 97.4405 633.807 95.5307 636.53 94.4033C639.253 93.2758 642.25 92.9813 645.14 93.5571C648.031 94.1328 650.686 95.5529 652.769 97.6377C654.853 99.7225 656.271 102.378 656.845 105.269C657.419 108.16 657.122 111.156 655.993 113.879C654.863 116.601 652.952 118.928 650.501 120.564C648.049 122.2 645.167 123.072 642.22 123.07C640.264 123.07 638.327 122.685 636.519 121.936C634.712 121.187 633.07 120.089 631.687 118.705C630.305 117.322 629.208 115.679 628.46 113.871C627.713 112.064 627.329 110.126 627.33 108.17V108.17Z" stroke="#121D50" stroke-width="2" stroke-miterlimit="10"/>
</g>
<g filter="url(#filter8_d)">
<path d="M974.05 167.1C990.094 167.1 1003.1 154.094 1003.1 138.05C1003.1 122.006 990.094 109 974.05 109C958.006 109 945 122.006 945 138.05C945 154.094 958.006 167.1 974.05 167.1Z" stroke="#121D50" stroke-width="2" stroke-miterlimit="10"/>
<path d="M991.39 140.35V135.75H988.61C988.238 133.214 987.245 130.81 985.72 128.75L987.72 126.75L984.42 123.49L982.42 125.49C980.36 123.964 977.956 122.968 975.42 122.59V119.82H970.86V122.59C968.324 122.965 965.919 123.962 963.86 125.49L961.86 123.49L958.6 126.75L960.6 128.75C959.074 130.809 958.081 133.214 957.71 135.75H954.93V140.36H957.71C958.082 142.896 959.075 145.3 960.6 147.36L958.6 149.36L961.86 152.61L963.86 150.66C965.92 152.185 968.324 153.178 970.86 153.55V156.33H975.46V153.49C977.996 153.118 980.4 152.125 982.46 150.6L984.46 152.6L987.72 149.34L985.72 147.34C987.245 145.28 988.238 142.876 988.61 140.34L991.39 140.35Z" stroke="#121D50" stroke-width="2" stroke-miterlimit="10"/>
</g>
<g filter="url(#filter9_d)">
<path d="M208.019 186.654L69.531 183.466" stroke="#121D50" stroke-width="2" stroke-miterlimit="10"/>
<path d="M24.1512 120.18C10.8129 138.479 14.8339 164.125 33.1322 177.463C51.4305 190.802 77.0769 186.781 90.4152 168.482C103.753 150.184 99.7325 124.538 81.4342 111.199C63.1359 97.8611 37.4894 101.882 24.1512 120.18Z" stroke="#121D50" stroke-width="2" stroke-miterlimit="10"/>
<path d="M40.4252 162.213L45.4112 165.847L47.5966 162.849C50.6367 164.441 54.0222 165.26 57.454 165.233L58.0359 168.899L64.1275 167.944L63.5455 164.278C66.824 163.26 69.7981 161.444 72.2003 158.992L75.2064 161.183L78.8409 156.197L75.8347 154.006C77.4356 150.969 78.2549 147.581 78.2187 144.148L81.8932 143.572L80.9381 137.481L77.2636 138.057C76.2486 134.781 74.4347 131.809 71.9853 129.408L74.1766 126.402L69.1907 122.767L66.9994 125.773C63.9626 124.173 60.5748 123.353 57.142 123.389L56.5659 119.715L50.4744 120.67L51.0505 124.344C47.7713 125.361 44.7968 127.177 42.3956 129.631L39.3895 127.44L35.761 132.417L38.759 134.603C37.1668 137.643 36.348 141.028 36.3751 144.46L32.7087 145.042L33.6637 151.134L37.3301 150.552C38.3517 153.829 40.1653 156.805 42.6106 159.215L40.4252 162.213Z" stroke="#121D50" stroke-width="2" stroke-miterlimit="10"/>
<path d="M50 104L203 83" stroke="#121D50" stroke-width="2" stroke-miterlimit="10"/>
<path d="M166.307 104.077C149.4 127.271 154.497 159.779 177.691 176.686C200.885 193.593 233.394 188.497 250.301 165.303C267.208 142.108 262.111 109.6 238.917 92.6928C215.723 75.7858 183.214 80.8826 166.307 104.077Z" stroke="#121D50" stroke-width="2" stroke-miterlimit="10"/>
<path d="M194.192 153.072C204.341 160.865 218.887 158.955 226.68 148.806C234.474 138.657 232.564 124.111 222.414 116.318C212.265 108.524 197.719 110.434 189.926 120.583C182.132 130.733 184.042 145.278 194.192 153.072Z" stroke="#121D50" stroke-width="2" stroke-miterlimit="10"/>
<path d="M184.39 163.49L188.147 166.229L190.964 163.332C193.114 164.636 195.404 165.691 197.792 166.478L197.429 170.507L201.948 171.574L203.443 167.825C205.809 168.169 208.206 168.257 210.591 168.086L211.778 171.958L216.366 171.231L216.335 167.199C218.774 166.591 221.138 165.717 223.384 164.591L225.963 167.708L229.924 165.262L228.282 161.59C230.195 160.167 231.946 158.539 233.504 156.734L237.078 158.622L239.818 154.864L236.921 152.047C238.231 149.903 239.289 147.614 240.074 145.226L244.095 145.583L245.162 141.064L241.413 139.569C241.754 137.202 241.841 134.806 241.674 132.421L245.538 131.228L244.82 126.646L240.776 126.693C240.168 124.254 239.293 121.89 238.168 119.644L241.285 117.065L238.839 113.104L235.167 114.746C233.744 112.833 232.115 111.082 230.311 109.524L232.207 105.955L228.368 103.157L225.543 106.048C223.396 104.743 221.107 103.685 218.722 102.895L219.133 98.8508L214.606 97.7784L213.111 101.527C210.746 101.188 208.353 101.103 205.97 101.272L204.778 97.4082L200.187 98.1208L200.242 102.17C197.803 102.774 195.438 103.649 193.193 104.779L190.606 101.656L186.653 104.108L188.287 107.774C186.378 109.201 184.627 110.828 183.065 112.629L179.497 110.734L176.758 114.491L179.649 117.316C178.346 119.466 177.291 121.757 176.503 124.144L172.48 123.773L171.415 128.305L175.164 129.801C174.826 132.167 174.739 134.563 174.903 136.949L171.037 138.128L171.758 142.724L175.807 142.669C176.406 145.107 177.278 147.47 178.408 149.712L175.285 152.299L177.737 156.252L181.403 154.618C182.828 156.529 184.456 158.279 186.258 159.84L184.39 163.49Z" stroke="#121D50" stroke-width="2" stroke-miterlimit="10"/>
</g>
<g filter="url(#filter10_d)">
<path d="M349.964 143.812C348.1 143.001 346.519 141.656 345.419 139.946C344.32 138.236 343.752 136.239 343.787 134.206C343.822 132.174 344.459 130.198 345.618 128.527C346.776 126.857 348.404 125.567 350.295 124.822C352.186 124.076 354.256 123.908 356.242 124.339C358.229 124.769 360.044 125.779 361.456 127.241C362.869 128.702 363.817 130.55 364.18 132.55C364.543 134.55 364.305 136.613 363.496 138.477C362.958 139.717 362.182 140.838 361.21 141.777C360.239 142.715 359.092 143.454 357.836 143.949C356.579 144.445 355.237 144.687 353.886 144.664C352.536 144.64 351.203 144.351 349.964 143.812Z" stroke="#121D50" stroke-width="2" stroke-miterlimit="10"/>
<path d="M338.238 130.188C337.787 129.995 337.403 129.672 337.136 129.26C336.869 128.848 336.729 128.366 336.736 127.875C336.743 127.385 336.895 126.907 337.174 126.502C337.452 126.098 337.844 125.786 338.3 125.604C338.757 125.423 339.257 125.382 339.736 125.485C340.216 125.588 340.655 125.831 340.997 126.183C341.338 126.536 341.568 126.982 341.656 127.465C341.744 127.948 341.686 128.446 341.491 128.896C341.23 129.498 340.741 129.972 340.131 130.214C339.522 130.456 338.841 130.447 338.238 130.188V130.188Z" stroke="#121D50" stroke-width="2" stroke-miterlimit="10"/>
<path d="M345.825 120.214C345.647 119.76 345.607 119.263 345.711 118.786C345.815 118.309 346.058 117.874 346.409 117.535C346.76 117.196 347.204 116.968 347.684 116.881C348.164 116.794 348.66 116.852 349.107 117.046C349.555 117.24 349.935 117.563 350.2 117.973C350.465 118.383 350.602 118.863 350.594 119.351C350.586 119.839 350.434 120.313 350.157 120.715C349.88 121.117 349.49 121.427 349.036 121.607C348.734 121.729 348.411 121.789 348.085 121.785C347.759 121.78 347.438 121.711 347.139 121.582C346.841 121.452 346.571 121.264 346.345 121.03C346.12 120.795 345.943 120.518 345.825 120.214Z" stroke="#121D50" stroke-width="2" stroke-miterlimit="10"/>
<path d="M358.246 118.519C358.442 118.068 358.767 117.686 359.179 117.42C359.592 117.155 360.075 117.017 360.565 117.026C361.056 117.035 361.533 117.189 361.937 117.469C362.34 117.749 362.651 118.143 362.83 118.6C363.009 119.057 363.049 119.557 362.944 120.036C362.839 120.516 362.594 120.953 362.24 121.294C361.886 121.634 361.439 121.861 360.956 121.947C360.473 122.033 359.975 121.974 359.525 121.777C358.924 121.513 358.453 121.022 358.213 120.412C357.973 119.801 357.985 119.12 358.246 118.519Z" stroke="#121D50" stroke-width="2" stroke-miterlimit="10"/>
<path d="M368.184 126.09C368.638 125.911 369.135 125.872 369.612 125.976C370.089 126.079 370.525 126.322 370.864 126.674C371.203 127.025 371.43 127.468 371.517 127.949C371.604 128.429 371.547 128.924 371.352 129.372C371.158 129.82 370.836 130.2 370.425 130.465C370.015 130.729 369.536 130.866 369.048 130.859C368.56 130.851 368.085 130.699 367.683 130.422C367.282 130.144 366.971 129.754 366.791 129.301C366.551 128.69 366.563 128.009 366.824 127.407C367.086 126.806 367.574 126.332 368.184 126.09V126.09Z" stroke="#121D50" stroke-width="2" stroke-miterlimit="10"/>
<path d="M369.903 138.532C370.352 138.727 370.732 139.05 370.997 139.46C371.261 139.871 371.398 140.351 371.39 140.839C371.382 141.328 371.229 141.803 370.951 142.204C370.673 142.606 370.282 142.916 369.827 143.096C369.373 143.275 368.875 143.316 368.398 143.212C367.921 143.109 367.484 142.866 367.145 142.515C366.805 142.164 366.577 141.72 366.49 141.239C366.403 140.759 366.46 140.263 366.654 139.815C366.917 139.216 367.406 138.745 368.015 138.504C368.623 138.264 369.302 138.274 369.903 138.532Z" stroke="#121D50" stroke-width="2" stroke-miterlimit="10"/>
<path d="M362.317 148.506C362.495 148.961 362.535 149.458 362.431 149.935C362.327 150.412 362.084 150.847 361.733 151.186C361.382 151.525 360.938 151.752 360.458 151.839C359.977 151.926 359.482 151.869 359.034 151.675C358.586 151.481 358.206 151.158 357.942 150.748C357.677 150.338 357.54 149.858 357.548 149.37C357.555 148.882 357.707 148.407 357.985 148.006C358.262 147.604 358.652 147.293 359.106 147.113C359.408 146.993 359.731 146.934 360.056 146.939C360.381 146.944 360.702 147.014 361.001 147.143C361.299 147.272 361.569 147.46 361.795 147.693C362.02 147.927 362.198 148.204 362.317 148.506V148.506Z" stroke="#121D50" stroke-width="2" stroke-miterlimit="10"/>
<path d="M349.899 150.193C349.706 150.644 349.382 151.028 348.971 151.295C348.559 151.563 348.077 151.702 347.586 151.695C347.095 151.688 346.618 151.536 346.213 151.258C345.809 150.979 345.496 150.587 345.315 150.131C345.134 149.674 345.092 149.175 345.195 148.695C345.298 148.215 345.542 147.776 345.894 147.434C346.247 147.093 346.693 146.863 347.176 146.775C347.659 146.687 348.157 146.745 348.607 146.94C348.906 147.068 349.177 147.254 349.403 147.487C349.63 147.721 349.809 147.996 349.929 148.298C350.049 148.601 350.108 148.924 350.103 149.249C350.098 149.574 350.029 149.895 349.899 150.193V150.193Z" stroke="#121D50" stroke-width="2" stroke-miterlimit="10"/>
<path d="M339.925 142.606C339.47 142.784 338.973 142.824 338.496 142.72C338.02 142.616 337.584 142.373 337.245 142.022C336.906 141.671 336.679 141.227 336.592 140.747C336.505 140.267 336.562 139.771 336.756 139.323C336.951 138.876 337.273 138.496 337.683 138.231C338.094 137.966 338.573 137.829 339.061 137.837C339.549 137.845 340.024 137.997 340.426 138.274C340.827 138.551 341.138 138.941 341.318 139.395C341.555 140.006 341.541 140.685 341.281 141.287C341.02 141.888 340.533 142.362 339.925 142.606V142.606Z" stroke="#121D50" stroke-width="2" stroke-miterlimit="10"/>
<path d="M344.949 155.371C340.792 153.567 337.264 150.571 334.809 146.762C332.355 142.953 331.086 138.502 331.161 133.972C331.237 129.441 332.654 125.035 335.234 121.31C337.814 117.585 341.441 114.708 345.655 113.044C349.87 111.38 354.483 111.004 358.912 111.962C363.341 112.92 367.386 115.169 370.536 118.426C373.686 121.683 375.8 125.801 376.609 130.26C377.419 134.718 376.889 139.316 375.085 143.473C372.666 149.047 368.133 153.432 362.481 155.663C356.829 157.894 350.523 157.789 344.949 155.371Z" stroke="#121D50" stroke-width="2" stroke-miterlimit="10"/>
<path d="M433.656 143.924C431.787 143.115 430.201 141.771 429.097 140.061C427.993 138.351 427.421 136.351 427.454 134.316C427.486 132.281 428.122 130.301 429.28 128.627C430.438 126.952 432.066 125.659 433.959 124.911C435.852 124.162 437.925 123.992 439.914 124.422C441.904 124.852 443.722 125.862 445.137 127.325C446.553 128.787 447.502 130.637 447.866 132.64C448.231 134.643 447.992 136.709 447.182 138.576C446.096 141.078 444.062 143.047 441.526 144.049C438.989 145.052 436.159 145.007 433.656 143.924V143.924Z" stroke="#121D50" stroke-width="2" stroke-miterlimit="10"/>
<path d="M425.165 129.023C425.708 127.772 425.134 126.317 423.882 125.774C422.631 125.231 421.176 125.805 420.633 127.057C420.09 128.308 420.664 129.763 421.916 130.306C423.167 130.849 424.622 130.274 425.165 129.023Z" stroke="#121D50" stroke-width="2" stroke-miterlimit="10"/>
<path d="M429.536 120.357C429.356 119.902 429.315 119.405 429.418 118.927C429.521 118.449 429.763 118.013 430.115 117.673C430.466 117.333 430.91 117.105 431.391 117.017C431.871 116.93 432.367 116.987 432.816 117.182C433.264 117.376 433.645 117.699 433.909 118.11C434.174 118.521 434.311 119.001 434.302 119.49C434.294 119.978 434.141 120.454 433.862 120.855C433.584 121.257 433.192 121.567 432.738 121.746C432.129 121.985 431.45 121.974 430.849 121.713C430.249 121.453 429.777 120.965 429.536 120.357V120.357Z" stroke="#121D50" stroke-width="2" stroke-miterlimit="10"/>
<path d="M441.926 118.658C442.12 118.206 442.443 117.823 442.856 117.555C443.268 117.288 443.75 117.149 444.241 117.156C444.733 117.163 445.211 117.316 445.615 117.596C446.019 117.875 446.331 118.268 446.512 118.725C446.692 119.182 446.733 119.683 446.628 120.163C446.524 120.643 446.279 121.081 445.926 121.422C445.572 121.763 445.125 121.991 444.641 122.077C444.157 122.164 443.659 122.104 443.209 121.907C442.61 121.644 442.139 121.155 441.898 120.547C441.658 119.938 441.668 119.259 441.926 118.658V118.658Z" stroke="#121D50" stroke-width="2" stroke-miterlimit="10"/>
<path d="M451.9 126.245C452.354 126.067 452.851 126.027 453.328 126.131C453.805 126.235 454.241 126.478 454.58 126.829C454.919 127.18 455.146 127.624 455.233 128.104C455.32 128.584 455.263 129.08 455.068 129.527C454.874 129.975 454.552 130.355 454.141 130.62C453.731 130.884 453.252 131.022 452.764 131.014C452.276 131.006 451.801 130.854 451.399 130.577C450.998 130.299 450.687 129.909 450.507 129.456C450.387 129.153 450.328 128.831 450.333 128.505C450.338 128.18 450.407 127.859 450.537 127.561C450.666 127.263 450.853 126.993 451.087 126.767C451.321 126.541 451.597 126.364 451.9 126.245Z" stroke="#121D50" stroke-width="2" stroke-miterlimit="10"/>
<path d="M453.598 138.635C454.05 138.829 454.434 139.152 454.701 139.564C454.968 139.977 455.107 140.459 455.1 140.95C455.093 141.442 454.94 141.92 454.661 142.324C454.381 142.728 453.988 143.04 453.531 143.221C453.074 143.401 452.574 143.442 452.094 143.337C451.613 143.233 451.175 142.988 450.834 142.635C450.493 142.281 450.265 141.833 450.179 141.35C450.093 140.866 450.152 140.368 450.349 139.918C450.477 139.619 450.663 139.349 450.896 139.123C451.129 138.897 451.405 138.719 451.707 138.6C452.009 138.48 452.331 138.422 452.656 138.428C452.981 138.434 453.301 138.504 453.598 138.635V138.635Z" stroke="#121D50" stroke-width="2" stroke-miterlimit="10"/>
<path d="M445.999 148.637C446.178 149.091 446.218 149.588 446.114 150.065C446.01 150.542 445.767 150.977 445.416 151.316C445.064 151.655 444.621 151.883 444.14 151.97C443.66 152.057 443.165 151.999 442.717 151.805C442.269 151.611 441.889 151.288 441.625 150.878C441.36 150.468 441.223 149.989 441.231 149.501C441.238 149.012 441.39 148.538 441.668 148.136C441.945 147.734 442.335 147.424 442.789 147.244C443.091 147.124 443.414 147.064 443.739 147.07C444.064 147.075 444.385 147.144 444.683 147.273C444.982 147.403 445.252 147.59 445.477 147.824C445.703 148.058 445.881 148.334 445.999 148.637V148.637Z" stroke="#121D50" stroke-width="2" stroke-miterlimit="10"/>
<path d="M433.582 150.323C433.388 150.774 433.065 151.158 432.654 151.425C432.242 151.693 431.76 151.832 431.269 151.825C430.778 151.818 430.3 151.666 429.896 151.388C429.492 151.109 429.179 150.717 428.998 150.261C428.817 149.804 428.775 149.305 428.878 148.825C428.981 148.345 429.225 147.906 429.577 147.565C429.93 147.223 430.376 146.993 430.859 146.906C431.342 146.818 431.84 146.875 432.29 147.07C432.892 147.331 433.366 147.82 433.608 148.43C433.85 149.04 433.841 149.721 433.582 150.323V150.323Z" stroke="#121D50" stroke-width="2" stroke-miterlimit="10"/>
<path d="M423.599 142.732C423.144 142.911 422.647 142.95 422.17 142.846C421.693 142.743 421.258 142.5 420.919 142.149C420.58 141.797 420.353 141.354 420.266 140.873C420.179 140.393 420.236 139.898 420.43 139.45C420.624 139.002 420.947 138.622 421.357 138.357C421.767 138.093 422.247 137.956 422.735 137.963C423.223 137.971 423.698 138.123 424.099 138.4C424.501 138.678 424.812 139.068 424.992 139.522C425.113 139.824 425.173 140.147 425.169 140.472C425.164 140.798 425.095 141.119 424.966 141.418C424.836 141.717 424.649 141.987 424.414 142.212C424.179 142.438 423.902 142.615 423.599 142.732V142.732Z" stroke="#121D50" stroke-width="2" stroke-miterlimit="10"/>
<path d="M428.632 155.501C424.475 153.697 420.947 150.701 418.492 146.892C416.038 143.083 414.769 138.632 414.844 134.102C414.92 129.571 416.337 125.165 418.917 121.44C421.497 117.715 425.124 114.838 429.338 113.175C433.553 111.511 438.166 111.134 442.595 112.092C447.024 113.05 451.069 115.3 454.219 118.557C457.369 121.814 459.483 125.932 460.292 130.39C461.102 134.848 460.572 139.446 458.768 143.603C456.349 149.177 451.816 153.562 446.164 155.793C440.512 158.025 434.206 157.919 428.632 155.501Z" stroke="#121D50" stroke-width="2" stroke-miterlimit="10"/>
<path d="M363.187 113.337L426.788 114.554" stroke="#121D50" stroke-width="2" stroke-miterlimit="10"/>
<path d="M365.729 154.358L429.33 155.575" stroke="#121D50" stroke-width="2" stroke-miterlimit="10"/>
</g>
<g filter="url(#filter11_d)">
<path d="M1429.42 159.34V150.07H1423.84C1423.09 144.947 1421.08 140.091 1417.99 135.94L1421.99 131.99L1415.42 125.48L1411.42 129.42C1407.27 126.344 1402.44 124.338 1397.33 123.58V118H1388.05V123.58C1382.94 124.334 1378.1 126.34 1373.96 129.42L1370.02 125.42L1363.46 131.98L1367.42 135.94C1364.34 140.08 1362.34 144.917 1361.58 150.02H1356V159.3H1361.58C1362.33 164.42 1364.34 169.275 1367.42 173.43L1363.48 177.37L1370.04 183.93L1373.98 179.93C1378.12 183.014 1382.96 185.021 1388.07 185.77V191.35H1397.34V185.77C1402.44 185.033 1407.27 183.047 1411.42 179.99L1415.42 183.93L1421.98 177.38L1417.98 173.38C1421.06 169.235 1423.06 164.395 1423.82 159.29L1429.42 159.34Z" stroke="#121D50" stroke-width="2" stroke-miterlimit="10"/>
</g>
<g filter="url(#filter12_d)">
<path d="M581.99 142.97V133.97H576.6C575.869 129.035 573.932 124.357 570.96 120.35L574.77 116.53L568.39 110.22L564.58 114.04C560.573 111.06 555.89 109.119 550.95 108.39V103H541.95V108.39C537.034 109.128 532.376 111.069 528.39 114.04L524.57 110.22L518.23 116.56L522.05 120.38C519.064 124.381 517.12 129.061 516.39 134H511V143H516.39C517.119 147.937 519.06 152.617 522.04 156.62L518.22 160.44L524.56 166.78L528.38 162.96C532.382 165.942 537.062 167.883 542 168.61V174H551V168.61C555.935 167.88 560.614 165.943 564.62 162.97L568.39 166.75L574.73 160.41L570.91 156.6C573.89 152.593 575.831 147.91 576.56 142.97H581.99Z" stroke="#121D50" stroke-width="2" stroke-miterlimit="10"/>
<path d="M543.1 112.78C538.382 113.343 533.911 115.198 530.18 118.14L543.1 131.06V112.78Z" stroke="#121D50" stroke-width="2" stroke-miterlimit="10"/>
<path d="M538.73 141.61H520.45C521.013 146.331 522.868 150.805 525.81 154.54L538.73 141.61Z" stroke="#121D50" stroke-width="2" stroke-miterlimit="10"/>
<path d="M549.28 112.78V131.06L562.21 118.14C558.475 115.198 554.001 113.343 549.28 112.78V112.78Z" stroke="#121D50" stroke-width="2" stroke-miterlimit="10"/>
<path d="M538.73 135.43L525.81 122.51C522.868 126.241 521.013 130.712 520.45 135.43H538.73Z" stroke="#121D50" stroke-width="2" stroke-miterlimit="10"/>
<path d="M553.65 141.61L566.58 154.54C569.523 150.807 571.375 146.331 571.93 141.61H553.65Z" stroke="#121D50" stroke-width="2" stroke-miterlimit="10"/>
<path d="M553.65 135.43H571.93C571.375 130.712 569.523 126.239 566.58 122.51L553.65 135.43Z" stroke="#121D50" stroke-width="2" stroke-miterlimit="10"/>
<path d="M549.28 145.979V164.259C554 163.7 558.474 161.849 562.21 158.909L549.28 145.979Z" stroke="#121D50" stroke-width="2" stroke-miterlimit="10"/>
<path d="M543.1 145.979L530.18 158.909C533.912 161.849 538.383 163.7 543.1 164.259V145.979Z" stroke="#121D50" stroke-width="2" stroke-miterlimit="10"/>
</g>
<defs>
<filter id="filter0_d" x="1237" y="101" width="74.82" height="74.82" filterUnits="userSpaceOnUse" color-interpolation-filters="sRGB">
<feFlood flood-opacity="0" result="BackgroundImageFix"/>
<feColorMatrix in="SourceAlpha" type="matrix" values="0 0 0 0 0 0 0 0 0 0 0 0 0 0 0 0 0 0 127 0" result="hardAlpha"/>
<feOffset dy="4"/>
<feGaussianBlur stdDeviation="2"/>
<feColorMatrix type="matrix" values="0 0 0 0 0.121569 0 0 0 0 0.141176 0 0 0 0 0.337255 0 0 0 0.28 0"/>
<feBlend mode="normal" in2="BackgroundImageFix" result="effect1_dropShadow"/>
<feBlend mode="normal" in="SourceGraphic" in2="effect1_dropShadow" result="shape"/>
</filter>
<filter id="filter1_d" x="746.508" y="68.6016" width="65.5471" height="65.5471" filterUnits="userSpaceOnUse" color-interpolation-filters="sRGB">
<feFlood flood-opacity="0" result="BackgroundImageFix"/>
<feColorMatrix in="SourceAlpha" type="matrix" values="0 0 0 0 0 0 0 0 0 0 0 0 0 0 0 0 0 0 127 0" result="hardAlpha"/>
<feOffset dy="4"/>
<feGaussianBlur stdDeviation="2"/>
<feColorMatrix type="matrix" values="0 0 0 0 0.121569 0 0 0 0 0.141176 0 0 0 0 0.337255 0 0 0 0.28 0"/>
<feBlend mode="normal" in2="BackgroundImageFix" result="effect1_dropShadow"/>
<feBlend mode="normal" in="SourceGraphic" in2="effect1_dropShadow" result="shape"/>
</filter>
<filter id="filter2_d" x="715.602" y="98.6526" width="28.7203" height="28.7203" filterUnits="userSpaceOnUse" color-interpolation-filters="sRGB">
<feFlood flood-opacity="0" result="BackgroundImageFix"/>
<feColorMatrix in="SourceAlpha" type="matrix" values="0 0 0 0 0 0 0 0 0 0 0 0 0 0 0 0 0 0 127 0" result="hardAlpha"/>
<feOffset dy="4"/>
<feGaussianBlur stdDeviation="2"/>
<feColorMatrix type="matrix" values="0 0 0 0 0.121569 0 0 0 0 0.141176 0 0 0 0 0.337255 0 0 0 0.28 0"/>
<feBlend mode="normal" in2="BackgroundImageFix" result="effect1_dropShadow"/>
<feBlend mode="normal" in="SourceGraphic" in2="effect1_dropShadow" result="shape"/>
</filter>
<filter id="filter3_d" x="764.258" y="125.137" width="28.7203" height="28.7203" filterUnits="userSpaceOnUse" color-interpolation-filters="sRGB">
<feFlood flood-opacity="0" result="BackgroundImageFix"/>
<feColorMatrix in="SourceAlpha" type="matrix" values="0 0 0 0 0 0 0 0 0 0 0 0 0 0 0 0 0 0 127 0" result="hardAlpha"/>
<feOffset dy="4"/>
<feGaussianBlur stdDeviation="2"/>
<feColorMatrix type="matrix" values="0 0 0 0 0.121569 0 0 0 0 0.141176 0 0 0 0 0.337255 0 0 0 0.28 0"/>
<feBlend mode="normal" in2="BackgroundImageFix" result="effect1_dropShadow"/>
<feBlend mode="normal" in="SourceGraphic" in2="effect1_dropShadow" result="shape"/>
</filter>
<filter id="filter4_d" x="1037.56" y="83.1089" width="144.079" height="87.6946" filterUnits="userSpaceOnUse" color-interpolation-filters="sRGB">
<feFlood flood-opacity="0" result="BackgroundImageFix"/>
<feColorMatrix in="SourceAlpha" type="matrix" values="0 0 0 0 0 0 0 0 0 0 0 0 0 0 0 0 0 0 127 0" result="hardAlpha"/>
<feOffset dy="4"/>
<feGaussianBlur stdDeviation="2"/>
<feColorMatrix type="matrix" values="0 0 0 0 0.121569 0 0 0 0 0.141176 0 0 0 0 0.337255 0 0 0 0.28 0"/>
<feBlend mode="normal" in2="BackgroundImageFix" result="effect1_dropShadow"/>
<feBlend mode="normal" in="SourceGraphic" in2="effect1_dropShadow" result="shape"/>
</filter>
<filter id="filter5_d" x="852" y="66" width="66.33" height="66.32" filterUnits="userSpaceOnUse" color-interpolation-filters="sRGB">
<feFlood flood-opacity="0" result="BackgroundImageFix"/>
<feColorMatrix in="SourceAlpha" type="matrix" values="0 0 0 0 0 0 0 0 0 0 0 0 0 0 0 0 0 0 127 0" result="hardAlpha"/>
<feOffset dy="4"/>
<feGaussianBlur stdDeviation="2"/>
<feColorMatrix type="matrix" values="0 0 0 0 0.121569 0 0 0 0 0.141176 0 0 0 0 0.337255 0 0 0 0.28 0"/>
<feBlend mode="normal" in2="BackgroundImageFix" result="effect1_dropShadow"/>
<feBlend mode="normal" in="SourceGraphic" in2="effect1_dropShadow" result="shape"/>
</filter>
<filter id="filter6_d" x="275" y="45" width="66.33" height="66.32" filterUnits="userSpaceOnUse" color-interpolation-filters="sRGB">
<feFlood flood-opacity="0" result="BackgroundImageFix"/>
<feColorMatrix in="SourceAlpha" type="matrix" values="0 0 0 0 0 0 0 0 0 0 0 0 0 0 0 0 0 0 127 0" result="hardAlpha"/>
<feOffset dy="4"/>
<feGaussianBlur stdDeviation="2"/>
<feColorMatrix type="matrix" values="0 0 0 0 0.121569 0 0 0 0 0.141176 0 0 0 0 0.337255 0 0 0 0.28 0"/>
<feBlend mode="normal" in2="BackgroundImageFix" result="effect1_dropShadow"/>
<feBlend mode="normal" in="SourceGraphic" in2="effect1_dropShadow" result="shape"/>
</filter>
<filter id="filter7_d" x="609" y="79" width="66.33" height="66.32" filterUnits="userSpaceOnUse" color-interpolation-filters="sRGB">
<feFlood flood-opacity="0" result="BackgroundImageFix"/>
<feColorMatrix in="SourceAlpha" type="matrix" values="0 0 0 0 0 0 0 0 0 0 0 0 0 0 0 0 0 0 127 0" result="hardAlpha"/>
<feOffset dy="4"/>
<feGaussianBlur stdDeviation="2"/>
<feColorMatrix type="matrix" values="0 0 0 0 0.121569 0 0 0 0 0.141176 0 0 0 0 0.337255 0 0 0 0.28 0"/>
<feBlend mode="normal" in2="BackgroundImageFix" result="effect1_dropShadow"/>
<feBlend mode="normal" in="SourceGraphic" in2="effect1_dropShadow" result="shape"/>
</filter>
<filter id="filter8_d" x="940" y="108" width="68.1" height="68.1" filterUnits="userSpaceOnUse" color-interpolation-filters="sRGB">
<feFlood flood-opacity="0" result="BackgroundImageFix"/>
<feColorMatrix in="SourceAlpha" type="matrix" values="0 0 0 0 0 0 0 0 0 0 0 0 0 0 0 0 0 0 127 0" result="hardAlpha"/>
<feOffset dy="4"/>
<feGaussianBlur stdDeviation="2"/>
<feColorMatrix type="matrix" values="0 0 0 0 0.121569 0 0 0 0 0.141176 0 0 0 0 0.337255 0 0 0 0.28 0"/>
<feBlend mode="normal" in2="BackgroundImageFix" result="effect1_dropShadow"/>
<feBlend mode="normal" in="SourceGraphic" in2="effect1_dropShadow" result="shape"/>
</filter>
<filter id="filter9_d" x="11.2803" y="60.6829" width="275.031" height="156.014" filterUnits="userSpaceOnUse" color-interpolation-filters="sRGB">
<feFlood flood-opacity="0" result="BackgroundImageFix"/>
<feColorMatrix in="SourceAlpha" type="matrix" values="0 0 0 0 0 0 0 0 0 0 0 0 0 0 0 0 0 0 127 0" result="hardAlpha"/>
<feOffset dy="4"/>
<feGaussianBlur stdDeviation="2"/>
<feColorMatrix type="matrix" values="0 0 0 0 0.121569 0 0 0 0 0.141176 0 0 0 0 0.337255 0 0 0 0.28 0"/>
<feBlend mode="normal" in2="BackgroundImageFix" result="effect1_dropShadow"/>
<feBlend mode="normal" in="SourceGraphic" in2="effect1_dropShadow" result="shape"/>
</filter>
<filter id="filter10_d" x="318.617" y="90.1367" width="154.586" height="96.6382" filterUnits="userSpaceOnUse" color-interpolation-filters="sRGB">
<feFlood flood-opacity="0" result="BackgroundImageFix"/>
<feColorMatrix in="SourceAlpha" type="matrix" values="0 0 0 0 0 0 0 0 0 0 0 0 0 0 0 0 0 0 127 0" result="hardAlpha"/>
<feOffset dy="4"/>
<feGaussianBlur stdDeviation="2"/>
<feColorMatrix type="matrix" values="0 0 0 0 0.121569 0 0 0 0 0.141176 0 0 0 0 0.337255 0 0 0 0.28 0"/>
<feBlend mode="normal" in2="BackgroundImageFix" result="effect1_dropShadow"/>
<feBlend mode="normal" in="SourceGraphic" in2="effect1_dropShadow" result="shape"/>
</filter>
<filter id="filter11_d" x="1351" y="117" width="83.42" height="83.35" filterUnits="userSpaceOnUse" color-interpolation-filters="sRGB">
<feFlood flood-opacity="0" result="BackgroundImageFix"/>
<feColorMatrix in="SourceAlpha" type="matrix" values="0 0 0 0 0 0 0 0 0 0 0 0 0 0 0 0 0 0 127 0" result="hardAlpha"/>
<feOffset dy="4"/>
<feGaussianBlur stdDeviation="2"/>
<feColorMatrix type="matrix" values="0 0 0 0 0.121569 0 0 0 0 0.141176 0 0 0 0 0.337255 0 0 0 0.28 0"/>
<feBlend mode="normal" in2="BackgroundImageFix" result="effect1_dropShadow"/>
<feBlend mode="normal" in="SourceGraphic" in2="effect1_dropShadow" result="shape"/>
</filter>
<filter id="filter12_d" x="506" y="102" width="80.99" height="81" filterUnits="userSpaceOnUse" color-interpolation-filters="sRGB">
<feFlood flood-opacity="0" result="BackgroundImageFix"/>
<feColorMatrix in="SourceAlpha" type="matrix" values="0 0 0 0 0 0 0 0 0 0 0 0 0 0 0 0 0 0 127 0" result="hardAlpha"/>
<feOffset dy="4"/>
<feGaussianBlur stdDeviation="2"/>
<feColorMatrix type="matrix" values="0 0 0 0 0.121569 0 0 0 0 0.141176 0 0 0 0 0.337255 0 0 0 0.28 0"/>
<feBlend mode="normal" in2="BackgroundImageFix" result="effect1_dropShadow"/>
<feBlend mode="normal" in="SourceGraphic" in2="effect1_dropShadow" result="shape"/>
</filter>
</defs>
</svg>
