<svg width="121" height="118" viewBox="0 0 121 118" fill="none" xmlns="http://www.w3.org/2000/svg">
<path d="M97.41 43.2814C95.5638 43.2814 93.65 42.2907 91.6686 40.3093C85.3288 33.9694 89.1428 24.7285 90.8571 21.371H52.7269C46.803 21.371 41.0617 15.7716 35.4826 10.365C30.5021 5.5062 25.7954 0.921259 22.1132 1.69218C20.1453 2.10807 18.4818 4.05566 17.0414 7.66682C15.9154 10.4462 17.9543 12.0387 21.6568 14.6153C25.836 17.5163 31.0295 21.1377 31.0295 28.8164H29.3863C29.3863 22.0404 24.781 18.835 20.7235 16.0049C17.1834 13.5502 13.836 11.2273 15.5097 7.08862C17.1834 2.94999 19.2426 0.65752 21.7886 0.119904C26.3229 -0.833604 31.3339 4.05566 36.6492 9.24924C41.9645 14.4428 47.4725 19.7987 52.7269 19.7987H93.7278L92.9569 21.0565C92.8859 21.1681 86.0591 32.4479 92.8351 39.2239C94.7726 41.1613 96.5579 41.9627 98.1403 41.6279C100.91 41.0193 102.401 37.1038 102.421 37.0633L103.963 37.6313C103.892 37.8342 102.157 42.4293 98.5055 43.2306C98.1432 43.2871 97.7759 43.3041 97.41 43.2814Z" fill="#3A3A3A"/>
<path d="M105.87 54.196L103.912 57.5942V66.267C103.912 66.294 103.923 66.3197 103.942 66.3388C103.961 66.3578 103.987 66.3685 104.014 66.3685C104.04 66.3685 104.066 66.3578 104.085 66.3388C104.104 66.3197 104.115 66.294 104.115 66.267L105.758 58.6288L107.716 55.2307L105.87 54.196Z" fill="#AEAEAF"/>
<path d="M99.6821 54.196L101.64 57.5942V66.267C101.64 66.294 101.629 66.3197 101.61 66.3388C101.591 66.3578 101.565 66.3685 101.538 66.3685C101.511 66.3685 101.486 66.3578 101.467 66.3388C101.448 66.3197 101.437 66.294 101.437 66.267L99.8038 58.6288L97.8359 55.2307L99.6821 54.196Z" fill="#AEAEAF"/>
<path d="M104.734 27.0515H100.808V43.3423H104.734V27.0515Z" fill="#AEAEAF"/>
<path d="M102.817 30.2264C104.391 30.2264 105.667 28.9502 105.667 27.376C105.667 25.8018 104.391 24.5256 102.817 24.5256C101.242 24.5256 99.9662 25.8018 99.9662 27.376C99.9662 28.9502 101.242 30.2264 102.817 30.2264Z" fill="#AEAEAF"/>
<path d="M87.1344 23.4199H58.1741V25.0125H87.1344V23.4199Z" fill="#AEAEAF"/>
<path d="M78.8198 32.6623C82.2226 29.2595 82.2226 23.7424 78.8198 20.3396C75.417 16.9368 69.9 16.9368 66.4971 20.3396C63.0943 23.7425 63.0943 29.2595 66.4971 32.6623C69.9 36.0651 75.417 36.0651 78.8198 32.6623Z" fill="#AEAEAF"/>
<path d="M84.2028 22.1723C85.0992 22.1723 85.8258 21.4456 85.8258 20.5493C85.8258 19.6529 85.0992 18.9263 84.2028 18.9263C83.3065 18.9263 82.5798 19.6529 82.5798 20.5493C82.5798 21.4456 83.3065 22.1723 84.2028 22.1723Z" fill="#121D50"/>
<path d="M85.4607 20.5492C85.4627 20.7989 85.3904 21.0434 85.2529 21.2518C85.1155 21.4602 84.9191 21.623 84.6889 21.7195C84.4587 21.8159 84.2049 21.8417 83.96 21.7935C83.715 21.7453 83.49 21.6253 83.3135 21.4487C83.137 21.2722 83.017 21.0472 82.9687 20.8022C82.9205 20.5573 82.9463 20.3036 83.0428 20.0733C83.1392 19.8431 83.302 19.6467 83.5104 19.5093C83.7188 19.3719 83.9634 19.2995 84.213 19.3016C84.5439 19.3016 84.8612 19.433 85.0952 19.667C85.3292 19.901 85.4607 20.2183 85.4607 20.5492Z" fill="#88929F"/>
<path d="M83.7566 21.3204L83.3204 20.5495L83.7566 19.7786H84.6493L85.0956 20.5495L84.6493 21.3204H83.7566Z" fill="#88929F"/>
<path d="M61.0955 22.1723C61.9919 22.1723 62.7185 21.4456 62.7185 20.5493C62.7185 19.6529 61.9919 18.9263 61.0955 18.9263C60.1992 18.9263 59.4725 19.6529 59.4725 20.5493C59.4725 21.4456 60.1992 22.1723 61.0955 22.1723Z" fill="#121D50"/>
<path d="M62.3534 20.5492C62.3635 20.8003 62.2982 21.0487 62.1658 21.2623C62.0334 21.476 61.8401 21.645 61.6107 21.7478C61.3814 21.8505 61.1265 21.8822 60.879 21.8387C60.6314 21.7952 60.4026 21.6786 60.222 21.5038C60.0414 21.3291 59.9172 21.1042 59.8656 20.8583C59.8139 20.6123 59.8372 20.3565 59.9323 20.1239C60.0274 19.8913 60.19 19.6925 60.3991 19.5531C60.6083 19.4137 60.8544 19.3403 61.1057 19.3421C61.4297 19.3419 61.741 19.4678 61.9739 19.6931C62.2067 19.9183 62.3428 20.2254 62.3534 20.5492Z" fill="#88929F"/>
<path d="M60.6593 21.3204L60.213 20.5495L60.6593 19.7786H61.5418L61.9882 20.5495L61.5418 21.3204H60.6593Z" fill="#88929F"/>
<path d="M120.203 12.1606H50.8402V13.9358H120.203V12.1606Z" fill="#88929F"/>
<path d="M120.203 16.0657H50.8402V23.4199H120.203V16.0657Z" fill="#88929F"/>
<path d="M119.29 13.9358H51.5706V16.066H119.29V13.9358Z" fill="#BDC5CA"/>
<path d="M0 113.374H37.5824V106.314L10.0321 109.956V111.274L0 111.285V113.374Z" fill="#88929F"/>
<path d="M10.0423 113.375H0.0101318V118H10.0423V113.375Z" fill="#6D747A"/>
<path d="M8.6019 108.404H1.53174V111.295H8.6019V108.404Z" fill="#88929F"/>
<path d="M8.60188 108.404H7.08032V111.295H8.60188V108.404Z" fill="#BBBBBB"/>
<path d="M3.05329 108.404H1.53174V111.295H3.05329V108.404Z" fill="#BBBBBB"/>
<path d="M105.089 113.374H64.9501L67.5164 106.314L95.0667 109.956V111.274L105.089 111.285V113.374Z" fill="#88929F"/>
<path d="M105.089 113.375H95.0566V118H105.089V113.375Z" fill="#6D747A"/>
<path d="M103.557 108.404H96.4869V111.295H103.557V108.404Z" fill="#88929F"/>
<path d="M98.0085 108.404H96.4869V111.295H98.0085V108.404Z" fill="#BBBBBB"/>
<path d="M103.557 108.404H102.036V111.295H103.557V108.404Z" fill="#BBBBBB"/>
<path d="M47.8173 40.4209H25.7852V48.8605H47.8173V40.4209Z" fill="#121D50"/>
<path d="M52.1793 79.5757H47.858V94.1015H52.1793V79.5757Z" fill="#E1E1E1"/>
<path d="M72.6594 23.3999C71.9474 23.3855 71.253 23.6213 70.697 24.0661C70.141 24.5109 69.7585 25.1367 69.6163 25.8344H63.9459C63.9459 26.0474 63.9459 26.2604 63.9459 26.4836C63.9459 27.6273 64.1714 28.7599 64.6094 29.8165C65.0474 30.8731 65.6894 31.833 66.4986 32.6413C67.3079 33.4496 68.2685 34.0905 69.3256 34.5273C70.3828 34.9641 71.5156 35.1882 72.6594 35.1869C72.9028 35.1869 73.1564 35.1869 73.3999 35.1869V29.4861C73.7995 29.4375 74.1856 29.3106 74.5362 29.1128C74.8868 28.9149 75.195 28.6499 75.4432 28.333C75.6914 28.016 75.8748 27.6533 75.9828 27.2655C76.0908 26.8777 76.1213 26.4724 76.0727 26.0727C76.0241 25.6731 75.8972 25.287 75.6994 24.9364C75.5015 24.5858 75.2366 24.2776 74.9196 24.0294C74.6026 23.7812 74.2399 23.5979 73.8521 23.4898C73.4643 23.3818 73.059 23.3513 72.6594 23.3999Z" fill="#908F8F"/>
<path d="M61.694 113.375H43.3948V118H61.694V113.375Z" fill="#6D747A"/>
<path d="M57.9104 82.8013H39.4792V95.3693H57.9104V82.8013Z" fill="#CED3D6"/>
<path d="M57.9206 82.8013H56.6425V85.8444C56.6425 85.8444 51.104 86.6762 51.104 93.1884H41.3457C40.7321 93.1904 40.1227 93.2897 39.5402 93.4826V95.3795H57.9713L57.9206 82.8013Z" fill="#AEAEAF"/>
<path d="M72.4564 86.7371H58.1843C57.3975 86.7358 56.6181 86.8896 55.8909 87.1897C55.1636 87.4899 54.5026 87.9305 53.9458 88.4864C53.389 89.0423 52.9473 89.7025 52.6459 90.4292C52.3445 91.156 52.1893 91.9351 52.1893 92.7219V101.243C52.1893 102.029 52.3445 102.808 52.6459 103.535C52.9473 104.262 53.389 104.922 53.9458 105.478C54.5026 106.034 55.1636 106.475 55.8909 106.775C56.6181 107.075 57.3975 107.229 58.1843 107.227L78.4717 108.404V92.7219C78.4703 91.9338 78.3136 91.1536 78.0105 90.4261C77.7073 89.6986 77.2637 89.0381 76.705 88.4822C76.1463 87.9263 75.4835 87.4861 74.7545 87.1866C74.0255 86.8872 73.2446 86.7344 72.4564 86.7371Z" fill="#88929F"/>
<path d="M52.1893 92.7217V101.242C52.1893 102.029 52.3445 102.808 52.6459 103.535C52.9473 104.262 53.389 104.922 53.9458 105.478C54.5026 106.034 55.1636 106.474 55.8909 106.775C56.6181 107.075 57.3975 107.229 58.1843 107.227H72.4564C73.0779 107.329 73.7116 107.329 74.333 107.227V92.458H52.1995C52.1995 92.5493 52.1893 92.6304 52.1893 92.7217Z" fill="#6D747A"/>
<path d="M66.0253 113.374H34.1639C33.7012 113.374 33.2574 113.191 32.9302 112.863C32.603 112.536 32.4192 112.092 32.4192 111.63V103.647C32.4179 102.394 32.6635 101.153 33.1421 99.9945C33.6207 98.8365 34.3228 97.7842 35.2084 96.8977C36.0939 96.0112 37.1455 95.3079 38.303 94.8281C39.4605 94.3483 40.7013 94.1013 41.9543 94.1013H72.6796V106.71C72.6796 108.476 71.9788 110.169 70.7312 111.419C69.4836 112.668 67.791 113.372 66.0253 113.374Z" fill="#88929F"/>
<path d="M48.9942 110.768H34.0322V111.792H48.9942V110.768Z" fill="#121D50"/>
<path d="M48.9942 108.576H34.0322V109.601H48.9942V108.576Z" fill="#121D50"/>
<path d="M48.9942 106.375H34.0322V107.4H48.9942V106.375Z" fill="#121D50"/>
<path d="M48.9942 104.184H34.0322V105.209H48.9942V104.184Z" fill="#121D50"/>
<path d="M48.9942 101.983H34.0322V103.007H48.9942V101.983Z" fill="#121D50"/>
<path d="M69.6771 106.314C70.5734 106.314 71.3001 105.588 71.3001 104.691C71.3001 103.795 70.5734 103.068 69.6771 103.068C68.7807 103.068 68.0541 103.795 68.0541 104.691C68.0541 105.588 68.7807 106.314 69.6771 106.314Z" fill="#BDC5CA"/>
<path d="M70.9349 104.692C70.9369 104.941 70.8646 105.186 70.7272 105.394C70.5897 105.603 70.3934 105.765 70.1631 105.862C69.9329 105.958 69.6792 105.984 69.4342 105.936C69.1893 105.888 68.9642 105.768 68.7877 105.591C68.6112 105.415 68.4912 105.19 68.443 104.945C68.3948 104.7 68.4205 104.446 68.517 104.216C68.6135 103.985 68.7762 103.789 68.9846 103.652C69.193 103.514 69.4376 103.442 69.6872 103.444C70.0181 103.444 70.3355 103.575 70.5695 103.809C70.8035 104.043 70.9349 104.361 70.9349 104.692Z" fill="#88929F"/>
<path d="M69.2307 105.462L68.7946 104.691L69.2307 103.92H70.1234L70.5697 104.691L70.1234 105.462H69.2307Z" fill="#121D50"/>
<path d="M69.6771 98.6051C70.5734 98.6051 71.3001 97.8785 71.3001 96.9821C71.3001 96.0858 70.5734 95.3591 69.6771 95.3591C68.7807 95.3591 68.0541 96.0858 68.0541 96.9821C68.0541 97.8785 68.7807 98.6051 69.6771 98.6051Z" fill="#BDC5CA"/>
<path d="M70.9349 96.9821C70.9369 97.2317 70.8646 97.4763 70.7272 97.6847C70.5897 97.8931 70.3934 98.0559 70.1631 98.1523C69.9329 98.2488 69.6792 98.2745 69.4342 98.2263C69.1893 98.1781 68.9642 98.0581 68.7877 97.8816C68.6112 97.7051 68.4912 97.48 68.443 97.2351C68.3948 96.9902 68.4205 96.7364 68.517 96.5062C68.6135 96.2759 68.7762 96.0796 68.9846 95.9422C69.193 95.8047 69.4376 95.7324 69.6872 95.7344C70.0181 95.7344 70.3355 95.8659 70.5695 96.0999C70.8035 96.3338 70.9349 96.6512 70.9349 96.9821Z" fill="#88929F"/>
<path d="M69.2307 97.753L68.7946 96.9821L69.2307 96.2112H70.1234L70.5697 96.9821L70.1234 97.753H69.2307Z" fill="#121D50"/>
<path d="M54.9788 98.6051C55.8752 98.6051 56.6018 97.8785 56.6018 96.9821C56.6018 96.0858 55.8752 95.3591 54.9788 95.3591C54.0825 95.3591 53.3558 96.0858 53.3558 96.9821C53.3558 97.8785 54.0825 98.6051 54.9788 98.6051Z" fill="#BDC5CA"/>
<path d="M54.9789 98.2297C55.6679 98.2297 56.2265 97.6711 56.2265 96.982C56.2265 96.293 55.6679 95.7344 54.9789 95.7344C54.2898 95.7344 53.7312 96.293 53.7312 96.982C53.7312 97.6711 54.2898 98.2297 54.9789 98.2297Z" fill="#88929F"/>
<path d="M54.5426 97.753L54.0963 96.9821L54.5426 96.2112H55.4251L55.8715 96.9821L55.4251 97.753H54.5426Z" fill="#121D50"/>
<path d="M72.6492 41.8308H57.9205V84.901H72.6492V41.8308Z" fill="#88929F"/>
<path d="M72.6796 84.9011H57.9205V86.727H72.6796V84.9011Z" fill="#AEAEAF"/>
<path d="M58.8132 86.3921C58.7477 86.3895 58.6857 86.3616 58.6404 86.3143C58.595 86.267 58.5696 86.204 58.5697 86.1385V85.4893C58.5697 85.4573 58.576 85.4257 58.5882 85.3961C58.6005 85.3666 58.6184 85.3398 58.641 85.3172C58.6636 85.2946 58.6905 85.2766 58.72 85.2644C58.7495 85.2521 58.7812 85.2458 58.8132 85.2458C58.8787 85.2458 58.9417 85.2711 58.989 85.3165C59.0363 85.3619 59.0641 85.4238 59.0667 85.4893V86.1385C59.0667 86.2058 59.04 86.2703 58.9925 86.3178C58.9449 86.3654 58.8804 86.3921 58.8132 86.3921Z" fill="#686868"/>
<path d="M60.2536 86.3921C60.1881 86.3895 60.1262 86.3616 60.0808 86.3143C60.0354 86.267 60.0101 86.204 60.0101 86.1385V85.4893C60.0101 85.4573 60.0164 85.4257 60.0287 85.3961C60.0409 85.3666 60.0588 85.3398 60.0814 85.3172C60.104 85.2946 60.1309 85.2766 60.1604 85.2644C60.1899 85.2521 60.2216 85.2458 60.2536 85.2458C60.3191 85.2458 60.3821 85.2711 60.4294 85.3165C60.4767 85.3619 60.5045 85.4238 60.5072 85.4893V86.1385C60.5072 86.2058 60.4804 86.2703 60.4329 86.3178C60.3853 86.3654 60.3208 86.3921 60.2536 86.3921Z" fill="#686868"/>
<path d="M61.7143 86.392C61.647 86.392 61.5825 86.3652 61.535 86.3177C61.4874 86.2701 61.4607 86.2056 61.4607 86.1384V85.4892C61.4704 85.4292 61.5014 85.3746 61.5479 85.3355C61.5945 85.2964 61.6535 85.2754 61.7143 85.2761C61.7789 85.2761 61.8408 85.3018 61.8864 85.3475C61.9321 85.3931 61.9577 85.455 61.9577 85.5196V86.1688C61.9505 86.2289 61.922 86.2845 61.8773 86.3254C61.8327 86.3664 61.7748 86.39 61.7143 86.392Z" fill="#686868"/>
<path d="M63.1446 86.3921C63.0773 86.3921 63.0128 86.3654 62.9653 86.3178C62.9177 86.2703 62.891 86.2058 62.891 86.1385V85.4893C62.8936 85.4238 62.9215 85.3619 62.9688 85.3165C63.016 85.2711 63.079 85.2458 63.1446 85.2458C63.2092 85.2458 63.2711 85.2715 63.3167 85.3172C63.3624 85.3628 63.388 85.4247 63.388 85.4893V86.1385C63.3881 86.204 63.3628 86.267 63.3174 86.3143C63.272 86.3616 63.2101 86.3895 63.1446 86.3921Z" fill="#686868"/>
<path d="M64.585 86.3921C64.5521 86.3921 64.5196 86.3855 64.4894 86.3726C64.4592 86.3598 64.4319 86.3409 64.4091 86.3172C64.3864 86.2935 64.3687 86.2655 64.3571 86.2348C64.3454 86.2041 64.3402 86.1713 64.3415 86.1385V85.4893C64.3415 85.4247 64.3672 85.3628 64.4128 85.3172C64.4585 85.2715 64.5204 85.2458 64.585 85.2458C64.6495 85.2458 64.7115 85.2715 64.7571 85.3172C64.8028 85.3628 64.8284 85.4247 64.8284 85.4893V86.1385C64.8285 86.204 64.8032 86.267 64.7578 86.3143C64.7124 86.3616 64.6505 86.3895 64.585 86.3921Z" fill="#686868"/>
<path d="M66.0253 86.3921C65.9924 86.3921 65.9599 86.3855 65.9297 86.3726C65.8995 86.3598 65.8722 86.3409 65.8495 86.3172C65.8267 86.2935 65.809 86.2655 65.7974 86.2348C65.7857 86.2041 65.7805 86.1713 65.7818 86.1385V85.4893C65.7818 85.4247 65.8075 85.3628 65.8531 85.3172C65.8988 85.2715 65.9607 85.2458 66.0253 85.2458C66.0898 85.2458 66.1518 85.2715 66.1974 85.3172C66.2431 85.3628 66.2687 85.4247 66.2687 85.4893V86.1385C66.2688 86.204 66.2435 86.267 66.1981 86.3143C66.1527 86.3616 66.0908 86.3895 66.0253 86.3921Z" fill="#686868"/>
<path d="M67.4657 86.3921C67.4003 86.3895 67.3383 86.3616 67.2929 86.3143C67.2476 86.267 67.2222 86.204 67.2223 86.1385V85.4893C67.2223 85.4247 67.2479 85.3628 67.2936 85.3172C67.3393 85.2715 67.4012 85.2458 67.4657 85.2458C67.5303 85.2458 67.5922 85.2715 67.6379 85.3172C67.6835 85.3628 67.7092 85.4247 67.7092 85.4893V86.1385C67.7093 86.204 67.6839 86.267 67.6385 86.3143C67.5932 86.3616 67.5312 86.3895 67.4657 86.3921Z" fill="#686868"/>
<path d="M68.9062 86.3921C68.8407 86.3895 68.7787 86.3616 68.7334 86.3143C68.688 86.267 68.6627 86.204 68.6627 86.1385V85.4893C68.6627 85.4247 68.6884 85.3628 68.734 85.3172C68.7797 85.2715 68.8416 85.2458 68.9062 85.2458C68.9707 85.2458 69.0327 85.2715 69.0783 85.3172C69.124 85.3628 69.1496 85.4247 69.1496 85.4893V86.1385C69.1497 86.204 69.1243 86.267 69.079 86.3143C69.0336 86.3616 68.9716 86.3895 68.9062 86.3921Z" fill="#686868"/>
<path d="M70.3466 86.3921C70.2811 86.3895 70.2192 86.3616 70.1738 86.3143C70.1284 86.267 70.1031 86.204 70.1031 86.1385V85.4893C70.1031 85.4573 70.1094 85.4257 70.1217 85.3961C70.1339 85.3666 70.1519 85.3398 70.1745 85.3172C70.1971 85.2946 70.2239 85.2766 70.2534 85.2644C70.283 85.2521 70.3146 85.2458 70.3466 85.2458C70.4112 85.2458 70.4731 85.2715 70.5187 85.3172C70.5644 85.3628 70.59 85.4247 70.59 85.4893V86.1385C70.5901 86.204 70.5648 86.267 70.5194 86.3143C70.474 86.3616 70.4121 86.3895 70.3466 86.3921Z" fill="#686868"/>
<path d="M71.7869 86.3921C71.7214 86.3895 71.6595 86.3616 71.6141 86.3143C71.5687 86.267 71.5434 86.204 71.5435 86.1385V85.4893C71.5435 85.4573 71.5497 85.4257 71.562 85.3961C71.5742 85.3666 71.5922 85.3398 71.6148 85.3172C71.6374 85.2946 71.6642 85.2766 71.6937 85.2644C71.7233 85.2521 71.7549 85.2458 71.7869 85.2458C71.8515 85.2458 71.9134 85.2715 71.959 85.3172C72.0047 85.3628 72.0304 85.4247 72.0304 85.4893V86.1385C72.0317 86.1713 72.0264 86.2041 72.0148 86.2348C72.0032 86.2655 71.9855 86.2935 71.9627 86.3172C71.94 86.3409 71.9127 86.3598 71.8825 86.3726C71.8523 86.3855 71.8197 86.3921 71.7869 86.3921Z" fill="#686868"/>
<path d="M58.8538 76.1064H58.1843V79.5756H58.8538V76.1064Z" fill="#6D747A"/>
<path d="M60.2029 76.1064H59.5334V79.5756H60.2029V76.1064Z" fill="#121D50"/>
<path d="M61.5621 76.1064H60.8926V79.5756H61.5621V76.1064Z" fill="#121D50"/>
<path d="M62.9112 76.1064H62.2417V79.5756H62.9112V76.1064Z" fill="#121D50"/>
<path d="M64.2704 76.1064H63.601V79.5756H64.2704V76.1064Z" fill="#121D50"/>
<path d="M65.6196 76.1064H64.9501V79.5756H65.6196V76.1064Z" fill="#121D50"/>
<path d="M66.9789 76.1064H66.3094V79.5756H66.9789V76.1064Z" fill="#121D50"/>
<path d="M68.3279 76.1064H67.6584V79.5756H68.3279V76.1064Z" fill="#121D50"/>
<path d="M69.6872 76.1064H69.0177V79.5756H69.6872V76.1064Z" fill="#121D50"/>
<path d="M71.0363 76.1064H70.3668V79.5756H71.0363V76.1064Z" fill="#121D50"/>
<path d="M72.3956 76.1064H71.7261V79.5756H72.3956V76.1064Z" fill="#121D50"/>
<path d="M52.1793 79.5757H47.858V81.0871H52.1793V79.5757Z" fill="#CED3D6"/>
<path d="M58.8132 76.1064H41.224V79.5756H58.8132V76.1064Z" fill="#E1E1E1"/>
<path d="M42.2283 76.3801H41.6095V79.3015H42.2283V76.3801Z" fill="#6D747A"/>
<path d="M43.5774 76.3801H42.9586V79.3015H43.5774V76.3801Z" fill="#6D747A"/>
<path d="M44.9265 76.3801H44.3077V79.3015H44.9265V76.3801Z" fill="#6D747A"/>
<path d="M46.2756 76.3801H45.6569V79.3015H46.2756V76.3801Z" fill="#6D747A"/>
<path d="M47.6246 76.3801H47.0059V79.3015H47.6246V76.3801Z" fill="#6D747A"/>
<path d="M48.984 76.3801H48.3652V79.3015H48.984V76.3801Z" fill="#6D747A"/>
<path d="M50.3331 76.3801H49.7144V79.3015H50.3331V76.3801Z" fill="#6D747A"/>
<path d="M51.6821 76.3801H51.0634V79.3015H51.6821V76.3801Z" fill="#6D747A"/>
<path d="M53.0312 76.3801H52.4125V79.3015H53.0312V76.3801Z" fill="#6D747A"/>
<path d="M54.3804 76.3801H53.7616V79.3015H54.3804V76.3801Z" fill="#6D747A"/>
<path d="M55.7295 76.3801H55.1107V79.3015H55.7295V76.3801Z" fill="#6D747A"/>
<path d="M57.0786 76.3801H56.4598V79.3015H57.0786V76.3801Z" fill="#6D747A"/>
<path d="M58.4277 76.3801H57.809V79.3015H58.4277V76.3801Z" fill="#6D747A"/>
<path d="M71.0364 39.3357H59.5334V41.8311H71.0364V39.3357Z" fill="#AEAEAF"/>
<path d="M48.7506 44.6406H24.8521V47.0447H48.7506V44.6406Z" fill="#88929F"/>
<path d="M48.7506 47.7241H24.8521V50.4021H48.7506V47.7241Z" fill="#88929F"/>
<path d="M48.7506 26.5037H24.8521V40.8672H48.7506V39.3253H72.6492V26.5037H48.7506Z" fill="#88929F"/>
<path d="M48.7506 41.5469H24.8521V43.9509H48.7506V41.5469Z" fill="#88929F"/>
<path d="M71.0364 39.3357H59.5334V40.1371H71.0364V39.3357Z" fill="#908F8F"/>
<path d="M74.3229 105.188H72.6796V113.374H74.3229V105.188Z" fill="#6D747A"/>
<path d="M32.4091 113.375H30.7659V107.217L32.4091 106.994V113.375Z" fill="#6D747A"/>
<path d="M72.6493 28.7758C73.9042 28.7758 74.9215 27.7585 74.9215 26.5036C74.9215 25.2487 73.9042 24.2314 72.6493 24.2314C71.3944 24.2314 70.3771 25.2487 70.3771 26.5036C70.3771 27.7585 71.3944 28.7758 72.6493 28.7758Z" fill="#88929F"/>
<path d="M73.8867 26.5038C73.8867 26.7429 73.8157 26.9767 73.6826 27.1754C73.5495 27.3742 73.3603 27.5289 73.1392 27.6199C72.918 27.711 72.6748 27.7343 72.4404 27.6869C72.206 27.6395 71.9909 27.5235 71.8225 27.3537C71.6541 27.1838 71.5399 26.9678 71.4945 26.733C71.4491 26.4982 71.4744 26.2552 71.5674 26.0348C71.6603 25.8144 71.8166 25.6266 72.0164 25.4952C72.2162 25.3638 72.4506 25.2947 72.6898 25.2967C73.0082 25.2993 73.3126 25.4277 73.5368 25.6538C73.761 25.8799 73.8867 26.1854 73.8867 26.5038Z" fill="#121D50"/>
<path d="M106.955 8.03207C106.957 8.85148 106.716 9.65303 106.262 10.3352C105.808 11.0173 105.162 11.5494 104.405 11.8639C103.648 12.1784 102.815 12.2612 102.012 12.1018C101.208 11.9424 100.47 11.5481 99.8901 10.9686C99.3107 10.3892 98.9164 9.65088 98.757 8.84712C98.5976 8.04336 98.6805 7.21038 98.995 6.45373C99.3095 5.69708 99.8415 5.05083 100.524 4.59684C101.206 4.14285 102.007 3.90157 102.827 3.90358C103.922 3.90358 104.972 4.33854 105.746 5.11279C106.52 5.88703 106.955 6.93713 106.955 8.03207Z" fill="#BDC5CA"/>
<path d="M103.009 3.39624H102.948H102.685H102.624L102.299 4.22802H102.685H102.948H103.344L103.009 3.39624Z" fill="#BDC5CA"/>
<path d="M101.853 3.4978L101.792 3.50795L101.539 3.57895L101.478 3.58909L101.366 4.48174L101.741 4.38031L101.995 4.31944L102.38 4.218L101.853 3.4978Z" fill="#BDC5CA"/>
<path d="M100.757 3.88306L100.696 3.90335L100.473 4.03521L100.412 4.06564L100.524 4.95829L100.869 4.76556L101.102 4.64383L101.447 4.45111L100.757 3.88306Z" fill="#BDC5CA"/>
<path d="M99.7835 4.52222L99.743 4.56278L99.5502 4.74537L99.4995 4.78595L99.8343 5.61773L100.118 5.354L100.311 5.17141L100.595 4.90767L99.7835 4.52222Z" fill="#BDC5CA"/>
<path d="M99.0127 5.38428L98.9721 5.43499L98.8301 5.65815L98.7997 5.71902L99.3272 6.43922L99.5402 6.10448L99.6822 5.88132L99.8952 5.55672L99.0127 5.38428Z" fill="#BDC5CA"/>
<path d="M98.475 6.41926L98.4547 6.48013L98.3736 6.72357L98.3533 6.78443L99.0431 7.36262L99.1648 6.98731L99.2459 6.73372L99.3676 6.3584L98.475 6.41926Z" fill="#BDC5CA"/>
<path d="M98.2012 7.54512V7.61612L98.1809 7.86972V7.94072L98.9924 8.31604L99.0127 7.93058L99.033 7.66684L99.0533 7.27124L98.2012 7.54512Z" fill="#BDC5CA"/>
<path d="M98.2316 8.71162L98.2417 8.77248L98.2924 9.03622L98.3026 9.09708L99.1851 9.25938L99.1039 8.87391L99.0634 8.62032L98.9822 8.23486L98.2316 8.71162Z" fill="#BDC5CA"/>
<path d="M98.536 9.82742L98.5664 9.88828L98.678 10.1216L98.7085 10.1825L99.6011 10.1317L99.4388 9.76656L99.3272 9.53325L99.1548 9.17822L98.536 9.82742Z" fill="#BDC5CA"/>
<path d="M99.1243 10.8417L99.1648 10.8823L99.3271 11.0852L99.3677 11.1359L100.22 10.862L99.9763 10.5577L99.8039 10.3549L99.5503 10.0505L99.1243 10.8417Z" fill="#BDC5CA"/>
<path d="M99.9358 11.6736L99.9865 11.7041L100.2 11.8562L100.25 11.8968L101.011 11.42L100.686 11.1867L100.473 11.0346L100.159 10.8013L99.9358 11.6736Z" fill="#BDC5CA"/>
<path d="M100.93 12.272L100.991 12.2923L101.234 12.3938L101.295 12.4141L101.904 11.7649L101.538 11.6127L101.295 11.5214L100.93 11.3794V12.272Z" fill="#BDC5CA"/>
<path d="M102.046 12.6068L102.107 12.617L102.37 12.6474L102.431 12.6576L102.867 11.8765L102.472 11.8258L102.208 11.7954L101.823 11.7446L102.046 12.6068Z" fill="#686868"/>
<path d="M103.202 12.6576L103.273 12.6474L103.527 12.617L103.598 12.6068L103.821 11.7446L103.425 11.7954L103.161 11.8258L102.776 11.8765L103.202 12.6576Z" fill="#686868"/>
<path d="M104.338 12.4141L104.399 12.3938L104.642 12.2923L104.703 12.272V11.3794L104.338 11.5214L104.095 11.6127L103.729 11.7649L104.338 12.4141Z" fill="#BDC5CA"/>
<path d="M105.383 11.8968L105.434 11.8562L105.647 11.7041L105.697 11.6736L105.474 10.8013L105.16 11.0346L104.947 11.1867L104.632 11.42L105.383 11.8968Z" fill="#BDC5CA"/>
<path d="M106.265 11.1359L106.306 11.0852L106.468 10.8823L106.519 10.8417L106.083 10.0505L105.829 10.3549L105.667 10.5577L105.413 10.862L106.265 11.1359Z" fill="#BDC5CA"/>
<path d="M106.935 10.1825L106.955 10.1216L107.067 9.88828L107.097 9.82742L106.478 9.17822L106.316 9.53325L106.205 9.76656L106.032 10.1317L106.935 10.1825Z" fill="#BDC5CA"/>
<path d="M107.341 9.09708L107.351 9.03622L107.402 8.77248L107.412 8.71162L106.651 8.23486L106.58 8.62032L106.529 8.87391L106.458 9.25938L107.341 9.09708Z" fill="#BDC5CA"/>
<path d="M107.452 7.94072V7.86972L107.442 7.61612L107.432 7.54512L106.58 7.27124L106.61 7.66684L106.62 7.93058L106.651 8.31604L107.452 7.94072Z" fill="#BDC5CA"/>
<path d="M107.29 6.78443L107.27 6.72357L107.189 6.48013L107.168 6.41926L106.276 6.3584L106.397 6.73372L106.479 6.98731L106.6 7.36262L107.29 6.78443Z" fill="#BDC5CA"/>
<path d="M106.834 5.71902L106.803 5.65815L106.661 5.43499L106.631 5.38428L105.748 5.55672L105.961 5.88132L106.103 6.10448L106.306 6.43922L106.834 5.71902Z" fill="#BDC5CA"/>
<path d="M106.134 4.78595L106.083 4.74537L105.9 4.56278L105.85 4.52222L105.038 4.90767L105.322 5.17141L105.515 5.354L105.799 5.61773L106.134 4.78595Z" fill="#BDC5CA"/>
<path d="M105.221 4.06564L105.17 4.03521L104.937 3.90335L104.876 3.88306L104.186 4.45111L104.531 4.64383L104.764 4.76556L105.109 4.95829L105.221 4.06564Z" fill="#BDC5CA"/>
<path d="M104.155 3.58909L104.095 3.57895L103.841 3.50795L103.78 3.4978L103.253 4.218L103.638 4.31944L103.892 4.38031L104.277 4.48174L104.155 3.58909Z" fill="#BDC5CA"/>
<path d="M105.89 8.03188C105.89 8.63375 105.712 9.2221 105.377 9.72253C105.043 10.223 104.568 10.613 104.012 10.8433C103.456 11.0737 102.844 11.1339 102.253 11.0165C101.663 10.8991 101.121 10.6093 100.695 10.1837C100.27 9.75809 99.9798 9.21586 99.8624 8.62556C99.745 8.03525 99.8053 7.42338 100.036 6.86733C100.266 6.31127 100.656 5.836 101.156 5.50162C101.657 5.16724 102.245 4.98877 102.847 4.98877C103.654 4.98877 104.428 5.30938 104.999 5.88007C105.57 6.45077 105.89 7.2248 105.89 8.03188Z" fill="#6D747A"/>
<path d="M110.303 14.7168H95.3407V24.5359H110.303V14.7168Z" fill="#88929F"/>
<path d="M111.986 16.0657H110.303V23.4199H111.986V16.0657Z" fill="#121D50"/>
<path d="M105.89 12.1606H104.531V13.9358H105.89V12.1606Z" fill="#6D747A"/>
<path d="M101.102 12.1606H99.743V13.9358H101.102V12.1606Z" fill="#6D747A"/>
<path d="M95.3406 16.0657H93.6567V23.4199H95.3406V16.0657Z" fill="#121D50"/>
<path d="M102.827 6.31787C102.371 6.31786 101.934 6.49814 101.611 6.81934C101.288 7.14055 101.105 7.57657 101.102 8.03216V14.7169H104.541V8.03216C104.541 7.5775 104.36 7.14146 104.039 6.81996C103.717 6.49847 103.281 6.31787 102.827 6.31787Z" fill="#88929F"/>
<path d="M103.689 8.03184C103.689 8.20481 103.637 8.37386 103.541 8.51753C103.445 8.6612 103.308 8.773 103.148 8.83871C102.988 8.90443 102.812 8.92111 102.643 8.88662C102.473 8.85213 102.318 8.76802 102.196 8.64501C102.075 8.52199 101.992 8.36561 101.96 8.19572C101.927 8.02584 101.946 7.85012 102.014 7.69091C102.081 7.53169 102.195 7.39617 102.339 7.30154C102.484 7.20692 102.654 7.15747 102.827 7.15948C103.056 7.16215 103.276 7.25523 103.437 7.41854C103.598 7.58185 103.689 7.80222 103.689 8.03184Z" fill="#686868"/>
<path d="M102.827 29.1207C102.218 29.1207 101.634 28.8795 101.202 28.4499C100.771 28.0203 100.527 27.4372 100.524 26.8283V24.5256H105.119V26.8283C105.119 27.4363 104.878 28.0194 104.448 28.4493C104.018 28.8792 103.435 29.1207 102.827 29.1207Z" fill="#88929F"/>
<path d="M103.811 27.3762C103.811 27.5768 103.751 27.7729 103.64 27.9397C103.528 28.1066 103.37 28.2366 103.184 28.3133C102.999 28.3901 102.795 28.4102 102.598 28.3711C102.402 28.3319 102.221 28.2353 102.079 28.0935C101.937 27.9516 101.84 27.7709 101.801 27.5741C101.762 27.3773 101.782 27.1734 101.859 26.988C101.936 26.8027 102.066 26.6442 102.233 26.5328C102.399 26.4213 102.596 26.3618 102.796 26.3618C103.065 26.3618 103.323 26.4687 103.514 26.6589C103.704 26.8491 103.811 27.1072 103.811 27.3762Z" fill="#BDC5CA"/>
<path d="M108.122 33.7869H97.4303C96.6236 33.7869 95.9696 34.4408 95.9696 35.2476V54.0337C95.9696 54.8404 96.6236 55.4944 97.4303 55.4944H108.122C108.928 55.4944 109.582 54.8404 109.582 54.0337V35.2476C109.582 34.4408 108.928 33.7869 108.122 33.7869Z" fill="#88929F"/>
<path d="M102.756 67.3828C102.64 67.3828 102.529 67.3369 102.447 67.2551C102.366 67.1733 102.32 67.0623 102.32 66.9466V55.4944H103.192V66.9466C103.189 67.0615 103.143 67.1709 103.061 67.2522C102.98 67.3334 102.871 67.3802 102.756 67.3828Z" fill="#686868"/>
<path d="M50.8402 17.5569H48.7506V21.939H50.8402V17.5569Z" fill="#6D747A"/>
<path d="M31.7091 24.4141H27.327V26.5037H31.7091V24.4141Z" fill="#6D747A"/>
<path d="M31.7091 25.8545H27.327V26.5037H31.7091V25.8545Z" fill="#121D50"/>
<path d="M95.9696 38.9602H93.88V43.3423H95.9696V38.9602Z" fill="#6D747A"/>
<path d="M50.8402 17.5974H50.191V21.9795H50.8402V17.5974Z" fill="#121D50"/>
<path d="M95.9899 38.9602H95.3407V43.3423H95.9899V38.9602Z" fill="#121D50"/>
<path d="M108.588 53.9019C108.59 54.0211 108.557 54.1382 108.492 54.2381C108.427 54.3381 108.333 54.4164 108.224 54.4629C108.114 54.5095 107.993 54.5222 107.876 54.4994C107.759 54.4766 107.651 54.4194 107.567 54.3351C107.482 54.2508 107.425 54.1433 107.402 54.0262C107.38 53.9092 107.392 53.788 107.439 53.6783C107.486 53.5685 107.564 53.4752 107.664 53.4102C107.764 53.3452 107.881 53.3116 108 53.3136C108.077 53.3136 108.154 53.3288 108.225 53.3583C108.297 53.3879 108.361 53.4312 108.416 53.4859C108.471 53.5405 108.514 53.6054 108.544 53.6767C108.573 53.7481 108.588 53.8246 108.588 53.9019Z" fill="#121D50"/>
<path d="M106.925 53.9019C106.927 54.0211 106.893 54.1382 106.828 54.2381C106.763 54.3381 106.67 54.4164 106.56 54.4629C106.45 54.5095 106.329 54.5222 106.212 54.4994C106.095 54.4766 105.988 54.4194 105.903 54.3351C105.819 54.2508 105.762 54.1433 105.739 54.0262C105.716 53.9092 105.729 53.788 105.775 53.6783C105.822 53.5685 105.9 53.4752 106 53.4102C106.1 53.3452 106.217 53.3116 106.336 53.3136C106.414 53.3136 106.49 53.3288 106.562 53.3583C106.633 53.3879 106.698 53.4312 106.752 53.4859C106.807 53.5405 106.85 53.6054 106.88 53.6767C106.91 53.7481 106.925 53.8246 106.925 53.9019Z" fill="#121D50"/>
<path d="M105.261 53.9019C105.263 54.0211 105.23 54.1382 105.165 54.2381C105.1 54.3381 105.006 54.4164 104.896 54.4629C104.787 54.5095 104.666 54.5222 104.549 54.4994C104.431 54.4766 104.324 54.4194 104.24 54.3351C104.155 54.2508 104.098 54.1433 104.075 54.0262C104.053 53.9092 104.065 53.788 104.112 53.6783C104.158 53.5685 104.237 53.4752 104.337 53.4102C104.437 53.3452 104.554 53.3116 104.673 53.3136C104.75 53.3136 104.827 53.3288 104.898 53.3583C104.969 53.3879 105.034 53.4312 105.089 53.4859C105.144 53.5405 105.187 53.6054 105.216 53.6767C105.246 53.7481 105.261 53.8246 105.261 53.9019Z" fill="#121D50"/>
<path d="M108.588 52.2585C108.57 52.4025 108.499 52.5348 108.39 52.6306C108.281 52.7264 108.14 52.7792 107.995 52.7792C107.85 52.7792 107.709 52.7264 107.6 52.6306C107.491 52.5348 107.42 52.4025 107.402 52.2585C107.39 52.1741 107.398 52.0882 107.422 52.0068C107.447 51.9253 107.489 51.85 107.545 51.786C107.601 51.722 107.67 51.6707 107.748 51.6356C107.826 51.6004 107.91 51.5823 107.995 51.5823C108.08 51.5823 108.164 51.6004 108.242 51.6356C108.319 51.6707 108.389 51.722 108.445 51.786C108.501 51.85 108.543 51.9253 108.568 52.0068C108.592 52.0882 108.599 52.1741 108.588 52.2585Z" fill="#121D50"/>
<path d="M106.925 52.2585C106.906 52.4025 106.835 52.5348 106.726 52.6306C106.617 52.7264 106.477 52.7792 106.331 52.7792C106.186 52.7792 106.046 52.7264 105.937 52.6306C105.827 52.5348 105.757 52.4025 105.738 52.2585C105.727 52.1741 105.734 52.0882 105.759 52.0068C105.784 51.9253 105.825 51.85 105.882 51.786C105.938 51.722 106.007 51.6707 106.084 51.6356C106.162 51.6004 106.246 51.5823 106.331 51.5823C106.417 51.5823 106.501 51.6004 106.578 51.6356C106.656 51.6707 106.725 51.722 106.781 51.786C106.837 51.85 106.879 51.9253 106.904 52.0068C106.929 52.0882 106.936 52.1741 106.925 52.2585Z" fill="#121D50"/>
<path d="M105.261 52.2585C105.242 52.4025 105.172 52.5348 105.063 52.6306C104.953 52.7264 104.813 52.7792 104.668 52.7792C104.523 52.7792 104.382 52.7264 104.273 52.6306C104.164 52.5348 104.093 52.4025 104.074 52.2585C104.063 52.1741 104.07 52.0882 104.095 52.0068C104.12 51.9253 104.162 51.85 104.218 51.786C104.274 51.722 104.343 51.6707 104.421 51.6356C104.498 51.6004 104.583 51.5823 104.668 51.5823C104.753 51.5823 104.837 51.6004 104.915 51.6356C104.992 51.6707 105.061 51.722 105.118 51.786C105.174 51.85 105.216 51.9253 105.24 52.0068C105.265 52.0882 105.272 52.1741 105.261 52.2585Z" fill="#121D50"/>
<path d="M108.588 50.605C108.59 50.7242 108.557 50.8413 108.492 50.9413C108.427 51.0412 108.333 51.1195 108.224 51.1661C108.114 51.2126 107.993 51.2253 107.876 51.2025C107.759 51.1798 107.651 51.1226 107.567 51.0383C107.482 50.954 107.425 50.8464 107.402 50.7294C107.38 50.6123 107.392 50.4912 107.439 50.3814C107.486 50.2716 107.564 50.1783 107.664 50.1133C107.764 50.0483 107.881 50.0147 108 50.0167C108.156 50.0167 108.306 50.0787 108.416 50.189C108.526 50.2993 108.588 50.449 108.588 50.605Z" fill="#121D50"/>
<path d="M106.326 51.1933C106.651 51.1933 106.915 50.9299 106.915 50.6049C106.915 50.28 106.651 50.0166 106.326 50.0166C106.001 50.0166 105.738 50.28 105.738 50.6049C105.738 50.9299 106.001 51.1933 106.326 51.1933Z" fill="#121D50"/>
<path d="M105.261 50.605C105.263 50.7242 105.23 50.8413 105.165 50.9413C105.1 51.0412 105.006 51.1195 104.896 51.1661C104.787 51.2126 104.666 51.2253 104.549 51.2025C104.431 51.1798 104.324 51.1226 104.24 51.0383C104.155 50.954 104.098 50.8464 104.075 50.7294C104.053 50.6123 104.065 50.4912 104.112 50.3814C104.158 50.2716 104.237 50.1783 104.337 50.1133C104.437 50.0483 104.554 50.0147 104.673 50.0167C104.829 50.0167 104.979 50.0787 105.089 50.189C105.199 50.2993 105.261 50.449 105.261 50.605Z" fill="#121D50"/>
<path d="M108.588 48.9618C108.588 49.0806 108.553 49.1968 108.487 49.2954C108.42 49.394 108.326 49.4707 108.216 49.5157C108.107 49.5607 107.986 49.5719 107.869 49.548C107.753 49.5241 107.646 49.466 107.563 49.3813C107.48 49.2966 107.424 49.189 107.402 49.0723C107.38 48.9555 107.393 48.8349 107.44 48.7257C107.487 48.6165 107.565 48.5238 107.665 48.4593C107.765 48.3947 107.881 48.3614 108 48.3634C108.078 48.3634 108.155 48.3789 108.227 48.4091C108.3 48.4393 108.365 48.4835 108.42 48.5393C108.474 48.595 108.518 48.661 108.546 48.7336C108.575 48.8061 108.59 48.8837 108.588 48.9618Z" fill="#121D50"/>
<path d="M106.925 48.9618C106.925 49.0806 106.889 49.1968 106.823 49.2954C106.757 49.394 106.663 49.4707 106.553 49.5157C106.443 49.5607 106.322 49.5719 106.206 49.548C106.089 49.5241 105.983 49.466 105.899 49.3813C105.816 49.2966 105.76 49.189 105.738 49.0723C105.716 48.9555 105.729 48.8349 105.776 48.7257C105.823 48.6165 105.901 48.5238 106.001 48.4593C106.101 48.3947 106.218 48.3614 106.336 48.3634C106.415 48.3634 106.492 48.3789 106.564 48.4091C106.636 48.4393 106.701 48.4835 106.756 48.5393C106.811 48.595 106.854 48.661 106.883 48.7336C106.912 48.8061 106.926 48.8837 106.925 48.9618Z" fill="#121D50"/>
<path d="M105.261 48.9618C105.261 49.0806 105.226 49.1968 105.16 49.2954C105.093 49.394 104.999 49.4707 104.889 49.5157C104.779 49.5607 104.659 49.5719 104.542 49.548C104.426 49.5241 104.319 49.466 104.236 49.3813C104.153 49.2966 104.096 49.189 104.074 49.0723C104.053 48.9555 104.066 48.8349 104.113 48.7257C104.16 48.6165 104.238 48.5238 104.338 48.4593C104.437 48.3947 104.554 48.3614 104.673 48.3634C104.751 48.3634 104.828 48.3789 104.9 48.4091C104.972 48.4393 105.038 48.4835 105.092 48.5393C105.147 48.595 105.19 48.661 105.219 48.7336C105.248 48.8061 105.263 48.8837 105.261 48.9618Z" fill="#121D50"/>
<path d="M108.588 47.3086C108.57 47.4526 108.499 47.5848 108.39 47.6806C108.281 47.7764 108.14 47.8293 107.995 47.8293C107.85 47.8293 107.709 47.7764 107.6 47.6806C107.491 47.5848 107.42 47.4526 107.402 47.3086C107.39 47.2241 107.398 47.1383 107.422 47.0568C107.447 46.9753 107.489 46.9001 107.545 46.8361C107.601 46.7721 107.67 46.7208 107.748 46.6856C107.826 46.6505 107.91 46.6323 107.995 46.6323C108.08 46.6323 108.164 46.6505 108.242 46.6856C108.319 46.7208 108.389 46.7721 108.445 46.8361C108.501 46.9001 108.543 46.9753 108.568 47.0568C108.592 47.1383 108.599 47.2241 108.588 47.3086Z" fill="#121D50"/>
<path d="M106.925 47.3086C106.906 47.4526 106.835 47.5848 106.726 47.6806C106.617 47.7764 106.477 47.8293 106.331 47.8293C106.186 47.8293 106.046 47.7764 105.937 47.6806C105.827 47.5848 105.757 47.4526 105.738 47.3086C105.727 47.2241 105.734 47.1383 105.759 47.0568C105.784 46.9753 105.825 46.9001 105.882 46.8361C105.938 46.7721 106.007 46.7208 106.084 46.6856C106.162 46.6505 106.246 46.6323 106.331 46.6323C106.417 46.6323 106.501 46.6505 106.578 46.6856C106.656 46.7208 106.725 46.7721 106.781 46.8361C106.837 46.9001 106.879 46.9753 106.904 47.0568C106.929 47.1383 106.936 47.2241 106.925 47.3086Z" fill="#121D50"/>
<path d="M105.261 47.3086C105.242 47.4526 105.172 47.5848 105.063 47.6806C104.953 47.7764 104.813 47.8293 104.668 47.8293C104.523 47.8293 104.382 47.7764 104.273 47.6806C104.164 47.5848 104.093 47.4526 104.074 47.3086C104.063 47.2241 104.07 47.1383 104.095 47.0568C104.12 46.9753 104.162 46.9001 104.218 46.8361C104.274 46.7721 104.343 46.7208 104.421 46.6856C104.498 46.6505 104.583 46.6323 104.668 46.6323C104.753 46.6323 104.837 46.6505 104.915 46.6856C104.992 46.7208 105.061 46.7721 105.118 46.8361C105.174 46.9001 105.216 46.9753 105.24 47.0568C105.265 47.1383 105.272 47.2241 105.261 47.3086Z" fill="#121D50"/>
<path d="M101.417 53.9019C101.419 54.0211 101.385 54.1382 101.32 54.2381C101.255 54.3381 101.162 54.4164 101.052 54.4629C100.942 54.5095 100.821 54.5222 100.704 54.4994C100.587 54.4766 100.479 54.4194 100.395 54.3351C100.311 54.2508 100.254 54.1433 100.231 54.0262C100.208 53.9092 100.221 53.788 100.267 53.6783C100.314 53.5685 100.392 53.4752 100.492 53.4102C100.592 53.3452 100.709 53.3116 100.828 53.3136C100.906 53.3136 100.982 53.3288 101.054 53.3583C101.125 53.3879 101.19 53.4312 101.244 53.4859C101.299 53.5405 101.342 53.6054 101.372 53.6767C101.402 53.7481 101.417 53.8246 101.417 53.9019Z" fill="#121D50"/>
<path d="M99.7531 53.9019C99.7551 54.0211 99.7215 54.1382 99.6565 54.2381C99.5915 54.3381 99.4982 54.4164 99.3884 54.4629C99.2787 54.5095 99.1575 54.5222 99.0405 54.4994C98.9234 54.4766 98.8159 54.4194 98.7316 54.3351C98.6473 54.2508 98.5901 54.1433 98.5673 54.0262C98.5445 53.9092 98.5572 53.788 98.6038 53.6783C98.6503 53.5685 98.7286 53.4752 98.8285 53.4102C98.9285 53.3452 99.0456 53.3116 99.1648 53.3136C99.2421 53.3136 99.3186 53.3288 99.3899 53.3583C99.4613 53.3879 99.5262 53.4312 99.5808 53.4859C99.6355 53.5405 99.6788 53.6054 99.7084 53.6767C99.7379 53.7481 99.7531 53.8246 99.7531 53.9019Z" fill="#121D50"/>
<path d="M98.0896 53.9019C98.0916 54.0211 98.0579 54.1382 97.9929 54.2381C97.928 54.3381 97.8346 54.4164 97.7248 54.4629C97.6151 54.5095 97.4939 54.5222 97.3769 54.4994C97.2598 54.4766 97.1523 54.4194 97.068 54.3351C96.9837 54.2508 96.9265 54.1433 96.9037 54.0262C96.8809 53.9092 96.8936 53.788 96.9402 53.6783C96.9867 53.5685 97.065 53.4752 97.165 53.4102C97.2649 53.3452 97.382 53.3116 97.5012 53.3136C97.5785 53.3136 97.655 53.3288 97.7264 53.3583C97.7978 53.3879 97.8626 53.4312 97.9173 53.4859C97.9719 53.5405 98.0152 53.6054 98.0448 53.6767C98.0744 53.7481 98.0896 53.8246 98.0896 53.9019Z" fill="#121D50"/>
<path d="M101.417 52.2585C101.398 52.4025 101.327 52.5348 101.218 52.6306C101.109 52.7264 100.969 52.7792 100.823 52.7792C100.678 52.7792 100.538 52.7264 100.429 52.6306C100.319 52.5348 100.249 52.4025 100.23 52.2585C100.219 52.1741 100.226 52.0882 100.251 52.0068C100.275 51.9253 100.317 51.85 100.374 51.786C100.43 51.722 100.499 51.6707 100.576 51.6356C100.654 51.6004 100.738 51.5823 100.823 51.5823C100.908 51.5823 100.993 51.6004 101.07 51.6356C101.148 51.6707 101.217 51.722 101.273 51.786C101.329 51.85 101.371 51.9253 101.396 52.0068C101.421 52.0882 101.428 52.1741 101.417 52.2585Z" fill="#121D50"/>
<path d="M99.7532 52.2585C99.7343 52.4025 99.6637 52.5348 99.5545 52.6306C99.4453 52.7264 99.305 52.7792 99.1598 52.7792C99.0145 52.7792 98.8742 52.7264 98.765 52.6306C98.6558 52.5348 98.5852 52.4025 98.5664 52.2585C98.5553 52.1741 98.5624 52.0882 98.5871 52.0068C98.6119 51.9253 98.6538 51.85 98.7099 51.786C98.7661 51.722 98.8353 51.6707 98.9128 51.6356C98.9904 51.6004 99.0746 51.5823 99.1598 51.5823C99.2449 51.5823 99.3291 51.6004 99.4067 51.6356C99.4842 51.6707 99.5534 51.722 99.6096 51.786C99.6658 51.85 99.7076 51.9253 99.7324 52.0068C99.7572 52.0882 99.7642 52.1741 99.7532 52.2585Z" fill="#121D50"/>
<path d="M98.0896 52.2585C98.0707 52.4025 98.0001 52.5348 97.8909 52.6306C97.7817 52.7264 97.6414 52.7792 97.4962 52.7792C97.3509 52.7792 97.2106 52.7264 97.1014 52.6306C96.9923 52.5348 96.9216 52.4025 96.9028 52.2585C96.8917 52.1741 96.8988 52.0882 96.9236 52.0068C96.9483 51.9253 96.9902 51.85 97.0463 51.786C97.1025 51.722 97.1717 51.6707 97.2493 51.6356C97.3268 51.6004 97.411 51.5823 97.4962 51.5823C97.5813 51.5823 97.6655 51.6004 97.7431 51.6356C97.8207 51.6707 97.8898 51.722 97.946 51.786C98.0022 51.85 98.044 51.9253 98.0688 52.0068C98.0936 52.0882 98.1007 52.1741 98.0896 52.2585Z" fill="#121D50"/>
<path d="M101.417 50.605C101.419 50.7242 101.385 50.8413 101.32 50.9413C101.255 51.0412 101.162 51.1195 101.052 51.1661C100.942 51.2126 100.821 51.2253 100.704 51.2025C100.587 51.1798 100.479 51.1226 100.395 51.0383C100.311 50.954 100.254 50.8464 100.231 50.7294C100.208 50.6123 100.221 50.4912 100.267 50.3814C100.314 50.2716 100.392 50.1783 100.492 50.1133C100.592 50.0483 100.709 50.0147 100.828 50.0167C100.984 50.0167 101.134 50.0787 101.244 50.189C101.355 50.2993 101.417 50.449 101.417 50.605Z" fill="#121D50"/>
<path d="M99.7531 50.605C99.7551 50.7242 99.7215 50.8413 99.6565 50.9413C99.5915 51.0412 99.4982 51.1195 99.3884 51.1661C99.2787 51.2126 99.1575 51.2253 99.0405 51.2025C98.9234 51.1798 98.8159 51.1226 98.7316 51.0383C98.6473 50.954 98.5901 50.8464 98.5673 50.7294C98.5445 50.6123 98.5572 50.4912 98.6038 50.3814C98.6503 50.2716 98.7286 50.1783 98.8285 50.1133C98.9285 50.0483 99.0456 50.0147 99.1648 50.0167C99.3208 50.0167 99.4705 50.0787 99.5808 50.189C99.6912 50.2993 99.7531 50.449 99.7531 50.605Z" fill="#121D50"/>
<path d="M98.0896 50.605C98.0916 50.7242 98.0579 50.8413 97.9929 50.9413C97.928 51.0412 97.8346 51.1195 97.7248 51.1661C97.6151 51.2126 97.4939 51.2253 97.3769 51.2025C97.2598 51.1798 97.1523 51.1226 97.068 51.0383C96.9837 50.954 96.9265 50.8464 96.9037 50.7294C96.8809 50.6123 96.8936 50.4912 96.9402 50.3814C96.9867 50.2716 97.065 50.1783 97.165 50.1133C97.2649 50.0483 97.382 50.0147 97.5012 50.0167C97.6573 50.0167 97.8069 50.0787 97.9173 50.189C98.0276 50.2993 98.0896 50.449 98.0896 50.605Z" fill="#121D50"/>
<path d="M101.417 48.9618C101.417 49.0806 101.381 49.1968 101.315 49.2954C101.249 49.394 101.155 49.4707 101.045 49.5157C100.935 49.5607 100.814 49.5719 100.698 49.548C100.581 49.5241 100.475 49.466 100.391 49.3813C100.308 49.2966 100.252 49.189 100.23 49.0723C100.208 48.9555 100.221 48.8349 100.268 48.7257C100.315 48.6165 100.393 48.5238 100.493 48.4593C100.593 48.3947 100.71 48.3614 100.828 48.3634C100.906 48.3634 100.984 48.3789 101.056 48.4091C101.128 48.4393 101.193 48.4835 101.248 48.5393C101.303 48.595 101.346 48.661 101.375 48.7336C101.404 48.8061 101.418 48.8837 101.417 48.9618Z" fill="#121D50"/>
<path d="M99.7531 48.9618C99.7531 49.0806 99.7177 49.1968 99.6515 49.2954C99.5853 49.394 99.4912 49.4707 99.3813 49.5157C99.2713 49.5607 99.1505 49.5719 99.0341 49.548C98.9177 49.5241 98.8111 49.466 98.7278 49.3813C98.6446 49.2966 98.5884 49.189 98.5664 49.0723C98.5445 48.9555 98.5578 48.8349 98.6047 48.7257C98.6515 48.6165 98.7298 48.5238 98.8296 48.4593C98.9293 48.3947 99.046 48.3614 99.1648 48.3634C99.2429 48.3634 99.3202 48.3789 99.3923 48.4091C99.4643 48.4393 99.5297 48.4835 99.5844 48.5393C99.6392 48.595 99.6823 48.661 99.7113 48.7336C99.7402 48.8061 99.7545 48.8837 99.7531 48.9618Z" fill="#121D50"/>
<path d="M98.0895 48.9618C98.0895 49.0806 98.0541 49.1968 97.9879 49.2954C97.9217 49.394 97.8276 49.4707 97.7177 49.5157C97.6077 49.5607 97.4869 49.5719 97.3705 49.548C97.2542 49.5241 97.1476 49.466 97.0643 49.3813C96.981 49.2966 96.9248 49.189 96.9029 49.0723C96.8809 48.9555 96.8942 48.8349 96.9411 48.7257C96.988 48.6165 97.0663 48.5238 97.166 48.4593C97.2657 48.3947 97.3824 48.3614 97.5012 48.3634C97.5793 48.3634 97.6567 48.3789 97.7287 48.4091C97.8008 48.4393 97.8661 48.4835 97.9208 48.5393C97.9756 48.595 98.0187 48.661 98.0477 48.7336C98.0767 48.8061 98.0909 48.8837 98.0895 48.9618Z" fill="#121D50"/>
<path d="M101.417 47.3086C101.398 47.4526 101.327 47.5848 101.218 47.6806C101.109 47.7764 100.969 47.8293 100.823 47.8293C100.678 47.8293 100.538 47.7764 100.429 47.6806C100.319 47.5848 100.249 47.4526 100.23 47.3086C100.219 47.2241 100.226 47.1383 100.251 47.0568C100.275 46.9753 100.317 46.9001 100.374 46.8361C100.43 46.7721 100.499 46.7208 100.576 46.6856C100.654 46.6505 100.738 46.6323 100.823 46.6323C100.908 46.6323 100.993 46.6505 101.07 46.6856C101.148 46.7208 101.217 46.7721 101.273 46.8361C101.329 46.9001 101.371 46.9753 101.396 47.0568C101.421 47.1383 101.428 47.2241 101.417 47.3086Z" fill="#121D50"/>
<path d="M99.7532 47.3086C99.7343 47.4526 99.6637 47.5848 99.5545 47.6806C99.4453 47.7764 99.305 47.8293 99.1598 47.8293C99.0145 47.8293 98.8742 47.7764 98.765 47.6806C98.6558 47.5848 98.5852 47.4526 98.5664 47.3086C98.5553 47.2241 98.5624 47.1383 98.5871 47.0568C98.6119 46.9753 98.6538 46.9001 98.7099 46.8361C98.7661 46.7721 98.8353 46.7208 98.9128 46.6856C98.9904 46.6505 99.0746 46.6323 99.1598 46.6323C99.2449 46.6323 99.3291 46.6505 99.4067 46.6856C99.4842 46.7208 99.5534 46.7721 99.6096 46.8361C99.6658 46.9001 99.7076 46.9753 99.7324 47.0568C99.7572 47.1383 99.7642 47.2241 99.7532 47.3086Z" fill="#121D50"/>
<path d="M98.0896 47.3086C98.0707 47.4526 98.0001 47.5848 97.8909 47.6806C97.7817 47.7764 97.6414 47.8293 97.4962 47.8293C97.3509 47.8293 97.2106 47.7764 97.1014 47.6806C96.9923 47.5848 96.9216 47.4526 96.9028 47.3086C96.8917 47.2241 96.8988 47.1383 96.9236 47.0568C96.9483 46.9753 96.9902 46.9001 97.0463 46.8361C97.1025 46.7721 97.1717 46.7208 97.2493 46.6856C97.3268 46.6505 97.411 46.6323 97.4962 46.6323C97.5813 46.6323 97.6655 46.6505 97.7431 46.6856C97.8207 46.7208 97.8898 46.7721 97.946 46.8361C98.0022 46.9001 98.044 46.9753 98.0688 47.0568C98.0936 47.1383 98.1007 47.2241 98.0896 47.3086Z" fill="#121D50"/>
<path d="M37.3085 28.7454H39.743L36.8825 32.9347L40.1589 32.1638L35.7565 38.8181L37.5519 33.7766L34.9957 34.9736L37.3085 28.7454Z" fill="#121D50"/>
</svg>
