<svg width="40" height="40" viewBox="0 0 40 40" fill="none" xmlns="http://www.w3.org/2000/svg">
<path d="M20 0C14.6957 0 9.60859 2.10714 5.85786 5.85786C2.10714 9.60859 0 14.6957 0 20C0 25.3043 2.10714 30.3914 5.85786 34.1421C9.60859 37.8929 14.6957 40 20 40C25.3043 40 30.3914 37.8929 34.1421 34.1421C37.8929 30.3914 40 25.3043 40 20C40 14.6957 37.8929 9.60859 34.1421 5.85786C30.3914 2.10714 25.3043 0 20 0Z" fill="#EEF8FF" fill-opacity="0.8"/>
<path d="M8.69278 32.0536C8.26954 32.0536 7.80629 31.8239 7.56575 31.4958C7.409 31.2817 7.36683 31.0558 7.44035 30.8244L10.7409 20.759C11.0106 19.7834 11.4306 19.2969 11.9944 19.2969H28.0285C28.4128 19.2969 28.902 19.4617 29.2787 20.7471L32.5841 30.8271C32.6468 31.1147 32.5068 31.3769 32.3766 31.5396C32.1268 31.8515 31.716 32.0531 31.3301 32.0531H8.69278V32.0536Z" fill="#3BC171"/>
<path d="M28.0286 19.6757C28.1767 19.6757 28.5702 19.6757 28.9226 20.8773L32.2102 30.9033C32.2313 31.0357 32.188 31.1703 32.081 31.3038C31.9032 31.5265 31.6015 31.6757 31.3302 31.6757H8.69236C8.39181 31.6757 8.03884 31.5022 7.87073 31.2725C7.76209 31.1238 7.77614 31.0162 7.7983 30.946L11.0999 20.8773L11.1053 20.86L11.1102 20.8427C11.3237 20.0681 11.621 19.6757 11.994 19.6757H28.0286ZM28.0286 18.9189H11.9951C11.1042 18.9189 10.634 19.7271 10.3821 20.6416L7.08046 30.7103C6.78155 31.6492 7.80209 32.4325 8.6929 32.4325H31.3307C32.2215 32.4325 33.1502 31.6244 32.9437 30.7098L29.6421 20.6411C29.3669 19.7022 28.9199 18.9189 28.0286 18.9189Z" fill="#121D50"/>
<path d="M18.1082 30.2697H29.4595C30.1833 30.2697 30.473 29.9416 30.2363 29.1864L27.5638 20.96" fill="#3BC171"/>
<path d="M29.4595 30.5402H18.1082C17.959 30.5402 17.8379 30.4191 17.8379 30.2699C17.8379 30.1207 17.959 29.9996 18.1082 29.9996H29.4595C29.6519 29.9996 29.9006 29.9731 29.9941 29.8461C30.0692 29.7445 30.0633 29.5391 29.9784 29.2677L27.3071 21.0434C27.2611 20.9012 27.339 20.7488 27.4806 20.7029C27.6228 20.6564 27.7752 20.7348 27.8211 20.8764L30.4936 29.1034C30.6384 29.565 30.6174 29.9115 30.4298 30.1661C30.2476 30.4148 29.9211 30.5402 29.4595 30.5402Z" fill="#121D50"/>
<path d="M16.6892 30.5405H15C14.8508 30.5405 14.7297 30.4195 14.7297 30.2703C14.7297 30.1211 14.8508 30 15 30H16.6892C16.8384 30 16.9595 30.1211 16.9595 30.2703C16.9595 30.4195 16.8384 30.5405 16.6892 30.5405Z" fill="#121D50"/>
<path d="M13.7162 30.5405H11.0833C10.9341 30.5405 10.813 30.4195 10.813 30.2703C10.813 30.1211 10.9341 30 11.0833 30H13.7162C13.8654 30 13.9865 30.1211 13.9865 30.2703C13.9865 30.4195 13.8654 30.5405 13.7162 30.5405Z" fill="#121D50"/>
<path d="M20.2702 26.1514C19.7043 26.1514 19.6313 25.6774 19.5724 25.2968L19.5519 25.1666C18.9702 21.5698 17.2913 19.4201 15.8097 17.5238C14.4324 15.7606 13.2427 14.2379 13.2427 12.0109C13.2427 8.22007 16.3951 5.13574 20.2697 5.13574C24.1443 5.13574 27.2967 8.22007 27.2967 12.0109C27.2967 14.2379 26.107 15.7611 24.7297 17.5238C23.2486 19.4201 21.5692 21.5693 20.9875 25.166L20.967 25.2968C20.9092 25.6774 20.8362 26.1514 20.2702 26.1514Z" fill="#1F45E4"/>
<path d="M20.2702 5.40577C24.0021 5.40577 27.027 8.36253 27.027 12.0106C27.027 16.5101 21.8486 18.1512 20.7215 25.1225C20.6475 25.5717 20.6426 25.8809 20.2702 25.8809C19.8978 25.8809 19.8929 25.5712 19.8188 25.1225C18.6918 18.1512 13.5134 16.5101 13.5134 12.0106C13.5134 8.36253 16.5383 5.40577 20.2702 5.40577ZM20.2702 4.86523C16.2464 4.86523 12.9729 8.07064 12.9729 12.0106C12.9729 14.3306 14.2475 15.9625 15.5972 17.6901C17.0583 19.5604 18.7151 21.6809 19.2853 25.2085L19.3059 25.3377C19.3643 25.7166 19.4729 26.4214 20.2707 26.4214C21.0686 26.4214 21.1772 25.7166 21.2356 25.3377L21.2556 25.2101C21.8264 21.6809 23.4826 19.5604 24.9437 17.6901C26.2929 15.9625 27.5675 14.3306 27.5675 12.0106C27.5675 8.07064 24.294 4.86523 20.2702 4.86523Z" fill="#121D50"/>
<path d="M20.2291 9.14648C19.5123 9.14648 18.8248 9.43123 18.318 9.93809C17.8111 10.4449 17.5264 11.1324 17.5264 11.8492C17.5264 12.566 17.8111 13.2534 18.318 13.7603C18.8248 14.2671 19.5123 14.5519 20.2291 14.5519C20.9459 14.5519 21.6333 14.2671 22.1402 13.7603C22.647 13.2534 22.9318 12.566 22.9318 11.8492C22.9318 11.1324 22.647 10.4449 22.1402 9.93809C21.6333 9.43123 20.9459 9.14648 20.2291 9.14648Z" fill="white"/>
<path d="M20.2291 9.41652C21.5729 9.41652 22.6615 10.5052 22.6615 11.8489C22.6615 13.1927 21.5729 14.2814 20.2291 14.2814C18.8853 14.2814 17.7966 13.1927 17.7966 11.8489C17.7966 10.5052 18.8853 9.41652 20.2291 9.41652ZM20.2291 8.87598C18.5896 8.87598 17.2561 10.2095 17.2561 11.8489C17.2561 13.4884 18.5896 14.8219 20.2291 14.8219C21.8685 14.8219 23.202 13.4884 23.202 11.8489C23.202 10.2095 21.8685 8.87598 20.2291 8.87598Z" fill="#121D50"/>
<path d="M21.1119 19.5241C21.0692 19.5241 21.0265 19.5138 20.9865 19.4927C20.8546 19.4235 20.8032 19.2603 20.873 19.1278C21.7113 17.5295 23.2973 15.4662 23.9751 14.5857C24.1259 14.3889 24.2297 14.2554 24.2638 14.2041C24.7584 13.4716 25.02 12.6154 25.02 11.7273C25.02 11.5781 25.1411 11.457 25.2903 11.457C25.4394 11.457 25.5605 11.5781 25.5605 11.7273C25.5605 12.7235 25.267 13.6846 24.7113 14.5073C24.6751 14.5619 24.5649 14.7051 24.4032 14.9154C23.7346 15.7851 22.1681 17.8224 21.3513 19.3797C21.3027 19.4711 21.2086 19.5241 21.1119 19.5241Z" fill="#121D50"/>
<path d="M25.12 10.7402C25.001 10.7402 24.8924 10.6613 24.86 10.5424C24.7567 10.1705 24.6043 9.81211 24.4075 9.47806C24.1962 9.1213 23.9367 8.79535 23.6356 8.51049C23.5275 8.40779 23.5227 8.23644 23.6248 8.12833C23.7275 8.02076 23.8983 8.01481 24.007 8.11752C24.3443 8.43752 24.6356 8.80292 24.8729 9.20292C25.094 9.57806 25.2648 9.98022 25.38 10.3975C25.42 10.5418 25.3356 10.6905 25.1918 10.7299C25.1681 10.737 25.1437 10.7402 25.12 10.7402Z" fill="#121D50"/>
<path d="M22.7496 7.82224C22.7074 7.82224 22.6653 7.81251 22.6253 7.79197C22.001 7.46819 21.2972 7.29738 20.5896 7.29738C20.4404 7.29738 20.3193 7.1763 20.3193 7.02711C20.3193 6.87792 20.4404 6.75684 20.5896 6.75684C21.3837 6.75684 22.1739 6.94873 22.8745 7.31143C23.0069 7.38062 23.0588 7.54386 22.9901 7.6763C22.941 7.76873 22.8474 7.82224 22.7496 7.82224Z" fill="#121D50"/>
</svg>
