<svg width="40" height="40" viewBox="0 0 40 40" fill="none" xmlns="http://www.w3.org/2000/svg">
<path d="M20.0267 0.210939C9.01069 0.206728 0.0762897 9.01568 0.072023 19.8873C0.0677563 30.7588 8.99415 39.5751 20.0107 39.5794C20.016 39.5794 20.0214 39.5794 20.0267 39.5794C31.0427 39.5836 39.9771 30.7746 39.9814 19.903C39.9856 9.03146 31.0592 0.21515 20.0427 0.210939C20.0374 0.210939 20.032 0.210939 20.0267 0.210939Z" fill="#EEF8FF" fill-opacity="0.8"/>
<path d="M27.2 8.4209H12.2667C9.90933 8.4209 8 10.3051 8 12.6314V27.3683C8 28.1051 8.192 28.7998 8.53333 29.3998C8.90667 30.0735 9.46133 30.6314 10.1333 31.0104C10.304 31.1104 10.48 31.1998 10.6667 31.2735C11.1627 31.4683 11.7013 31.5788 12.2667 31.5788H27.2C27.3813 31.5788 27.5573 31.5683 27.7333 31.5472C28.3093 31.4735 28.8533 31.2893 29.3333 31.0104C29.52 30.9104 29.7013 30.7893 29.8667 30.6525C30.8427 29.8841 31.4667 28.6998 31.4667 27.3683V12.6314C31.4667 10.3051 29.5573 8.4209 27.2 8.4209Z" fill="white"/>
<path d="M27.2 8.94721C29.2587 8.94721 30.9333 10.5998 30.9333 12.6314V27.3683C30.9333 28.4941 30.4235 29.5409 29.5237 30.2493C29.3872 30.3625 29.2373 30.463 29.0624 30.5567C28.6384 30.803 28.168 30.9609 27.6688 31.0246C27.5131 31.0435 27.3595 31.0525 27.2 31.0525H12.2667C11.7888 31.0525 11.3168 30.9625 10.8645 30.7851C10.7168 30.7267 10.5664 30.6525 10.3979 30.5535C9.81013 30.2225 9.32747 29.7362 8.9984 29.1425C8.6944 28.6072 8.53333 27.9941 8.53333 27.3683V12.6314C8.53333 10.5998 10.208 8.94721 12.2667 8.94721H27.2ZM27.2 8.4209H12.2667C9.90933 8.4209 8 10.3051 8 12.6314V27.3683C8 28.1051 8.192 28.7998 8.53333 29.3998C8.90667 30.0735 9.46133 30.6314 10.1333 31.0104C10.304 31.1104 10.48 31.1998 10.6667 31.2735C11.1627 31.4683 11.7013 31.5788 12.2667 31.5788H27.2C27.3813 31.5788 27.5573 31.5683 27.7333 31.5472C28.3093 31.4735 28.8533 31.2893 29.3333 31.0104C29.52 30.9104 29.7013 30.7893 29.8667 30.6525C30.8427 29.8841 31.4667 28.6998 31.4667 27.3683V12.6314C31.4667 10.3051 29.5573 8.4209 27.2 8.4209Z" fill="#121D50"/>
<path d="M27.2 9.15774C29.1408 9.15774 30.72 10.7162 30.72 12.6314V27.3683C30.72 29.2835 29.1408 30.8419 27.2 30.8419H12.2667C10.3259 30.8419 8.74667 29.2835 8.74667 27.3683V12.6314C8.74667 10.7162 10.3259 9.15774 12.2667 9.15774H27.2ZM27.2 8.4209H12.2667C9.9104 8.4209 8 10.3062 8 12.6314V27.3683C8 29.6935 9.9104 31.5788 12.2667 31.5788H27.2C29.5563 31.5788 31.4667 29.6935 31.4667 27.3683V12.6314C31.4667 10.3062 29.5563 8.4209 27.2 8.4209Z" fill="#121D50"/>
<path d="M26.4688 30.1508H12.7131C10.9541 30.1508 9.52319 28.7387 9.52319 27.0029V13.4282C9.52319 11.6924 10.9541 10.2803 12.7131 10.2803H25.8123C25.9152 10.2803 25.9989 10.3629 25.9989 10.4645C25.9989 10.5661 25.9152 10.6487 25.8123 10.6487H12.7131C11.16 10.6487 9.89653 11.8955 9.89653 13.4282V27.0029C9.89653 28.5355 11.16 29.7824 12.7131 29.7824H26.4688C28.0219 29.7824 29.2848 28.5355 29.2848 27.0029V19.4929C29.2848 19.3913 29.3685 19.3087 29.4715 19.3087C29.5744 19.3087 29.6581 19.3913 29.6581 19.4929V27.0024C29.6587 28.7382 28.2277 30.1508 26.4688 30.1508ZM29.472 18.594C29.3691 18.594 29.2853 18.5113 29.2853 18.4097V16.965C29.2853 16.8634 29.3691 16.7808 29.472 16.7808C29.5749 16.7808 29.6587 16.8634 29.6587 16.965V18.4097C29.6587 18.5113 29.5749 18.594 29.472 18.594ZM29.472 16.4271C29.3691 16.4271 29.2853 16.3445 29.2853 16.2429V15.5203C29.2853 15.4187 29.3691 15.3361 29.472 15.3361C29.5749 15.3361 29.6587 15.4187 29.6587 15.5203V16.2429C29.6587 16.3445 29.5749 16.4271 29.472 16.4271Z" fill="#121D50"/>
<path d="M22.7402 16.3813C22.7258 16.4203 22.5556 16.8971 22.3839 17.6908C21.6516 16.8003 20.5828 16.235 19.3908 16.235C17.1892 16.235 15.3972 18.1545 15.3972 20.5134C15.3972 22.8724 17.1887 24.7918 19.3908 24.7918C20.602 24.7918 21.6868 24.2092 22.4196 23.2934C22.5748 23.6197 22.7738 23.9003 23.0175 24.1318C23.6906 24.7703 24.4479 24.7966 24.6079 24.7918C26.498 24.7876 27.7194 23.1092 27.7194 20.5134C27.7199 16.1676 24.137 12.6318 19.7332 12.6318C15.3295 12.6318 11.7466 16.1676 11.7466 20.5134C11.7466 24.8592 15.3295 28.3955 19.7332 28.3955C21.3679 28.3955 23.4815 28.2082 25.3332 26.746L24.4778 25.6908C23.2927 26.6266 21.8292 27.0439 19.7332 27.0439C16.0842 27.0439 13.1156 24.1145 13.1156 20.5134C13.1156 16.9124 16.0842 13.9829 19.7332 13.9829C23.3823 13.9829 26.3508 16.9124 26.3508 20.5134C26.3508 21.0024 26.2666 23.4408 24.5892 23.4413C24.466 23.4403 23.3844 23.3682 23.3844 21.1892C23.3844 18.6513 24.0223 16.856 24.0282 16.8392L22.7402 16.3813ZM19.3908 23.4413C17.9439 23.4413 16.7668 22.1282 16.7668 20.5139C16.7668 18.8997 17.9439 17.5866 19.3908 17.5866C20.8378 17.5866 22.0148 18.8997 22.0148 20.5139C22.0154 22.1276 20.8378 23.4413 19.3908 23.4413Z" fill="#1F45E4"/>
<path d="M22.7402 16.3813C22.7258 16.4203 22.5556 16.8971 22.3839 17.6908C21.6516 16.8003 20.5828 16.235 19.3908 16.235C17.1892 16.235 15.3972 18.1545 15.3972 20.5134C15.3972 22.8724 17.1887 24.7918 19.3908 24.7918C20.602 24.7918 21.6868 24.2092 22.4196 23.2934C22.5748 23.6197 22.7738 23.9003 23.0175 24.1318C23.6906 24.7703 24.4479 24.7966 24.6079 24.7918C26.498 24.7876 27.7194 23.1092 27.7194 20.5134C27.7199 16.1676 24.137 12.6318 19.7332 12.6318C15.3295 12.6318 11.7466 16.1676 11.7466 20.5134C11.7466 24.8592 15.3295 28.3955 19.7332 28.3955C21.3679 28.3955 23.4815 28.2082 25.3332 26.746L24.4778 25.6908C23.2927 26.6266 21.8292 27.0439 19.7332 27.0439C16.0842 27.0439 13.1156 24.1145 13.1156 20.5134C13.1156 16.9124 16.0842 13.9829 19.7332 13.9829C23.3823 13.9829 26.3508 16.9124 26.3508 20.5134C26.3508 21.0024 26.2666 23.4408 24.5892 23.4413C24.466 23.4403 23.3844 23.3682 23.3844 21.1892C23.3844 18.6513 24.0223 16.856 24.0282 16.8392L22.7402 16.3813ZM19.3908 23.4413C17.9439 23.4413 16.7668 22.1282 16.7668 20.5139C16.7668 18.8997 17.9439 17.5866 19.3908 17.5866C20.8378 17.5866 22.0148 18.8997 22.0148 20.5139C22.0154 22.1276 20.8378 23.4413 19.3908 23.4413Z" stroke="#121D50" stroke-width="0.75"/>
</svg>
