<svg width="40" height="40" viewBox="0 0 40 40" fill="none" xmlns="http://www.w3.org/2000/svg">
<path d="M20 0C14.6957 0 9.60859 2.10714 5.85786 5.85786C2.10714 9.60859 0 14.6957 0 20C0 25.3043 2.10714 30.3914 5.85786 34.1421C9.60859 37.8929 14.6957 40 20 40C25.3043 40 30.3914 37.8929 34.1421 34.1421C37.8929 30.3914 40 25.3043 40 20C40 14.6957 37.8929 9.60859 34.1421 5.85786C30.3914 2.10714 25.3043 0 20 0Z" fill="#EEF8FF" fill-opacity="0.8"/>
<path d="M25 31.21C24.2105 30.8942 19.0526 28.7363 14.7895 24.4732C10.4737 20.1047 8.31579 14.9995 8 14.21C8.31579 12.9469 9.15789 9.89422 9.84211 9.21001L10.7895 8.26264C11.1579 7.89422 11.6316 7.73633 12.1053 7.73633C12.5789 7.73633 13.0526 7.94685 13.4211 8.26264L16.3684 11.21C17 11.8416 17 12.8942 16.3684 13.5258L12.8421 17.0521L12.9474 17.2626C13 17.3679 14.3684 20.2626 16.5789 22.5258C18.8421 24.789 21.7368 26.1047 21.8421 26.1574L22.0526 26.2626L25.5789 22.7363C25.8947 22.4205 26.3158 22.2626 26.7368 22.2626C27.1579 22.2626 27.5789 22.4205 27.8947 22.7363L30.8421 25.6837C31.2105 26.0521 31.3684 26.5258 31.3684 26.9995C31.3684 27.5258 31.1579 27.9469 30.8421 28.3153L30 29.3153C29.3158 29.9995 26.2632 30.8942 25 31.21Z" fill="#1F45E4"/>
<path d="M12.1579 8.10501C12.579 8.10501 12.9474 8.2629 13.2105 8.52606L16.1579 11.4734C16.4211 11.7366 16.5263 12.0524 16.5263 12.3682C16.5263 12.684 16.3684 13.0524 16.1579 13.2629L12.8421 16.5787L12.4737 16.9471L12.6842 17.4208C12.7369 17.5261 14.1053 20.4734 16.4211 22.7892C18.7369 25.105 21.6842 26.4734 21.7895 26.5261L22.2632 26.7366L22.6316 26.3682L25.9474 23.0524C26.2105 22.7892 26.5263 22.684 26.8421 22.684C27.1579 22.684 27.5263 22.8418 27.7369 23.0524L30.6842 25.9997C31.2632 26.5787 31.2632 27.5261 30.6842 28.1576L29.7369 29.105C29.2105 29.6313 26.7369 30.4208 25.0526 30.8418C24 30.4208 19.1579 28.3155 15.0526 24.2103C10.9474 20.105 8.84212 15.2629 8.42107 14.2103C8.84212 12.4734 9.63159 10.0524 10.1579 9.52606L11.1053 8.57869C11.3684 8.2629 11.7369 8.10501 12.1579 8.10501ZM12.1579 7.36816C11.579 7.36816 11 7.57869 10.579 7.99974L9.63159 8.94711C8.68422 9.89448 7.63159 14.2103 7.63159 14.2103C7.63159 14.2103 9.73685 19.8945 14.5263 24.684C19.3158 29.4734 25 31.5787 25 31.5787C25 31.5787 29.3158 30.5261 30.2632 29.5787L31.2105 28.6313C32.1053 27.7366 32.1053 26.3155 31.2105 25.4734L28.2632 22.5261C27.8947 22.1576 27.3684 21.9471 26.8421 21.9471C26.3158 21.9471 25.7895 22.1576 25.4211 22.5261L22.1053 25.8418C22.1053 25.8418 19.1579 24.4734 16.9474 22.2629C14.7369 20.0524 13.3684 17.105 13.3684 17.105L16.6842 13.7892C17.4737 12.9997 17.4737 11.7366 16.6842 10.9471L13.7369 7.99974C13.2632 7.57869 12.7369 7.36816 12.1579 7.36816Z" fill="#121D50"/>
<path d="M16.0527 14.21C16.0001 14.21 15.8948 14.21 15.8422 14.1574L13.3159 11.5784C13.2106 11.4732 13.2106 11.3153 13.3159 11.21C13.4212 11.1047 13.5791 11.1047 13.6843 11.21L16.2633 13.789C16.3685 13.8942 16.3685 14.0521 16.2633 14.1574C16.2106 14.21 16.1054 14.21 16.0527 14.21ZM12.5791 10.7363C12.5264 10.7363 12.4212 10.7363 12.3685 10.6837L11.6317 9.94685C11.5264 9.84159 11.5264 9.6837 11.6317 9.57843C11.7369 9.47317 11.8948 9.47317 12.0001 9.57843L12.7369 10.3153C12.8422 10.4205 12.8422 10.5784 12.7369 10.6837C12.6843 10.6837 12.6317 10.7363 12.5791 10.7363ZM30.7896 28.9469C30.7369 28.9469 30.6317 28.9469 30.5791 28.8942L28.0527 26.3153C27.9475 26.21 27.9475 26.0521 28.0527 25.9469C28.158 25.8416 28.3159 25.8416 28.4212 25.9469L31.0001 28.5258C31.1054 28.6311 31.1054 28.789 31.0001 28.8942C30.9475 28.9469 30.8422 28.9469 30.7896 28.9469ZM27.3159 25.4732C27.2633 25.4732 27.158 25.4732 27.1054 25.4205L26.3685 24.6837C26.2633 24.5784 26.2633 24.4205 26.3685 24.3153C26.4738 24.21 26.6317 24.21 26.7369 24.3153L27.4738 25.0521C27.5791 25.1574 27.5791 25.3153 27.4738 25.4205C27.4212 25.4205 27.3685 25.4732 27.3159 25.4732ZM15.1054 6.21001C15.0527 6.21001 15.0527 6.21001 15.0001 6.21001C14.8422 6.15738 14.7896 5.99949 14.8422 5.84159L15.7369 3.78896C15.7896 3.63107 15.9475 3.57843 16.1054 3.63106C16.2633 3.6837 16.3159 3.84159 16.2633 3.99949L15.3685 6.05212C15.3159 6.15738 15.2106 6.21001 15.1054 6.21001ZM18.5791 9.99949C18.4738 9.99949 18.3685 9.94685 18.3159 9.84159C18.2633 9.6837 18.3159 9.57843 18.4738 9.47317L20.5264 8.63106C20.6843 8.57843 20.7896 8.63106 20.8948 8.78896C20.9475 8.94685 20.8948 9.05212 20.7369 9.15738L18.6843 9.99949C18.6317 9.99949 18.6317 9.99949 18.5791 9.99949Z" fill="#121D50"/>
<path d="M16.7367 8.05279C16.6841 8.05279 16.5788 8.05279 16.5262 8.00016C16.4209 7.89489 16.4209 7.737 16.5262 7.63173L18.9999 5.15805C19.1052 5.05279 19.2631 5.05279 19.3683 5.15805C19.4736 5.26331 19.4736 5.42121 19.3683 5.52647L16.8946 8.00016C16.8946 8.00016 16.7894 8.05279 16.7367 8.05279Z" fill="#121D50"/>
</svg>
