<svg width="32" height="32" viewBox="0 0 32 32" fill="none" xmlns="http://www.w3.org/2000/svg">
<path d="M28 8.36736C27.0798 8.76965 26.0914 9.04037 25.054 9.16248C26.1135 8.53774 26.926 7.54858 27.3087 6.36916C26.3183 6.94751 25.2203 7.36779 24.0511 7.59496C23.1156 6.61337 21.7829 6 20.308 6C17.4754 6 15.1793 8.26135 15.1793 11.049C15.1793 11.4446 15.2255 11.8308 15.312 12.1991C11.0497 11.9889 7.27099 9.97842 4.74032 6.9229C4.29995 7.6688 4.04708 8.53585 4.04708 9.46254C4.04708 11.2137 4.95185 12.7594 6.32776 13.6643C5.4874 13.6378 4.69609 13.4107 4.00477 13.033C4.00477 13.0548 4.00477 13.0746 4.00477 13.0964C4.00477 15.5433 5.77201 17.5841 8.11903 18.0469C7.68924 18.1624 7.23541 18.224 6.76716 18.224C6.43737 18.224 6.11526 18.1918 5.80278 18.134C6.45564 20.1398 8.34979 21.6004 10.5939 21.6411C8.8392 22.9956 6.62775 23.803 4.22399 23.803C3.81055 23.803 3.40191 23.7794 3 23.732C5.27011 25.1642 7.96519 26 10.8622 26C20.2964 26 25.4539 18.3063 25.4539 11.634C25.4539 11.4153 25.4491 11.1976 25.4395 10.9808C26.4424 10.2681 27.3125 9.37924 28 8.36736Z" fill="white"/>
</svg>
