<svg width="336" height="161" viewBox="0 0 336 161" fill="none" xmlns="http://www.w3.org/2000/svg">
<g filter="url(#filter0_dd)">
<rect x="12" y="4" width="312" height="136.012" rx="8" fill="white"/>
<rect x="13" y="5" width="310" height="134.012" rx="7" stroke="#CED3D6" stroke-width="2"/>
</g>
<path d="M297.071 34.0591L296.209 38.2629C295.252 38.2054 294.94 38.1862 294.568 38.178C293.137 38.1397 292.767 38.1315 292.395 38.1288C290.918 38.1069 289.413 38.0987 287.903 38.0987C284.893 38.0987 281.842 38.126 278.8 38.1643C272.715 38.2382 266.611 38.3532 260.534 38.5037C259.019 38.542 257.495 38.5831 256.009 38.6323L254.915 38.6734C253.432 38.7801 252.857 38.8403 252.302 38.9307C251.746 39.021 251.207 39.1277 250.704 39.2618C250.43 39.322 250.211 39.4014 249.962 39.4698C249.323 39.6747 248.702 39.9348 248.107 40.2471C247.794 40.4244 247.498 40.6316 247.224 40.8656C246.994 41.0709 246.792 41.3045 246.622 41.5608C246.468 41.7931 246.358 42.052 246.299 42.3243C246.183 42.9116 246.251 43.5204 246.493 44.0677C247.007 45.3102 248.222 46.6294 249.815 47.7898C250.209 48.0827 250.635 48.3645 251.07 48.6355C253.495 49.9738 254.567 50.4965 255.702 50.9974C257.957 52.0018 260.403 52.9405 262.945 53.8765C265.487 54.8125 268.143 55.7485 270.783 56.7694C273.424 57.7902 276.091 58.9069 278.617 60.1932C279.416 60.5955 280.201 61.0142 280.964 61.4576C282.597 62.3837 284.148 63.4466 285.602 64.6351L286.349 65.2782L287.046 65.9433C289.098 68.3353 289.719 69.3452 290.152 70.3879C290.587 71.4105 290.852 72.4979 290.934 73.6064C290.99 74.7394 290.822 75.8722 290.439 76.9399L290.275 77.3586C290.224 77.5019 290.161 77.641 290.089 77.7746L289.64 78.5957C289.457 78.8694 289.265 79.1431 289.071 79.4167C288.973 79.5572 288.864 79.6899 288.745 79.8136L288.398 80.2077C288.275 80.3363 288.171 80.4814 288.031 80.5963L287.621 80.9713L287.202 81.3298C287.066 81.453 286.901 81.5679 286.748 81.6856L286.283 82.0386C286.127 82.1563 285.952 82.2603 285.785 82.3725C285.449 82.5942 285.109 82.8132 284.743 83.013C283.233 83.852 281.644 84.5378 279.998 85.0601C278.278 85.6114 276.521 86.0412 274.74 86.3464C272.929 86.658 271.102 86.8672 269.268 86.9732C268.805 86.9951 268.346 87.0252 267.9 87.0361C267.454 87.0471 266.969 87.0635 266.518 87.0635C266.067 87.0635 265.612 87.0635 265.166 87.0635C264.72 87.0635 264.272 87.0471 263.826 87.0279C260.432 86.8831 257.051 86.5257 253.702 85.9578C252.105 85.6841 250.553 85.4104 249.051 85.1066C247.549 84.8028 246.069 84.4963 244.6 84.1843C232.835 81.6746 221.401 78.6477 210.399 75.1527C209.031 74.7203 207.663 74.2687 206.295 73.8199C204.927 73.3711 203.559 72.9031 202.257 72.4515C199.63 71.5511 197.152 70.7109 194.738 70.0704C193.535 69.7502 192.353 69.482 191.195 69.2767C190.905 69.2248 190.618 69.1837 190.331 69.1344C190.043 69.0852 189.762 69.0578 189.477 69.0168C189.193 68.9757 188.913 68.9565 188.634 68.9264C185.824 68.7431 183.633 68.9264 181.926 69.3561C181.191 69.5291 180.479 69.7891 179.805 70.1306C179.347 70.3558 178.943 70.6769 178.621 71.0721C178.353 71.4084 178.201 71.8222 178.188 72.2517C178.178 72.4865 178.206 72.7214 178.273 72.9469C178.345 73.2195 178.448 73.483 178.579 73.7323C179.146 74.8271 180.344 76.0887 181.863 77.2902C182.618 77.8923 183.461 78.489 184.355 79.0719C184.58 79.2197 184.809 79.3647 185.039 79.5098L185.792 79.9751C186.295 80.2871 186.812 80.6018 187.329 80.9138C191.474 83.4235 195.975 85.9797 200.189 88.93C202.278 90.3731 204.258 91.9685 206.112 93.7031L206.788 94.3462C207.007 94.5706 207.231 94.7978 207.445 95.0222C207.869 95.4793 208.279 95.9391 208.659 96.4071C209.407 97.3175 210.086 98.2827 210.689 99.2944C211.849 101.196 212.604 103.317 212.906 105.523C213.037 106.624 213.017 107.737 212.845 108.832C212.663 109.999 212.302 111.131 211.776 112.188C211.185 113.368 210.436 114.462 209.549 115.439C209.3 115.694 209.067 115.956 208.799 116.208L207.978 116.958L207.089 117.675C206.787 117.921 206.473 118.151 206.148 118.365L205.157 119.03L204.104 119.648C203.756 119.859 203.382 120.045 203.009 120.237L202.462 120.51L200.676 121.288C200.284 121.457 199.874 121.611 199.472 121.772L198.862 122.01L198.241 122.226C197.822 122.369 197.406 122.517 196.982 122.651C195.286 123.198 193.529 123.639 191.737 124.019C191.286 124.109 190.831 124.191 190.369 124.276C188.536 124.575 188.079 124.651 187.614 124.711L186.218 124.881C185.753 124.941 185.28 124.971 184.809 125.018C184.339 125.065 183.868 125.106 183.395 125.127L181.969 125.21C181.502 125.226 181.036 125.24 180.569 125.251C178.705 125.294 176.845 125.27 175.023 125.169C174.106 125.13 173.206 125.051 172.3 124.985C171.395 124.919 170.508 124.818 169.633 124.711C168.757 124.605 167.882 124.482 167.014 124.358C166.579 124.295 166.158 124.222 165.728 124.15C162.044 123.519 158.398 122.683 154.806 121.646C151.758 120.743 148.851 119.761 146.084 118.699C143.318 117.637 140.677 116.509 138.149 115.365C133.06 113.066 128.365 110.666 123.763 108.381C121.465 107.237 119.183 106.117 116.923 105.058C114.663 103.999 112.349 102.992 110.02 102.048C105.382 100.138 100.59 98.6229 95.6972 97.5182C93.2668 96.9825 90.8089 96.5805 88.3345 96.314L87.4125 96.2237C87.1061 96.1908 86.7942 96.158 86.5096 96.1416C85.9323 96.0978 85.3468 96.0704 84.7586 96.0431C83.5821 95.9965 82.3919 96.002 81.2017 96.0431C78.8627 96.1164 76.532 96.3578 74.2276 96.7656C72.1212 97.1253 70.0516 97.6749 68.0442 98.4077C66.3908 98.9912 64.8257 99.7998 63.393 100.811C62.8209 101.229 62.2937 101.706 61.8197 102.234C61.6035 102.472 61.405 102.727 61.226 102.995C61.1412 103.129 61.0564 103.268 60.9688 103.391C60.5913 104.056 60.3146 104.772 60.148 105.518L60.0851 105.972L60.0194 106.897L60.0468 107.374C60.1669 108.743 60.5724 110.073 61.237 111.276L61.7842 112.256L62.1152 112.741C62.2247 112.902 62.3259 113.063 62.4545 113.222C62.7035 113.54 62.9388 113.863 63.2179 114.172C63.3574 114.328 63.475 114.484 63.6283 114.643L64.0797 115.122C65.4213 116.491 66.8696 117.751 68.4108 118.89C70.0524 120.13 71.891 121.353 73.8336 122.588C75.7762 123.822 77.8556 125.051 79.9869 126.323L66.3068 133.88C64.2083 132.58 62.0496 131.244 59.8991 129.832C57.7485 128.42 55.609 126.937 53.5706 125.335C53.0672 124.928 52.5556 124.531 52.0658 124.109L51.3326 123.485L50.613 122.845L49.2176 121.531L48.5555 120.853C48.3366 120.628 48.115 120.404 47.9098 120.168L47.286 119.47C47.0753 119.238 46.8838 118.986 46.6841 118.745C46.2764 118.261 45.9207 117.763 45.5623 117.265C45.3763 117.018 45.2203 116.764 45.0561 116.509C44.892 116.255 44.7278 116.006 44.5719 115.748L44.1423 114.974C42.7278 112.092 42.0711 109.897 42.0137 107.614L42 106.761L42.0657 105.896L42.1067 105.463C42.1231 105.321 42.1532 105.173 42.1778 105.028L42.3447 104.161C42.6409 102.948 43.1012 101.781 43.7127 100.693L43.9508 100.266C44.0333 100.119 44.1246 99.9775 44.2244 99.8418L44.8044 99.0016C45.0066 98.7172 45.2231 98.4431 45.4529 98.1805L45.7949 97.7727L46.1697 97.3732C47.2277 96.2553 48.3955 95.2467 49.6554 94.3626C52.2765 92.5098 55.4202 91.0018 58.7581 89.8113C62.1831 88.6161 65.7072 87.7268 69.2891 87.1538C72.9555 86.5503 76.6605 86.2109 80.3754 86.1384C82.2469 86.1001 84.1238 86.122 85.998 86.2151C86.9364 86.2643 87.8749 86.3245 88.8133 86.4066C89.2894 86.4422 89.7299 86.4942 90.1814 86.5407L91.5193 86.6913C94.9643 87.1013 98.3841 87.7016 101.763 88.4894C105.03 89.2502 108.138 90.1452 111.065 91.1359C113.993 92.1266 116.811 93.1967 119.468 94.3188C124.814 96.5521 129.679 99.0125 134.294 101.399C138.91 103.786 143.348 106.145 147.865 108.266C150.122 109.33 152.396 110.335 154.705 111.263C157.014 112.19 159.389 113.022 161.772 113.764C166.536 115.258 171.456 116.196 176.434 116.561C177.655 116.646 178.864 116.671 180.06 116.66L180.952 116.643L181.813 116.605C182.101 116.605 182.385 116.567 182.673 116.547C182.96 116.528 183.247 116.512 183.529 116.474L184.383 116.383C184.656 116.353 184.943 116.307 185.228 116.268C186.339 116.09 186.615 116.044 186.889 115.995C187.983 115.778 189.031 115.521 190.032 115.226C190.281 115.149 190.517 115.064 190.766 114.987C191.701 114.648 191.945 114.569 192.164 114.476L192.818 114.202C193.639 113.805 193.86 113.709 194.041 113.6L194.61 113.282L195.13 112.946C195.301 112.841 195.465 112.726 195.622 112.601C196.221 112.122 196.361 112.002 196.506 111.881C196.651 111.761 196.763 111.624 196.9 111.498C197.376 111 197.782 110.44 198.109 109.834C198.737 108.645 199.005 107.3 198.881 105.961C198.724 104.487 198.263 103.061 197.526 101.774C197.125 101.053 196.667 100.365 196.158 99.7159C195.901 99.3765 195.611 99.0454 195.338 98.7142L194.886 98.2271L194.383 97.7262C192.924 96.3007 191.359 94.9887 189.701 93.8016C186.183 91.229 182.016 88.7439 177.767 86.0755C177.236 85.7416 176.705 85.4077 176.175 85.0629L175.373 84.5456C175.099 84.3622 174.807 84.1761 174.53 83.9982C173.414 83.2401 172.341 82.4492 171.318 81.6035C170.303 80.7734 169.352 79.8667 168.475 78.8913C167.605 77.937 166.873 76.8656 166.3 75.7083C166.019 75.1296 165.807 74.5196 165.668 73.8911C165.519 73.2492 165.47 72.5883 165.523 71.9315C165.66 70.4711 166.247 69.0893 167.203 67.9768C168.232 66.7123 169.753 65.5793 171.493 64.6925C173.289 63.8139 175.183 63.1515 177.135 62.7193C179.114 62.2637 181.127 61.9672 183.154 61.8325C185.174 61.6916 187.202 61.6916 189.223 61.8325L189.983 61.8955C191.187 62.0241 191.663 62.0707 192.123 62.1391C192.582 62.2075 193.05 62.2704 193.491 62.3443C193.931 62.4182 194.391 62.5003 194.831 62.5824C196.593 62.9191 198.254 63.3241 199.819 63.7648C202.955 64.6433 205.729 65.6422 208.347 66.5782C209.65 67.049 210.917 67.4923 212.2 67.9466C213.483 68.401 214.769 68.8334 216.068 69.2631C226.441 72.7252 237.267 75.7412 248.427 78.2673C251.235 78.905 253.998 79.5125 256.682 79.986C259.284 80.4644 261.914 80.7788 264.556 80.9275C264.876 80.9439 265.194 80.9521 265.508 80.9631C265.823 80.974 266.138 80.9631 266.452 80.9795C266.767 80.9959 267.062 80.9795 267.366 80.9795C267.67 80.9795 267.968 80.9603 268.272 80.9494C269.456 80.8971 270.636 80.7774 271.807 80.5908C274.083 80.2241 276.132 79.6029 277.643 78.7763C277.842 78.6778 278.012 78.5656 278.19 78.4589C279.985 76.8578 280.089 76.721 280.198 76.5841C280.308 76.4473 280.362 76.2913 280.45 76.1462C280.899 75.0734 281.019 74.4193 281.013 73.7433C280.982 73.0401 280.836 72.3467 280.581 71.6906C280.306 70.97 279.924 70.2947 279.448 69.6873L278.16 68.2559L277.64 67.7879C276.415 66.7548 275.096 65.8386 273.7 65.0511C273.265 64.802 272.816 64.553 272.354 64.3121C270.159 63.1767 267.907 62.1546 265.607 61.2496C263.188 60.2753 260.63 59.3338 258.031 58.3294C255.432 57.325 252.791 56.2795 250.225 55.089C248.942 54.4951 247.683 53.8629 246.468 53.1732C245.254 52.4835 244.92 52.2782 244.624 52.0784C244.031 51.6953 243.459 51.2984 242.923 50.8852C241.875 50.098 240.913 49.2027 240.052 48.214C239.238 47.3035 238.589 46.2567 238.137 45.1214C237.786 44.2487 237.661 43.3018 237.772 42.3677C237.883 41.4337 238.227 40.5425 238.772 39.7763C239.204 39.1646 239.714 38.6124 240.29 38.1342C240.94 37.6025 241.641 37.135 242.381 36.7385C243.168 36.3173 243.986 35.9559 244.827 35.6574C245.689 35.3646 245.908 35.2934 246.126 35.225C246.57 35.1018 247.01 34.9732 247.462 34.8719C248.362 34.6502 249.276 34.4806 250.198 34.341C251.12 34.2014 252.058 34.1111 252.994 34.0427L255.588 33.9441C257.158 33.9113 258.693 33.8867 260.239 33.8675C266.398 33.7854 272.532 33.7416 278.691 33.7334C281.771 33.7334 284.852 33.7334 287.949 33.7745C289.501 33.7936 291.057 33.8182 292.639 33.8593L293.834 33.8921C295.457 33.9578 295.906 33.9879 296.335 34.0098L297.071 34.0591Z" fill="url(#paint0_linear)"/>
<path d="M276.165 82.4242C277.041 82.1797 277.903 81.8855 278.745 81.543L279.188 81.9042C278.312 82.2619 277.416 82.569 276.504 82.8238L276.165 82.4242Z" fill="white"/>
<path d="M285.736 75.9185C285.538 76.5367 285.255 77.1243 284.896 77.6646L284.182 77.5059C284.523 76.9882 284.793 76.4266 284.983 75.8364L285.736 75.9185Z" fill="white"/>
<path d="M270.451 83.4751C271.442 83.3738 272.421 83.2342 273.376 83.0591L273.611 83.4806C272.621 83.6639 271.611 83.8062 270.602 83.913L270.451 83.4751Z" fill="white"/>
<path d="M285.134 72.3694L285.894 72.3174C286.024 72.9095 286.079 73.5153 286.059 74.121H285.292C285.314 73.5327 285.261 72.9442 285.134 72.3694Z" fill="white"/>
<path d="M266.353 83.6968C266.72 83.6968 267.089 83.6968 267.448 83.6749L267.491 84.1183C267.114 84.132 266.733 84.1374 266.353 84.1402C265.696 84.1402 265.043 84.1402 264.389 84.1128L264.427 83.6694C265.069 83.6913 265.711 83.7005 266.353 83.6968Z" fill="white"/>
<path d="M283.599 68.9948L284.307 68.8306C284.69 69.3685 285.02 69.9423 285.292 70.5438L284.551 70.656C284.287 70.0733 283.968 69.5171 283.599 68.9948Z" fill="white"/>
<path d="M258.434 83.1689C259.425 83.2967 260.42 83.4043 261.419 83.4919L261.313 83.9298C260.292 83.845 259.277 83.7327 258.268 83.6041L258.434 83.1689Z" fill="white"/>
<path d="M200.218 115.266L200.809 115.54C200.351 115.861 199.871 116.167 199.367 116.459C199.14 116.591 198.907 116.733 198.672 116.848L198.152 116.522C198.377 116.399 198.604 116.273 198.825 116.145C199.312 115.882 199.769 115.584 200.218 115.266Z" fill="white"/>
<path d="M193.265 118.575C194.147 118.291 194.997 117.98 195.815 117.642L196.261 118.003C195.423 118.351 194.545 118.671 193.637 118.961L193.265 118.575Z" fill="white"/>
<path d="M187.703 119.919C188.67 119.75 189.617 119.553 190.546 119.328L190.844 119.739C189.892 119.969 188.915 120.171 187.925 120.343L187.703 119.919Z" fill="white"/>
<path d="M181.774 120.584C182.773 120.532 183.774 120.453 184.765 120.34L184.913 120.775C183.895 120.89 182.872 120.973 181.843 121.025L181.774 120.584Z" fill="white"/>
<path d="M175.72 120.568C176.727 120.62 177.736 120.65 178.746 120.653V121.099C177.712 121.099 176.68 121.066 175.651 121.011L175.72 120.568Z" fill="white"/>
<path d="M169.735 119.979C170.722 120.118 171.713 120.239 172.709 120.341L172.583 120.779C171.566 120.676 170.556 120.553 169.555 120.409L169.735 119.979Z" fill="white"/>
<path d="M202.929 98.5029C203.329 99.0415 203.702 99.6006 204.045 100.178L203.317 100.32C202.982 99.7538 202.616 99.2057 202.223 98.6781L202.929 98.5029Z" fill="white"/>
<path d="M163.928 118.917C164.878 119.129 165.836 119.323 166.801 119.5L166.571 119.925C165.59 119.742 164.617 119.544 163.654 119.331L163.928 118.917Z" fill="white"/>
<path d="M270.129 59.5279L269.683 59.8891C268.862 59.5443 268.014 59.2077 267.171 58.8792L267.598 58.5098C268.443 58.8409 269.294 59.1803 270.129 59.5279Z" fill="white"/>
<path d="M200.079 95.3203C200.352 95.5694 200.596 95.8184 200.845 96.073C201.094 96.3275 201.359 96.6066 201.603 96.8803L200.924 97.0829C200.683 96.8092 200.437 96.5519 200.18 96.2919C199.923 96.0319 199.682 95.7965 199.425 95.5502L200.079 95.3203Z" fill="white"/>
<path d="M158.37 117.472C159.282 117.74 160.199 117.995 161.12 118.236L160.808 118.644C159.868 118.397 158.94 118.139 158.022 117.869L158.37 117.472Z" fill="white"/>
<path d="M265.029 57.519L264.613 57.9022L262.033 56.9415L262.446 56.5693L265.029 57.519Z" fill="white"/>
<path d="M195.988 92.6301L196.598 92.3564C197.219 92.8327 197.819 93.3171 198.401 93.807L197.769 94.0588C197.195 93.5798 196.598 93.0981 195.988 92.6301Z" fill="white"/>
<path d="M153.06 115.731C153.925 116.043 154.798 116.342 155.684 116.635L155.309 117.02C154.414 116.727 153.529 116.423 152.655 116.109L153.06 115.731Z" fill="white"/>
<path d="M259.868 55.6031L259.45 55.9753C258.59 55.6487 257.737 55.3194 256.889 54.9873L257.318 54.6206C258.168 54.9527 259.018 55.2802 259.868 55.6031Z" fill="white"/>
<path d="M192.127 89.8848L192.707 89.5947C193.38 90.0436 194.042 90.4997 194.693 90.9632L194.1 91.2368C193.458 90.7825 192.8 90.3319 192.127 89.8848Z" fill="white"/>
<path d="M147.978 113.764C148.806 114.107 149.644 114.442 150.49 114.771L150.066 115.14C149.212 114.808 148.368 114.469 147.532 114.122L147.978 113.764Z" fill="white"/>
<path d="M254.821 53.5996L254.37 53.9609C253.538 53.6069 252.717 53.242 251.907 52.8661L252.386 52.5186C253.187 52.8908 253.998 53.2511 254.821 53.5996Z" fill="white"/>
<path d="M188.018 87.255L188.565 86.9512C189.265 87.3836 189.96 87.8206 190.65 88.2621L190.083 88.5577C189.407 88.118 188.718 87.6837 188.018 87.255Z" fill="white"/>
<path d="M143.098 111.624C143.897 111.989 144.703 112.354 145.516 112.719L145.049 113.077C144.23 112.712 143.419 112.347 142.616 111.983L143.098 111.624Z" fill="white"/>
<path d="M248.443 51.1038L248.131 50.9286C247.864 50.7754 247.602 50.6166 247.343 50.4524L247.906 50.1514C248.158 50.3101 248.413 50.4634 248.672 50.6139L248.973 50.7863C249.337 50.9888 249.701 51.1859 250.068 51.3802L249.553 51.7086C249.184 51.5116 248.809 51.3118 248.443 51.1038Z" fill="white"/>
<path d="M183.794 84.6742L184.341 84.3677L186.459 85.6567L185.912 85.9632L183.794 84.6742Z" fill="white"/>
<path d="M138.364 109.369C139.143 109.752 139.927 110.131 140.715 110.507L140.228 110.852C139.44 110.474 138.653 110.093 137.869 109.708L138.364 109.369Z" fill="white"/>
<path d="M245.981 48.7994L245.362 49.073C244.768 48.6035 244.204 48.0952 243.677 47.5514L244.347 47.3379C244.858 47.8614 245.404 48.3497 245.981 48.7994Z" fill="white"/>
<path d="M180.163 81.7729L180.242 81.8222C180.904 82.2437 181.572 82.6597 182.242 83.0757L181.695 83.3795C181.022 82.9607 180.352 82.542 179.689 82.1205L179.607 82.0713L180.163 81.7729Z" fill="white"/>
<path d="M133.724 107.056C134.493 107.445 135.264 107.836 136.036 108.222L135.535 108.559L133.218 107.39L133.724 107.056Z" fill="white"/>
<path d="M243.072 45.7507L242.355 45.9067C241.994 45.3665 241.712 44.7776 241.518 44.1579L242.273 44.084C242.459 44.6746 242.728 45.2358 243.072 45.7507Z" fill="white"/>
<path d="M257.726 35.8984L257.759 36.3445C256.457 36.3719 255.406 36.3993 254.689 36.4239L254.646 35.9805C255.368 35.9641 256.421 35.9368 257.726 35.8984Z" fill="white"/>
<path d="M197.518 66.7148C198.445 66.9721 199.356 67.2622 200.254 67.5359L199.89 67.9191C198.998 67.6344 198.097 67.3607 197.187 67.098L197.518 66.7148Z" fill="white"/>
<path d="M175.722 79.2742L176.348 79.0225C176.931 79.5041 177.544 79.9749 178.179 80.4319L177.582 80.7056C176.939 80.2349 176.313 79.7669 175.722 79.2742Z" fill="white"/>
<path d="M129.112 104.697C129.883 105.085 130.649 105.48 131.418 105.871L130.912 106.205C130.146 105.811 129.378 105.419 128.608 105.031L129.112 104.697Z" fill="white"/>
<path d="M191.739 65.4175C192.737 65.579 193.717 65.7733 194.683 65.9922L194.409 66.4055C193.468 66.192 192.513 66.0032 191.539 65.8581L191.739 65.4175Z" fill="white"/>
<path d="M172.655 76.1463L173.361 75.9712C173.78 76.5241 174.237 77.0472 174.729 77.5367L174.051 77.772C173.547 77.2641 173.081 76.7208 172.655 76.1463Z" fill="white"/>
<path d="M124.463 102.368C125.242 102.751 126.02 103.137 126.797 103.525L126.296 103.862C125.521 103.473 124.745 103.088 123.968 102.707L124.463 102.368Z" fill="white"/>
<path d="M171.148 72.6401L171.912 72.6182C171.971 73.2094 172.128 73.7866 172.377 74.326L171.635 74.4354C171.372 73.8691 171.207 73.2619 171.148 72.6401Z" fill="white"/>
<path d="M70.4561 128.871L71.0033 128.567C71.7055 128.998 72.4114 129.427 73.1209 129.854L72.5737 130.16C71.8678 129.733 71.162 129.304 70.4561 128.871Z" fill="white"/>
<path d="M122.102 101.224L121.615 101.582C120.829 101.205 120.033 100.835 119.231 100.466L119.705 100.118C120.509 100.479 121.308 100.848 122.102 101.224Z" fill="white"/>
<path d="M172.135 70.9102L171.383 70.8199C171.593 70.2497 171.901 69.7201 172.291 69.2544C172.335 69.1997 172.379 69.1477 172.425 69.0957L173.109 69.2982L172.983 69.446C172.616 69.8797 172.329 70.3755 172.135 70.9102Z" fill="white"/>
<path d="M175.052 67.7492L174.795 67.9025L174.234 67.5987L174.508 67.4345C175.194 67.0415 175.913 66.7073 176.656 66.4355L177.072 66.8078C176.374 67.0654 175.698 67.3803 175.052 67.7492Z" fill="white"/>
<path d="M66.2764 126.257L66.8427 125.962C67.5267 126.403 68.2171 126.84 68.9139 127.273L68.3667 127.574C67.659 127.14 66.9622 126.701 66.2764 126.257Z" fill="white"/>
<path d="M116.807 99.368C115.992 99.0122 115.171 98.6628 114.345 98.3198L114.788 97.9585C115.623 98.3033 116.451 98.6555 117.272 99.0149L116.807 99.368Z" fill="white"/>
<path d="M109.659 95.9775C110.531 96.2895 111.395 96.6125 112.25 96.9464L111.826 97.3131C110.978 96.9847 110.121 96.6645 109.257 96.3525L109.659 95.9775Z" fill="white"/>
<path d="M62.2666 123.548L62.8631 123.274C63.5033 123.734 64.1563 124.19 64.822 124.643L64.242 124.933C63.5744 124.473 62.916 124.012 62.2666 123.548Z" fill="white"/>
<path d="M104.298 94.209C105.21 94.4827 106.114 94.7673 107.01 95.0629L106.632 95.446C105.746 95.1559 104.851 94.8749 103.948 94.6031L104.298 94.209Z" fill="white"/>
<path d="M58.5674 120.688L59.1994 120.436C59.774 120.923 60.3686 121.402 60.9833 121.873L60.3704 122.147C59.7493 121.662 59.1502 121.178 58.5674 120.688Z" fill="white"/>
<path d="M98.6814 92.7285C99.639 92.9475 100.586 93.181 101.521 93.4291L101.207 93.8315C100.278 93.5888 99.3435 93.358 98.4023 93.139L98.6814 92.7285Z" fill="white"/>
<path d="M55.3379 117.636L56.0137 117.428C56.4952 117.946 57.0032 118.455 57.5377 118.955L56.8865 119.188C56.3447 118.679 55.8276 118.164 55.3379 117.636Z" fill="white"/>
<path d="M92.821 91.6011C93.8151 91.758 94.801 91.9295 95.7787 92.1156L95.5406 92.5508C94.5775 92.3683 93.6053 92.1995 92.624 92.0444L92.821 91.6011Z" fill="white"/>
<path d="M52.7676 114.377L53.4872 114.224C53.8401 114.771 54.2314 115.318 54.65 115.852L53.955 116.035C53.5255 115.494 53.1315 114.941 52.7676 114.377Z" fill="white"/>
<path d="M87.8304 90.9965C88.4962 91.053 89.1555 91.1205 89.8085 91.199L89.6608 91.6342C89.0178 91.5603 88.3694 91.4946 87.721 91.4371C87.3653 91.4043 87.0151 91.3769 86.6621 91.3495L86.7524 90.9116C87.1136 90.9363 87.472 90.9636 87.8304 90.9965Z" fill="white"/>
<path d="M51.0498 110.931L51.8022 110.844C52.0102 111.427 52.2532 111.997 52.53 112.552L51.794 112.675C51.5106 112.109 51.2621 111.527 51.0498 110.931Z" fill="white"/>
<path d="M80.5684 90.769C81.5998 90.7443 82.6341 90.7443 83.6655 90.769L83.6354 91.2123C82.6286 91.1904 81.6172 91.1904 80.6012 91.2123L80.5684 90.769Z" fill="white"/>
<path d="M50.333 107.368H51.0964C51.1249 107.955 51.1981 108.54 51.3152 109.117L50.5546 109.169C50.4319 108.575 50.3578 107.973 50.333 107.368Z" fill="white"/>
<path d="M74.4297 91.2039C75.4393 91.0834 76.4598 90.9877 77.4831 90.9165L77.5789 91.3571C76.5747 91.4256 75.5761 91.5213 74.5856 91.6308L74.4297 91.2039Z" fill="white"/>
<path d="M50.8141 103.788L51.5665 103.87C51.3813 104.435 51.2493 105.016 51.1725 105.605L50.4092 105.57C50.4897 104.965 50.6252 104.368 50.8141 103.788Z" fill="white"/>
<path d="M71.4285 91.6338L71.6447 92.058C70.6706 92.2259 69.7139 92.4138 68.7746 92.6218L68.501 92.2058C69.4586 91.9923 70.4344 91.8016 71.4285 91.6338Z" fill="white"/>
<path d="M53.3913 100.547C53.3311 100.624 53.2709 100.701 53.2135 100.78C52.8789 101.223 52.5772 101.689 52.3106 102.176L51.5801 102.042C51.8548 101.539 52.1657 101.057 52.5103 100.599L52.6936 100.361L53.3913 100.547Z" fill="white"/>
<path d="M55.964 97.3154L56.5604 97.5891C55.9457 98.0232 55.3599 98.4967 54.8066 99.0068L54.1582 98.7714C54.7276 98.247 55.3308 97.7606 55.964 97.3154Z" fill="white"/>
<path d="M60.8808 95.17C60.0819 95.5257 59.3213 95.9062 58.599 96.3112L58.0518 95.991C58.7932 95.575 59.5785 95.1836 60.3965 94.8169L60.8808 95.17Z" fill="white"/>
<path d="M66.005 93.3254C65.0929 93.5863 64.212 93.8691 63.362 94.1738L62.957 93.7961C63.8298 93.4814 64.7354 93.194 65.6657 92.9258L66.005 93.3254Z" fill="white"/>
<path d="M182.609 65.5653C181.642 65.6707 180.681 65.8269 179.731 66.0333L179.457 65.6201C180.451 65.4025 181.455 65.2381 182.467 65.1274L182.609 65.5653Z" fill="white"/>
<path d="M188.586 65.4835C187.604 65.4014 186.597 65.3686 185.59 65.385L185.571 64.9389C186.619 64.9252 187.667 64.9608 188.693 65.0456L188.586 65.4835Z" fill="white"/>
<path d="M244.166 39.2179L243.562 38.9442C243.844 38.7355 244.137 38.5418 244.44 38.364C244.889 38.1069 245.353 37.8766 245.83 37.6743L246.281 38.0328C245.834 38.2217 245.399 38.4374 244.979 38.6787C244.698 38.8436 244.427 39.0236 244.166 39.2179Z" fill="white"/>
<path d="M242.105 42.3626L241.355 42.3297C241.435 41.6942 241.66 41.0854 242.012 40.5508L242.726 40.7095C242.395 41.2057 242.183 41.7712 242.105 42.3626Z" fill="white"/>
<path d="M251.712 36.6535C250.754 36.7746 249.804 36.951 248.866 37.1817L248.56 36.7739C249.542 36.5331 250.538 36.3503 251.542 36.2266L251.712 36.6535Z" fill="white"/>
<path d="M202.541 68.8114L202.932 68.4282C203.813 68.732 204.692 69.0413 205.564 69.3478L205.168 69.7282C204.295 69.4217 203.419 69.1124 202.541 68.8114Z" fill="white"/>
<path d="M263.896 36.2344L260.826 36.2891L260.799 35.8458L263.871 35.791L263.896 36.2344Z" fill="white"/>
<path d="M270.035 36.147L266.965 36.188L266.943 35.7447L270.016 35.7036L270.035 36.147Z" fill="white"/>
<path d="M207.802 70.6558L208.19 70.2754C209.069 70.5764 209.951 70.8748 210.836 71.1703L210.456 71.5562C209.567 71.2534 208.683 70.9532 207.802 70.6558Z" fill="white"/>
<path d="M276.175 36.084L273.105 36.1114L273.086 35.668L276.161 35.6406L276.175 36.084Z" fill="white"/>
<path d="M213.127 72.4238L213.502 72.0352C214.391 72.3253 215.288 72.6126 216.186 72.8945L215.822 73.2859C214.923 72.9921 214.024 72.7048 213.127 72.4238Z" fill="white"/>
<path d="M282.314 36.0513C281.31 36.0513 280.281 36.0513 279.244 36.0513V35.6079H282.319L282.314 36.0513Z" fill="white"/>
<path d="M218.529 74.1238L218.885 73.7324C219.797 74.0079 220.704 74.2816 221.605 74.5535L221.257 74.9503C220.345 74.6785 219.436 74.403 218.529 74.1238Z" fill="white"/>
<path d="M288.452 36.0623C287.481 36.0623 286.452 36.0623 285.385 36.0623V35.6162L288.46 35.6299L288.452 36.0623Z" fill="white"/>
<path d="M294.572 36.1715C293.727 36.1359 292.692 36.1085 291.519 36.0894L291.538 35.646C292.722 35.6652 293.762 35.6925 294.627 35.7281L294.572 36.1715Z" fill="white"/>
<path d="M224.002 75.7465L224.341 75.3496C225.253 75.6123 226.171 75.8723 227.094 76.1296L226.765 76.5292C225.841 76.2628 224.919 76.0019 224.002 75.7465Z" fill="white"/>
<path d="M229.542 77.29L229.865 76.8877C230.79 77.1395 231.72 77.3831 232.65 77.6266L232.327 78.0454C231.399 77.7936 230.47 77.5418 229.542 77.29Z" fill="white"/>
<path d="M235.149 78.7545L235.453 78.3467C236.389 78.582 237.327 78.8147 238.269 79.0446L237.973 79.4551C237.028 79.2252 236.087 78.9917 235.149 78.7545Z" fill="white"/>
<path d="M274.481 62.0706C273.718 61.6874 272.93 61.3125 272.128 60.9485L272.599 60.5981C273.41 60.9631 274.205 61.3426 274.984 61.7367L274.481 62.0706Z" fill="white"/>
<path d="M204.186 102.006L204.93 101.899C205.182 102.469 205.395 103.055 205.567 103.654L204.809 103.728C204.643 103.14 204.434 102.564 204.186 102.006Z" fill="white"/>
<path d="M240.81 80.1337L241.083 79.7231C242.03 79.9448 242.979 80.1665 243.929 80.38L243.655 80.7933C242.71 80.578 241.762 80.3581 240.81 80.1337Z" fill="white"/>
<path d="M276.774 63.3073L276.714 63.2718L277.261 62.957L277.321 62.9926C278.036 63.4031 278.72 63.8292 279.373 64.2707L278.793 64.5581C278.148 64.1257 277.472 63.7097 276.774 63.3073Z" fill="white"/>
<path d="M205.168 105.469L205.931 105.438C206.006 106.035 206.027 106.637 205.994 107.237L205.228 107.22C205.26 106.636 205.24 106.05 205.168 105.469Z" fill="white"/>
<path d="M246.806 81.0176C247.323 81.1298 247.84 81.2447 248.36 81.3542L249.676 81.6279L249.419 82.0439C248.976 81.9527 248.535 81.8614 248.097 81.7702C247.575 81.6607 247.055 81.5458 246.535 81.4336L246.806 81.0176Z" fill="white"/>
<path d="M205.077 110.789L204.338 110.669C204.602 110.125 204.813 109.556 204.967 108.972L205.725 109.037C205.566 109.641 205.349 110.228 205.077 110.789Z" fill="white"/>
<path d="M255.278 83.1608C254.287 82.9993 253.305 82.8214 252.328 82.6353L252.566 82.2139C253.535 82.3963 254.507 82.5697 255.483 82.7339L255.278 83.1608Z" fill="white"/>
<path d="M282.944 67.2048L282.276 67.421C281.758 66.8959 281.21 66.4015 280.635 65.9404L281.261 65.6831C281.851 66.1572 282.413 66.6653 282.944 67.2048Z" fill="white"/>
<path d="M203.342 112.311L204.045 112.488C203.651 113.016 203.215 113.511 202.743 113.969L202.614 114.092L201.963 113.857L202.086 113.739C202.542 113.297 202.962 112.819 203.342 112.311Z" fill="white"/>
<path d="M281.009 80.4045C281.487 80.1187 281.944 79.7995 282.377 79.4494C282.538 79.318 282.694 79.1757 282.842 79.0498L283.49 79.2879C283.334 79.4302 283.17 79.5616 282.998 79.7094C282.542 80.078 282.06 80.4137 281.556 80.7138L281.009 80.4045Z" fill="white"/>
<path d="M75.8838 89.8691V70.2651" stroke="#50CF66" stroke-width="2" stroke-miterlimit="10"/>
<path d="M76.0271 70.7458C80.2807 70.7458 83.729 67.2965 83.729 63.0416C83.729 58.7867 80.2807 55.3374 76.0271 55.3374C71.7735 55.3374 68.3252 58.7867 68.3252 63.0416C68.3252 67.2965 71.7735 70.7458 76.0271 70.7458Z" fill="white" stroke="#50CF66" stroke-width="2" stroke-miterlimit="10"/>
<path d="M78.219 91.4479C78.5238 90.1563 77.7241 88.8621 76.4328 88.5572C75.1416 88.2524 73.8478 89.0523 73.543 90.3439C73.2383 91.6356 74.038 92.9297 75.3292 93.2346C76.6204 93.5394 77.9142 92.7395 78.219 91.4479Z" fill="#50CF66" stroke="#FCFCFC" stroke-width="2" stroke-miterlimit="10"/>
<path d="M129.263 104.331L129.263 88" stroke="#8BA3F8" stroke-width="2" stroke-miterlimit="10"/>
<path d="M129.408 92.6833C133.662 92.6833 137.11 89.234 137.11 84.9791C137.11 80.7242 133.662 77.2749 129.408 77.2749C125.154 77.2749 121.706 80.7242 121.706 84.9791C121.706 89.234 125.154 92.6833 129.408 92.6833Z" fill="white" stroke="#8BA3F8" stroke-width="2" stroke-miterlimit="10"/>
<path d="M131.693 105.229C132.006 103.94 131.214 102.641 129.925 102.328C128.635 102.015 127.337 102.807 127.024 104.097C126.711 105.387 127.503 106.686 128.793 106.998C130.082 107.311 131.381 106.519 131.693 105.229Z" fill="#8BA3F8" stroke="#FCFCFC" stroke-width="2" stroke-miterlimit="10"/>
<path d="M190.605 64.166V44.562" stroke="#C354F7" stroke-width="2" stroke-miterlimit="10"/>
<path d="M190.59 48.5647C194.843 48.5647 198.291 45.1154 198.291 40.8605C198.291 36.6055 194.843 33.1562 190.59 33.1562C186.336 33.1562 182.888 36.6055 182.888 40.8605C182.888 45.1154 186.336 48.5647 190.59 48.5647Z" fill="white" stroke="#C354F7" stroke-width="2" stroke-miterlimit="10"/>
<path d="M192.944 65.7485C193.247 64.4566 192.446 63.1631 191.155 62.8594C189.863 62.5557 188.57 63.3567 188.267 64.6486C187.963 65.9405 188.764 67.234 190.055 67.5377C191.347 67.8415 192.64 67.0404 192.944 65.7485Z" fill="#C354F7" stroke="#FCFCFC" stroke-width="2" stroke-miterlimit="10"/>
<path d="M225.828 105.829V76.2002" stroke="#E2587C" stroke-width="2" stroke-miterlimit="10"/>
<path d="M225.933 112.671C230.187 112.671 233.635 109.222 233.635 104.967C233.635 100.712 230.187 97.2627 225.933 97.2627C221.68 97.2627 218.231 100.712 218.231 104.967C218.231 109.222 221.68 112.671 225.933 112.671Z" fill="#FCFCFC" stroke="#E2587C" stroke-width="2" stroke-miterlimit="10"/>
<path d="M225.828 78.1379C227.155 78.1379 228.23 77.0621 228.23 75.735C228.23 74.4079 227.155 73.332 225.828 73.332C224.501 73.332 223.426 74.4079 223.426 75.735C223.426 77.0621 224.501 78.1379 225.828 78.1379Z" fill="#E2587C" stroke="#FCFCFC" stroke-width="2" stroke-miterlimit="10"/>
<path d="M285.488 52.4038V72.0078" stroke="#FF7A00" stroke-width="2" stroke-miterlimit="10"/>
<path d="M286.401 74.3539C287.627 73.8488 288.213 72.4445 287.708 71.2173C287.203 69.99 285.799 69.4046 284.572 69.9097C283.345 70.4148 282.76 71.8191 283.265 73.0463C283.77 74.2736 285.174 74.859 286.401 74.3539Z" fill="#FF7A00" stroke="#FCFCFC" stroke-width="2" stroke-miterlimit="10"/>
<path d="M285.408 60.5085C289.662 60.5085 293.11 57.0592 293.11 52.8043C293.11 48.5494 289.662 45.1001 285.408 45.1001C281.154 45.1001 277.706 48.5494 277.706 52.8043C277.706 57.0592 281.154 60.5085 285.408 60.5085Z" fill="white" stroke="#FF7A00" stroke-width="2" stroke-miterlimit="10"/>
<path d="M242.769 22.5493V42.1533" stroke="#FFC536" stroke-width="2" stroke-miterlimit="10"/>
<path d="M242.768 44.6711C244.095 44.6711 245.171 43.5953 245.171 42.2682C245.171 40.9411 244.095 39.8652 242.768 39.8652C241.442 39.8652 240.366 40.9411 240.366 42.2682C240.366 43.5953 241.442 44.6711 242.768 44.6711Z" fill="#FFC536" stroke="#FCFCFC" stroke-width="2" stroke-miterlimit="10"/>
<path d="M242.996 26.4084C247.249 26.4084 250.698 22.9591 250.698 18.7042C250.698 14.4493 247.249 11 242.996 11C238.742 11 235.294 14.4493 235.294 18.7042C235.294 22.9591 238.742 26.4084 242.996 26.4084Z" fill="white" stroke="#FFC536" stroke-width="2" stroke-miterlimit="10"/>
<path d="M254.219 22C254.224 21.5733 254.31 21.2133 254.475 20.92C254.646 20.6267 254.883 20.352 255.187 20.096C255.347 19.9573 255.611 19.7547 255.979 19.488C256.347 19.2213 256.606 19.0213 256.755 18.888C256.995 18.6747 257.115 18.448 257.115 18.208C257.115 17.9893 257.054 17.816 256.931 17.688C256.808 17.56 256.632 17.496 256.403 17.496C256.142 17.496 255.944 17.5787 255.811 17.744C255.651 17.9253 255.568 18.1947 255.563 18.552H254.299C254.299 17.9653 254.424 17.5013 254.675 17.16C255.022 16.6587 255.608 16.408 256.435 16.408C257.07 16.408 257.566 16.5733 257.923 16.904C258.286 17.2347 258.467 17.6533 258.467 18.16C258.467 18.5067 258.387 18.8 258.227 19.04C258.067 19.28 257.843 19.512 257.555 19.736C257.459 19.8107 257.227 19.9813 256.859 20.248C256.496 20.5093 256.24 20.72 256.091 20.88V20.888H258.475V22H254.219ZM261.346 21.072C262.034 21.072 262.378 20.4693 262.378 19.264C262.378 18.704 262.293 18.2613 262.122 17.936C261.957 17.6107 261.698 17.448 261.346 17.448C260.994 17.448 260.733 17.6107 260.562 17.936C260.392 18.256 260.306 18.6987 260.306 19.264C260.306 19.8293 260.392 20.272 260.562 20.592C260.733 20.912 260.994 21.072 261.346 21.072ZM261.338 22.128C260.618 22.128 260.034 21.8667 259.586 21.344C259.144 20.8213 258.922 20.128 258.922 19.264C258.922 18.3947 259.144 17.7013 259.586 17.184C260.034 16.6613 260.621 16.4 261.346 16.4C262.082 16.4 262.669 16.6613 263.106 17.184C263.549 17.7013 263.77 18.3947 263.77 19.264C263.77 20.1333 263.546 20.8293 263.098 21.352C262.656 21.8693 262.069 22.128 261.338 22.128ZM265.302 22V18.496H264.126V17.584C264.51 17.5733 264.833 17.4747 265.094 17.288C265.355 17.1013 265.518 16.8293 265.582 16.472H266.654V22H265.302ZM269.616 22.128C268.859 22.128 268.283 21.952 267.888 21.6C267.483 21.2427 267.28 20.744 267.28 20.104H268.552C268.589 20.7653 268.925 21.096 269.56 21.096C269.832 21.096 270.043 21.0293 270.192 20.896C270.341 20.7573 270.416 20.5707 270.416 20.336C270.416 19.856 270.104 19.616 269.48 19.616H269.152V18.68H269.448C269.709 18.68 269.915 18.624 270.064 18.512C270.219 18.4 270.296 18.2427 270.296 18.04C270.296 17.848 270.232 17.696 270.104 17.584C269.976 17.472 269.8 17.416 269.576 17.416C269.299 17.416 269.088 17.4933 268.944 17.648C268.8 17.8027 268.72 18.0053 268.704 18.256H267.448C267.459 17.7013 267.651 17.256 268.024 16.92C268.403 16.5787 268.925 16.408 269.592 16.408C270.205 16.408 270.696 16.5467 271.064 16.824C271.437 17.096 271.624 17.472 271.624 17.952C271.624 18.464 271.347 18.8293 270.792 19.048V19.064C271.453 19.2667 271.784 19.7147 271.784 20.408C271.784 20.968 271.576 21.3947 271.16 21.688C270.749 21.9813 270.235 22.128 269.616 22.128Z" fill="#121D50"/>
<path d="M297.633 56C297.638 55.5733 297.724 55.2133 297.889 54.92C298.06 54.6267 298.297 54.352 298.601 54.096C298.761 53.9573 299.025 53.7547 299.393 53.488C299.761 53.2213 300.02 53.0213 300.169 52.888C300.409 52.6747 300.529 52.448 300.529 52.208C300.529 51.9893 300.468 51.816 300.345 51.688C300.222 51.56 300.046 51.496 299.817 51.496C299.556 51.496 299.358 51.5787 299.225 51.744C299.065 51.9253 298.982 52.1947 298.977 52.552H297.713C297.713 51.9653 297.838 51.5013 298.089 51.16C298.436 50.6587 299.022 50.408 299.849 50.408C300.484 50.408 300.98 50.5733 301.337 50.904C301.7 51.2347 301.881 51.6533 301.881 52.16C301.881 52.5067 301.801 52.8 301.641 53.04C301.481 53.28 301.257 53.512 300.969 53.736C300.873 53.8107 300.641 53.9813 300.273 54.248C299.91 54.5093 299.654 54.72 299.505 54.88V54.888H301.889V56H297.633ZM304.761 55.072C305.449 55.072 305.793 54.4693 305.793 53.264C305.793 52.704 305.707 52.2613 305.537 51.936C305.371 51.6107 305.113 51.448 304.761 51.448C304.409 51.448 304.147 51.6107 303.977 51.936C303.806 52.256 303.721 52.6987 303.721 53.264C303.721 53.8293 303.806 54.272 303.977 54.592C304.147 54.912 304.409 55.072 304.761 55.072ZM304.753 56.128C304.033 56.128 303.449 55.8667 303.001 55.344C302.558 54.8213 302.337 54.128 302.337 53.264C302.337 52.3947 302.558 51.7013 303.001 51.184C303.449 50.6613 304.035 50.4 304.761 50.4C305.497 50.4 306.083 50.6613 306.521 51.184C306.963 51.7013 307.185 52.3947 307.185 53.264C307.185 54.1333 306.961 54.8293 306.513 55.352C306.07 55.8693 305.483 56.128 304.753 56.128ZM308.716 56V52.496H307.54V51.584C307.924 51.5733 308.247 51.4747 308.508 51.288C308.769 51.1013 308.932 50.8293 308.996 50.472H310.068V56H308.716ZM313.302 56V54.784H310.75V53.544L313.286 50.464H314.614V53.76H315.406V54.784H314.614V56H313.302ZM311.766 53.76H313.302V51.88H313.286L311.766 53.744V53.76Z" fill="#121D50"/>
<path d="M216.641 123C216.646 122.573 216.732 122.213 216.897 121.92C217.068 121.627 217.305 121.352 217.609 121.096C217.769 120.957 218.033 120.755 218.401 120.488C218.769 120.221 219.028 120.021 219.177 119.888C219.417 119.675 219.537 119.448 219.537 119.208C219.537 118.989 219.476 118.816 219.353 118.688C219.23 118.56 219.054 118.496 218.825 118.496C218.564 118.496 218.366 118.579 218.233 118.744C218.073 118.925 217.99 119.195 217.985 119.552H216.721C216.721 118.965 216.846 118.501 217.097 118.16C217.444 117.659 218.03 117.408 218.857 117.408C219.492 117.408 219.988 117.573 220.345 117.904C220.708 118.235 220.889 118.653 220.889 119.16C220.889 119.507 220.809 119.8 220.649 120.04C220.489 120.28 220.265 120.512 219.977 120.736C219.881 120.811 219.649 120.981 219.281 121.248C218.918 121.509 218.662 121.72 218.513 121.88V121.888H220.897V123H216.641ZM223.768 122.072C224.456 122.072 224.8 121.469 224.8 120.264C224.8 119.704 224.715 119.261 224.544 118.936C224.379 118.611 224.12 118.448 223.768 118.448C223.416 118.448 223.155 118.611 222.984 118.936C222.814 119.256 222.728 119.699 222.728 120.264C222.728 120.829 222.814 121.272 222.984 121.592C223.155 121.912 223.416 122.072 223.768 122.072ZM223.76 123.128C223.04 123.128 222.456 122.867 222.008 122.344C221.566 121.821 221.344 121.128 221.344 120.264C221.344 119.395 221.566 118.701 222.008 118.184C222.456 117.661 223.043 117.4 223.768 117.4C224.504 117.4 225.091 117.661 225.528 118.184C225.971 118.701 226.192 119.395 226.192 120.264C226.192 121.133 225.968 121.829 225.52 122.352C225.078 122.869 224.491 123.128 223.76 123.128ZM227.724 123V119.496H226.548V118.584C226.932 118.573 227.255 118.475 227.516 118.288C227.777 118.101 227.94 117.829 228.004 117.472H229.076V123H227.724ZM232.198 123.128C231.419 123.128 230.825 122.869 230.414 122.352C230.003 121.835 229.795 121.152 229.79 120.304C229.779 119.355 230.001 118.624 230.454 118.112C230.865 117.643 231.443 117.408 232.19 117.408C232.75 117.408 233.206 117.539 233.558 117.8C233.91 118.061 234.129 118.419 234.214 118.872H232.926C232.825 118.536 232.585 118.368 232.206 118.368C231.875 118.368 231.617 118.488 231.43 118.728C231.249 118.968 231.147 119.309 231.126 119.752H231.142C231.473 119.405 231.891 119.232 232.398 119.232C232.942 119.232 233.406 119.413 233.79 119.776C234.179 120.139 234.374 120.605 234.374 121.176C234.374 121.757 234.169 122.229 233.758 122.592C233.353 122.949 232.833 123.128 232.198 123.128ZM231.462 121.856C231.643 122.032 231.873 122.12 232.15 122.12C232.427 122.12 232.654 122.032 232.83 121.856C233.006 121.68 233.094 121.456 233.094 121.184C233.094 120.912 233.003 120.685 232.822 120.504C232.646 120.317 232.422 120.224 232.15 120.224C231.862 120.224 231.63 120.315 231.454 120.496C231.283 120.672 231.198 120.901 231.198 121.184C231.198 121.456 231.286 121.68 231.462 121.856Z" fill="#121D50"/>
<path d="M181.176 29C181.181 28.5733 181.267 28.2133 181.432 27.92C181.603 27.6267 181.84 27.352 182.144 27.096C182.304 26.9573 182.568 26.7547 182.936 26.488C183.304 26.2213 183.563 26.0213 183.712 25.888C183.952 25.6747 184.072 25.448 184.072 25.208C184.072 24.9893 184.011 24.816 183.888 24.688C183.765 24.56 183.589 24.496 183.36 24.496C183.099 24.496 182.901 24.5787 182.768 24.744C182.608 24.9253 182.525 25.1947 182.52 25.552H181.256C181.256 24.9653 181.381 24.5013 181.632 24.16C181.979 23.6587 182.565 23.408 183.392 23.408C184.027 23.408 184.523 23.5733 184.88 23.904C185.243 24.2347 185.424 24.6533 185.424 25.16C185.424 25.5067 185.344 25.8 185.184 26.04C185.024 26.28 184.8 26.512 184.512 26.736C184.416 26.8107 184.184 26.9813 183.816 27.248C183.453 27.5093 183.197 27.72 183.048 27.88V27.888H185.432V29H181.176ZM188.304 28.072C188.992 28.072 189.336 27.4693 189.336 26.264C189.336 25.704 189.25 25.2613 189.08 24.936C188.914 24.6107 188.656 24.448 188.304 24.448C187.952 24.448 187.69 24.6107 187.52 24.936C187.349 25.256 187.264 25.6987 187.264 26.264C187.264 26.8293 187.349 27.272 187.52 27.592C187.69 27.912 187.952 28.072 188.304 28.072ZM188.296 29.128C187.576 29.128 186.992 28.8667 186.544 28.344C186.101 27.8213 185.88 27.128 185.88 26.264C185.88 25.3947 186.101 24.7013 186.544 24.184C186.992 23.6613 187.578 23.4 188.304 23.4C189.04 23.4 189.626 23.6613 190.064 24.184C190.506 24.7013 190.728 25.3947 190.728 26.264C190.728 27.1333 190.504 27.8293 190.056 28.352C189.613 28.8693 189.026 29.128 188.296 29.128ZM192.259 29V25.496H191.083V24.584C191.467 24.5733 191.79 24.4747 192.051 24.288C192.312 24.1013 192.475 23.8293 192.539 23.472H193.611V29H192.259ZM196.573 29.128C195.885 29.128 195.33 28.976 194.909 28.672C194.488 28.3627 194.277 27.9493 194.277 27.432C194.277 27.1227 194.36 26.8507 194.525 26.616C194.696 26.376 194.93 26.192 195.229 26.064V26.04C194.744 25.8053 194.501 25.4373 194.501 24.936C194.501 24.4773 194.688 24.1093 195.061 23.832C195.434 23.5493 195.936 23.408 196.565 23.408C197.2 23.408 197.701 23.544 198.069 23.816C198.437 24.0827 198.621 24.448 198.621 24.912C198.621 25.3867 198.381 25.752 197.901 26.008V26.032C198.205 26.1493 198.44 26.328 198.605 26.568C198.77 26.808 198.853 27.0853 198.853 27.4C198.853 27.928 198.642 28.3493 198.221 28.664C197.805 28.9733 197.256 29.128 196.573 29.128ZM196.565 28.128C196.848 28.128 197.074 28.056 197.245 27.912C197.421 27.768 197.509 27.5787 197.509 27.344C197.509 27.0987 197.424 26.9013 197.253 26.752C197.088 26.6027 196.861 26.528 196.573 26.528C196.29 26.528 196.058 26.6027 195.877 26.752C195.701 26.9013 195.613 27.0987 195.613 27.344C195.613 27.584 195.698 27.776 195.869 27.92C196.045 28.0587 196.277 28.128 196.565 28.128ZM195.965 25.488C196.109 25.6107 196.306 25.672 196.557 25.672C196.808 25.672 197.005 25.6107 197.149 25.488C197.298 25.36 197.373 25.1973 197.373 25C197.373 24.8027 197.298 24.6427 197.149 24.52C197.005 24.3973 196.808 24.336 196.557 24.336C196.306 24.336 196.109 24.3973 195.965 24.52C195.821 24.6427 195.749 24.8027 195.749 25C195.749 25.1973 195.821 25.36 195.965 25.488Z" fill="#121D50"/>
<path d="M119.301 74C119.306 73.5733 119.392 73.2133 119.557 72.92C119.728 72.6267 119.965 72.352 120.269 72.096C120.429 71.9573 120.693 71.7547 121.061 71.488C121.429 71.2213 121.688 71.0213 121.837 70.888C122.077 70.6747 122.197 70.448 122.197 70.208C122.197 69.9893 122.136 69.816 122.013 69.688C121.89 69.56 121.714 69.496 121.485 69.496C121.224 69.496 121.026 69.5787 120.893 69.744C120.733 69.9253 120.65 70.1947 120.645 70.552H119.381C119.381 69.9653 119.506 69.5013 119.757 69.16C120.104 68.6587 120.69 68.408 121.517 68.408C122.152 68.408 122.648 68.5733 123.005 68.904C123.368 69.2347 123.549 69.6533 123.549 70.16C123.549 70.5067 123.469 70.8 123.309 71.04C123.149 71.28 122.925 71.512 122.637 71.736C122.541 71.8107 122.309 71.9813 121.941 72.248C121.578 72.5093 121.322 72.72 121.173 72.88V72.888H123.557V74H119.301ZM126.429 73.072C127.117 73.072 127.461 72.4693 127.461 71.264C127.461 70.704 127.375 70.2613 127.205 69.936C127.039 69.6107 126.781 69.448 126.429 69.448C126.077 69.448 125.815 69.6107 125.645 69.936C125.474 70.256 125.389 70.6987 125.389 71.264C125.389 71.8293 125.474 72.272 125.645 72.592C125.815 72.912 126.077 73.072 126.429 73.072ZM126.421 74.128C125.701 74.128 125.117 73.8667 124.669 73.344C124.226 72.8213 124.005 72.128 124.005 71.264C124.005 70.3947 124.226 69.7013 124.669 69.184C125.117 68.6613 125.703 68.4 126.429 68.4C127.165 68.4 127.751 68.6613 128.189 69.184C128.631 69.7013 128.853 70.3947 128.853 71.264C128.853 72.1333 128.629 72.8293 128.181 73.352C127.738 73.8693 127.151 74.128 126.421 74.128ZM129.137 74C129.142 73.5733 129.228 73.2133 129.393 72.92C129.564 72.6267 129.801 72.352 130.105 72.096C130.265 71.9573 130.529 71.7547 130.897 71.488C131.265 71.2213 131.524 71.0213 131.673 70.888C131.913 70.6747 132.033 70.448 132.033 70.208C132.033 69.9893 131.972 69.816 131.849 69.688C131.726 69.56 131.55 69.496 131.321 69.496C131.06 69.496 130.862 69.5787 130.729 69.744C130.569 69.9253 130.486 70.1947 130.481 70.552H129.217C129.217 69.9653 129.342 69.5013 129.593 69.16C129.94 68.6587 130.526 68.408 131.353 68.408C131.988 68.408 132.484 68.5733 132.841 68.904C133.204 69.2347 133.385 69.6533 133.385 70.16C133.385 70.5067 133.305 70.8 133.145 71.04C132.985 71.28 132.761 71.512 132.473 71.736C132.377 71.8107 132.145 71.9813 131.777 72.248C131.414 72.5093 131.158 72.72 131.009 72.88V72.888H133.393V74H129.137ZM136.264 73.072C136.952 73.072 137.296 72.4693 137.296 71.264C137.296 70.704 137.211 70.2613 137.04 69.936C136.875 69.6107 136.616 69.448 136.264 69.448C135.912 69.448 135.651 69.6107 135.48 69.936C135.31 70.256 135.224 70.6987 135.224 71.264C135.224 71.8293 135.31 72.272 135.48 72.592C135.651 72.912 135.912 73.072 136.264 73.072ZM136.256 74.128C135.536 74.128 134.952 73.8667 134.504 73.344C134.062 72.8213 133.84 72.128 133.84 71.264C133.84 70.3947 134.062 69.7013 134.504 69.184C134.952 68.6613 135.539 68.4 136.264 68.4C137 68.4 137.587 68.6613 138.024 69.184C138.467 69.7013 138.688 70.3947 138.688 71.264C138.688 72.1333 138.464 72.8293 138.016 73.352C137.574 73.8693 136.987 74.128 136.256 74.128Z" fill="#121D50"/>
<path d="M66.301 52C66.3063 51.5733 66.3917 51.2133 66.557 50.92C66.7277 50.6267 66.965 50.352 67.269 50.096C67.429 49.9573 67.693 49.7547 68.061 49.488C68.429 49.2213 68.6877 49.0213 68.837 48.888C69.077 48.6747 69.197 48.448 69.197 48.208C69.197 47.9893 69.1357 47.816 69.013 47.688C68.8903 47.56 68.7143 47.496 68.485 47.496C68.2237 47.496 68.0263 47.5787 67.893 47.744C67.733 47.9253 67.6503 48.1947 67.645 48.552H66.381C66.381 47.9653 66.5063 47.5013 66.757 47.16C67.1037 46.6587 67.6903 46.408 68.517 46.408C69.1517 46.408 69.6477 46.5733 70.005 46.904C70.3677 47.2347 70.549 47.6533 70.549 48.16C70.549 48.5067 70.469 48.8 70.309 49.04C70.149 49.28 69.925 49.512 69.637 49.736C69.541 49.8107 69.309 49.9813 68.941 50.248C68.5783 50.5093 68.3223 50.72 68.173 50.88V50.888H70.557V52H66.301ZM73.4285 51.072C74.1165 51.072 74.4605 50.4693 74.4605 49.264C74.4605 48.704 74.3752 48.2613 74.2045 47.936C74.0392 47.6107 73.7805 47.448 73.4285 47.448C73.0765 47.448 72.8152 47.6107 72.6445 47.936C72.4738 48.256 72.3885 48.6987 72.3885 49.264C72.3885 49.8293 72.4738 50.272 72.6445 50.592C72.8152 50.912 73.0765 51.072 73.4285 51.072ZM73.4205 52.128C72.7005 52.128 72.1165 51.8667 71.6685 51.344C71.2258 50.8213 71.0045 50.128 71.0045 49.264C71.0045 48.3947 71.2258 47.7013 71.6685 47.184C72.1165 46.6613 72.7032 46.4 73.4285 46.4C74.1645 46.4 74.7512 46.6613 75.1885 47.184C75.6312 47.7013 75.8525 48.3947 75.8525 49.264C75.8525 50.1333 75.6285 50.8293 75.1805 51.352C74.7378 51.8693 74.1512 52.128 73.4205 52.128ZM76.1369 52C76.1423 51.5733 76.2276 51.2133 76.3929 50.92C76.5636 50.6267 76.8009 50.352 77.1049 50.096C77.2649 49.9573 77.5289 49.7547 77.8969 49.488C78.2649 49.2213 78.5236 49.0213 78.6729 48.888C78.9129 48.6747 79.0329 48.448 79.0329 48.208C79.0329 47.9893 78.9716 47.816 78.8489 47.688C78.7263 47.56 78.5503 47.496 78.3209 47.496C78.0596 47.496 77.8623 47.5787 77.7289 47.744C77.5689 47.9253 77.4863 48.1947 77.4809 48.552H76.2169C76.2169 47.9653 76.3423 47.5013 76.5929 47.16C76.9396 46.6587 77.5263 46.408 78.3529 46.408C78.9876 46.408 79.4836 46.5733 79.8409 46.904C80.2036 47.2347 80.3849 47.6533 80.3849 48.16C80.3849 48.5067 80.3049 48.8 80.1449 49.04C79.9849 49.28 79.7609 49.512 79.4729 49.736C79.3769 49.8107 79.1449 49.9813 78.7769 50.248C78.4143 50.5093 78.1583 50.72 78.0089 50.88V50.888H80.3929V52H76.1369ZM83.2644 51.072C83.9524 51.072 84.2964 50.4693 84.2964 49.264C84.2964 48.704 84.2111 48.2613 84.0404 47.936C83.8751 47.6107 83.6164 47.448 83.2644 47.448C82.9124 47.448 82.6511 47.6107 82.4804 47.936C82.3098 48.256 82.2244 48.6987 82.2244 49.264C82.2244 49.8293 82.3098 50.272 82.4804 50.592C82.6511 50.912 82.9124 51.072 83.2644 51.072ZM83.2564 52.128C82.5364 52.128 81.9524 51.8667 81.5044 51.344C81.0618 50.8213 80.8404 50.128 80.8404 49.264C80.8404 48.3947 81.0618 47.7013 81.5044 47.184C81.9524 46.6613 82.5391 46.4 83.2644 46.4C84.0004 46.4 84.5871 46.6613 85.0244 47.184C85.4671 47.7013 85.6884 48.3947 85.6884 49.264C85.6884 50.1333 85.4644 50.8293 85.0164 51.352C84.5738 51.8693 83.9871 52.128 83.2564 52.128Z" fill="#121D50"/>
<defs>
<filter id="filter0_dd" x="0" y="0" width="336" height="160.012" filterUnits="userSpaceOnUse" color-interpolation-filters="sRGB">
<feFlood flood-opacity="0" result="BackgroundImageFix"/>
<feColorMatrix in="SourceAlpha" type="matrix" values="0 0 0 0 0 0 0 0 0 0 0 0 0 0 0 0 0 0 127 0" result="hardAlpha"/>
<feOffset dy="8"/>
<feGaussianBlur stdDeviation="6"/>
<feColorMatrix type="matrix" values="0 0 0 0 0.577255 0 0 0 0 0.610719 0 0 0 0 0.64 0 0 0 0.12 0"/>
<feBlend mode="normal" in2="BackgroundImageFix" result="effect1_dropShadow"/>
<feColorMatrix in="SourceAlpha" type="matrix" values="0 0 0 0 0 0 0 0 0 0 0 0 0 0 0 0 0 0 127 0" result="hardAlpha"/>
<feOffset/>
<feGaussianBlur stdDeviation="1"/>
<feColorMatrix type="matrix" values="0 0 0 0 0.576471 0 0 0 0 0.611765 0 0 0 0 0.639216 0 0 0 0.36 0"/>
<feBlend mode="normal" in2="effect1_dropShadow" result="effect2_dropShadow"/>
<feBlend mode="normal" in="SourceGraphic" in2="effect2_dropShadow" result="shape"/>
</filter>
<linearGradient id="paint0_linear" x1="42" y1="106.427" x2="303.3" y2="37.36" gradientUnits="userSpaceOnUse">
<stop stop-color="#9F9F9F"/>
<stop offset="1" stop-color="#BBBCC2"/>
</linearGradient>
</defs>
</svg>
