<svg width="81" height="155" viewBox="0 0 81 155" fill="none" xmlns="http://www.w3.org/2000/svg">
<path d="M78.9254 85.0131L64.3429 78.2534C63.7499 77.9743 63.2463 77.5369 62.8882 76.9901C62.5301 76.4432 62.3314 75.8082 62.3144 75.1558C62.2719 73.4552 62.1513 71.7477 61.9669 70.033C61.6374 66.9013 61.0563 63.8008 60.2292 60.7613C60.042 60.0831 60.0628 59.3647 60.2891 58.6983C60.5153 58.0319 60.9365 57.448 61.4987 57.0216L74.8612 46.8961C75.5575 46.3747 76.0295 45.6104 76.1822 44.7568C76.3348 43.9032 76.1568 43.0238 75.684 42.2955L67.4566 29.4181C67.0088 28.7134 66.3154 28.1978 65.5093 27.9699C64.7032 27.7421 63.8408 27.8181 63.0875 28.1833L49.2002 34.9642C48.5387 35.2961 47.7873 35.4067 47.0576 35.2796C46.3279 35.1524 45.659 34.7944 45.1503 34.2586C40.605 29.5534 35.3383 25.5951 29.5465 22.5314C28.8641 22.1595 28.3237 21.5746 28.0084 20.8669C27.6931 20.1592 27.6204 19.368 27.8017 18.6152L30.0572 9.52698C30.2642 8.68487 30.1523 7.79642 29.7428 7.03116C29.3333 6.2659 28.655 5.67741 27.8372 5.37799L13.4959 0.219985C13.2116 0.110361 12.9131 0.0414796 12.6093 0.0153733C11.8979 -0.0520693 11.1831 0.103495 10.565 0.460299C9.94691 0.817102 9.4565 1.35729 9.16233 2.0052L4.09109 12.8363L2.84278 15.4541C-3.93474 15.2374 -10.7024 16.1216 -17.1939 18.0719C-17.8655 18.2819 -18.5859 18.2799 -19.2564 18.0664C-19.9269 17.8529 -20.5145 17.4383 -20.9388 16.8795L-29.1308 6.16125C-29.6695 5.45609 -30.455 4.97829 -31.3314 4.82273C-32.2078 4.66717 -33.111 4.84524 -33.8615 5.32157L-43.7912 11.5733L-46.6283 13.3655C-47.379 13.8361 -47.9288 14.5659 -48.1722 15.4148C-48.4157 16.2637 -48.3356 17.1722 -47.9475 17.9661L-42.2734 29.5169C-41.9422 30.1586 -41.8243 30.8882 -41.9364 31.6008C-42.0486 32.3134 -42.3851 32.9722 -42.8975 33.4824C-45.9975 36.6009 -48.7534 40.0404 -51.118 43.742C-51.3449 44.0454 -51.5222 44.3489 -51.7208 44.6664C-51.7811 44.7745 -51.8523 44.8762 -51.9335 44.9698C-52.3501 45.5203 -52.9219 45.9351 -53.5762 46.1613C-54.2305 46.3875 -54.9376 46.4148 -55.6076 46.2399L-70.4454 42.6342C-70.6098 42.5873 -70.7784 42.5565 -70.9489 42.5425C-71.7266 42.4712 -72.5062 42.6574 -73.1666 43.072C-73.8271 43.4867 -74.3316 44.1067 -74.6016 44.8357L-79.7934 59.0467C-80.0912 59.8761 -80.0663 60.7863 -79.7238 61.5985C-79.3812 62.4106 -78.7457 63.0659 -77.9422 63.4356L-62.7357 70.4493C-62.1049 70.7355 -61.5757 71.2046 -61.2175 71.7951C-60.8593 72.3856 -60.6888 73.0701 -60.7284 73.7587C-60.8697 76.9206 -60.7677 80.0886 -60.4235 83.235C-60.2391 84.9332 -59.986 86.6102 -59.6645 88.266C-59.537 88.9212 -59.5964 89.5989 -59.8358 90.2224C-60.0752 90.8458 -60.4851 91.3902 -61.0192 91.7941L-73.8498 101.539C-74.538 102.058 -75.0047 102.816 -75.1571 103.661C-75.3095 104.507 -75.1366 105.379 -74.6725 106.104L-66.5302 118.861C-66.0544 119.611 -65.3166 120.159 -64.459 120.4C-63.6013 120.641 -62.6843 120.558 -61.8845 120.167L-50.898 114.804C-50.1901 114.461 -49.3877 114.363 -48.6172 114.523C-47.8467 114.684 -47.152 115.096 -46.6425 115.693C-42.5551 120.598 -37.7293 124.844 -32.3366 128.281C-31.7098 128.676 -31.2234 129.257 -30.9461 129.942C-30.6687 130.627 -30.6143 131.381 -30.7905 132.098L-34.0744 145.406C-34.2784 146.268 -34.1588 147.174 -33.7382 147.953C-33.3175 148.733 -32.6249 149.333 -31.7906 149.64L-17.5556 154.791C-16.7343 155.088 -15.8306 155.068 -15.0238 154.733C-14.2171 154.399 -13.5663 153.774 -13.2007 152.984L-12.9029 152.357L-7.02308 139.768C-6.72015 139.111 -6.22162 138.563 -5.59495 138.197C-4.96828 137.831 -4.24368 137.665 -3.51929 137.722C0.118309 137.975 3.77126 137.904 7.39619 137.51C9.36794 137.299 11.2901 136.988 13.2051 136.6C13.8584 136.453 14.5404 136.497 15.1694 136.726C15.7984 136.955 16.3477 137.36 16.7514 137.892L25.0639 148.814C25.6112 149.531 26.4086 150.018 27.2987 150.178C28.1889 150.339 29.1073 150.162 29.8728 149.682L42.6395 141.617C42.9861 141.389 43.2948 141.108 43.5545 140.785C43.9495 140.262 44.1932 139.642 44.2595 138.991C44.3257 138.341 44.2119 137.685 43.9303 137.094L39.3627 127.879C39.0912 127.321 38.97 126.703 39.011 126.084C39.052 125.466 39.2538 124.868 39.5967 124.351C39.7835 124.077 40.0052 123.828 40.2564 123.61C46.5628 118.367 51.7523 111.924 55.5197 104.657C55.8778 103.968 56.4586 103.418 57.1688 103.097C57.879 102.776 58.6771 102.701 59.4348 102.886L71.4497 105.822C72.2942 106.024 73.1838 105.91 73.9499 105.503C74.716 105.096 75.3053 104.424 75.606 103.613L75.7266 103.288L80.7978 89.4373C81.0926 88.6001 81.0642 87.6839 80.7182 86.8664C80.3722 86.0489 79.7333 85.3884 78.9254 85.0131ZM-31.9608 70.7316C-31.5305 68.2108 -30.8656 65.7352 -29.9748 63.3368C-28.2016 58.5669 -23.2155 52.3575 -18.889 49.6268C-18.428 49.3304 -17.967 49.0552 -17.4705 48.7801C10.9567 32.1982 42.9657 58.2846 31.7168 89.5996C30.2345 93.6851 26.5321 98.702 22.7446 101.969C21.9217 102.674 21.0496 103.32 20.1346 103.902C16.4574 106.218 12.4078 107.889 8.16225 108.842C-14.6334 113.915 -35.9043 94.8846 -31.9608 70.7316Z" fill="#F3F5FC"/>
</svg>
