<svg width="129" height="217" viewBox="0 0 129 217" fill="none" xmlns="http://www.w3.org/2000/svg">
<path d="M223.088 119.018L202.618 109.555C201.786 109.164 201.079 108.552 200.576 107.786C200.073 107.02 199.794 106.132 199.771 105.218C199.711 102.837 199.542 100.447 199.283 98.0462C198.82 93.6618 198.005 89.3211 196.844 85.0659C196.581 84.1163 196.61 83.1105 196.928 82.1776C197.245 81.2447 197.836 80.4272 198.626 79.8302L217.383 65.6545C218.36 64.9246 219.023 63.8545 219.237 62.6595C219.451 61.4645 219.202 60.2333 218.538 59.2137L206.989 41.1854C206.36 40.1988 205.387 39.4769 204.255 39.1579C203.124 38.839 201.913 38.9453 200.856 39.4566L181.362 48.9499C180.433 49.4146 179.378 49.5694 178.354 49.3914C177.33 49.2134 176.391 48.7122 175.677 47.9621C169.297 41.3747 161.904 35.8332 153.773 31.544C152.816 31.0233 152.057 30.2044 151.614 29.2137C151.172 28.2229 151.07 27.1152 151.324 26.0613L154.49 13.3378C154.781 12.1588 154.624 10.915 154.049 9.84363C153.474 8.77226 152.522 7.94837 151.374 7.52919L131.243 0.307979C130.844 0.154506 130.425 0.0580715 129.998 0.0215227C129 -0.072897 127.996 0.144892 127.129 0.644418C126.261 1.14394 125.572 1.9002 125.16 2.80728L118.041 17.9708L116.289 21.6358C106.775 21.3323 97.2748 22.5702 88.1626 25.3007C87.2199 25.5946 86.2086 25.5919 85.2674 25.293C84.3263 24.9941 83.5013 24.4137 82.9058 23.6313L71.4064 8.62575C70.6503 7.63853 69.5476 6.9696 68.3174 6.75182C67.0871 6.53404 65.8193 6.78333 64.7658 7.4502L50.8272 16.2026L46.8448 18.7117C45.7909 19.3706 45.0192 20.3922 44.6775 21.5807C44.3358 22.7692 44.4481 24.0411 44.993 25.1525L52.9579 41.3237C53.4227 42.222 53.5883 43.2435 53.4309 44.2411C53.2734 45.2388 52.8011 46.1611 52.0817 46.8754C47.7302 51.2413 43.8617 56.0565 40.5425 61.2388C40.2239 61.6636 39.975 62.0884 39.6963 62.5329C39.6117 62.6843 39.5117 62.8267 39.3976 62.9577C38.8129 63.7285 38.0102 64.3091 37.0918 64.6258C36.1734 64.9425 35.1808 64.9808 34.2403 64.7358L13.4121 59.6879C13.1813 59.6222 12.9446 59.5791 12.7053 59.5595C11.6136 59.4597 10.5193 59.7203 9.59217 60.3009C8.66504 60.8814 7.95694 61.7494 7.57785 62.77L0.290038 82.6654C-0.127952 83.8266 -0.0930902 85.1009 0.387752 86.2379C0.868594 87.3749 1.76063 88.2923 2.88857 88.8098L24.2344 98.6291C25.1199 99.0297 25.8627 99.6864 26.3655 100.513C26.8683 101.34 27.1076 102.298 27.0521 103.262C26.8538 107.689 26.9968 112.124 27.4801 116.529C27.739 118.906 28.0941 121.254 28.5455 123.572C28.7244 124.49 28.6411 125.438 28.3051 126.311C27.969 127.184 27.3936 127.946 26.6438 128.512L8.63326 142.154C7.66719 142.881 7.01206 143.942 6.79809 145.126C6.58412 146.31 6.82695 147.531 7.47832 148.545L18.9079 166.406C19.5758 167.455 20.6114 168.223 21.8154 168.56C23.0193 168.897 24.3066 168.781 25.4292 168.233L40.8512 160.726C41.8449 160.246 42.9713 160.107 44.0529 160.333C45.1345 160.558 46.1097 161.134 46.8249 161.97C52.5625 168.837 59.3365 174.782 66.9064 179.594C67.7863 180.147 68.469 180.96 68.8583 181.919C69.2477 182.878 69.3241 183.934 69.0767 184.938L64.467 203.569C64.1806 204.775 64.3485 206.043 64.939 207.135C65.5294 208.226 66.5017 209.066 67.6729 209.496L87.6549 216.707C88.8077 217.124 90.0763 217.095 91.2088 216.626C92.3412 216.158 93.2548 215.284 93.7679 214.178L94.186 213.299L102.44 195.676C102.865 194.756 103.565 193.988 104.444 193.475C105.324 192.963 106.341 192.731 107.358 192.811C112.464 193.165 117.592 193.066 122.68 192.515C125.448 192.218 128.146 191.784 130.834 191.24C131.752 191.035 132.709 191.096 133.592 191.417C134.475 191.737 135.246 192.304 135.813 193.048L147.481 208.34C148.249 209.344 149.369 210.025 150.618 210.25C151.868 210.475 153.157 210.227 154.231 209.555L172.152 198.264C172.639 197.944 173.072 197.551 173.437 197.098C173.991 196.367 174.333 195.499 174.426 194.588C174.519 193.677 174.36 192.759 173.964 191.932L167.553 179.031C167.171 178.25 167.001 177.384 167.059 176.518C167.117 175.652 167.4 174.816 167.881 174.091C168.143 173.707 168.455 173.359 168.807 173.054C177.66 165.714 184.944 156.693 190.233 146.52C190.735 145.555 191.551 144.785 192.548 144.336C193.544 143.886 194.665 143.782 195.728 144.041L212.594 148.15C213.779 148.433 215.028 148.275 216.104 147.705C217.179 147.135 218.006 146.193 218.428 145.058L218.598 144.604L225.716 125.212C226.13 124.04 226.09 122.757 225.604 121.613C225.119 120.468 224.222 119.544 223.088 119.018ZM67.434 99.0243C68.038 95.4951 68.9713 92.0293 70.2217 88.6715C72.7107 81.9936 79.7099 73.3005 85.7831 69.4775C86.4303 69.0626 87.0774 68.6773 87.7743 68.2921C127.678 45.0775 172.61 81.5985 156.82 125.439C154.739 131.159 149.542 138.183 144.225 142.757C143.07 143.744 141.846 144.648 140.562 145.463C135.4 148.706 129.715 151.044 123.756 152.378C91.7568 159.481 61.8984 132.838 67.434 99.0243Z" fill="#F3F5FC"/>
</svg>
