<svg width="80" height="80" viewBox="0 0 80 80" fill="none" xmlns="http://www.w3.org/2000/svg">
<path d="M0 0V80H80V0H0ZM7.27273 7.27273H72.7273V72.7273H7.27273V7.27273ZM36.3636 21.8182C30.3835 21.8182 25.4545 26.7472 25.4545 32.7273V34.5455H32.7273V32.7273C32.7273 30.7102 34.3466 29.0909 36.3636 29.0909H43.6364C45.6534 29.0909 47.2727 30.7102 47.2727 32.7273C47.2727 34.7443 45.6534 36.3636 43.6364 36.3636H36.3636V43.6364H43.6364C45.6534 43.6364 47.2727 45.483 47.2727 46.9318V47.2727C47.2727 49.2898 45.6534 50.9091 43.6364 50.9091H36.3636C34.3466 50.9091 32.7273 49.2898 32.7273 47.2727V45.4545H25.4545V47.2727C25.4545 53.2528 30.3835 58.1818 36.3636 58.1818H43.6364C49.6165 58.1818 54.5455 53.2528 54.5455 47.2727V46.9318C54.5455 44.2756 53.5085 41.8608 51.8182 40C53.5369 38.0682 54.5455 35.4972 54.5455 32.7273C54.5455 26.7472 49.6165 21.8182 43.6364 21.8182H36.3636Z" fill="#CED3D6"/>
</svg>
