<svg width="346" height="454" viewBox="0 0 346 454" fill="none" xmlns="http://www.w3.org/2000/svg">
<path d="M339.918 249.006L297.167 229.207C295.428 228.389 293.952 227.108 292.902 225.506C291.852 223.905 291.27 222.045 291.22 220.134C291.095 215.153 290.742 210.151 290.201 205.129C289.235 195.956 287.532 186.875 285.107 177.972C284.558 175.985 284.619 173.881 285.282 171.929C285.945 169.977 287.18 168.267 288.829 167.018L328.003 137.36C330.044 135.833 331.428 133.594 331.876 131.094C332.323 128.594 331.801 126.018 330.415 123.885L306.295 86.1666C304.982 84.1025 302.95 82.5922 300.586 81.9249C298.223 81.2575 295.695 81.48 293.486 82.5498L252.773 102.411C250.834 103.384 248.631 103.707 246.492 103.335C244.353 102.963 242.392 101.914 240.9 100.345C227.575 86.5628 212.135 74.969 195.155 65.9952C193.154 64.9058 191.57 63.1927 190.646 61.1199C189.721 59.047 189.508 56.7295 190.04 54.5246L196.652 27.9048C197.259 25.4383 196.931 22.836 195.73 20.5945C194.53 18.353 192.541 16.6293 190.144 15.7523L148.1 0.644342C147.266 0.323251 146.391 0.121495 145.501 0.045029C143.415 -0.152513 141.319 0.303139 139.507 1.34823C137.695 2.39332 136.258 3.97554 135.395 5.87329L120.528 37.5979L116.868 45.2656C96.9988 44.6307 77.1581 47.2206 58.1272 52.9333C56.1583 53.5482 54.0462 53.5425 52.0806 52.9172C50.1151 52.2918 48.3921 51.0774 47.1483 49.4405L23.132 18.0465C21.5528 15.9811 19.2499 14.5816 16.6805 14.1259C14.1111 13.6703 11.4634 14.1919 9.26305 15.5871L-19.8475 33.8985L-28.1649 39.148C-30.3659 40.5265 -31.9776 42.6639 -32.6913 45.1504C-33.405 47.637 -33.1703 50.298 -32.0324 52.6233L-15.3978 86.456C-14.4269 88.3354 -14.0811 90.4725 -14.4099 92.5598C-14.7387 94.647 -15.7252 96.5767 -17.2276 98.0711C-26.3158 107.205 -34.395 117.279 -41.3272 128.122C-41.9925 129.011 -42.5123 129.899 -43.0945 130.829C-43.2712 131.146 -43.4801 131.444 -43.7182 131.718C-44.9394 133.331 -46.6159 134.545 -48.534 135.208C-50.4521 135.87 -52.5251 135.951 -54.4892 135.438L-97.9889 124.877C-98.4709 124.739 -98.9653 124.649 -99.4651 124.608C-101.745 124.4 -104.031 124.945 -105.967 126.159C-107.903 127.374 -109.382 129.19 -110.174 131.325L-125.394 172.95C-126.267 175.379 -126.194 178.045 -125.19 180.424C-124.186 182.803 -122.323 184.722 -119.967 185.805L-75.3866 206.348C-73.5372 207.187 -71.9858 208.56 -70.9358 210.29C-69.8857 212.02 -69.3858 214.025 -69.5019 216.042C-69.916 225.303 -69.6172 234.582 -68.6079 243.798C-68.0673 248.772 -67.3255 253.684 -66.3829 258.534C-66.0092 260.453 -66.1831 262.438 -66.885 264.264C-67.5868 266.09 -68.7886 267.685 -70.3545 268.868L-107.969 297.41C-109.987 298.93 -111.355 301.15 -111.802 303.628C-112.249 306.105 -111.742 308.659 -110.382 310.781L-86.5109 348.148C-85.1159 350.344 -82.9531 351.95 -80.4387 352.656C-77.9243 353.361 -75.2359 353.118 -72.8912 351.972L-40.6824 336.265C-38.6071 335.261 -36.2545 334.971 -33.9957 335.443C-31.7369 335.914 -29.7002 337.12 -28.2065 338.869C-16.2235 353.236 -2.07606 365.673 13.7336 375.74C15.5713 376.898 16.9971 378.599 17.8103 380.605C18.6235 382.611 18.783 384.82 18.2664 386.921L8.63914 425.9C8.04088 428.423 8.39154 431.076 9.62474 433.36C10.8579 435.644 12.8885 437.401 15.3345 438.3L57.0668 453.387C59.4745 454.259 62.124 454.199 64.4891 453.219C66.8542 452.238 68.7621 450.41 69.8339 448.097L70.707 446.257L87.9447 409.386C88.8328 407.462 90.2944 405.855 92.1316 404.783C93.9688 403.711 96.093 403.225 98.2168 403.393C108.881 404.134 119.59 403.926 130.217 402.773C135.998 402.153 141.633 401.243 147.247 400.107C149.163 399.676 151.162 399.804 153.006 400.475C154.85 401.146 156.46 402.331 157.644 403.889L182.014 435.882C183.618 437.981 185.956 439.407 188.565 439.878C191.175 440.348 193.867 439.83 196.111 438.424L233.539 414.801C234.556 414.132 235.461 413.309 236.222 412.362C237.38 410.832 238.094 409.016 238.289 407.111C238.483 405.205 238.149 403.284 237.324 401.553L223.933 374.562C223.137 372.928 222.782 371.116 222.902 369.304C223.022 367.493 223.614 365.744 224.619 364.228C225.166 363.424 225.817 362.695 226.553 362.058C245.041 346.702 260.255 327.828 271.3 306.545C272.35 304.525 274.053 302.915 276.135 301.974C278.217 301.033 280.556 300.816 282.778 301.357L318.002 309.955C320.477 310.547 323.085 310.215 325.331 309.023C327.577 307.83 329.305 305.86 330.186 303.486L330.54 302.535L345.407 261.965C346.271 259.513 346.188 256.829 345.174 254.435C344.159 252.04 342.286 250.105 339.918 249.006ZM14.8355 207.175C16.097 199.792 18.0462 192.541 20.6577 185.516C25.856 171.544 40.4737 153.357 53.1576 145.358C54.5092 144.49 55.8607 143.684 57.3163 142.878C140.656 94.3096 234.496 170.718 201.518 262.44C197.172 274.407 186.318 289.101 175.214 298.67C172.802 300.736 170.245 302.628 167.562 304.333C156.782 311.117 144.91 316.01 132.463 318.8C65.6336 333.66 3.27443 277.92 14.8355 207.175Z" fill="#F3F5FC"/>
</svg>
