<svg width="80" height="80" viewBox="0 0 80 80" fill="none" xmlns="http://www.w3.org/2000/svg">
<path d="M0 0V80H80V0H0ZM7.27273 7.27273H72.7273V72.7273H7.27273V7.27273ZM37.8409 21.8182C30.8523 21.8182 25.1136 27.5568 25.1136 34.5455V36.3636H32.3864V34.5455C32.3864 31.3636 34.6591 29.0909 37.8409 29.0909H41.8182C45 29.0909 47.2727 31.3636 47.2727 34.5455C47.2727 36.2074 45.9943 38.1108 43.8636 39.4318C39.375 42.1875 35.4403 43.9489 32.1591 45.7955C30.5114 46.7188 29.0057 47.5994 27.7273 48.9773C26.4489 50.3551 25.4545 52.429 25.4545 54.5455V58.1818H54.5455V50.9091H37.9545C40.625 49.5313 43.7074 48.1534 47.7273 45.6818C51.4205 43.3665 54.5455 39.4318 54.5455 34.5455C54.5455 27.5568 48.8068 21.8182 41.8182 21.8182H37.8409Z" fill="#CED3D6"/>
</svg>
