<svg width="289" height="403" viewBox="0 0 289 403" fill="none" xmlns="http://www.w3.org/2000/svg">
<path d="M413.601 221.034L375.65 203.459C374.107 202.733 372.796 201.596 371.864 200.174C370.932 198.752 370.415 197.101 370.371 195.405C370.26 190.984 369.947 186.544 369.467 182.086C368.609 173.943 367.097 165.882 364.944 157.979C364.457 156.216 364.511 154.348 365.1 152.616C365.689 150.883 366.785 149.365 368.248 148.256L403.024 121.93C404.836 120.574 406.064 118.587 406.462 116.368C406.859 114.148 406.396 111.862 405.165 109.968L383.753 76.4871C382.588 74.6549 380.784 73.3142 378.686 72.7219C376.588 72.1295 374.344 72.327 372.383 73.2766L336.241 90.907C334.52 91.77 332.564 92.0575 330.665 91.7269C328.766 91.3964 327.026 90.4654 325.702 89.0724C313.873 76.8388 300.166 66.5473 285.093 58.5817C283.317 57.6146 281.911 56.0939 281.09 54.254C280.27 52.414 280.08 50.3568 280.552 48.3996L286.422 24.7701C286.961 22.5807 286.67 20.2707 285.604 18.281C284.538 16.2913 282.773 14.7613 280.645 13.9828L243.322 0.57196C242.582 0.286939 241.805 0.107847 241.014 0.0399707C239.163 -0.13538 237.303 0.269086 235.694 1.19678C234.085 2.12447 232.809 3.52895 232.044 5.21351L218.846 33.3744L215.597 40.1807C197.959 39.6171 180.346 41.9161 163.452 46.9871C161.704 47.5328 159.829 47.5278 158.084 46.9727C156.339 46.4176 154.81 45.3397 153.706 43.8866L132.386 16.0193C130.984 14.1858 128.94 12.9435 126.659 12.5391C124.378 12.1346 122.028 12.5976 120.075 13.8361L94.2328 30.0905L86.8494 34.7503C84.8956 35.974 83.4648 37.8712 82.8312 40.0785C82.1977 42.2857 82.406 44.6478 83.4162 46.7118L98.1829 76.744C99.0447 78.4123 99.3518 80.3093 99.0599 82.1621C98.768 84.0148 97.8922 85.7277 96.5586 87.0543C88.4909 95.1624 81.3188 104.105 75.1651 113.729C74.5744 114.518 74.113 115.307 73.5962 116.133C73.4393 116.414 73.2539 116.678 73.0425 116.921C71.9585 118.353 70.4702 119.431 68.7675 120.019C67.0648 120.607 65.2245 120.679 63.481 120.224L24.8658 110.849C24.4379 110.727 23.999 110.647 23.5554 110.61C21.5314 110.425 19.5026 110.909 17.7837 111.987C16.0648 113.065 14.752 114.677 14.0492 116.573L0.537726 153.521C-0.237221 155.678 -0.172588 158.044 0.718885 160.156C1.61036 162.268 3.26417 163.971 5.35535 164.933L44.9301 183.168C46.5718 183.912 47.949 185.132 48.8812 186.667C49.8133 188.203 50.2571 189.982 50.154 191.773C49.7864 199.993 50.0516 208.23 50.9476 216.411C51.4275 220.826 52.086 225.186 52.9228 229.492C53.2545 231.195 53.1001 232.957 52.4771 234.578C51.8541 236.199 50.7872 237.615 49.3972 238.665L16.0059 264C14.2148 265.35 13.0002 267.32 12.6035 269.52C12.2068 271.719 12.657 273.985 13.8647 275.87L35.0549 309.039C36.2933 310.988 38.2132 312.413 40.4453 313.04C42.6774 313.667 45.0639 313.451 47.1453 312.433L75.7374 298.49C77.5797 297.599 79.6681 297.342 81.6733 297.761C83.6785 298.18 85.4865 299.249 86.8125 300.802C97.4499 313.555 110.009 324.595 124.043 333.531C125.675 334.559 126.94 336.069 127.662 337.85C128.384 339.63 128.526 341.591 128.067 343.456L119.521 378.056C118.99 380.296 119.301 382.651 120.396 384.679C121.49 386.706 123.293 388.266 125.464 389.064L162.511 402.456C164.648 403.23 167 403.176 169.099 402.306C171.199 401.436 172.893 399.813 173.844 397.76L174.619 396.127L189.921 363.398C190.71 361.689 192.007 360.263 193.638 359.311C195.269 358.36 197.155 357.929 199.04 358.078C208.507 358.735 218.013 358.551 227.447 357.527C232.579 356.977 237.581 356.17 242.565 355.161C244.265 354.779 246.04 354.893 247.677 355.488C249.314 356.083 250.743 357.136 251.794 358.518L273.427 386.917C274.852 388.781 276.927 390.046 279.243 390.464C281.56 390.882 283.95 390.421 285.942 389.174L319.167 368.205C320.069 367.61 320.873 366.88 321.549 366.04C322.577 364.681 323.211 363.069 323.383 361.378C323.556 359.687 323.26 357.981 322.527 356.445L310.64 332.485C309.933 331.035 309.618 329.427 309.724 327.819C309.831 326.211 310.356 324.658 311.249 323.312C311.735 322.599 312.312 321.952 312.965 321.386C329.378 307.755 342.883 291.001 352.688 272.109C353.62 270.316 355.132 268.887 356.98 268.052C358.828 267.217 360.905 267.024 362.877 267.504L394.146 275.136C396.343 275.661 398.658 275.367 400.652 274.309C402.646 273.25 404.18 271.501 404.962 269.394L405.276 268.55L418.474 232.537C419.241 230.36 419.167 227.978 418.267 225.853C417.366 223.727 415.703 222.01 413.601 221.034ZM125.021 183.902C126.141 177.348 127.872 170.911 130.19 164.676C134.804 152.274 147.781 136.13 159.04 129.03C160.24 128.259 161.44 127.544 162.732 126.828C236.714 83.7154 320.016 151.54 290.741 232.959C286.884 243.581 277.248 256.625 267.391 265.119C265.25 266.953 262.98 268.632 260.599 270.146C251.029 276.167 240.49 280.511 229.441 282.988C170.115 296.179 114.758 246.7 125.021 183.902Z" fill="#F3F5FC"/>
</svg>
