<svg width="495" height="476" viewBox="0 0 495 476" fill="none" xmlns="http://www.w3.org/2000/svg">
<path d="M488.621 261.073L443.787 240.314C441.964 239.456 440.416 238.113 439.315 236.434C438.214 234.755 437.603 232.805 437.551 230.801C437.42 225.579 437.049 220.335 436.482 215.069C435.469 205.452 433.682 195.93 431.14 186.596C430.564 184.513 430.628 182.307 431.323 180.261C432.019 178.214 433.314 176.421 435.043 175.111L476.126 144.016C478.267 142.415 479.718 140.068 480.187 137.447C480.657 134.825 480.109 132.125 478.656 129.888L453.36 90.3421C451.983 88.178 449.852 86.5945 447.373 85.8948C444.895 85.1951 442.244 85.4284 439.927 86.55L397.23 107.374C395.197 108.393 392.886 108.733 390.643 108.342C388.399 107.952 386.343 106.852 384.779 105.207C370.804 90.7575 354.612 78.6018 336.805 69.1932C334.707 68.051 333.045 66.2549 332.075 64.0816C331.106 61.9083 330.883 59.4785 331.44 57.1668L338.375 29.257C339.011 26.6709 338.667 23.9426 337.408 21.5925C336.149 19.2424 334.063 17.4351 331.549 16.5156L287.456 0.675566C286.582 0.338915 285.665 0.127383 284.731 0.047211C282.543 -0.159903 280.346 0.317829 278.445 1.41356C276.545 2.5093 275.037 4.16819 274.133 6.1579L258.541 39.4198L254.703 47.4591C233.865 46.7934 213.058 49.5088 193.1 55.4984C191.035 56.143 188.82 56.1371 186.758 55.4814C184.697 54.8258 182.89 53.5526 181.586 51.8363L156.399 18.921C154.743 16.7555 152.328 15.2882 149.633 14.8104C146.939 14.3327 144.162 14.8796 141.854 16.3424L111.325 35.5411L102.603 41.045C100.294 42.4903 98.604 44.7313 97.8555 47.3383C97.1071 49.9454 97.3531 52.7353 98.5466 55.1733L115.992 90.6455C117.01 92.616 117.373 94.8567 117.028 97.045C116.683 99.2334 115.648 101.257 114.073 102.823C104.542 112.4 96.0688 122.963 88.7988 134.33C88.101 135.262 87.5559 136.194 86.9453 137.169C86.7601 137.501 86.541 137.813 86.2913 138.101C85.0106 139.791 83.2524 141.065 81.2408 141.76C79.2293 142.454 77.0552 142.538 74.9954 142.001L29.3761 130.928C28.8706 130.784 28.3521 130.69 27.8279 130.647C25.4368 130.428 23.04 130.999 21.0094 132.273C18.9787 133.546 17.4278 135.45 16.5975 137.689L0.63526 181.331C-0.280249 183.878 -0.203892 186.673 0.849279 189.167C1.90245 191.661 3.85624 193.673 6.32673 194.809L53.0798 216.348C55.0192 217.226 56.6462 218.667 57.7475 220.48C58.8487 222.294 59.3729 224.396 59.2512 226.51C58.8169 236.221 59.1302 245.949 60.1887 255.612C60.7557 260.827 61.5336 265.977 62.5222 271.062C62.9141 273.074 62.7317 275.155 61.9956 277.07C61.2596 278.985 59.9992 280.656 58.357 281.897L18.9091 311.821C16.7932 313.416 15.3583 315.743 14.8896 318.341C14.421 320.938 14.9528 323.616 16.3795 325.841L41.4133 365.019C42.8763 367.321 45.1445 369.004 47.7815 369.745C50.4184 370.485 53.2378 370.229 55.6967 369.028L89.475 352.559C91.6514 351.507 94.1186 351.204 96.4876 351.698C98.8565 352.192 100.992 353.456 102.559 355.29C115.126 370.353 129.963 383.393 146.543 393.947C148.47 395.161 149.965 396.945 150.818 399.049C151.671 401.152 151.838 403.468 151.296 405.67L141.2 446.538C140.573 449.183 140.94 451.965 142.234 454.36C143.527 456.755 145.656 458.597 148.222 459.539L191.987 475.358C194.513 476.271 197.291 476.208 199.771 475.181C202.252 474.153 204.253 472.236 205.377 469.81L206.292 467.882L224.37 429.224C225.301 427.206 226.834 425.521 228.761 424.398C230.688 423.274 232.915 422.765 235.143 422.94C246.326 423.717 257.558 423.499 268.703 422.29C274.765 421.64 280.674 420.687 286.562 419.495C288.571 419.044 290.668 419.178 292.602 419.882C294.536 420.585 296.224 421.828 297.466 423.46L323.023 457.004C324.705 459.205 327.157 460.7 329.894 461.193C332.631 461.687 335.454 461.143 337.808 459.669L377.059 434.902C378.125 434.2 379.074 433.337 379.872 432.345C381.087 430.74 381.836 428.836 382.04 426.838C382.244 424.841 381.894 422.826 381.028 421.012L366.985 392.712C366.15 390.999 365.777 389.1 365.903 387.2C366.03 385.301 366.65 383.467 367.704 381.878C368.278 381.035 368.96 380.27 369.732 379.602C389.122 363.503 405.077 343.714 416.66 321.399C417.761 319.282 419.547 317.594 421.73 316.607C423.914 315.621 426.367 315.393 428.697 315.96L465.637 324.975C468.234 325.595 470.969 325.247 473.324 323.997C475.68 322.747 477.491 320.682 478.416 318.192L478.787 317.195L494.378 274.659C495.285 272.088 495.197 269.274 494.134 266.764C493.07 264.253 491.105 262.225 488.621 261.073ZM147.698 217.214C149.021 209.473 151.065 201.871 153.804 194.505C159.256 179.857 174.586 160.788 187.888 152.402C189.305 151.492 190.723 150.647 192.249 149.802C279.65 98.8797 378.062 178.99 343.477 275.158C338.92 287.704 327.537 303.111 315.892 313.143C313.362 315.309 310.68 317.293 307.867 319.081C296.561 326.193 284.111 331.323 271.058 334.249C200.972 349.829 135.574 291.388 147.698 217.214Z" fill="white"/>
</svg>
